<svg width="37" height="16" xmlns="http://www.w3.org/2000/svg"><g fill="none" fill-rule="evenodd"><path d="M-1-2h20v20H-1z"/><path d="M9 14.56l6.848-6.848a3.93 3.93 0 1 0-5.56-5.56L9 3.44 7.712 2.15a3.931 3.931 0 1 0-5.56 5.561L9 14.56zM9 2.025l.581-.58a4.931 4.931 0 1 1 6.974 6.974L9.29 15.685a.41.41 0 0 1-.578 0L1.445 8.419a4.93 4.93 0 1 1 6.974-6.975L9 2.025z" fill="#4A4A4A" fill-rule="nonzero"/><g><path d="M18-2h20v20H18z"/><path d="M28 2.025l.581-.58a4.931 4.931 0 1 1 6.974 6.974l-7.266 7.266a.41.41 0 0 1-.578 0l-7.266-7.266a4.93 4.93 0 1 1 6.974-6.975l.581.581z" fill="#604DD5" fill-rule="nonzero"/></g></g></svg>