<svg width="30" height="30" xmlns="http://www.w3.org/2000/svg"><path d="M14.91 25.5c-5.8 0-10.5-4.701-10.5-10.5s4.7-10.5 10.5-10.5c5.799 0 10.5 4.701 10.5 10.5s-4.701 10.5-10.5 10.5zm0-1a9.5 9.5 0 1 0 0-19 9.5 9.5 0 0 0 0 19zm-10.147.768a.5.5 0 0 1-.707-.707l1.415-1.415a.5.5 0 0 1 .707.708l-1.415 1.414zm19-18a.5.5 0 0 1-.707-.707l1.415-1.415a.5.5 0 0 1 .707.708l-1.415 1.415zm-18.292 0L4.056 5.855a.5.5 0 1 1 .707-.708l1.415 1.415a.5.5 0 1 1-.707.708zm19 18l-1.415-1.414a.5.5 0 1 1 .707-.708l1.415 1.415a.5.5 0 1 1-.707.707zm2.439-9.414a.5.5 0 1 1 0-1h2a.5.5 0 1 1 0 1h-2zm-26.203 0a.5.5 0 1 1 0-1h2a.5.5 0 1 1 0 1h-2zM14.41 3V1a.5.5 0 1 1 1 0v2a.5.5 0 1 1-1 0zm0 26.203v-2a.5.5 0 1 1 1 0v2a.5.5 0 1 1-1 0z" fill="#4A4A4A" fill-rule="nonzero"/></svg>