<svg width="32" height="37" xmlns="http://www.w3.org/2000/svg"><g fill="#4A4A4A" fill-rule="evenodd"><path d="M1 2a1 1 0 1 1 0-2h30a1 1 0 0 1 0 2H1zm0 8a1 1 0 1 1 0-2h30a1 1 0 0 1 0 2H1zm0 8a1 1 0 0 1 0-2h30a1 1 0 0 1 0 2H1z" fill-rule="nonzero"/><path d="M5.25 34.516a.776.776 0 0 1-.686-.392l-2.198-3.906v5.096a.807.807 0 0 1-.798.798.807.807 0 0 1-.798-.798v-8.05c0-.434.364-.798.798-.798.35 0 .574.196.714.448l2.968 5.32 2.968-5.32c.14-.252.364-.448.714-.448.434 0 .798.364.798.798v8.05a.807.807 0 0 1-.798.798.807.807 0 0 1-.798-.798v-5.096l-2.198 3.906a.776.776 0 0 1-.686.392zm6.14-1.722c0-2.142 1.12-3.346 3.024-3.346 2.366 0 2.8 1.82 2.8 2.786 0 .518 0 1.12-.854 1.12h-3.458c0 1.008.714 1.47 1.638 1.47.616 0 1.05-.21 1.386-.434.154-.098.266-.154.448-.154.364 0 .658.294.658.658a.7.7 0 0 1-.238.518c-.238.224-.98.77-2.254.77-1.946 0-3.15-1.05-3.15-3.388zm3.024-2.058c-.812 0-1.4.462-1.47 1.358h2.772c0-.686-.392-1.358-1.302-1.358zm7.554-1.288c1.904 0 2.352 1.218 2.352 2.436v3.5c0 .42-.336.728-.756.728-.448 0-.756-.308-.756-.728v-3.22c0-.798-.322-1.344-1.232-1.344-1.05 0-1.4.616-1.4 1.442v3.122c0 .42-.322.728-.756.728s-.756-.308-.756-.728v-5.096c0-.42.336-.756.756-.756s.756.336.756.756c.266-.406.854-.84 1.792-.84zm4.698.084c.42 0 .756.336.756.756v3.262c0 .644.224 1.26 1.26 1.26 1.022 0 1.246-.616 1.246-1.26v-3.262c0-.42.336-.756.756-.756s.756.336.756.756v3.262c0 1.372-.518 2.632-2.758 2.632-2.254 0-2.772-1.26-2.772-2.632v-3.262c0-.42.336-.756.756-.756z"/></g></svg>