<svg xmlns="http://www.w3.org/2000/svg" class="c-banner-v2__cityscape c-banner-v2__cityscape--right" viewBox="0 0 407 374">
  <g fill="none">
    <path fill="#EDF1FE" d="M206.6 97.17h50v261h-50zm60.02 73h50v188h-50zM65.76 272.69h50v99.48h-50z"/>
    <path fill="#FFF" d="M408.44 143.38v-6.18l-3.84-.11v-13.98h-22.36v6.75h-72.92v-6.75h-22.36v14.09h-4.05v6.18h3.84v106.57h-3.84v6.17h3.84v42.89l-.58-.02-17.61-2.98v-15.96l-13.05-.11v13.87l-57.92-9.78-.09-30.85h7.56l-8.04-42.68h-19.49v-16.94h-.99v-1.17h-12.47v18.11h-74.2l-7.57 42.68h8.29v120.68l313.52-1.88h.49v-61.11h3.84v-6.18h-3.84v-48.57h3.84v-6.17h-3.84V143.38z"/>
    <g fill="#E1E8FF">
      <path d="M90.59 252.86h107v6h-107zm314.01-100.3v-8h-118v8h22.59v103.56h-22.57v6h22.59v48.75h-22.3v-11.64l-8-1V373h8v-56.13H404.6v-6h-22.25v-48.75h22.25v-6h-22.25V152.56h22.25zm-27.37 158.31h-62.9v-48.75h62.9v48.75zm0-54.75h-62.9V152.56h62.9v103.56zM198.09 371.94h8v-86.75l-8-1zm-90.5-70.87H137v4.79h-29.41zm0 60.01H137v4.79h-29.41zm43.96-60.01h29.41v4.79h-29.41zm19.13-107.97h5.87v16.58h-5.87zm91.66 101.03l5.87 2v-16.59h-5.87zm129.87 54.99a7.22 7.22 0 0 1 .55 2.75v4.06a7.28 7.28 0 0 1-10.06 6.75 7.3 7.3 0 0 0 14.06-2.75v-4.06a7.32 7.32 0 0 0-4.55-6.75z"/>
      <path d="M303.92 349.12a7.22 7.22 0 0 1 .55 2.75v4.06a7.32 7.32 0 0 1-7.3 7.3 7.22 7.22 0 0 1-2.75-.55 7.29 7.29 0 0 0 14.05-2.75v-4.06a7.32 7.32 0 0 0-4.55-6.75z"/>
    </g>
    <path fill="#333" d="M340.23 293.73h-14.67a.5.5 0 0 1-.5-.5v-24a.51.51 0 0 1 .5-.5h14.67a.51.51 0 0 1 .5.5v24a.5.5 0 0 1-.5.5zm-14.17-1h13.67v-23h-13.67v23zm38.39 1h-14.66a.5.5 0 0 1-.5-.5v-24a.5.5 0 0 1 .5-.5h14.66a.5.5 0 0 1 .5.5v24a.5.5 0 0 1-.5.5zm-14.16-1H364v-23h-13.71v23zm105.3 81.1h-454a1 1 0 1 1 0-2h454a1 1 0 1 1 0 2z"/>
    <path fill="#333" d="M90.76 373.61a1 1 0 0 1-1-1V254a1 1 0 1 1 2 0v118.6a1 1 0 0 1-1 1.01zm107.12 0a1 1 0 0 1-1-1V254a1 1 0 1 1 2 0v118.6a1 1 0 0 1-1 1.01zm-19.02-.33a1 1 0 0 1-1-1v-38.17h-23v38.17a1 1 0 1 1-2 0v-39.17a1 1 0 0 1 1-1h25a1 1 0 0 1 1 1v39.17a1 1 0 0 1-1 1zm-.13-75.56a.5.5 0 0 1-.5-.5v-23.46h-23.95v23.46a.5.5 0 0 1-1 0v-24a.5.5 0 0 1 .5-.5h24.95a.5.5 0 0 1 .5.5v24a.5.5 0 0 1-.5.5z"/>
    <path fill="#333" d="M180.48 302.1H152a.51.51 0 0 1-.5-.5v-4.27a.5.5 0 0 1 .5-.5h28.45a.5.5 0 0 1 .5.5v4.27a.5.5 0 0 1-.47.5zm-27.95-1H180v-3.27h-27.47v3.27zm-17.79-3.38a.5.5 0 0 1-.5-.5v-23.46H110.3v23.46a.5.5 0 0 1-1 0v-24a.5.5 0 0 1 .5-.5h24.94a.5.5 0 0 1 .5.5v24a.5.5 0 0 1-.5.5z"/>
    <path fill="#333" d="M136.49 302.1H108a.51.51 0 0 1-.5-.5v-4.27a.5.5 0 0 1 .5-.5h28.45a.5.5 0 0 1 .5.5v4.27a.5.5 0 0 1-.46.5zm-27.95-1H136v-3.27h-27.46v3.27zm26.2 56.58a.5.5 0 0 1-.5-.5v-23.46H110.3v23.46a.5.5 0 0 1-1 0v-24a.5.5 0 0 1 .5-.5h24.94a.5.5 0 0 1 .5.5v24a.5.5 0 0 1-.5.5z"/>
    <path fill="#333" d="M136.49 362.06H108a.5.5 0 0 1-.5-.5v-4.27a.51.51 0 0 1 .5-.5h28.45a.5.5 0 0 1 .5.5v4.27a.5.5 0 0 1-.46.5zm-27.95-1H136v-3.27h-27.46v3.27zM198 313.91h-13.4a.5.5 0 0 1 0-1H198a.5.5 0 0 1 0 1zm-18.28 0h-89a.5.5 0 0 1 0-1h89a.51.51 0 0 1 .5.5.5.5 0 0 1-.5.5zm32.64 6.48a.5.5 0 0 1-.5-.5.49.49 0 0 1 .49-.5l73.74-.06a.51.51 0 0 1 .5.5.5.5 0 0 1-.5.5l-73.73.06zm-35.82-109.71a1 1 0 0 1-1-1v-16.29h-10.47v16.29a1 1 0 1 1-2 0v-17.29a1 1 0 0 1 1-1h12.47a1 1 0 0 1 1 1v17.29a1 1 0 0 1-1 1z"/>
    <path fill="#333" d="M286.62 373.39a1 1 0 0 1-1-1v-80a1 1 0 1 1 2 0v80a1 1 0 0 1-1 1zm-88.62 0a1 1 0 0 1-1-1v-99.13a1 1 0 1 1 2 0v99.13a1 1 0 0 1-1 1z"/>
    <path fill="#333" d="M404.6 373a1 1 0 0 1-1-1V138.71H287.74V372a1 1 0 1 1-2 0V137.71a1 1 0 0 1 1-1H404.6a1 1 0 0 1 1 1V372a1 1 0 0 1-1 1z"/>
    <path fill="#FFF" d="M282.91 249.95h125.54v6.17H282.91z"/>
    <path fill="#333" d="M408.44 257.12H282.91a1 1 0 0 1-1-1V250a1 1 0 0 1 1-1h125.53a1 1 0 0 1 1 1v6.17a1 1 0 0 1-1 .95zm-124.53-2h123.53V251H283.91v4.12z"/>
    <path fill="#F7F7F7" d="M372.89 326.47l-27.29-11.6-27.41 11.53"/>
    <path fill="#333" d="M372.89 327.47a1.09 1.09 0 0 1-.39-.08L345.6 316l-27 11.37a1.004 1.004 0 0 1-.78-1.85l27.41-11.53a1 1 0 0 1 .78 0l27.29 11.6a1 1 0 0 1-.39 1.92l-.02-.04zm-262.8-83.89H97.53a.5.5 0 0 1 0-1h12.56a.51.51 0 0 1 .5.5.5.5 0 0 1-.5.5zm25 0h-20a.5.5 0 0 1 0-1h20a.51.51 0 0 1 .5.5.5.5 0 0 1-.5.5zM178 225h-25.62a.5.5 0 0 1 0-1H178a.5.5 0 0 1 0 1zm-16.71-3h-25.62a.5.5 0 0 1 0-1h25.62a.5.5 0 0 1 0 1zm106.92 74.72h-.15l-12.7-1.92a1 1 0 0 1-.85-1v-13.86a1 1 0 0 1 1-1h12.7a1 1 0 0 1 1 1v15.78a1 1 0 0 1-1 1zm-11.7-3.78l10.7 1.62v-13.62h-10.7v12z"/>
    <path fill="#333" d="M286.84 309.65h-.16l-88.76-14.91a1 1 0 0 1-.83-1v-9.55a1 1 0 0 1 1.16-1l23.42 3.93a1.014 1.014 0 1 1-.34 2l-22.24-3.73v7.52l86.75 14.57V300l-42.17-7.09a1.014 1.014 0 1 1 .33-2l43 7.23a1 1 0 0 1 .83 1v9.55a1 1 0 0 1-1 1l.01-.04z"/>
    <path fill="#333" d="M240.29 292.28h-.16l-4.58-.77a1 1 0 0 1-.82-1.15 1 1 0 0 1 1.15-.82l4.58.77a1.004 1.004 0 1 1-.17 2v-.03zM271.7 373a1 1 0 0 1-1-1v-37.89h-57.63V372a1 1 0 1 1-2 0v-38.89a1 1 0 0 1 1-1h59.63a1 1 0 0 1 1 1V372a1 1 0 0 1-1 1z"/>
    <path fill="#333" d="M241.88 372.52a.51.51 0 0 1-.5-.5v-19.46a.51.51 0 0 1 .5-.5.5.5 0 0 1 .5.5V372a.5.5 0 0 1-.5.52zm0-25.46a.51.51 0 0 1-.5-.5v-4.45a.5.5 0 0 1 1 0v4.45a.5.5 0 0 1-.5.5zm0-8.2a.51.51 0 0 1-.5-.5v-5.25a.51.51 0 0 1 .5-.5.5.5 0 0 1 .5.5v5.25a.5.5 0 0 1-.5.5zM375.6 373a1 1 0 0 1-1-1v-38.89a1 1 0 1 1 2 0V372a1 1 0 0 1-1 1zm-59.6 0a1 1 0 0 1-1-1v-38.89a1 1 0 1 1 2 0V372a1 1 0 0 1-1 1zm29.78-.48a.5.5 0 0 1-.5-.5V348.1a.5.5 0 0 1 1 0V372a.5.5 0 0 1-.5.52zm0-33.66a.5.5 0 0 1-.5-.5v-5.25a.5.5 0 0 1 1 0v5.25a.5.5 0 0 1-.5.5zm-36.46-200.77H287a1 1 0 0 1-1-1v-14a1 1 0 0 1 1-1h22.36a1 1 0 0 1 1 1v14a1 1 0 0 1-1.04 1zm-21.36-2h20.36v-12H288l-.04 12zm116.64 2h-22.36a1 1 0 0 1-1-1v-14a1 1 0 0 1 1-1h22.36a1 1 0 0 1 1 1v14a1 1 0 0 1-1 1zm-21.36-2h20.36v-12h-20.36v12z"/>
    <path fill="#333" d="M382.24 131.1h-52.78a1 1 0 1 1 0-2h52.78a1 1 0 1 1 0 2zm-62.91 0h-10a1 1 0 1 1 0-2h10a1 1 0 1 1 0 2zm39.38 91.84a.5.5 0 0 1-.5-.5V181a12.55 12.55 0 1 0-25.09 0v41.46a.5.5 0 0 1-1 0V181a13.55 13.55 0 1 1 27.09 0v41.46a.5.5 0 0 1-.5.48zm-49.39 26.73a1 1 0 0 1-1-1v-78.74a1 1 0 1 1 2 0v78.74a1 1 0 0 1-1 1zm0-97.67a1 1 0 0 1-1-1v-13.91a1 1 0 1 1 2 0V151a1 1 0 0 1-1 1zm72.92 97.67a1 1 0 0 1-1-1v-32.95a1 1 0 1 1 2 0v32.95a1 1 0 0 1-1 1zm0-55.79a1 1 0 0 1-1-1v-55.79a1 1 0 1 1 2 0v55.79a1 1 0 0 1-1 1z"/>
    <path fill="#333" d="M345.66 223.91a.5.5 0 0 1-.5-.5v-55a.5.5 0 0 1 1 0v55.05a.5.5 0 0 1-.5.45z"/>
    <path fill="#333" d="M354.75 196.39h-21.66a.5.5 0 0 1 0-1h21.66a.5.5 0 0 1 .5.5.51.51 0 0 1-.5.5zm8.03 31.73h-34.31a.51.51 0 0 1-.5-.5v-4.27a.5.5 0 0 1 .5-.5h34.31a.5.5 0 0 1 .5.5v4.27a.5.5 0 0 1-.5.5zm-33.81-1h33.31v-3.27H329l-.03 3.27zm-19.76 92.32a1 1 0 0 1-1-1v-61.65a1 1 0 1 1 2 0v61.65a1 1 0 0 1-1 1zm73.37 0a1 1 0 0 1-1-1v-61.65a1 1 0 1 1 2 0v61.65a1 1 0 0 1-1 1zm-81.14 48.77a8.31 8.31 0 0 1-8.3-8.3v-4.05a8.3 8.3 0 0 1 16.6 0v4.05a8.31 8.31 0 0 1-8.3 8.3zm0-18.65a6.31 6.31 0 0 0-6.3 6.3v4.05a6.3 6.3 0 1 0 12.6 0v-4.05a6.3 6.3 0 0 0-6.3-6.3z"/>
    <path fill="#333" d="M300.44 366.81h2v5.37h-2zm89.29 1.4a8.31 8.31 0 0 1-8.3-8.3v-4.05a8.3 8.3 0 0 1 16.6 0v4.05a8.31 8.31 0 0 1-8.3 8.3zm0-18.65a6.31 6.31 0 0 0-6.3 6.3v4.05a6.3 6.3 0 1 0 12.6 0v-4.05a6.3 6.3 0 0 0-6.3-6.3z"/>
    <path fill="#333" d="M388.73 366.81h2v5.37h-2zm-8.94-32.93h-68a1 1 0 0 1-1-1v-6.06a1 1 0 0 1 1-1h68a1 1 0 0 1 1 1v6.06a1 1 0 0 1-1 1zm-67-2h66v-4.06h-66v4.06z"/>
    <path fill="#FFF" d="M282.91 137.2h125.54v6.17H282.91z"/>
    <path fill="#333" d="M408.44 144.38H282.91a1 1 0 0 1-1-1v-6.18a1 1 0 0 1 1-1h125.53a1 1 0 0 1 1 1v6.18a1 1 0 0 1-1 1zm-124.53-2h123.53v-4.18H283.91v4.18z"/>
    <path fill="#FFF" d="M282.91 304.69h125.54v6.17H282.91z"/>
    <path fill="#333" d="M408.44 311.87H282.91a1 1 0 0 1-1-1v-6.18a1 1 0 0 1 1-1h125.53a1 1 0 0 1 1 1v6.18a1 1 0 0 1-1 1zm-124.53-2h123.53v-4.18H283.91v4.18zM175.74 211.5h-10.68a1 1 0 1 1 0-2h10.68a1 1 0 1 1 0 2z"/>
    <path fill="#333" d="M205.06 254.17H82.3a1 1 0 0 1-1-1.17l7.56-42.67a1 1 0 0 1 1-.83h12.4a1 1 0 1 1 0 2H90.71l-7.21 40.67h120.35l-7.66-40.67h-71.93a1 1 0 1 1 0-2H197a1 1 0 0 1 1 .81l8 42.69a1 1 0 0 1-1 1.18l.06-.01zm-30.8 99.57h-15.75a.5.5 0 0 1-.5-.5v-12.87a.5.5 0 0 1 .5-.5.51.51 0 0 1 .5.5v12.37h14.75V338h-15.25a.5.5 0 0 1 0-1h15.75a.5.5 0 0 1 .5.5v15.75a.5.5 0 0 1-.5.49z"/>
    <path fill="#333" d="M113.27 211.5h-6.4a1 1 0 1 1 0-2h6.4a1 1 0 1 1 0 2z"/>
    <path fill="#4A4A4A" d="M275 39a1 1 0 0 1 0 2h-46a1 1 0 0 1-.954-1.301c2.028-6.417 8.047-10.866 14.935-10.866 1.7 0 3.365.272 4.951.796a9.62 9.62 0 0 1 7.43-3.487c.66 0 1.31.066 1.946.197a29.077 29.077 0 0 1 4.917-12.906 1 1 0 0 1 1.648 1.134 27.074 27.074 0 0 0-4.696 13.128 1 1 0 0 1-1.321.862 7.655 7.655 0 0 0-2.494-.415 7.617 7.617 0 0 0-6.258 3.248 1 1 0 0 1-1.178.36 13.742 13.742 0 0 0-4.945-.917c-5.534 0-10.42 3.287-12.54 8.167H275zm48.907-12.564c-2.031 0-4.01.397-5.869 1.163a1 1 0 0 1-1.373-.801C314.913 12.666 303.547 2 290.053 2c-6.907 0-13.404 2.787-18.347 7.716a1 1 0 0 1-1.412-1.416c5.311-5.296 12.313-8.3 19.76-8.3 14.128 0 26.047 10.819 28.417 25.308a17.334 17.334 0 0 1 5.436-.872c9.079 0 16.73 7.037 18.083 16.421A1 1 0 0 1 341 42h-51.595a1 1 0 1 1 0-2h50.404c-1.64-7.843-8.213-13.564-15.902-13.564zM212.49 45.5a.5.5 0 1 1 0-1h47.533a.5.5 0 1 1 0 1H212.49z"/>
  </g>
</svg>