<svg width="1024" height="328" xmlns="http://www.w3.org/2000/svg"><g fill="none" fill-rule="evenodd"><path d="M56.512 9H48.66v193.891h-3.5c-1.708 0-3.159 1.457-3.159 3.17V286h21.085v-79.938c0-1.714-1.45-3.17-3.158-3.17h-3.5V24.593c7.427-.943 14.768-1.371 22.195-1.371 10.244 0 20.402.685 30.646 1.713l-.17 3.599c-.086 1.028.768 1.97 1.792 1.97l12.89.6h.086c1.024 0 1.878-.77 1.878-1.8l.256-4.883a2.09 2.09 0 0 0-1.024-1.799v-.086c-12.55-1.97-25.269-2.998-37.988-2.998-10.159 0-20.403.685-30.561 1.97V9" fill="#EFF2FF"/><ellipse fill="#DEE5FF" cx="215.5" cy="320" rx="71.5" ry="8"/><ellipse fill="#DEE5FF" cx="372" cy="320.5" rx="53" ry="7.5"/><path d="M432.595 252.91c-2.836-3.047-6.96-4.91-11.427-4.91-7.732 0-14.175 5.588-15.378 12.87-7.474 1.27-13.745 5.757-17.354 12.022-2.147 3.387-3.436 7.367-3.436 11.685h.172V285H460v-1.016s-14.948-1.185-20.619-11.092c0 0-6.7-13.716-6.1-19.643" fill="#DEE5FF"/><g fill="#DEE5FF"><path d="M835.427 285.07h.255-.255z"/><path d="M973.289 267.583c-.768-5.576-5.545-9.885-11.432-9.885-1.962 0-3.754.507-5.375 1.352a12.821 12.821 0 0 0-9.384-4.055c-6.057 0-11.175 4.224-12.54 9.8-3.072-3.21-6.91-5.83-11.261-7.435-1.195-8.701-8.702-15.46-17.916-15.46-3.07 0-5.971.76-8.445 2.112a20.308 20.308 0 0 0-14.76-6.336c-6.91 0-12.966 3.38-16.635 8.617-1.62 2.366.17 13.348-.341 16.305-.597 3.802.085 4.9-4.607 13.01-2.815 4.394-14.673 10.561-24.91 9.547v.507h150.062c.084-8.28-5.12-15.291-12.456-18.08zm-25.508.338c-.086-.085-.256-.17-.341-.17h1.023c-.256 0-.426.085-.682.17z" fill-rule="nonzero"/></g><g fill="#3D3D3D"><path d="M228.936 262.985l4.478.86 3.548-2.579-.253-1.89-15.714-52.43s-20.445-4.642-17.488 11.775c1.943 10.572 3.21 19.854 15.207 36.7a84.627 84.627 0 0 1 3.717 5.76s1.943.429 3.548 1.03c.423 0 2.873.344 2.957.774zM244.903 286.536v-.086h-13.432c.507.945 1.182 1.89 1.943 2.836 7.012 8.853 9.462 17.104 9.462 17.104l8.955 3.352-6.928-23.206z"/></g><path d="M519.06 134c-6.408.34-12.046 1.617-17.258 3.405-5.212 1.787-10.167 4.085-15.122 6.639-3.418 1.702-7.177 4.426-10.936 7.405-5.64 4.512-11.193 9.874-15.379 14.13-2.05 2.128-3.845 4-5.04 5.277-.599.681-1.111 1.192-1.453 1.532-.171.17-.256.34-.342.426l-.085.085v.511c0 .17.085.34.17.425.086.086.257.17.428.17v-.595l-.171.596h.17v-.596l-.17.596.17-.596-.426.425c.085.086.17.086.256.17l.17-.595-.426.425.427-.425-.513.34c0 .085.086.085.086.17l.427-.425-.513.34.513-.255-.598.085c0 .085 0 .085.085.17l.513-.255-.598.085.598-.085h-.77v.085l.599-.085h-.598.598l-.598-.085v.085h.598l-.598-.085.598.085-.513-.17v.085l.598.085-.512-.17.427.17-.427-.17.427.17-.427-.17.17.085-.17-.085.17.085-.17-.085v.085c-.086.085-.171.426-.342.766-.598 1.192-1.88 3.575-2.905 5.533-.513 1.021-1.025 1.957-1.367 2.638-.17.34-.342.596-.427.766-.086.17-.171.256-.171.256l.598.255-.427-.425-3.588 3.83a17.707 17.707 0 0 0-4.785 10.64l-3.247 35.239-.598.51a13.175 13.175 0 0 0-4.186 9.619h.513H432h.513H432h.598H432c0 3.15.17 7.32.769 11.831.513 3.405 1.196 6.895 2.392 10.385.855 2.553 1.965 5.107 3.332 7.405 2.05 3.49 4.785 6.554 8.288 8.767 3.502 2.213 7.86 3.49 13.157 3.49a.583.583 0 0 0 .598-.596.583.583 0 0 0-.598-.596c-2.99 0-5.639-.425-8.031-1.191-4.101-1.362-7.348-3.83-9.825-6.895-1.88-2.298-3.418-5.022-4.529-7.83-1.794-4.257-2.819-8.938-3.417-13.28a84.74 84.74 0 0 1-.769-11.405h-.598.598-.598.598-.598.598-.598.598c0-3.32 1.367-6.47 3.845-8.682l.769-.681a.649.649 0 0 0 .17-.426l3.247-35.494c.342-3.745 1.88-7.235 4.443-9.874l3.588-3.83s.086-.085.086-.17c0 0 1.367-2.469 2.648-5.022.684-1.277 1.367-2.554 1.88-3.49l.598-1.192c.085-.17.17-.255.17-.34 0-.085 0-.085.086-.085v-.086-.085-.085-.085-.085-.17s0-.085-.085-.17c-.086-.086-.171-.17-.257-.17-.085-.086-.17-.086-.256-.086v.596h.598-.598l.598.17v-.17h-.598l.598.17-.598-.17.513.255s0-.085.085-.085l-.598-.17.513.255-.513-.255.513.34v-.085l-.513-.255.513.34-.342-.17.256.256-.342-.17.257.255c.085-.085.17-.256.427-.426 1.538-1.702 6.579-7.235 12.815-13.108 3.076-2.894 6.494-5.958 9.911-8.597 3.332-2.639 6.75-4.937 9.74-6.47 4.955-2.468 9.825-4.85 14.951-6.553 5.127-1.788 10.595-2.98 16.917-3.32v-.596.596a.583.583 0 0 0 .598-.596c-.256-.68-.598-.936-.94-.936M834.277 286h.512c1.024 0 3.414-.085 6.4-.512a41.944 41.944 0 0 0 7.51-1.876c1.964-.683 4.012-1.621 5.89-2.9 2.9-1.792 5.461-4.265 7.339-7.592 1.877-3.327 3.072-7.42 3.072-12.539v-20.386c0-1.962-.768-3.753-2.219-5.118l-3.84-3.497-6.06-22.604-.597.171.597-.085c0-.086-.085-.427-.34-1.024-.428-.938-1.281-2.303-3.159-3.668-1.877-1.45-4.779-2.9-9.302-4.009-2.987-.767-7.595-1.706-13.398-2.814-17.41-3.242-45.488-7.25-70.407-7.848v.597l.341-.511-44.72-33.949-.34.512.426-.512c-12.545-10.406-26.797-17.486-42.33-19.96-6.4-1.023-13.227-1.876-20.055-1.876a.583.583 0 0 0-.597.597c0 .341.256.597.597.597 6.742 0 13.484.938 19.885 1.877 15.276 2.388 29.272 9.382 41.732 19.618l44.72 33.948c.085.086.255.086.34.086 16.557.426 34.479 2.303 49.84 4.52 7.68 1.11 14.594 2.304 20.397 3.327 5.803 1.109 10.412 2.047 13.313 2.815 2.902.768 5.12 1.62 6.742 2.474 2.475 1.279 3.755 2.644 4.353 3.667.341.512.512.853.597 1.195.085.17.085.255.085.255v.086h.342-.342.342-.342v.085l6.145 22.774c0 .086.085.256.17.342l3.926 3.667c1.195 1.11 1.793 2.56 1.793 4.18v20.386c0 2.9-.427 5.46-1.11 7.677-1.195 3.924-3.328 6.909-5.888 9.127-1.878 1.706-4.097 2.985-6.316 4.009-3.328 1.535-6.827 2.303-9.643 2.73-2.902.426-5.12.51-6.145.51H834.106c-.341 0-.597.257-.682.598.256.512.512.853.853.853" fill="#4A4A4A"/><path d="M474.935 184h-25.9c-.086.168-.172.252-.172.252 0 .084-.086.084-.086.168l-3.614 3.78a16.297 16.297 0 0 0-4.475 9.744L440 205c38.118-.168 34.935-21 34.935-21" fill="#EEF1FF"/><path d="M449 184h-.804s-4.821 5.964-6.875 8.4C439.268 194.836 439 205 439 205h.625l.714-7.056c.357-3.696 1.965-7.14 4.643-9.744l3.75-3.78s.09-.084.09-.168c.089 0 .089-.084.178-.252" fill="#707381"/><path d="M852.31 212h-23.613c-3.227 0-5.52 3.192-4.416 6.216 2.208 6.132 9.682 14.7 33.719 14.784l-5.69-21" fill="#EEF1FF"/><path d="M852.493 212H852l5.507 21H858l-5.507-21" fill="#707381"/><ellipse fill="#FFF" transform="rotate(-67.5 202.698 154.547)" cx="202.698" cy="154.547" rx="7.091" ry="7.084"/><path d="M157 300.59c1.196-1.717 3.929-17.86 16.143-36.237 9.396-14.254 10.08-32.802 10.08-37.525 0-1.117.084-2.233.255-3.35.598-3.434 2.221-10.046 6.492-13.738 9.224-7.729 32.03 3.349 32.03 3.349s-26.051 41.303-32.543 50.663c-6.918 9.96-14.605 23.099-26.563 42.248" fill="#4A4A4A"/><path d="M220.21 191.968c-.086-4.72-.086-9.267-.086-12.27v-13.386c0-10.296-5.32-25.14-10.899-25.14-.515 0-5.75-.172-6.264-.172-7.123 0-10.47 10.04-9.612 30.118 1.03 23.424-1.716 32.176-2.832 34.75l-.515.859-.772 1.887c-.772 1.717.515 3.175 2.146 3.947 4.805 2.317 6.007 2.403 9.268 2.918 5.32.944 17.935 2.23 21.54-3.347 4.891 6.264 8.581 9.868 8.581 9.868l5.235-1.716c-7.123-10.21-12.186-19.821-15.79-28.316z" fill="#6ACCB6"/><path d="M203.813 112.345c.505-.336.926-.588 1.347-.756.421-.169.758-.253 1.095-.253.59 0 1.094.253 1.6.505.505.336.926.757 1.347 1.177.42.336.758.757 1.179 1.009.168.168.42.252.673.336.253.084.505.169.758.169h.084c.505 0 1.01-.253 1.516-.59.505-.335 1.094-.924 1.684-1.597.084-.168.252-.252.337-.252.084-.084.252-.084.42-.084.169 0 .253 0 .421.084.253.084.59.252.842.589.506.504 1.095 1.26 1.6 2.27a25.652 25.652 0 0 1 2.021 5.634c.505 2.186.842 4.624.842 7.063 0 1.177-.084 2.438-.253 3.615a16.337 16.337 0 0 1-.842 3.364c-.42.925-.842 1.765-1.431 2.354-.505.589-1.095.925-1.852 1.261a3.03 3.03 0 0 1-.927.168c-.42 0-.841-.084-1.347-.168-.673-.168-1.431-.336-2.105-.504-.336-.084-.673-.168-.926-.253-.337-.084-.59-.084-.842-.084h-.084c-.168 0-.253.169-.253.337s.169.252.337.252c.253 0 .59.084 1.01.168.59.168 1.348.336 2.021.505.758.168 1.432.336 2.105.336.421 0 .758-.084 1.095-.168.758-.337 1.515-.757 2.02-1.346.59-.672 1.095-1.513 1.516-2.522.421-1.009.674-2.186.926-3.532.169-1.177.253-2.438.253-3.7 0-3.783-.758-7.567-1.852-10.51-.59-1.43-1.18-2.69-1.853-3.7-.337-.504-.673-.924-1.01-1.177-.337-.336-.674-.588-1.095-.672-.168-.084-.42-.084-.59-.084-.252 0-.42.084-.673.168-.168.084-.42.252-.505.42-.59.673-1.094 1.177-1.6 1.514-.505.336-.926.504-1.263.504h-.084c-.168 0-.337 0-.505-.084-.253-.084-.505-.252-.758-.504a7.588 7.588 0 0 0-.842-.757c-.42-.42-.842-.841-1.431-1.261-.59-.337-1.179-.589-1.937-.589-.42 0-.842.084-1.347.252-.505.168-1.01.42-1.515.841-.169.084-.169.252-.085.42.421-.084.59-.084.758-.168z" fill="#4A4A4A"/><path d="M221.827 117.1c-1.44.83-1.694.83-4.236.995h-1.016c-1.017 0-3.897.166-4.49 3.151-.678 3.234-.847 5.224-.847 5.638 0 .083 0 .083-.085.083h-.677c-1.356 0-2.372-1.244-1.864-2.487l.254-.664c.17-.497 0-1.078-.424-1.326l-.254-.166c-1.525-.995-3.642-.083-3.812 1.741l.085 4.81c-.254 2.072-2.965 2.901-4.32 1.243-1.525-1.824-3.559-5.887-3.982-8.457-.932-6.053 2.287-12.77 8.302-14.262 4.236-.995 7.37.083 9.742.912 1.27.498 2.795.415 3.981-.331.424-.249 1.102-.415 1.949-.083 3.897 1.824 5.506 7.13 1.694 9.203z" fill="#4A4A4A"/><path d="M202.35 141l.3-10" fill="#FFF"/><path d="M202.636 140.744l.364-9.402c0-.171-.09-.257-.273-.342-.182 0-.272.085-.363.256l-.364 9.402c0 .171.09.257.273.342.272 0 .363-.085.363-.256M157.721 300l-4.247 3.203s-4.502 2.956-1.36 5.667c2.04 1.806 5.947 4.763 8.41 6.57 1.36 1.067 3.059 1.56 4.758 1.56h10.703s.595-5.092-5.692-5.092c-6.286 0-6.965-6.734-6.965-6.734" fill="#4A4A4A"/><path d="M268.506 307.516l-20.745 8.39c-.771.25-1.714 0-2.057-.747-.686-1.662-4.2-13.707-7.2-18.276-2.658-4.07 5.914 7.144 9.257 9.055 1.2.664 2.657.997 4.029.748l13.458-1.911s2.4-.166 3.686 1.661c.172.416 0 .914-.428 1.08zM383.289 316.834l-20.703.166c-.751 0-1.586-.664-1.586-1.494.083-1.826 1.42-14.195.5-19.507-.834-4.732 2.589 8.716 4.843 11.787a6.028 6.028 0 0 0 3.339 2.158l11.603 3.238s2.254.747 2.672 2.905c.167.332-.167.747-.668.747z" fill="#3D3D3D"/><path d="M212 161.18s.598 5.51 2.05 12.657c1.365 7.06 3.585 15.756 6.573 22.041.086.086.17.172.256.086s.171-.172.086-.258c-2.989-6.2-5.208-14.81-6.574-21.87a230.13 230.13 0 0 1-1.537-8.954c-.171-1.119-.256-2.066-.342-2.669 0-.344-.085-.516-.085-.689v-.258c0-.086-.085-.172-.256-.172-.086-.172-.171-.086-.171.086zM199.032 164.342s3.085 17.94 13.54 33.573c.085.085.17.085.342.085.086-.085.086-.17.086-.342-5.227-7.774-8.57-16.145-10.626-22.552-1.028-3.247-1.714-5.895-2.228-7.86a23.991 23.991 0 0 1-.514-2.22c-.086-.257-.086-.428-.086-.599v-.17-.086c0-.086-.171-.171-.257-.171-.257.085-.343.17-.257.342zM246.614 256.818c-.175-2.19.35-4.471 1.579-6.57l2.018 1.369c.964-1.643 3.596-4.654 4.56-6.388.264-.456 1.229-.09 1.229-.09-5.526 0-10 4.653-10 10.401 0 .456 0 1.004.088 1.46" fill="#4A4A4A"/><path d="M369.998 209s.086 26.119-.86 50.701c-.862 22.193-1.464 51.214-1.464 51.214l-6.285.085s-2.324-16.986-3.874-23.387c-1.549-6.402-5.509-11.523-2.496-23.985 3.013-12.462-11.019-37.13-11.019-37.13l13.257-10.584 1.205-5.036L369.998 209z" fill="#3D3D3D"/><path d="M353.527 264.408C358.261 253.332 371 208 371 208l-32.622 5.495c-4.476 4.98-4.992 14.08-4.131 19.232 1.635 9.873 7.66 24.726 1.29 37.175-7.66 14.94-7.315 34.6-7.401 36.49l-.087 4.378h.087c-.603 2.49-.947 3.95-1.12 5.237-.172.773 1.033 1.631 1.808 1.803l20.486 3.177c.43.086.86-.258.86-.773-.086-2.232-2.238-3.348-2.238-3.348l-11.275-5.152a5.769 5.769 0 0 1-1.55-.944h.173c9.898-27.56 13.857-36.231 18.247-46.362z" fill="#4A4A4A"/><path d="M404.918 117.65l-.596-3.41c0-.256-.34-.341-.51-.086-2.725 4.775-20.432 34.188-38.225 36.916l.596 2.984c-3.15-4.007-7.661-5.37-12.94-2.131-8.087 4.86-9.875 16.028-9.875 16.028h.085c-.595 3.155-.595 6.735.426 10.572 4.342 16.199 4.086 16.88-5.874 34.955 0 0-.681 9.804 13.706 5.371s18.644-10.742 18.644-10.742v-32.398c4.341-.682 5.959-5.115 5.022-8.014-.595-1.79-1.787-3.75-2.894-5.37 7.747-6.14 24.943-21.315 32.094-40.498.426-1.364.511-2.813.34-4.177z" fill="#C8D2FF"/><path d="M365.933 189.67l-14.508-14.604a.276.276 0 0 0-.358 0 .264.264 0 0 0 0 .352l14.508 14.516c.09.088.268.088.358 0 .09-.088.09-.176 0-.264" fill="#4A4A4A"/><path d="M366.768 149s-1.232 5.069 2.2 10.836c3.432 5.768-2.552 5.331-5.456 0-3.608-6.641-6.512-9.525-6.512-9.525l9.768-1.311zM356.96 143s.49 3.238-1.96 7" fill="#FFF"/><path d="M357.257 151c.097 0 .194-.092.291-.183 2.906-3.942 2.422-7.426 2.422-7.518 0-.183-.194-.366-.388-.275-.193 0-.387.184-.29.367 0 0 .484 3.392-2.228 7.059-.097.183-.097.367.096.458-.096.092 0 .092.097.092zM368.735 150.935c1.621-.258 3.242-1.376 4.608-3.27 1.62-2.237 2.815-5.249 3.327-8.347.939-5.765 0-12.65-4.437-14.284-.17-.086-.34 0-.426.172-.086.172 0 .344.17.43 2.816 1.033 5.29 5.766 4.01 13.596-.511 3.012-1.706 6.024-3.242 8.09-1.62 2.237-3.583 3.355-5.375 3.011 0 0-1.194-.172-2.815-1.98a.24.24 0 0 0-.427 0c-.17.087-.17.345 0 .431 1.792 1.98 3.071 2.151 3.242 2.151.427.087.853.087 1.365 0z" fill="#4A4A4A"/><path d="M359.44 144c-.94-2.383-.854-5.447-.513-6.553.17-.596.512-1.192 1.024-1.532 1.025-.766 1.878-.34 2.561.085.427.34 1.025.17 1.28-.255 3.928-5.532 12.208-7.32 12.208-7.32s-.341-2.297-4.098-4.425c0 0-15.707 1.872-16.731 9.702-1.195 8.851 4.268 10.298 4.268 10.298z" fill="#4A4A4A"/><path d="M340.228 123.73c-1.367-1.816-1.281-4.496 0-6.917.94-1.816 2.478-3.113 4.016-3.545-.427-.605-.598-1.297-.171-1.902.598-.951 2.307-1.21 3.417-.865.77-2.248 2.734-4.323 5.04-4.842 1.71-.345 3.333.26 4.614 1.297 1.965-2.594 5.212-2.594 6.92-.086.086.173.257.346.342.519.94-.346 2.136-.346 2.82.086.598.432.94 1.124.854 1.816.683 0 1.367.346 2.05.778 1.453.951 1.794 2.94.77 4.583-.086.086-.172.259-.257.345.17.087.427.26.598.346 2.648 1.73 3.332 5.534 1.452 8.56a9.928 9.928 0 0 1-1.196 1.47c3.076 1.902 3.503 3.89 3.503 3.89s-8.03 1.99-11.79 7.437c-.256.432-.854.518-1.281.259-.598-.432-1.538-.778-2.478 0-.513.432-.769.951-.94 1.556-.256 1.124-.256 4.064.684 6.485 0 0-3.845-.951-4.443-6.398-1.965 2.42-5.297 3.112-7.774 1.47-1.111-.779-1.71-2.162-1.88-3.805-1.025 0-2.221-.605-2.648-1.297-.513-.778-.342-1.815.341-2.507-.769 0-1.537-.26-2.136-.692-2.306-1.47-1.965-5.706-.427-8.04z" fill="#4A4A4A"/><ellipse fill="#DEE5FF" cx="651" cy="319.5" rx="218" ry="8.5"/><path d="M280.45 259c.1 0 .2-.09.3-.182l-.4-.363-.1-.455M244 267c.25-.17.501-.256.752-.427 3.006-1.707 6.513-4.182 10.856-7.681 1.42-1.11 2.839-2.134 4.175-2.987.25-.171.25-.427.167-.683-.167-.256-.417-.256-.668-.171-1.42.854-2.84 1.878-4.259 2.987-4.51 3.585-8.017 6.06-11.023 7.767" fill="#4A4A4A"/><path d="M233.827 268.764c-.597.085-1.108.085-1.705.085-2.218 0-4.52-.34-7.25-.68-2.9-.339-6.055-1.103-8.955-1.867-1.45-.34-2.815-.68-4.094-.934-1.28-.255-2.388-.425-3.411-.425-.512 0-.939 0-1.28.085-.341.085-.597.17-.853.255-.34.17-.682.51-.938.85-.17.424-.341.848-.341 1.358 0 .424.085.934.256 1.528l3.326 12.396c.682 2.717 3.156 4.585 5.97 4.585H264.872c2.047 0 3.753-1.358 4.264-3.311 1.45-5.689 5.288-18.764 15.693-29.463.086-.084.171-.254.171-.34 0-.169-.085-.254-.17-.339 0 0-1.024-.68-2.73-1.273-1.79-.595-4.35-1.274-7.505-1.274-2.73 0-5.885.425-9.382 1.783-.256.085-.34.34-.256.594.086.255.342.34.597.255 3.412-1.274 6.482-1.698 9.04-1.698 3.071 0 5.46.594 7.165 1.189.853.34 1.45.594 1.962.849.256.085.34.17.511.254.086 0 .086.085.086.085l.085-.17-.085.17.085-.17-.085.17.256-.424-.342-.34c-10.66 10.868-14.584 24.113-15.948 29.887-.342 1.528-1.706 2.547-3.327 2.547H214.638c-2.389 0-4.435-1.613-5.032-3.82l-3.327-12.397c-.17-.51-.17-.934-.17-1.273 0-.34.085-.595.17-.85.086-.17.17-.254.256-.424.17-.17.427-.255.768-.34.34-.085.767-.17 1.194-.17.853 0 1.961.17 3.24.425 1.877.34 4.01.934 6.227 1.443 2.217.51 4.605 1.02 6.823 1.359 2.729.34 5.032.68 7.42.68.767 0 1.535 0 2.388-.086" fill="#4A4A4A"/><path d="M244.647 266h-.353c0 .265 0 .618-.088.882-.177 1.147-.706 2.118-1.5 2.912a5.332 5.332 0 0 1-3.794 1.588c-1.5 0-2.824-.617-3.794-1.588a5.332 5.332 0 0 1-1.589-3.794c0-1.5.618-2.824 1.589-3.794a5.332 5.332 0 0 1 3.794-1.588c1.5 0 2.823.617 3.794 1.588a5.332 5.332 0 0 1 1.588 3.794H245c0-3.353-2.735-6-6-6-3.353 0-6 2.735-6 6 0 3.353 2.735 6 6 6 3.353 0 6-2.735 6-6h-.353z" fill="#4A4A4A"/><circle fill="#6ACCB6" cx="238.5" cy="266.5" r="3.5"/><path d="M530.83 278.5h.17c0-15.7-12.714-28.5-28.5-28.5-15.7 0-28.5 12.714-28.5 28.5 0 15.7 12.714 28.5 28.5 28.5 15.7 0 28.5-12.714 28.5-28.5h-.341c0 7.765-3.158 14.847-8.277 19.882-5.12 5.12-12.117 8.277-19.882 8.277-7.765 0-14.847-3.158-19.882-8.277-5.12-5.12-8.277-12.117-8.277-19.882 0-7.765 3.158-14.847 8.277-19.882 5.12-5.12 12.117-8.277 19.882-8.277 7.765 0 14.847 3.158 19.882 8.277 5.12 5.12 8.277 12.117 8.277 19.882h.17" fill="#4A4A4A"/><path d="M502.957 255C489.733 255 479 265.753 479 279s10.733 24 23.957 24 23.957-10.753 23.957-24h-.429c0 6.538-2.662 12.387-6.87 16.688-4.293 4.301-10.132 6.882-16.658 6.882-6.526 0-12.365-2.667-16.658-6.882-4.294-4.3-6.87-10.15-6.87-16.688 0-6.538 2.662-12.387 6.87-16.688 4.293-4.301 10.132-6.882 16.658-6.882 6.526 0 12.365 2.667 16.658 6.882 4.294 4.3 6.87 10.15 6.87 16.688H527c-.086-13.247-10.82-24-24.043-24M751.4 285H576.514c-.257 0-.514.167-.514.5 0 .25.171.5.514.5H751.486c.257 0 .514-.167.514-.5-.086-.25-.257-.5-.6-.5M562.487 285h-19.316c-.086.364-.086.636-.171 1h19.487c.257 0 .513-.182.513-.545 0-.182-.256-.455-.513-.455M543 285h-1.4c-.3 0-.6.167-.6.5 0 .25.2.5.6.5h1.2c.1-.417.2-.667.2-1" fill="#4A4A4A"/><path d="M542.85 285h-.5c-.1.364-.1.636-.2 1h.5c.1-.364.2-.636.2-1" fill="#4A4A4A"/><path d="M553 263.5h190" fill="#FFF"/><path d="M553.256 263.8h189.488c.086 0 .256-.1.256-.3 0-.1-.085-.3-.256-.3H553.256c-.086 0-.256.1-.256.3 0 .2.085.3.256.3" fill="#4A4A4A"/><path d="M449 183.5h25" fill="#FFF"/><path d="M449.257 182.8h25.486c.086 0 .257-.1.257-.3 0-.1-.086-.3-.257-.3h-25.486c-.086 0-.257.1-.257.3 0 .2.171.3.257.3" fill="#4A4A4A"/><path d="M835 263.5h29" fill="#FFF"/><path d="M835.252 263.8h28.496c.084 0 .252-.1.252-.3 0-.1-.084-.3-.252-.3h-28.496c-.084 0-.252.1-.252.3.084.2.168.3.252.3" fill="#4A4A4A"/><path d="M613 145l6.287 41.818L720.472 191s-.595-5.547.425-5.633c1.869-.17 5.352-.17 7.986.512 1.954.512 4.078 2.56 4.503 2.56 1.104 0 1.614.086 1.614.086l-44.773-34.393a37.804 37.804 0 0 0-10.96-5.889c-3.993-1.365-9.09-2.73-14.188-2.73C654.63 145.512 613 145 613 145z" fill="#DEE5FF"/><path d="M478.908 150.39l-7.261-13.016.59-.347-13.678-24.383L454 109l16.38 29.068.507-.347 7.261 13.015c.169.26.422.347.676.174.168 0 .253-.347.084-.52z" fill="#4A4A4A"/><path d="M514.075 162.8s-1.027 6.728 4.534 8.711C526.736 174.357 551.117 186 611 186l-6.16-42h-79.302c-3.422 0-6.502 2.242-7.528 5.606l-3.935 13.195z" fill="#DEE5FF"/><path d="M486.179 144.158s-4.093-6.208-11-14.261c-6.907-8.053-16.628-18.12-27.968-25.753-2.218-1.51-4.776-2.265-7.504-2.265H413.87c-5.031 0-9.806-2.433-12.705-6.46l-.512.336v.587h41.782c1.535 0 3.07.336 4.52.84.767.335 1.96.838 3.41 1.677a212.802 212.802 0 0 1 10.233 6.124 240.727 240.727 0 0 1 20.465 14.764c6.992 5.704 13.814 12.08 18.845 18.455.255.251.596.335.852.084.256-.252.341-.588.086-.84-3.923-4.949-8.783-9.814-13.985-14.428-7.845-6.878-16.457-13.17-23.705-17.952-3.667-2.348-6.907-4.362-9.635-5.956-1.365-.755-2.559-1.426-3.582-1.929-1.023-.503-1.876-.923-2.473-1.174a12.818 12.818 0 0 0-5.03-1.007h-41.783c-.256 0-.426.168-.597.336-.085.167-.085.419.085.67 3.155 4.363 8.272 6.963 13.729 6.963h25.837c2.387 0 4.775.755 6.736 2.097 11.17 7.55 20.891 17.449 27.713 25.502 3.41 4.027 6.14 7.55 8.015 10.066a77.078 77.078 0 0 1 2.132 3.02c.256.336.426.588.512.84.085.083.085.167.17.167v.084c.17.252.597.335.853.168.512-.084.597-.504.341-.755zM612.034 193.258l10.527 70.57c0 .086.088.172.264.172.087 0 .175-.086.175-.258l-10.527-70.57c0-.086-.088-.172-.263-.172-.176 0-.263.086-.176.258" fill="#4A4A4A"/><path d="M91.361 249.297c1.352-5.231.254-7.29-.507-8.318-1.099-1.286-2.873-2.058-4.395-1.973-6 .172-10.564 12.606-12.17 19.21-1.183 4.888-2.704 14.578 1.353 27.355h.169v.086l3.127.343s14.705-15.264 7.352-19.895c-2.45-1.544-5.662 4.716-7.944 10.634 1.352-6.775 3.888-11.32 6.17-14.493 1.52-1.972 5.155-6.26 6.845-12.949z" fill="#DEE5FF"/><path d="M631.329 207.731v-3.492c0-.448.165-.896.494-1.254.329-.358.658-.537 1.151-.537h14.887c.412 0 .823.179 1.152.537.329.358.493.716.493 1.254v3.492c0 .09.083.269.247.269.082 0 .247-.09.247-.269v-3.492c0-1.254-.905-2.239-2.056-2.239h-14.888c-1.151 0-2.056.985-2.056 2.239v3.492c0 .09.082.269.247.269.164 0 .082-.09.082-.269z" fill="#4A4A4A"/><path d="M792 238c-22.11 0-40 18.114-40 40.5s17.89 40.5 40 40.5 40-18.114 40-40.5-17.975-40.5-40-40.5zm0 68.867c-15.443 0-28.017-12.73-28.017-28.367 0-15.636 12.574-28.367 28.017-28.367s28.017 12.73 28.017 28.367c0 15.636-12.574 28.367-28.017 28.367z" fill="#4A4A4A" fill-rule="nonzero"/><path d="M819.83 278.5h.17c0-15.7-12.714-28.5-28.5-28.5-15.7 0-28.5 12.714-28.5 28.5 0 15.7 12.714 28.5 28.5 28.5 15.7 0 28.5-12.714 28.5-28.5h-.341c0 7.765-3.158 14.847-8.277 19.882-5.12 5.12-12.117 8.277-19.882 8.277-7.765 0-14.847-3.158-19.882-8.277-5.12-5.12-8.277-12.117-8.277-19.882 0-7.765 3.158-14.847 8.277-19.882 5.12-5.12 12.117-8.277 19.882-8.277 7.765 0 14.847 3.158 19.882 8.277 5.12 5.12 8.277 12.117 8.277 19.882h.17" fill="#4A4A4A"/><path d="M792 255c-13.247 0-24 10.753-24 24s10.753 24 24 24 24-10.753 24-24h-.516c0 6.538-2.667 12.387-6.882 16.688-4.3 4.301-10.15 6.882-16.688 6.882-6.538 0-12.387-2.667-16.688-6.882-4.301-4.3-6.882-10.15-6.882-16.688 0-6.538 2.667-12.387 6.882-16.688 4.3-4.301 10.15-6.882 16.688-6.882 6.538 0 12.387 2.667 16.688 6.882 4.301 4.3 6.882 10.15 6.882 16.688H816c0-13.247-10.753-24-24-24" fill="#4A4A4A"/><path d="M436 263.5h24" fill="#FFF"/><path d="M435.259 263.8h24.482c.087 0 .259-.1.259-.3 0-.1-.086-.3-.259-.3H435.26c-.087 0-.259.1-.259.3.086.2.172.3.259.3M366.513 286h100.974c.257 0 .513-.25.513-.5s-.256-.5-.513-.5H366.513c-.257 0-.513.25-.513.5s.256.5.513.5M284.506 286h52.988c.253 0 .506-.25.506-.5s-.253-.5-.506-.5h-52.988c-.253 0-.506.25-.506.5s.253.5.506.5M866.512 286h156.976c.256 0 .512-.25.512-.5s-.256-.5-.512-.5H866.512c-.256 0-.512.25-.512.5s.256.5.512.5M726.58 202.752v-.247h-4.513c-.164 0-.246-.083-.41-.165a.632.632 0 0 1-.165-.413v-14.772c0-.165.082-.247.164-.412a.625.625 0 0 1 .41-.165h4.513c1.067 0 2.298.247 3.365.66 1.723.578 3.364 1.65 4.594 2.888.575.66 1.067 1.32 1.395 2.063.329.743.493 1.486.493 2.311 0 1.073-.329 2.063-.903 3.053-.902 1.403-2.297 2.641-3.938 3.549-1.641.908-3.447 1.403-5.088 1.403V203c1.15 0 2.38-.248 3.61-.66 1.806-.66 3.529-1.733 4.76-3.054.656-.66 1.148-1.403 1.559-2.228.41-.825.574-1.65.574-2.558 0-1.155-.41-2.31-.985-3.383-.902-1.568-2.461-2.806-4.102-3.714-1.723-.908-3.61-1.403-5.334-1.403h-4.512a1.09 1.09 0 0 0-1.067 1.073v14.772a1.09 1.09 0 0 0 1.067 1.072h4.512v-.165zM231 223.734s.267 1.94 1.067 3.88c.355 1.012.889 2.024 1.51 2.783.356.422.712.76 1.067 1.013.445.253.89.421 1.334.506.533.084 1.155.084 1.6.084.71 0 1.422-.084 2.044-.169.89-.168 1.69-.506 2.311-1.18.534-.591.89-1.434 1.067-2.53v-.17c0-.337-.089-.674-.267-1.012-.266-.59-.71-1.18-1.244-1.855-.8-.928-1.778-1.856-2.756-2.53-.444-.338-.977-.676-1.333-.929-.444-.253-.8-.421-1.067-.59-.089-.084-.266 0-.266.084-.09.085 0 .253.089.253.177.085.444.169.71.338.978.59 2.4 1.687 3.556 2.783.622.59 1.067 1.181 1.511 1.771.356.59.623 1.097.623 1.519v.084c-.09.675-.267 1.18-.445 1.687-.355.675-.978 1.096-1.689 1.35-.71.253-1.689.421-2.666.421-.534 0-1.067 0-1.6-.084-.445 0-.8-.169-1.156-.422-.622-.422-1.156-1.012-1.6-1.771-.711-1.181-1.156-2.53-1.511-3.627-.178-.59-.267-1.012-.356-1.35 0-.168-.089-.337-.089-.421v-.085c0-.084-.088-.168-.266-.168-.09.084-.178.168-.178.337zM.511 286h192.978c.256 0 .511-.25.511-.5s-.255-.5-.511-.5H.511c-.256 0-.511.25-.511.5s.255.5.511.5M369 173.622l-4.554-6.527c-.089-.095-.178-.095-.357-.095-.089.095-.089.19-.089.378l4.554 6.527c.089.095.178.095.357.095.089-.095.089-.284.089-.378M249.506 252s-1.665-.269-2.247-1.701c-.583-1.433 0-2.508 0-2.508s.333.896.915.537c.666-.358 2.33-2.149 5.826-2.328" fill="#4A4A4A"/><path d="M519.06 134c-6.408.34-12.046 1.617-17.258 3.405-5.212 1.787-10.167 4.085-15.122 6.639-3.418 1.702-7.177 4.426-10.936 7.405-5.64 4.512-11.193 9.874-15.379 14.13-2.05 2.128-3.845 4-5.04 5.277-.599.681-1.111 1.192-1.453 1.532-.171.17-.256.34-.342.426l-.085.085v.511c0 .17.085.34.17.425.086.086.257.17.428.17v-.595l-.171.596h.17v-.596l-.17.596.17-.596-.426.425c.085.086.17.086.256.17l.17-.595-.426.425.427-.425-.513.34c0 .085.086.085.086.17l.427-.425-.513.34.513-.255-.598.085c0 .085 0 .085.085.17l.513-.255-.598.085.598-.085h-.77v.085l.599-.085h-.598.598l-.598-.085v.085h.598l-.598-.085.598.085-.513-.17v.085l.598.085-.512-.17.427.17-.427-.17.427.17-.427-.17.17.085-.17-.085.17.085-.17-.085v.085c-.086.085-.171.426-.342.766-.598 1.192-1.88 3.575-2.905 5.533-.513 1.021-1.025 1.957-1.367 2.638-.17.34-.342.596-.427.766-.086.17-.171.256-.171.256l.598.255-.427-.425-3.588 3.83a17.707 17.707 0 0 0-4.785 10.64l-3.247 35.239-.598.51a13.175 13.175 0 0 0-4.186 9.619h.513H432h.513H432h.598H432c0 3.15.17 7.32.769 11.831.513 3.405 1.196 6.895 2.392 10.385.855 2.553 1.965 5.107 3.332 7.405 2.05 3.49 4.785 6.554 8.288 8.767 3.502 2.213 7.86 3.49 13.157 3.49a.583.583 0 0 0 .598-.596.583.583 0 0 0-.598-.596c-2.99 0-5.639-.425-8.031-1.191-4.101-1.362-7.348-3.83-9.825-6.895-1.88-2.298-3.418-5.022-4.529-7.83-1.794-4.257-2.819-8.938-3.417-13.28a84.74 84.74 0 0 1-.769-11.405h-.598.598-.598.598-.598.598-.598.598c0-3.32 1.367-6.47 3.845-8.682l.769-.681a.649.649 0 0 0 .17-.426l3.247-35.494c.342-3.745 1.88-7.235 4.443-9.874l3.588-3.83s.086-.085.086-.17c0 0 1.367-2.469 2.648-5.022.684-1.277 1.367-2.554 1.88-3.49l.598-1.192c.085-.17.17-.255.17-.34 0-.085 0-.085.086-.085v-.086-.085-.085-.085-.085-.17s0-.085-.085-.17c-.086-.086-.171-.17-.257-.17-.085-.086-.17-.086-.256-.086v.596h.598-.598l.598.17v-.17h-.598l.598.17-.598-.17.513.255s0-.085.085-.085l-.598-.17.513.255-.513-.255.513.34v-.085l-.513-.255.513.34-.342-.17.256.256-.342-.17.257.255c.085-.085.17-.256.427-.426 1.538-1.702 6.579-7.235 12.815-13.108 3.076-2.894 6.494-5.958 9.911-8.597 3.332-2.639 6.75-4.937 9.74-6.47 4.955-2.468 9.825-4.85 14.951-6.553 5.127-1.788 10.595-2.98 16.917-3.32v-.596.596a.583.583 0 0 0 .598-.596c-.256-.68-.598-.936-.94-.936zM835.284 286h.512c1.024 0 3.413-.085 6.399-.513a41.875 41.875 0 0 0 7.508-1.879c1.963-.683 4.01-1.623 5.888-2.904 2.815-1.794 5.46-4.272 7.337-7.603 1.877-3.332 3.072-7.433 3.072-12.558v-20.417c0-1.965-.768-3.76-2.218-5.126l-3.84-3.503-6.058-22.638-.597.171.597-.085c0-.086-.085-.427-.341-1.025-.427-.94-1.28-2.307-3.157-3.674-1.877-1.452-4.778-2.904-9.3-4.015-2.986-.769-7.594-1.708-13.396-2.819-17.406-3.246-45.477-7.261-70.39-7.86v.599l.34-.513-44.709-34-.34.513.426-.513c-12.543-10.422-26.792-17.512-42.32-19.99-6.4-1.025-13.225-1.88-20.051-1.88-11.177 0-92.234-.34-120.049-.768a.584.584 0 0 0-.597.598c0 .342.256.598.597.598 27.9.427 108.872.769 120.134.769 6.74 0 13.481.94 19.88 1.88 15.273 2.391 29.266 9.396 41.723 19.647l44.71 34c.084.086.255.086.34.086 16.553.427 34.47 2.306 49.829 4.528 7.679 1.11 14.59 2.306 20.392 3.331 5.802 1.11 10.41 2.05 13.31 2.82 2.901.768 5.12 1.622 6.74 2.477 2.475 1.281 3.755 2.648 4.352 3.673.341.513.512.854.597 1.196.086.17.086.256.086.256v.086h.341-.341.341-.341v.085l6.143 22.81c0 .085.085.255.17.34l3.925 3.674c1.195 1.11 1.792 2.563 1.792 4.186v20.417c0 2.905-.426 5.468-1.109 7.689-1.195 3.93-3.328 6.92-5.887 9.14-1.877 1.709-4.096 2.99-6.314 4.016-3.328 1.537-6.826 2.306-9.642 2.733-2.9.427-5.119.513-6.143.513H835.2c-.342 0-.598.256-.683.598.17.512.427.854.768.854z" fill="#4A4A4A"/><path d="M625.056 12c-8.009 0-14.739 5.31-16.869 12.56h-.085c-2.897 0-5.367 1.517-6.816 3.708a6.28 6.28 0 0 0-2.811-.674C594.897 27.594 592 30.46 592 34h60.83c.085-.506.17-1.011.17-1.517 0-4.383-3.578-8.008-8.094-8.008a7.45 7.45 0 0 0-2.726.506C640.05 17.479 633.235 12 625.056 12" fill="#EFF2FF"/><path d="M918.793 29h18.435c.343 0 .6-.257.6-.515.172-.686.172-1.373.172-2.059 0-2.917-1.2-5.577-3.087-7.55-1.886-1.888-4.63-3.089-7.546-3.089-1.286 0-2.486.257-3.6.6l.256.601.6-.171a23.015 23.015 0 0 0-7.888-12.012C912.876 1.802 908.075 0 902.845 0c-5.146 0-9.862 1.716-13.635 4.633-3.772 2.917-6.602 6.95-7.974 11.583l.6.172v-.601h-.085a10.8 10.8 0 0 0-5.231 1.373c-1.543.858-2.83 2.145-3.773 3.603l.515.344.257-.601c-1.115-.6-2.487-.858-3.773-.858-2.4 0-4.63.944-6.174 2.574-1.543 1.544-2.572 3.775-2.572 6.177 0 .172.086.344.171.43a.655.655 0 0 0 .43.171h39.442c.343 0 .6-.257.6-.6 0-.344-.257-.601-.6-.601H861.6v.515h.6c0-2.06.858-3.947 2.144-5.32 1.372-1.373 3.173-2.145 5.316-2.145 1.2 0 2.23.258 3.259.772.257.172.6 0 .771-.257.858-1.287 1.973-2.402 3.345-3.175a9.302 9.302 0 0 1 4.63-1.2h.086a.645.645 0 0 0 .6-.43 21.434 21.434 0 0 1 7.545-10.982c3.602-2.746 7.975-4.376 12.862-4.376 4.974 0 9.432 1.716 13.034 4.548a21.341 21.341 0 0 1 7.46 11.325c.085.172.171.343.343.429a.546.546 0 0 0 .514 0c1.03-.343 2.058-.6 3.173-.6 2.572 0 4.973 1.029 6.602 2.745a9.275 9.275 0 0 1 2.744 6.606c0 .601-.086 1.202-.171 1.802l.6.086v-.6H918.62c-.343 0-.6.257-.6.6.086.515.429.858.772.858zM909.408 34h-59.816c-.338 0-.592.214-.592.5 0 .286.254.5.592.5h59.816c.338 0 .592-.214.592-.5 0-.286-.254-.5-.592-.5" fill="#4A4A4A"/><path d="M448 183.5h26M828 211.5h25" fill="#FFF"/><path d="M827.257 211.8h25.486c.086 0 .257-.1.257-.3 0-.1-.086-.3-.257-.3h-25.486c-.086 0-.257.1-.257.3 0 .2.171.3.257.3M404.683 112.402s2.31-5.322 3.974-9.515a.868.868 0 0 1 .462-.484c.185-.08.462-.161.647-.161.277 0 .462.08.647.161.277.161.554.484.831.807.277.322.462.806.555 1.37 0 .242.092.484.092.726 0 .484-.092.968-.277 1.532l-1.479 4.355c0 .161 0 .242.185.322.093.081.277 0 .37-.08 0 0 .277-.403.647-.726.184-.161.37-.323.554-.403.092-.08.185-.08.277-.161h.278s.092 0 .092.08v.323c-.092.161-.185.403-.37.726-.277.483-.739 1.128-1.293 1.774a26.898 26.898 0 0 1-2.495 2.822c-.37.403-.74.806-1.11 1.048l-.461.403-.278.242c-.092.081-.185.242-.092.323.092.08.277.161.37.08.184-.08.37-.241.646-.483.462-.403 1.017-.968 1.571-1.532.924-.968 1.849-2.097 2.68-3.065.37-.484.74-.967.924-1.37.093-.242.185-.404.278-.565.092-.161.092-.323.092-.484v-.242c0-.08-.092-.161-.185-.242-.092-.08-.185-.161-.277-.161-.092-.08-.277-.08-.37-.08-.185 0-.277 0-.462.08-.277.08-.462.242-.647.403-.277.242-.554.484-.739.726-.185.242-.277.403-.277.403l.277.161.277.081 1.479-4.354c.185-.565.277-1.049.277-1.613 0-.242 0-.565-.092-.807-.093-.645-.37-1.129-.647-1.532s-.647-.726-.924-.967c-.277-.242-.647-.323-1.017-.323-.37 0-.739.08-1.016.242-.277.161-.555.403-.647.806-.832 2.097-1.848 4.516-2.588 6.37-.37.968-.739 1.694-1.016 2.259a5.136 5.136 0 0 1-.277.645c-.093.161-.093.242-.093.242-.092.161 0 .242.185.322.277-.322.462-.403.462-.484z" fill="#4A4A4A"/><path d="M363.8 168l9.185 12.489c.766 1.12 2.126 1.55 3.402 1.12l22.54-6.89c.17-.087.34.085.34.258l.68 3.962a3.076 3.076 0 0 1-1.701 3.359l-21.349 10.852c-1.87.948-4.167 1.12-6.123.43-1.616-.602-3.658-1.808-5.614-4.047-7.4-8.355-16.16-16.537-16.16-16.537" fill="#C8D2FF"/><path d="M503 238c-22.11 0-40 18.114-40 40.5s17.89 40.5 40 40.5 40-18.114 40-40.5-17.89-40.5-40-40.5zm0 68.867c-15.443 0-28.017-12.73-28.017-28.367 0-15.636 12.574-28.367 28.017-28.367s28.017 12.73 28.017 28.367c0 15.636-12.574 28.367-28.017 28.367z" fill="#4A4A4A" fill-rule="nonzero"/><g fill="#4A4A4A"><path d="M233.346 263.068c-1.272 0-2.882-.173-4.238-.604-8.73-2.505-13.478-3.887-16.105-4.664-1.272-.345-2.034-.605-2.458-.777-.255-.087-.34-.087-.424-.173h-.085c-.085 0-.508-.173-1.271-.432-.763-.173-1.865-.432-2.967-.432-.848 0-1.695.087-2.543.346a5.103 5.103 0 0 0-1.78.95c-.847.69-1.61 1.554-2.119 2.85-.508 1.295-.847 2.936-.847 5.009 0 1.295.17 2.418.423 3.368.255.691.509 1.296.933 1.727.593.691 1.271 1.21 2.034 1.555.763.345 1.61.432 2.458.432.933 0 1.526-.087 2.458-.346l-.254-.95c-.848.173-1.356.26-2.204.26a6.496 6.496 0 0 1-1.865-.26c-.423-.172-.847-.345-1.186-.604-.509-.432-1.017-1.037-1.272-1.814-.339-.864-.508-1.9-.508-3.368 0-1.814.254-3.196.593-4.232.254-.864.678-1.468 1.017-1.986a4.358 4.358 0 0 1 2.204-1.555c.763-.345 1.695-.432 2.458-.432 1.017 0 2.034.173 2.797.346.34.086.678.173.848.259.085 0 .17.086.254.086h.085s.085 0 .508.173c1.272.432 5.51 1.64 18.563 5.44 1.526.433 2.967.605 4.323.605l.17-.777zM241.144 261.686c2.373-1.381 4.323-3.195 5.679-4.75 1.526-1.727 2.373-3.195 2.458-3.281.17-.26 3.136-4.664 7.374-9.069 2.12-2.159 4.577-4.318 7.205-5.959 1.271-.777 2.628-1.468 3.899-1.9 1.356-.432 2.628-.69 3.984-.69h.847c3.73.345 6.527 1.468 8.646 2.936 1.441 1.036 2.628 2.245 3.475 3.54a7.787 7.787 0 0 1 1.272 4.319c0 1.123-.254 2.245-.763 3.54-.509 1.21-1.356 2.505-2.543 3.8l-3.475 3.973.339.346.339.345 3.475-3.972c1.187-1.382 2.12-2.678 2.713-4.06a9.487 9.487 0 0 0 .847-3.886c0-1.727-.508-3.368-1.44-4.836-.933-1.468-2.205-2.764-3.73-3.8-2.204-1.555-5.17-2.764-9.07-3.11-.339 0-.678-.086-.932-.086-1.441 0-2.882.26-4.323.778-2.458.863-4.916 2.418-7.12 4.145-3.39 2.677-6.272 5.96-8.391 8.55-2.12 2.591-3.39 4.491-3.39 4.491 0 .086-1.527 2.505-4.239 5.01-1.102 1.035-2.712 2.158-4.153 3.022"/></g><path fill="#4A4A4A" d="M236 232h1v29h-1zM239 232h1v29h-1z"/><path d="M407.297 179c-.086.17 0 0-.086.254l-11.512 40.19S391.66 230.02 403 228.92c13.145-1.27 31.102-6.261 34.968-8.207.172-.085.344-.17.43-.254l.601-8.715a28.112 28.112 0 0 0-2.32-2.877c-4.725-5.076-20.448-24.706-24.228-29.444h-1.718c.859 1.015 3.952 4.907 5.069 6.092 1.203 1.354 1.203 2.115.43 2.623-.602.423-4.984 1.607-8.163 1.946-2.577.254-1.632-2.2-1.632-2.2l2.492-8.8-1.633-.084zm-3.007 47.297c-.601.254-1.203.338-1.804.338-1.117 0-2.234-.338-3.007-.592-.773-.338-1.375-.592-1.375-.592-.086-.085-.086-.17-.086-.254.086-.085.172-.085.258-.085h.086c.086 0 .172.085.258.17.257.084.515.253.945.423.773.253 1.804.592 2.92.592.602 0 1.118-.085 1.633-.254.086 0 .172 0 .258.085 0 0 0 .169-.086.169zm5.928-18.614c-.086.084-.172.084-.257.084-.602-.338-1.117-.846-1.547-1.438-.43-.592-.687-1.185-.945-1.777-.43-1.1-.601-2.115-.601-2.115 0-.085.086-.17.171-.17.086 0 .172.085.172.17v.085c0 .084 0 .169.086.253.086.254.086.508.258.931.258.762.601 1.692 1.203 2.454a4.47 4.47 0 0 0 1.46 1.354c0-.085.086.084 0 .169z" fill="#6480FF" fill-rule="nonzero"/><path d="M400.405 174.846c.173-.084 1.476-.836 3.3-1.589.87-.334 1.912-.752 2.955-1.003 1.042-.25 2.085-.418 3.04-.418.87 0 1.738.167 2.433.502.695.334 1.216.92 1.65 1.672.522 1.003.696 1.839.696 2.424 0 .418-.087.752-.26 1.003-.088.167-.262.335-.435.502a2.96 2.96 0 0 1-1.043.418c-.434.083-.869.083-1.303.083-.782 0-1.477-.083-1.911-.167-.087 0-.26-.083-.435-.083-.52-.084-1.39-.335-2.432-.335-1.564 0-3.562.335-6.082 1.672-.173.084-.173.25-.087.334.087.168.261.168.348.084 2.433-1.254 4.344-1.588 5.82-1.588a9.3 9.3 0 0 1 1.738.167c.26.084.435.084.608.084.174 0 .348.083.435.083.434.084 1.216.167 1.998.167.434 0 .869 0 1.216-.083.608-.084 1.217-.335 1.651-.753.26-.167.434-.418.521-.752.087-.334.174-.669.174-1.003 0-.753-.26-1.589-.695-2.675-.434-.92-1.043-1.589-1.911-2.007-.782-.418-1.738-.585-2.694-.585-1.042 0-2.171.167-3.3.502-3.302.836-6.256 2.591-6.256 2.591-.174.084-.174.251-.087.335.087.418.26.501.348.418z" fill="#4A4A4A"/></g></svg>