
<svg xmlns="http://www.w3.org/2000/svg" width="116" height="35">
  <g fill="none" fill-rule="evenodd">
    <path fill="#FFF" fill-rule="nonzero" d="M5.238 20.698c-1.399 0-2.381-1.155-2.381-2.635v-.027c0-1.438.985-2.609 2.38-2.609.956 0 1.612.451 2.183 1.155l2.082-1.593c-.885-1.212-2.196-2.058-4.234-2.058-3.023 0-5.26 2.257-5.26 5.132v.027c0 2.947 2.297 5.104 5.148 5.104 2.21 0 3.48-.945 4.419-2.227L7.493 19.5c-.6.717-1.213 1.198-2.255 1.198zm8.612-5.443c-1.325 0-2.253.24-3.121.591l.555 1.889c.685-.269 1.311-.422 2.125-.422 1.04 0 1.54.451 1.54 1.241v.127a5.946 5.946 0 0 0-1.853-.296c-1.81 0-3.023.817-3.023 2.397v.027c0 1.523 1.126 2.353 2.596 2.353 1.012 0 1.738-.381 2.266-.96v.79h2.68v-4.381c0-1.072-.242-1.862-.827-2.426-.615-.605-1.556-.93-2.938-.93zm1.126 4.979c0 .76-.555 1.254-1.341 1.254-.555 0-.955-.309-.955-.833v-.026c0-.565.457-.946 1.24-.946.4 0 .784.083 1.056.196v.355zm6.585-3.33v-1.536h-2.71v7.627h2.71v-2.37c0-1.762.797-2.565 2.21-2.565h.228v-2.821c-1.282-.054-1.995.623-2.438 1.666zm4.506 6.091h2.767v-3.524h4.718V17.2h-4.718v-1.68h5.219v-2.396h-7.986v9.87zm8.995 0h2.71v-6.499h-2.71v6.5zm9.094-7.796c-1.097 0-1.81.607-2.31 1.241v-1.072h-2.71v7.627h2.71v-4.132c0-.833.484-1.284 1.14-1.284.642 0 1.083.451 1.083 1.284v4.132h2.71v-4.991c.002-1.733-.983-2.805-2.623-2.805zm7.27.056c-1.325 0-2.253.24-3.121.591l.555 1.889c.686-.269 1.312-.422 2.125-.422 1.042 0 1.54.451 1.54 1.241v.127a5.946 5.946 0 0 0-1.853-.296c-1.81 0-3.023.817-3.023 2.397v.027c0 1.523 1.127 2.353 2.596 2.353 1.012 0 1.739-.381 2.267-.96v.79h2.68v-4.381c0-1.072-.242-1.862-.827-2.426-.615-.605-1.554-.93-2.939-.93zm1.126 4.979c0 .76-.555 1.254-1.341 1.254-.555 0-.955-.309-.955-.833v-.026c0-.565.457-.946 1.24-.946.4 0 .784.083 1.056.196v.355zm8.898-5.035c-1.097 0-1.81.607-2.31 1.241v-1.072h-2.71v7.627h2.71v-4.132c0-.833.484-1.284 1.14-1.284.642 0 1.083.451 1.083 1.284v4.132h2.71v-4.991c0-1.733-.985-2.805-2.623-2.805zm7.738 5.725c-.911 0-1.54-.747-1.54-1.733v-.027c0-.93.642-1.692 1.51-1.692.656 0 1.07.295 1.44.803l1.84-1.354c-.657-1.03-1.712-1.706-3.293-1.706-2.438 0-4.136 1.819-4.136 3.976v.027c0 2.157 1.711 3.963 4.035 3.963 1.698 0 2.724-.704 3.437-1.75l-1.81-1.297c-.427.492-.84.79-1.483.79zm11.363-1.553c0-2.24-1.227-4.172-3.891-4.172-2.28 0-3.89 1.762-3.89 3.99v.026c0 2.37 1.71 3.963 4.135 3.963 1.54 0 2.61-.62 3.35-1.55L78.757 20.4c-.555.535-1.07.777-1.712.777-.84 0-1.453-.422-1.668-1.255h5.162c.011-.183.011-.382.011-.55zm-5.219-.817c.142-.832.629-1.38 1.342-1.38.74 0 1.24.534 1.341 1.38h-2.683zm-38.82-6.548c.813 0 1.472.677 1.472 1.51 0 .836-.659 1.51-1.472 1.51-.814 0-1.473-.677-1.473-1.51s.66-1.51 1.473-1.51zM114.614 8.797L103.129.842a3.235 3.235 0 0 0-3.452-.536L86.339 5.998a3.185 3.185 0 0 0-1.95 2.598l-1.007 10.206v.013l-.126 1.281.003.003-.256 2.653s-.116 1.845 1.308 2.835l11.779 8.2c.73.506 1.605.671 2.423.522.3-.04.595-.12.884-.248l13.132-5.784c1.592-.7 1.907-1.694 2.15-4.15l1.208-12.248a3.036 3.036 0 0 0-1.273-3.082z"/>
    <path fill="#604DD5" fill-rule="nonzero" d="M91.29 19.6c1.429-1.053 2.227-1.868 2.227-3.44v-.028c0-1.854-1.442-3.132-3.545-3.132-1.869 0-2.885.745-3.914 2.106l1.798 1.53c.756-.884 1.263-1.265 1.909-1.265.646 0 1.071.378 1.071.997 0 .59-.344 1.053-1.236 1.769L86 20.945v2.05h7.611V20.78h-3.97l1.65-1.181zm10.479-6.5h-2.694l-4.986 6.066.439 1.923h4.657V23h2.584v-1.91h1.223v-2.037h-1.223V13.1zm-2.584 5.966h-2.294l2.294-2.821v2.821zm4.408-5.897v2.288h4.45l-4.232 7.54h2.94L111 15.22v-2.05h-7.407z"/>
  </g>
</svg>
