<svg xmlns="http://www.w3.org/2000/svg" width="36" height="38">
  <path fill="#aaaaaa" opacity="0.3" fill-rule="evenodd" d="M.552 27.592C.552 17.331 4.104 8.5 11.208 1.1 11.8.508 12.441.212 13.132.212c1.48 0 2.22.74 2.22 2.22 0 .395-.148.839-.444 1.332-3.65 5.032-5.476 9.521-5.476 13.468 0 1.875.888 3.947 2.664 6.216 1.776 2.27 2.664 4.44 2.664 6.512 0 4.736-2.318 7.104-6.956 7.104-4.835 0-7.252-3.157-7.252-9.472zm20.424 0c0-10.261 3.552-19.092 10.656-26.492.592-.592 1.233-.888 1.924-.888 1.48 0 2.22.74 2.22 2.22 0 .395-.148.839-.444 1.332-3.65 5.032-5.476 9.521-5.476 13.468 0 1.875.888 3.947 2.664 6.216 1.776 2.27 2.664 4.44 2.664 6.512 0 4.736-2.318 7.104-6.956 7.104-4.835 0-7.252-3.157-7.252-9.472z"/>
</svg>
