<svg id="Layer_1" xmlns="http://www.w3.org/2000/svg" xmlns:xlink="http://www.w3.org/1999/xlink" viewBox="0 0 375 257"><style>.st0{fill:#fff}.st1{fill:#eef2ff}.st2{fill:#4a4a4a}.st3{fill:#eff2ff}.st4{fill:#c9d3ff}.st5{fill:#6accb6}.st7{fill:#3d3d3d}</style><g id="Page-1"><g id="FAQ-home-mobile" transform="translate(0 -285)"><image width="986" height="578" id="Bitmap" xlink:href="cd99bb08d8c248a5.html" transform="translate(705.037 285) scale(.4446)" overflow="visible"/></g></g><path class="st0" d="M136.6 115.4v12.2h.8v-12.2"/><path class="st1" d="M138.4 132V91l-26.5-8.9V104H96.6V82.2L84.5 74 73 81.8h13.2c.2 0 .4.2.4.4s-.2.4-.4.4H72.5v13.6H54.2V69.3h-4.4v-3.7H27.6v3.3H41v.8H23.1v19.2H7.3v-6.8H0v55.2M178 153.8"/><path class="st0" d="M42.8 117.4H65V154H42.8zM21.7 129h21v25.1h-21z"/><path class="st2" d="M42.7 154v-.2H21.9v-24.7h20.6V154h.2v-.2.2h.2v-25.2H21.6l-.1.2v25l.1.2h21.3v-.2z"/><path class="st0" d="M30.4 141.5h5.1"/><path class="st2" d="M30.4 141.5H35.6l-.1-.1h-5.1l-.1.1h.1"/><path class="st0" d="M21.7 141.5h3.4"/><path class="st2" d="M21.7 141.5h3.4v-.1h-3.4v.1"/><path class="st1" d="M24.7 132.7h6.1v5.6h-6.1zM33.6 132.7h6.1v5.6h-6.1zM29.9 148.3h3.8v5.8h-3.8z"/><path class="st0" d="M31 146c0 2.8-1.5 3.7-3.3 3.7s-3.3-.9-3.3-3.7c0-1.2.3-2.9.7-4.6.6-2.2 1.6-4.2 2.6-4.2 1.8 0 3.3 5.9 3.3 8.8z"/><path class="st2" d="M31 146h-.2c0 1.4-.4 2.3-.9 2.8-.6.5-1.3.7-2.2.7-.9 0-1.7-.2-2.2-.7-.6-.5-.9-1.4-.9-2.8 0-1.2.3-2.9.7-4.5.3-1.1.7-2.1 1.1-2.9.2-.4.4-.7.7-.9.2-.2.4-.3.7-.3.2 0 .4.1.6.2.7.5 1.4 2 1.8 3.6.5 1.6.8 3.5.8 4.7h.2c0-1.4-.4-3.6-1-5.5-.3-.9-.7-1.8-1.1-2.4-.2-.3-.4-.6-.7-.7-.2-.2-.5-.3-.8-.3-.3 0-.6.2-.9.4-.8.7-1.4 2.2-1.9 3.9-.5 1.6-.7 3.4-.7 4.6 0 1.4.4 2.4 1 3 .7.6 1.5.8 2.5.8.9 0 1.8-.2 2.5-.8.7-.6 1-1.6 1-3H31z"/><path class="st0" d="M27.7 149.7v4.2"/><path class="st2" d="M27.6 149.7v4.3c0 .1.1.1.1.1.1 0 .1-.1.1-.1v-4.3c0-.1-.1-.1-.1-.1-.1-.1-.1 0-.1.1"/><path class="st0" d="M55.9 117.4H42.8v8.3"/><path class="st2" d="M55.9 117.2H42.8l-.1.1-.1.1v8.3c0 .1.1.2.2.2s.2-.1.2-.2v-8.1h13c.1 0 .2-.1.2-.2-.1-.1-.1-.2-.3-.2z"/><path class="st1" d="M58.6 153.9v-7.5c0-2.4-2-4.3-4.3-4.3s-4.3 2-4.3 4.3v7.5"/><path class="st0" d="M0 115.9h1.4v22.4H0z"/><path class="st0" d="M.5 115.9h21.2V154H.5"/><path class="st2" d="M.7 116h20.8v38.1h.2v-.2H.5c-.1 0-.2.1-.2.2s.1.2.2.2h21.2l.1-.1.1-.1v-38.3l-.1-.1-.1-.1H.5l-.1.1-.1.1"/><path class="st1" d="M8.4 147h5.4v6.9H8.4z"/><path class="st0" d="M37.3 129.4h6.3v-2H20.9v2h.8"/><path class="st2" d="M37.3 129.6h6.3l.1-.1.1-.1v-2l-.1-.1-.1-.1H20.9l-.1.1-.1.1v2l.1.1.1.1h.8c.1 0 .2-.1.2-.2s-.1-.2-.2-.2h-.6v-1.6h22.2v1.6h-6.1c-.1 0-.2.1-.2.2.1.1.2.2.3.2z"/><path class="st0" d="M-.2 113.9h22.6v2H-.2z"/><path class="st2" d="M22.4 113.9v-.2H-.2l-.1.1-.1.1v2l.1.1H22.6v-2.2l-.2-.1v.2h-.2v1.8H0v-1.6h22.4v-.2h-.2z"/><path class="st1" d="M3.7 119.4h6.1v5.6H3.7zM12.5 119.4h6.1v5.6h-6.1zM3.7 127.3h6.1v5.6H3.7zM12.5 127.3h6.1v5.6h-6.1zM46.6 122.2h5.9v5.6h-5.9z"/><path class="st2" d="M.3 154c0 .1.1.2.2.2s.2-.1.2-.2"/><path class="st0" d="M92.3 153.9H72.1v-30.2h20.2z"/><path class="st1" d="M375 116.1l-.1-37.4h-9.5v49.4c0 .2-.2.4-.4.4s-.4-.2-.4-.4v-37l-8.5-14.9-8.5 15h-.4v-25h-30.9v44.4c0 .2-.2.4-.4.4s-.4-.2-.4-.4v-24l-15.3 8V128c0 .2-.2.4-.4.4s-.4-.2-.4-.4V71.7h-23.3v32.4c0 .2-.2.4-.4.4s-.4-.2-.4-.4v-7.5h-18.8V78.5h-1.7c-.1-2.7-2.7-4.9-5.9-4.9-3 0-5.5 2-5.9 4.5h3.9c.2 0 .4.2.4.4s-.2.4-.4.4h-5.7v17.7h-3.8v32.1l3.8.3v24.7h55.3v.3h78.4m-117.6-24.7c0 .2-.2.4-.4.4s-.4-.2-.4-.4v-25.2c0-.2.2-.4.4-.4s.4.2.4.4v25.2z"/><path class="st0" d="M371.9 153.9v-33.5M372 120.7h3v33.4h-3z"/><path class="st2" d="M371.9 120.2l-.1.1-.1.1V154c0 .1.1.2.2.2s.2-.1.2-.2v-33.4M393 153.9c0 .1.1.2.2.2s.2-.1.2-.2"/><path class="st0" d="M375 120.7v-2h-3.7v2h3.8"/><path class="st2" d="M375 118.5h-3.7l-.1.1-.1.1v2l.1.1.1.1h2.8c.1 0 .2-.1.2-.2s-.1-.2-.2-.2h-2.6v-1.6h3.5"/><path class="st0" d="M320.6 154.2h-41.7v-38.1h20.8l.2 2.4h20.7zM299.7 143.9v10"/><path class="st2" d="M299.6 143.9v10c0 .1.1.2.2.2s.2-.1.2-.2v-10c0-.1-.1-.2-.2-.2-.2 0-.2.1-.2.2"/><path class="st0" d="M283 116h16.7v2.4"/><path class="st2" d="M283 116.1h16.6v2.3c0 .1.1.2.2.2s.2-.1.2-.2V116l-.1-.1-.1-.1H283c-.1 0-.2.1-.2.2s.1.1.2.1z"/><path class="st0" d="M299.6 118.6v35.6h-39.9v-36M320.8 133.4h30.8V154h-30.8zM372.5 130.5v23.4h-20.9v-23.4"/><path class="st0" d="M351.6 147.2v-18.1H372v3.4"/><path class="st2" d="M351.8 147.2v-18h19.9v3.2c0 .1.1.2.2.2s.2-.1.2-.2V129l-.1-.1-.1-.1h-20.3l-.1.1-.1.1v18.2c0 .1.1.2.2.2s.2-.1.2-.2z"/><path class="st1" d="M354.8 133.4h6.2v5.6h-6.2zM363.8 133.4h6.2v5.6h-6.2zM282.7 119.6h5.7v5.6h-5.7zM290.9 119.6h5.7v5.6h-5.7zM282.7 126.8h5.7v5.6h-5.7zM290.9 126.8h5.7v5.6h-5.7z"/><path class="st0" d="M374.7 146.2c0 2.8-1.5 3.7-3.3 3.7-1.8 0-3.3-.9-3.3-3.7 0-2.8 1.5-8.7 3.3-8.7 1.8-.1 3.3 5.8 3.3 8.7z"/><path class="st2" d="M374.7 146.2h-.2c0 1.4-.4 2.3-.9 2.8-.6.5-1.3.7-2.2.7-.9 0-1.7-.2-2.2-.7-.6-.5-.9-1.4-.9-2.8s.4-3.6 1-5.4c.3-.9.7-1.7 1-2.3.2-.3.4-.5.6-.7.2-.1.4-.2.6-.2.2 0 .4.1.6.2.7.5 1.4 2 1.8 3.6.5 1.6.8 3.5.8 4.7h.2c0-1.4-.4-3.6-1-5.5-.3-.9-.7-1.8-1.1-2.4-.2-.3-.4-.6-.7-.7-.2-.2-.5-.3-.8-.3-.3 0-.5.1-.8.3-.8.6-1.5 2.2-2 3.8-.5 1.7-.8 3.5-.8 4.8 0 1.4.4 2.4 1 3 .7.6 1.5.8 2.5.8.9 0 1.8-.2 2.5-.8.7-.6 1-1.6 1-3z"/><path class="st0" d="M335.5 138.2h17.3v-6h-33.5v6h9.8"/><path class="st2" d="M335.5 138.4h17.3l.1-.1.1-.1v-6l-.1-.1-.1-.1h-33.5l-.1.1-.1.1v6l.1.1.1.1h9.7c.1 0 .2-.1.2-.2s-.1-.2-.2-.2h-9.5v-5.6h33.1v5.6h-17.1c-.1 0-.2.1-.2.2s.1.2.2.2z"/><path class="st0" d="M299.5 118.4h21.2v35.5"/><path class="st2" d="M299.5 118.6h21V154c0 .1.1.2.2.2s.2-.1.2-.2v-35.6l-.1-.1-.1-.1h-21.2c-.1 0-.2.1-.2.2s.1.2.2.2z"/><path class="st1" d="M325.9 145.7h10.3v8.4h-10.3zM360.2 148.4h4.1v5.6h-4.1zM302.9 132.2h6.1v5.6h-6.1z"/><path class="st0" d="M348.3 148c0 2.2-1.2 2.9-2.6 2.9-1.5 0-2.6-.7-2.6-2.9s1.2-6.9 2.6-6.9c1.4 0 2.6 4.6 2.6 6.9z"/><path class="st2" d="M348.3 148h-.2c0 1.1-.3 1.8-.7 2.2-.4.4-1 .6-1.7.6s-1.3-.2-1.7-.6c-.4-.4-.7-1.1-.7-2.2s.3-2.8.8-4.2c.2-.7.5-1.4.8-1.8.2-.2.3-.4.5-.5.2-.1.3-.2.4-.2.1 0 .3.1.4.2.5.4 1.1 1.6 1.4 2.9.4 1.3.6 2.7.6 3.7H348.5c0-1.2-.3-2.9-.8-4.3-.2-.7-.5-1.4-.9-1.9-.2-.2-.3-.5-.5-.6-.2-.1-.4-.2-.6-.2-.2 0-.5.1-.6.2-.7.5-1.2 1.7-1.6 3.1-.4 1.3-.6 2.8-.6 3.8 0 1.2.3 1.9.8 2.4s1.2.7 2 .7 1.5-.2 2-.7c.5-.5.8-1.3.8-2.4h-.2z"/><path class="st0" d="M254.2 138.3h2.3v3h-2.3zM238.8 123.6h2.3v3.1h-2.3z"/><path class="st0" d="M244.5 153.9h-18.2v-27.3h18l1.4 7.2h-1.2z"/><path class="st0" d="M259.4 154h-14.9v-15.1l14.9 2.6z"/><path class="st2" d="M244.4 134h1.3c.1 0 .1 0 .1-.1v-.2l-1.4-7.2c0-.1-.1-.2-.2-.2h-3.1v-2.9c0-.1-.1-.2-.2-.2s-.2.1-.2.2v3l.1.1.1.1h3.1l1.3 6.8h-1c-.1 0-.2.1-.2.2.1.3.2.4.3.4zM226.6 133.6h-1l1.3-6.8h3.1c.1 0 .2-.1.2-.2s-.1-.2-.2-.2h-3.3c-.1 0-.2.1-.2.2l-1.4 7.2v.2l.1.1h1.3c.1 0 .2-.1.2-.2.1-.2 0-.3-.1-.3zM259.3 134.3v7l-2.7-.4v-2.5c0-.1-.1-.2-.2-.2h-2.2l-.1.1-.1.1v2.1l-9.4-1.6c-.1 0-.2.1-.2.2s.1.2.2.2l9.7 1.6h.2l.1-.1v-2.1h1.8v2.5c0 .1.1.2.2.2l3.1.5h.2l.1-.1v-7.2c0-.1-.1-.2-.2-.2-.5-.3-.5-.2-.5-.1zM279.5 147.7v-6.3c0-.1-.1-.2-.2-.2s-.2.1-.2.2v6.3M279.5 154v-2.3c0-.1-.1-.2-.2-.2s-.2.1-.2.2v2.3"/><path class="st2" d="M226.2 133.8v20.1c0 .1.1.2.2.2s.2-.1.2-.2v-20.1c0-.1-.1-.2-.2-.2s-.2.1-.2.2M241.1 123.4h-2.3l-.1.1-.1.1v2.9h-11.4c-.1 0-.2.1-.2.2s.1.2.2.2h11.6l.1-.1.1-.1v-2.9h2.1c.1 0 .2-.1.2-.2-.1-.1-.1-.2-.2-.2z"/><path class="st0" d="M226.4 153.9v-20"/><path class="st2" d="M226.6 153.9v-20c0-.1-.1-.2-.2-.2s-.2.1-.2.2v20c0 .1.1.2.2.2s.2-.1.2-.2"/><path class="st0" d="M244.5 133.9v20"/><path class="st2" d="M244.3 133.9v20c0 .1.1.2.2.2s.2-.1.2-.2v-20c0-.1-.1-.2-.2-.2-.1.1-.2.1-.2.2"/><path class="st1" d="M234.3 141.1v-4.5h-4.2v4.5M237.6 153.9v-6.6h-4.2v6.6M240.8 141.1v-4.5h-4.2v4.5"/><path class="st0" d="M239.5 143.9h5"/><path class="st2" d="M239.5 144h5l.1-.1-.1-.1h-5l-.1.1.1.1"/><path class="st0" d="M226.4 143.9h10.7"/><path class="st2" d="M226.4 144h10.7l.1-.1-.1-.1h-10.7l-.1.1.1.1"/><path class="st0" d="M279.3 121.5v-7.1h-19.9v39.4"/><path class="st2" d="M279.5 121.5v-7.1l-.1-.1-.1-.1h-19.8l-.1.1-.1.1v39.4c0 .1.1.2.2.2s.2-.1.2-.2v-39.3h19.5v6.9c0 .1.1.2.2.2 0 .1.1 0 .1-.1z"/><path class="st1" d="M264.3 153.8v-6.5h10.1v6.5M264.3 141.2v-6.6h10.1v6.6M246.9 154v-6.7h10v6.7"/><path class="st0" d="M259.5 115.2v-3.3h3.7v2.7"/><path class="st2" d="M259.6 115.2v-3.1h3.4v2.5c0 .1.1.2.2.2s.2-.1.2-.2v-2.7l-.1-.1-.1-.1h-3.8l-.1.1-.1.1v3.3c0 .1.1.2.2.2.2 0 .2-.1.2-.2z"/><path class="st0" d="M275.5 114.7v-2.8h3.8v3.3"/><path class="st2" d="M275.7 114.7v-2.6h3.4v3.1c0 .1.1.2.2.2s.2-.1.2-.2v-3.3l-.1-.1-.1-.1h-3.8l-.1.1-.1.1v2.8c0 .1.1.2.2.2s.2-.1.2-.2z"/><path class="st1" d="M268.6 128.6v-7c0-1.2-1-2.2-2.2-2.2-1.2 0-2.2 1-2.2 2.2v7M275.1 128.6v-7c0-1.2-1-2.2-2.2-2.2s-2.2 1-2.2 2.2v7"/><path class="st0" d="M229.2 126.6h1"/><path class="st2" d="M229.2 126.8h1.1c.1 0 .2-.1.2-.2s-.1-.2-.2-.2h-1.1c-.1 0-.2.1-.2.2s0 .2.2.2M231.6 134h13.5c.1 0 .2-.1.2-.2s-.1-.2-.2-.2h-13.5c-.1 0-.2.1-.2.2s.1.2.2.2M226.3 134h2.5c.1 0 .2-.1.2-.2s-.1-.2-.2-.2h-2.5c-.1 0-.2.1-.2.2s.1.2.2.2"/><path class="st1" d="M294 153.8v-7.5c0-2.4-2-4.3-4.3-4.3s-4.3 2-4.3 4.3v7.5"/><path class="st0" d="M226.4 143.9h2.8"/><path class="st2" d="M226.4 144h2.8v-.1h-2.8v.1"/><path class="st1" d="M302.9 122.8h6.1v5.6h-6.1z"/><path class="st0" d="M345.7 150.9v3"/><path class="st2" d="M345.5 150.9v3c0 .1.1.2.2.2s.2-.1.2-.2v-3c0-.1-.1-.2-.2-.2s-.2.1-.2.2"/><path class="st0" d="M371.3 149.9v4"/><path class="st2" d="M371.1 149.9v4.1c0 .1.1.2.2.2s.2-.1.2-.2v-4.1c0-.1-.1-.2-.2-.2s-.2.1-.2.2"/><path class="st0" d="M259 146.4l-3.4 1.3c-.7.3-1.4.8-1.8 1.5-.4.7-.6 1.5 0 2.2 1.3 1.3 5.2-1.1 5.2-1.1"/><path class="st3" d="M304.5 24.9c-4.5 0-8.2 3-9.3 7.2-.5-.2-1-.3-1.5-.3-2.4 0-4.4 2-4.4 4.4 0 .3 0 .6.1.9h33.2c0-2-1.6-3.6-3.6-3.6-.6 0-1.1.1-1.6.4-.8-1.2-2.2-2.1-3.7-2.1-1.2-4-4.9-6.9-9.2-6.9"/><path class="st0" d="M93.3 129.5v-9.3H72.1v3.5"/><path class="st2" d="M93.5 129.5v-9.3l-.1-.1-.1-.1H72.1l-.1.1-.1.1v33.5c0 .1.1.2.2.2s.2-.1.2-.2v-33.3h20.8v9.1c0 .1.1.2.2.2s.2-.1.2-.2z"/><path class="st0" d="M71.5 118.6h22.4v2H71.5z"/><path class="st0" d="M71.9 118.6H94v1.9"/><path class="st2" d="M71.9 118.8h22v1.8c0 .1.1.2.2.2s.2-.1.2-.2v-2l-.1-.1-.1-.1H71.9c-.1 0-.2.1-.2.2s.1.2.2.2z"/><path class="st1" d="M79.5 153.9h7.3v-8.1c0-2-1.6-3.7-3.7-3.7s-3.7 1.6-3.7 3.7v8.1z"/><path class="st0" d="M94 120.5H72.7"/><path class="st2" d="M94 120.3H72.7c-.1 0-.2.1-.2.2s.1.2.2.2H94c.1 0 .2-.1.2-.2s-.1-.2-.2-.2"/><path class="st1" d="M75.5 123.2h5.7v6.5h-5.7zM84.1 123.2h6.1v6.5h-6.1z"/><path class="st0" d="M92.3 130.3h21.4V154H92.3z"/><path class="st0" d="M112.7 153.8v-24.9H90.9"/><path class="st2" d="M113.9 153.8v-24.9l-.1-.1-.1-.1H93.3c-.1 0-.2.1-.2.2s.1.2.2.2h20.2v24.7c0 .1.1.2.2.2s.2-.1.2-.2z"/><path class="st1" d="M104.4 133.2h6.2v5.6h-6.2zM95.4 133.2h6.2v5.6h-6.2z"/><path class="st0" d="M119.2 138.1h-5.5v-6H146v6h-21.7"/><path class="st2" d="M119.2 137.9h-5.3v-5.6h31.9v5.6h-21.4c-.1 0-.2.1-.2.2s.1.2.2.2H146l.1-.1.1-.1v-6l-.1-.1-.1-.1h-32.3l-.1.1-.1.1v6l.1.1.1.1h5.5c.1 0 .2-.1.2-.2s-.1-.2-.2-.2z"/><path class="st1" d="M124.1 145.5h10.3v8.4h-10.3zM101 148.3h4.1v5.6H101z"/><path class="st0" d="M117 147.8c0 2.2 1.2 2.9 2.6 2.9 1.5 0 2.6-.7 2.6-2.9s-1.2-6.9-2.6-6.9c-1.4 0-2.6 4.7-2.6 6.9z"/><path class="st2" d="M117 147.8h-.2c0 1.2.3 1.9.8 2.4s1.2.7 2 .7 1.5-.2 2-.7c.5-.5.8-1.3.8-2.4 0-1.2-.3-2.9-.8-4.3-.2-.7-.5-1.4-.9-1.9-.2-.2-.3-.5-.5-.6-.2-.1-.4-.2-.6-.2-.2 0-.5.1-.6.2-.7.5-1.2 1.7-1.6 3.1-.4 1.3-.6 2.8-.6 3.8h.4c0-1.1.3-2.8.8-4.2.2-.7.5-1.4.8-1.8.2-.2.3-.4.5-.5.2-.1.3-.2.4-.2.1 0 .3.1.4.2.5.4 1.1 1.6 1.4 2.9.4 1.3.6 2.7.6 3.7 0 1.1-.3 1.8-.7 2.2-.4.4-1 .6-1.7.6s-1.3-.2-1.7-.6c-.4-.4-.7-1.1-.7-2.2h-.3z"/><path class="st0" d="M113.6 142.4h-8.9"/><path class="st2" d="M113.6 142.3H92.7v.2h20.9l.1-.1-.1-.1"/><path class="st0" d="M113.7 130.3h-13.6"/><path class="st2" d="M113.7 130.3H93.1v.1h20.6l.1-.1h-.1M119.5 150.7v3c0 .1.1.2.2.2s.2-.1.2-.2v-3c0-.1-.1-.2-.2-.2-.2 0-.2.1-.2.2"/><path class="st0" d="M92.5 139v14.8"/><path class="st2" d="M92.3 139v14.8c0 .1.1.2.2.2s.2-.1.2-.2V139c0-.1-.1-.2-.2-.2s-.2.1-.2.2"/><path class="st0" d="M1.2 154h373.7"/><path class="st2" d="M1.2 154.2h373.7c.1 0 .2-.1.2-.2s-.1-.2-.2-.2H1.2c-.1 0-.2.1-.2.2s.1.2.2.2"/><path class="st0" d="M144.9 138.2V154"/><path class="st2" d="M144.8 138.2V154c0 .1.1.2.2.2s.2-.1.2-.2v-15.8c0-.1-.1-.2-.2-.2-.2 0-.2.1-.2.2"/><g><path class="st0" d="M339.1 153.2l1.4 3.2c.3 1.1.4 2.1-.4 2.8-1.4 1.1-2.6-.5-2.7-1.7 0 0-1.4.4-1.5-.7 0-1.1.2-3.3.2-3.3"/><path class="st2" d="M338.9 153.3l1.4 3.2.2-.1-.2.1c.1.4.2.8.2 1.2 0 .5-.2 1-.6 1.3-.3.2-.5.3-.8.3-.4 0-.7-.2-1-.6-.3-.4-.5-.8-.5-1.2 0-.1 0-.1-.1-.2-.1 0-.1-.1-.2 0h-.4c-.2 0-.4 0-.5-.1-.1-.1-.2-.2-.2-.4v-.2c0-.6.1-1.3.1-1.9.1-.6.1-1.1.1-1.1 0-.1-.1-.3-.2-.3s-.3.1-.3.2c0 0-.3 1.9-.3 3v.3c0 .4.2.7.5.8.3.2.5.2.8.2.3 0 .5-.1.6-.1l-.1-.3h-.3c.1.5.3 1.1.6 1.5.4.4.8.8 1.4.8.4 0 .7-.1 1.1-.4.5-.5.8-1.1.8-1.7 0-.4-.1-.9-.2-1.3l-1.4-3.2c-.1-.1-.2-.2-.3-.1-.2 0-.3.1-.2.3zM310.3 113c-.7-.7-1.1-1.8-1.2-3.3-.2-4.1 1.9-9.9 3.4-10.6.3-.1.6-.1.8.1.7.7 1.3 1.1 1.8 1.1s.9-.5 1.3-.9c.7-.8 1.5-1.8 3.2-.7 3.4 2.2 4 7.5 1.3 11.8-2.7 4.4-5 4.5-9.5 3.1-.4-.1-.8-.3-1.1-.6zm2.8-13.6c-.1-.1-.3-.1-.4-.1-1.3.6-3.5 6.1-3.2 10.3.1 1.4.5 3.2 2.1 3.7 5.3 1.6 7 .4 9.1-3 2.6-4.1 2-9.2-1.2-11.3-1.5-.9-2.1-.2-2.8.6-.4.5-.9 1-1.5 1.1-.7-.1-1.3-.5-2.1-1.3z"/><path class="st4" d="M255.1 219.5c0 1.1-8.6 1.9-19.3 1.9-10.6 0-19.3-.9-19.3-1.9 0-1.1 8.6-1.9 19.3-1.9 10.7 0 19.3.9 19.3 1.9z"/><path class="st2" d="M248.9 207.1s3.9-1.6 3.2-8.1c-.1-.7-.6-.7-.6-.7s-.6 0-.5.9c.1.8-.3 5.2-3.8 5.6"/><path class="st0" d="M248.3 211.3c1.1 3.4 1.3 3.5 1.6 4.2.3.7.3 2.3-1.9 2.7"/><path class="st2" d="M248.1 211.3c.5 1.7.9 2.6 1.1 3.1.2.5.4.8.5 1.1.1.2.1.4.1.7 0 .4-.1.7-.4 1-.3.3-.7.6-1.5.7-.1 0-.2.1-.2.2s.1.2.2.2c.8-.1 1.4-.5 1.7-.9.3-.4.5-.9.5-1.3 0-.3-.1-.6-.1-.8-.1-.4-.3-.6-.5-1.1-.2-.5-.6-1.4-1.1-3.1 0-.1-.1-.2-.3-.1 0 .1-.1.2 0 .3z"/><path class="st0" d="M227.6 205.2s-3.1 5.7-3 7.9c.1 2.2 2.2 3.3 2.2 3.3"/><path class="st2" d="M227.4 205.1l-1.5 3c-.4.8-.7 1.7-1 2.6-.3.8-.5 1.6-.5 2.2v.2c.1 1.1.6 2 1.2 2.6.5.6 1.1.9 1.1.9.1.1.2 0 .3-.1.1-.1 0-.2-.1-.3-.1-.1-.6-.4-1.1-.9-.5-.5-.9-1.3-1-2.2v-.1c0-.5.2-1.3.5-2.1.4-1.2 1-2.6 1.5-3.7.3-.5.5-1 .7-1.3.2-.3.3-.5.3-.5.1-.1 0-.2-.1-.3-.1-.2-.3-.1-.3 0z"/><path class="st0" d="M236.7 181.2c.1-.6-.4-1-.9-1-1.2.1-2.4 1.4-3.7 5.1l-12.7-2.8c-1.1-.3-2.2.7-2.2 1.9.1 3.2 1.4 8.7 9.2 10.7"/><path class="st2" d="M237 181.3v-.1c0-.6-.5-1.1-1.1-1.1h-.1c-.7 0-1.3.4-2 1.3-.6.8-1.3 2.1-2 4l.2.1v-.2l-12.7-2.8h-.4c-1.1 0-2 .9-2 2.1v.1c0 1.6.4 3.8 1.8 5.9 1.3 2.1 3.7 4 7.6 5 .1 0 .2 0 .3-.1 0-.1 0-.2-.1-.3-3.9-1-6.1-2.8-7.4-4.8-1.3-2-1.6-4.1-1.7-5.7 0-.5.2-.9.5-1.2.3-.3.7-.5 1.1-.5h.3l12.7 2.8c.1 0 .2 0 .2-.1.7-1.9 1.3-3.1 1.9-3.9.6-.8 1.1-1.1 1.7-1.1.4 0 .7.3.7.7v.1c0 .1.1.2.2.2.1-.2.2-.3.3-.4z"/><path class="st0" d="M227 195.4s-.5 6.6.5 9.8c1 3.2-1 12-1 12-1 .3-.8 1.8.2 1.8h4l1.6-6.9s4.3 1.6 9.4.7l.1.7c.1 1.2.5 2.3 1.2 3.3-1.3.2-1.2 2.2.1 2.2h3.6c.9 0 1.6-1 1.3-1.9-.3-.9-.6-2-.4-3.1.3-1.9 1-4.2 1.2-5.2.1-.4.1-.9 0-1.4-.2-1-1-2.7-3.4-4-3.7-2-10-4.9-10-4.9v-10.9"/><path class="st2" d="M226.8 195.4s-.1 1.5-.1 3.4c0 2.1.1 4.7.7 6.4.2.6.3 1.5.3 2.5 0 1.9-.3 4.3-.6 6.2-.2.9-.3 1.8-.4 2.3-.1.6-.2.9-.2.9h.2v-.2c-.5.1-.8.6-.8 1.1 0 .3.1.5.3.8.2.2.5.4.8.4h4c.1 0 .2-.1.2-.2l1.6-6.9h-.2l-.1.2s2.7 1 6.4 1c1 0 2-.1 3.1-.2v-.2h-.2l.1.7c.1 1.2.6 2.4 1.2 3.4l.2-.1v-.2c-.4 0-.7.2-.8.5-.2.2-.3.5-.3.8 0 .3.1.6.3.9.2.2.5.4.9.4h3.6c.9 0 1.6-.8 1.6-1.6 0-.2 0-.4-.1-.6-.2-.6-.4-1.4-.4-2.1 0-.3 0-.5.1-.8.3-1.9 1-4.2 1.2-5.2.1-.3.1-.5.1-.8 0-.2 0-.4-.1-.7-.2-1.1-1-2.9-3.5-4.2-3.7-2-10-4.9-10-4.9l-.1.2h.2v-11c0-.1-.1-.2-.2-.2s-.2.1-.2.2v10.9c0 .1 0 .2.1.2l1 .5c1.9.9 6.1 3 8.9 4.4 2.4 1.3 3.1 2.9 3.3 3.9 0 .2.1.4.1.6 0 .2 0 .5-.1.7-.3 1-.9 3.3-1.2 5.2-.1.3-.1.6-.1.9 0 .8.2 1.6.5 2.3.1.1.1.3.1.4 0 .3-.1.6-.3.8-.2.2-.5.4-.8.4h-3.6c-.3 0-.5-.1-.6-.3-.1-.2-.2-.4-.2-.6 0-.2.1-.4.2-.6.1-.2.3-.3.6-.3.1 0 .1-.1.2-.1v-.2c-.6-.9-1-2-1.2-3.2l-.1-.7c0-.1 0-.1-.1-.1h-.2c-1.1.2-2.1.2-3 .2-1.8 0-3.4-.2-4.5-.5-.6-.1-1-.2-1.3-.3-.2 0-.3-.1-.3-.1H232.7c-.1 0-.1.1-.1.1l-1.6 6.7h-3.8c-.2 0-.4-.1-.5-.2-.1-.1-.2-.3-.2-.5 0-.3.2-.6.5-.7l-.1-.2v.2c.1 0 .1-.1.2-.2 0 0 1.2-5.6 1.2-9.5 0-1-.1-1.9-.3-2.6-.5-1.6-.6-4.2-.6-6.3 0-1 0-1.8.1-2.4 0-.6.1-1 .1-1 0-.1-.1-.2-.2-.2-.5 0-.6.1-.6.2z"/><path class="st5" d="M227 196.7h8.6v1.7H227z"/><path class="st2" d="M236.1 185.9l.9-4.6v-.1c0-.6-.5-1.1-1.1-1.1h-.1c-.7 0-1.3.4-2 1.3-.6.8-1.3 2.1-2 4l.2.1v-.2l-12.7-2.8h-.4c-1.1 0-2 .9-2 2.1v.1c0 1.6.4 3.8 1.8 5.9 1.3 2.1 3.7 4 7.6 5 .1 0 .2 0 .3-.1 0-.1 0-.2-.1-.3-3.9-1-6.1-2.8-7.4-4.8-1.3-2-1.6-4.1-1.7-5.7 0-.5.2-.9.5-1.2.3-.3.7-.5 1.1-.5h.3l12.7 2.8c.1 0 .2 0 .2-.1.7-1.9 1.3-3.1 1.9-3.9.6-.8 1.1-1.1 1.7-1.1.4 0 .7.3.7.7v.1h.2-.2l-.9 4.6c0 .1.1.2.2.2.1-.2.2-.3.3-.4zM226.8 195.4s-.1 1.5-.1 3.4c0 2.1.1 4.7.7 6.4.2.6.3 1.5.3 2.5 0 1.9-.3 4.3-.6 6.2-.2.9-.3 1.8-.4 2.3-.1.6-.2.9-.2.9h.2v-.2c-.5.1-.8.6-.8 1.1 0 .3.1.5.3.8.2.2.5.4.8.4h4c.1 0 .2-.1.2-.2l1.6-6.9h-.2l-.1.2s2.7 1 6.4 1c1 0 2-.1 3.1-.2v-.2h-.2l.1.8c.1 1.2.5 2.3 1.2 3.3l.2-.1v-.2c-.4 0-.7.2-.8.5-.2.2-.3.5-.3.8 0 .3.1.6.3.9.2.2.5.4.9.4h3.6c.9 0 1.6-.8 1.6-1.6 0-.2 0-.4-.1-.6-.2-.6-.4-1.4-.4-2.1 0-.3 0-.5.1-.8.3-1.9 1-4.2 1.2-5.2.1-.3.1-.5.1-.8 0-.2 0-.4-.1-.7-.2-1.1-1-2.9-3.5-4.2-3.7-2-10-4.9-10-4.9l-.1.2h.2V190c0-.1-.1-.2-.2-.2s-.2.1-.2.2v8.5c0 .1 0 .2.1.2l1 .5c1.9.9 6.1 3 8.9 4.4 2.4 1.3 3.1 2.9 3.3 3.9 0 .2.1.4.1.6 0 .2 0 .5-.1.7-.3 1-.9 3.3-1.2 5.2-.1.3-.1.6-.1.9 0 .8.2 1.6.5 2.3.1.1.1.3.1.4 0 .3-.1.6-.3.8-.2.2-.5.4-.8.4h-3.6c-.3 0-.5-.1-.6-.3-.1-.2-.2-.4-.2-.6 0-.2.1-.4.2-.6.1-.2.3-.3.6-.3.1 0 .1-.1.2-.1s0-.1 0-.2c-.6-.9-1-2-1.1-3.1l-.1-.8c0-.1 0-.1-.1-.1h-.2c-1.1.2-2.1.2-3 .2-1.8 0-3.4-.2-4.5-.5-.6-.1-1-.2-1.3-.3-.2 0-.3-.1-.3-.1H232.8c-.1 0-.1.1-.1.1l-1.6 6.7h-3.8c-.2 0-.4-.1-.5-.2-.1-.1-.2-.3-.2-.5 0-.3.2-.6.5-.7l-.1-.2v.2c.1 0 .1-.1.2-.2 0 0 1.2-5.6 1.2-9.5 0-1-.1-1.9-.3-2.6-.5-1.6-.6-4.2-.6-6.3 0-1 0-1.8.1-2.4 0-.6.1-1 .1-1 0-.1-.1-.2-.2-.2-.6 0-.7.1-.7.2z"/><path class="st2" d="M219.3 182.7s0 1.8-2.1 1.2c.1-.2.4-1 1.1-1.2.8-.2 1 0 1 0z"/><path d="M285.2 149.9c23.3-12.7 27.4-22.1 27.4-22.1l-3.4-5.5c-3.3 9.6-23.9 24-23.9 24" fill="#5daf9a"/><path class="st2" d="M310.4 100.5s-.5 5-5.6 7.1c-.2.1-.3.4-.2.6.2.4.7 1 1.3 1.7l2.2-1.4-1.7 2c1.1 1.1 3 2.4 5.1 3l3.3-12.7-4.4-.3z"/><path class="st0" d="M320.7 110.4c-2.6 4.2-4.9 4.4-9.3 3.1-5.1-1.5-.1-16.1 1.8-14.1 3.4 3.5 3-2.7 6.3-.5 3.3 2.1 3.9 7.2 1.2 11.5z"/><path class="st2" d="M316.7 96.8c4.1.7 7.4 3.3 7.1 9.1-.3 5.3-1.8 10.1-2 10.2-4.1 1.8-11.6-.9-11.2-1.3 3.3-3.4 3.9-8.5 4-10.3 0-.4-.2-.7-.6-.8l-4.3-1.4c-.5-.2-.7-.8-.5-1.2 1-1.8 3.4-5.1 7.5-4.3z"/><path class="st2" d="M313 120.3c-.1-.1-.1-.2-.1-.3.4-.7.6-2 .8-4 0-.2 0-.4.2-.4.1 0 .2 0 .2.2v.2c-.1.8-.2 3.1-.8 4.2-.1.1-.2.2-.3.1zM320.1 120.2c.1-.1.1-.2.1-.3-.4-.7-.6-2-.8-4 0-.2 0-.4-.2-.4-.1 0-.2 0-.2.2v.2c.1.8.2 3.1.8 4.2.1.1.2.1.3.1z"/><path class="st4" d="M352.4 219.6c0 1.1-17.9 1.9-40 1.9s-40-.9-40-1.9c0-1.1 17.9-1.9 40-1.9s40 .8 40 1.9z"/><path class="st7" d="M323.8 153.2c-2-9.4-16.6-4.4-16.6-4.4s-.4 22.3-18 64.4l-7.5-.9s-1.8-.2-2.8 1.2c-.2.3-.1.7.2.8l11.3 5.1c.6.3 1.3 0 1.5-.5.5-1.2 2.1-4.7 4.3-8 2.2-3.2 5.2-8.1 6.8-13.2 5.8-18.6 12.5-29.5 12.5-29.5 1.7-.6 10.9-3 8.3-15z"/><path class="st2" d="M345.3 212.1c-.1-.8-.4-1.7-.8-2.2-.4-.4-1-1.1-1.5-1.7 0 0-2.2-8.2-5.3-13.2-9.1-14.6-11.7-31.5-11.7-31.5s1.1-14.7-8.6-15.4c-11.2-.8-11 5.5-11 5.5s8.1 18.6 32.5 57.8c.1 1.2-.2 2.4-1 3.4l-.7.7c-.7.8-1.7 1.2-2.7 1.3h-.5s-2.3-.4-2.3 2.9h7.7l2.9-2.9 1.9-1.8c.9-.8 1.2-1.8 1.1-2.9z"/><path class="st5" d="M323.1 119.9c-3.1-1.8-6.7-2.3-10.2-1.6-2.3.5-5.3 2.7-6.7 6-1.5 3.9.6 8.7.6 8.7s1 8-.6 19.8c-.3 2 3 1.8 6.7 1.1l10.8-2c.1-1.4-.6-2.1-1.2-2.9-.3-.4-.6-1.7-.8-3-.4-5-.2-11 1.9-14.6 2.2-3.8 12.4 21.5 12.4 21.5l3-.7c-5.5-22.1-10.2-29.1-15.9-32.3z"/><path class="st4" d="M236.6 197.8s23.7-24.5 43.4-46.5c.1-.1.1-.2 0-.3-.1-.1-.2-.1-.3 0-9.8 11-20.7 22.6-29.1 31.5-4.2 4.4-7.8 8.2-10.3 10.8-1.3 1.3-2.3 2.4-3 3.1l-1.1 1.1c-.1.1-.1.2 0 .3.2.1.3.1.4 0z"/><path class="st2" d="M285 146l-3.4 1.3c-.8.3-1.4.8-1.9 1.6-.2.4-.4.8-.4 1.3 0 .4.1.8.5 1.1.3.3.8.5 1.3.5.9 0 1.9-.4 2.7-.8.8-.4 1.4-.8 1.4-.8.1-.1.1-.2.1-.3-.1-.1-.2-.1-.3-.1l-.1.1c-.2.1-.9.5-1.6.8-.7.3-1.6.6-2.3.6-.4 0-.7-.1-1-.3-.3-.3-.3-.5-.3-.8 0-.4.2-.7.4-1.1.4-.6 1-1.1 1.7-1.4l3.4-1.3c.1 0 .2-.2.1-.3-.1-.1-.2-.1-.3-.1z"/></g><path class="st0" d="M61.5 112.2l-.6-5.6"/><g><path class="st0" d="M60.8 113.9l6.2-.9-1.5-7.4-5.6 1.2z"/><path class="st0" d="M60.5 107.1c2.9 2.6 5.8 4.1 9.7 1.5 4.8-3.1-3.2-18-4.7-15.5-2.6 4.7-4.1-1.6-7 1.6s-2 8.8 2 12.4z"/><path class="st2" d="M70.2 96.1c-.8.7-.8.9-2.8 1.3 0 0-2.5.2-2.5 2.5 0 2.1.2 3.3.2 3.5v.1l-.4.1c-.8.2-1.5-.5-1.4-1.3l.1-.4c0-.3-.1-.6-.4-.8l-.2-.1c-1-.4-2.2.4-2.1 1.5l.7 2.9c.1 1.3-1.4 2.1-2.4 1.3-1.2-.9-2.9-3.1-3.4-4.6-1.3-3.6-.3-8 3.1-9.7 3.6-1.7 6-2.1 7.4-2.3 0 0 .5-.2 1.8 0 2.6.5 4.3 4.3 2.3 6z"/><path class="st0" d="M97.8 127.8s-2.7.9-3.5.7-1.7.2-1.7.2l-2 1.2v3.2h2.9s2.3-1.2 2.5-1.2c2-.3 1.8-4.1 1.8-4.1z"/><path class="st2" d="M93.1 133.3H93c-1.3 0-2.3-.2-2.3-.2-.1 0-.2-.1-.1-.2s.1-.2.2-.1c0 0 4.2.7 5.7-.6 1.6-1.3 1.4-4.3 1.4-4.4 0-.1.1-.2.2-.2s.2.1.2.2c0 0 0 .8-.1 1.8-.2 1.3-.7 2.3-1.4 2.9-.9.5-2.1.8-3.7.8z"/><path d="M95.2 130.9l-.4-.3c-.1-.1-.2-.3-.1-.4l5.6-8.1c.1-.1.3-.2.4-.1l.4.3c.1.1.2.3.1.4l-5.6 8.1c-.1.2-.3.2-.4.1z" fill="#5f4dd5"/><path class="st4" d="M111.3 219.6c0 1.1-16.6 2-37.1 2s-37.1-.9-37.1-2 16.6-2 37.1-2 37.1.9 37.1 2z"/><path class="st7" d="M55.4 216l-8.1-2.1-.9-.3 19.7-44.1-8.2-14s-4 18.5-6.4 28.2c-2 4.3-4.4 5.3-6.3 13.8-.9 4.3-1.9 9.3-2.6 13-.1.3-.2.6-.3 1.2-.6 3.7-.9 4.8-.9 6 0 .5.5 1 1 1l14.1-.1c.3 0 .5-.3.5-.5-.2-1.6-1.6-2.1-1.6-2.1z"/><path class="st2" d="M104.5 215.3c-.7-1.3-2.2-1.3-2.2-1.3l-8.3.5c-.6 0-1.3-.1-1.9-.4l-18-65.6H59s-3.9 6.1-1 12.2 16.4 22.9 18 25.9c1.7 3 2.9 13.8 6.5 19.7 3.5 5.7 6.6 11.9 6.6 11.9.2.6.3 1.2.4 1.5.1.5.8.8 1.3.6l13.4-4.3c.3-.1.5-.4.3-.7z"/><path class="st4" d="M90.6 134v-4l-17.9 5.2c-.1-1.6-.2-3.1-.2-4.3 0-4.1 0-9.7-3.2-16-3.3-6.3-7-4.6-7-4.6s-6.4 1.6-7.5 15.1c-.9 11.1 2.7 20 3.8 22.4l.3.7s11 .9 13.7 2.3c1.7.9 2.2.2 2.3-.4 0-.3 0-.6-.1-.8 0 0-.5-1-.8-2-.2-1.3-.4-3.7-.7-6.4l17.3-7.2z"/><path class="st2" d="M67.5 143.4c-.8 0-1.7-.2-2.4-.7-.7-.4-1.3-1.1-1.6-1.8L57.4 127c0-.1 0-.2.1-.2s.2 0 .2.1l6.1 13.9c.3.7.9 1.2 1.5 1.6 1.1.7 2.6.8 3.8.3l1.9-.8c.1 0 .2 0 .2.1s0 .2-.1.2l-1.9.8c-.6.3-1.1.4-1.7.4zM68.9 136.5c-.2 0-.3 0-.5-.1-.3-.2-.4-.5-.5-.9l-1.6-11.4c0-.1.1-.2.2-.2s.2.1.2.2l1.6 11.4c0 .3.2.6.3.7.1.1.3.1.5 0 .1 0 .2 0 .2.1s0 .2-.1.2h-.3zM66.6 109.9c-.1 0-.2-.1-.2-.1 0-.1 0-.2.1-.2h.2c.9-.2 2.6-.6 3.4-1.1.4-.2.7-.6.9-1 .5-.9.5-2.1.4-3.7-.1-2.4-.9-5-2.2-7.3-1.1-2-2.4-3.4-3.2-3.5-.3 0-.5.1-.7.3-.6 1-1.1 1.6-1.7 1.7-.6.2-1.2-.2-1.8-.6-.9-.6-2-1.3-3.4.3-.1.1-.2.1-.2 0-.1-.1-.1-.2 0-.2 1.6-1.8 2.9-.9 3.8-.3.5.3 1 .7 1.5.5.5-.1.9-.6 1.5-1.6.2-.4.6-.6 1-.5 1 .1 2.3 1.6 3.5 3.7 1.3 2.3 2.1 5 2.2 7.5.1 1.6.2 2.9-.4 3.9-.3.4-.6.8-1.1 1.1-.9.5-2.6.9-3.5 1.1h-.1zM60.5 112.4c-.1 0-.2-.1-.2-.2l-.6-5.6c0-.1.1-.2.2-.2s.2.1.2.2l.6 5.6c0 .1-.1.2-.2.2z"/></g><path class="st3" d="M25 29c-2.9 0-5.3 2-6 4.6-.3-.1-.6-.2-1-.2-1.6 0-2.8 1.3-2.8 2.8 0 .2 0 .4.1.5h21.4c0-1.3-1-2.3-2.3-2.3-.4 0-.7.1-1 .2-.5-.8-1.4-1.3-2.4-1.3-.9-2.4-3.2-4.3-6-4.3M115.2 32.4c-3.7 0-6.8 2.5-7.8 5.9-1.3 0-2.5.7-3.2 1.7-.4-.2-.8-.3-1.3-.3-1.7 0-3 1.3-3 3H128c0-.2.1-.5.1-.7 0-2.1-1.7-3.7-3.7-3.7-.4 0-.9.1-1.3.2-.9-3.5-4.1-6.1-7.9-6.1"/></svg>