<svg width="40" height="42" xmlns="http://www.w3.org/2000/svg"><g fill="none" fill-rule="evenodd"><path d="M6.02 31.58c-.434-.42-1.162-.742-1.96-.742-1.162 0-1.596.546-1.596 1.106 0 1.834 5.11.98 5.11 4.48 0 1.708-1.204 2.772-3.514 2.772-1.666 0-2.996-.826-3.542-1.708a.753.753 0 0 1 .63-1.148c.308 0 .476.168.616.308.588.588 1.33 1.064 2.296 1.064 1.274 0 1.89-.42 1.89-1.288 0-2.044-5.11-1.106-5.11-4.48 0-1.386.994-2.562 3.22-2.562 1.4 0 2.618.518 3.178 1.316a.75.75 0 0 1-.616 1.19c-.196 0-.392-.112-.602-.308zm4.684 1.708v5.068c0 .42-.336.756-.756.756a.753.753 0 0 1-.756-.756v-5.068c0-.42.336-.756.756-.756s.756.336.756.756zm-.756-1.512c-.574 0-.896-.336-.896-.882 0-.644.322-.924.896-.924.588 0 .91.28.91.924 0 .546-.322.882-.91.882zm5.118 7.406c-1.764 0-2.842-1.092-2.842-3.374s1.106-3.36 2.996-3.36c1.694 0 2.898.938 2.898 2.8v3.542c0 1.932-.952 3.024-3.024 3.024-1.134 0-1.974-.35-2.45-.924a.636.636 0 0 1-.14-.406c0-.364.308-.672.672-.672.168 0 .28.056.448.168.35.252.812.546 1.47.546.994 0 1.498-.518 1.498-1.372v-.532c-.28.28-.854.56-1.526.56zm1.54-2.002v-1.932c0-.966-.574-1.512-1.386-1.512-.966 0-1.498.7-1.498 2.072 0 1.386.546 2.086 1.498 2.086.84 0 1.386-.714 1.386-.714zm6.518-4.732c1.904 0 2.352 1.218 2.352 2.436v3.5c0 .42-.336.728-.756.728-.448 0-.756-.308-.756-.728v-3.22c0-.798-.322-1.344-1.232-1.344-1.05 0-1.4.616-1.4 1.442v3.122c0 .42-.322.728-.756.728s-.756-.308-.756-.728v-5.096c0-.42.336-.756.756-.756s.756.336.756.756c.266-.406.854-.84 1.792-.84zm9.228.84v5.068c0 .42-.336.756-.756.756a.753.753 0 0 1-.756-.756v-5.068c0-.42.336-.756.756-.756s.756.336.756.756zm-.756-1.512c-.574 0-.896-.336-.896-.882 0-.644.322-.924.896-.924.588 0 .91.28.91.924 0 .546-.322.882-.91.882zm5.86.672c1.904 0 2.352 1.218 2.352 2.436v3.5c0 .42-.336.728-.756.728-.448 0-.756-.308-.756-.728v-3.22c0-.798-.322-1.344-1.232-1.344-1.05 0-1.4.616-1.4 1.442v3.122c0 .42-.322.728-.756.728s-.756-.308-.756-.728v-5.096c0-.42.336-.756.756-.756s.756.336.756.756c.266-.406.854-.84 1.792-.84z" fill="#4A4A4A"/><g fill-rule="nonzero"><path d="M6-4h30v30H6z"/><path d="M21 10a5 5 0 1 1 0-10 5 5 0 0 1 0 10zm0-2a3 3 0 1 0 0-6 3 3 0 0 0 0 6zm7.75 13.938a1 1 0 0 1-2 0c0-5.573-1.455-7.938-5.875-7.938S15 16.365 15 21.938a1 1 0 0 1-2 0C13 15.402 15.093 12 20.875 12s7.875 3.402 7.875 9.938z" fill="#4A4A4A"/></g></g></svg>