<svg width="27" height="21" xmlns="http://www.w3.org/2000/svg"><path d="M24.872 16h-3.988a2.996 2.996 0 0 1-2.991-3c0-1.657 1.339-3 2.99-3h3.989V7.018H4.442a3.476 3.476 0 0 1-1.505-.34V17c0 1.105.893 2 1.994 2h19.94v-3zM8.919 5.018h11.965V2H4.442c-.831 0-1.505.676-1.505 1.509 0 .833.674 1.509 1.505 1.509h4.477zm13.959 0h1.994c1.1 0 1.994.895 1.994 2V19c0 1.105-.893 2-1.994 2H4.932a3.994 3.994 0 0 1-3.989-4V3l.036.009A3.502 3.502 0 0 1 4.442 0h16.442c1.1 0 1.994.895 1.994 2v3.018zM24.872 14v-2h-3.988a.999.999 0 0 0-.997 1c0 .552.446 1 .997 1h3.988z" fill="#4A4A4A" fill-rule="nonzero"/></svg>