<?xml version="1.0" encoding="UTF-8"?>
<svg width="24px" height="24px" viewBox="0 0 24 24" version="1.1" xmlns="http://www.w3.org/2000/svg" xmlns:xlink="http://www.w3.org/1999/xlink">
    <!-- Generator: Sketch 52.5 (67469) - http://www.bohemiancoding.com/sketch -->
    <title>clear</title>
    <desc>Created with Sketch.</desc>
    <g id="Page-1" stroke="none" stroke-width="1" fill="none" fill-rule="evenodd">
        <g id="FAQ-home-no-results-mobile" transform="translate(-316.000000, -253.000000)" fill-rule="nonzero">
            <g id="Hero" transform="translate(20.000000, 110.000000)">
                <g id="Group-3" transform="translate(0.000000, 126.000000)">
                    <g id="clear" transform="translate(296.000000, 17.000000)">
                        <circle id="Oval" fill="#E5E5E5" cx="12" cy="12" r="12"></circle>
                        <g id="clear-smallest-1px" transform="translate(7.000000, 7.000000)" fill="#FFFFFF">
                            <path d="M4.18198052,4.8890873 L0.646446609,1.35355339 C0.451184464,1.15829124 0.451184464,0.841708755 0.646446609,0.646446609 C0.841708755,0.451184464 1.15829124,0.451184464 1.35355339,0.646446609 L4.8890873,4.18198052 L8.4246212,0.646446609 C8.61988335,0.451184464 8.93646584,0.451184464 9.13172798,0.646446609 C9.32699013,0.841708755 9.32699013,1.15829124 9.13172798,1.35355339 L5.59619408,4.8890873 L9.13172798,8.4246212 C9.32699013,8.61988335 9.32699013,8.93646584 9.13172798,9.13172798 C8.93646584,9.32699013 8.61988335,9.32699013 8.4246212,9.13172798 L4.8890873,5.59619408 L1.35355339,9.13172798 C1.15829124,9.32699013 0.841708755,9.32699013 0.646446609,9.13172798 C0.451184464,8.93646584 0.451184464,8.61988335 0.646446609,8.4246212 L4.18198052,4.8890873 Z"></path>
                        </g>
                    </g>
                </g>
            </g>
        </g>
    </g>
</svg>