<svg width="20" height="22" xmlns="http://www.w3.org/2000/svg"><path d="M12.617 7H17c1.922 0 3 .868 3 2.513 0 1.422-.807 4.3-2.423 8.703-.447 1.241-1.7 1.838-3.64 1.838-1.755 0-3.903-.018-6.444-.054l-.355-.005-3.193-9.591 2.52-3.227A16.615 16.615 0 0 0 9.515.882l.093-.384.394.002c1.975.009 3.012 1.27 3.012 3.557 0 .675-.132 1.652-.397 2.943zm-7.554 3.596l2.8 8.409c2.382.032 4.406.049 6.074.049 1.564 0 2.423-.409 2.7-1.18C18.212 13.585 19 10.774 19 9.513 19 8.473 18.411 8 17 8h-5.622l.134-.607c.335-1.53.502-2.648.502-3.336 0-1.6-.52-2.39-1.632-2.533a17.615 17.615 0 0 1-3.128 6.268l-2.19 2.804zm-4.537.062a.5.5 0 1 1 .948-.316l3.5 10.5a.5.5 0 1 1-.948.316l-3.5-10.5z" fill="#4A4A4A" fill-rule="nonzero"/></svg>