<svg width="20" height="24" xmlns="http://www.w3.org/2000/svg"><path d="M4.882 14.755a3.154 3.154 0 1 1 0-6.307 3.154 3.154 0 0 1 0 6.307zm0-1a2.154 2.154 0 1 0 0-4.307 2.154 2.154 0 0 0 0 4.307zm4.757 9.41a.5.5 0 0 1-1 0c0-3.563-.955-5.115-3.82-5.115C1.955 18.05 1 19.602 1 23.165a.5.5 0 0 1-1 0c0-4.044 1.274-6.115 4.82-6.115 3.545 0 4.819 2.07 4.819 6.115zm5.457-10.137a3.154 3.154 0 1 1 0-6.308 3.154 3.154 0 0 1 0 6.308zm0-1a2.154 2.154 0 1 0 0-4.308 2.154 2.154 0 0 0 0 4.308zm4.91 9.064a.5.5 0 0 1-1 0c0-3.563-.956-5.116-3.82-5.116-1.589 0-2.566.498-3.133 1.466a.5.5 0 1 1-.863-.505c.756-1.292 2.07-1.96 3.996-1.96 3.545 0 4.82 2.07 4.82 6.115zM9.334 6.808a3.154 3.154 0 1 1 0-6.308 3.154 3.154 0 0 1 0 6.308zm0-1a2.154 2.154 0 1 0 0-4.308 2.154 2.154 0 0 0 0 4.308z" fill="#4A4A4A" fill-rule="nonzero"/></svg>