<svg width="22" height="29" xmlns="http://www.w3.org/2000/svg"
><g fill="none" fill-rule="evenodd"><path d="M-8-6h40v40H-8z"/><path d="M6 1.405L1.341 6H6V1.405zM1 7v21h20v-9h1v9a1 1 0 0 1-1 1H1a1 1 0 0 1-1-1V5.918L6 0h15a1 1 0 0 1 1 1v18h-1V1H7v5.5a.5.5 0 0 1-.5.5H1z" fill="#4A4A4A" fill-rule="nonzero"/><path d="M8.854 20.428h-.798V21.7a.348.348 0 0 1-.696 0v-3.39c0-.192.156-.348.348-.348h1.146c.702 0 1.26.39 1.26 1.23 0 .828-.546 1.236-1.26 1.236zM8.8 18.586h-.744v1.218H8.8c.372 0 .594-.222.594-.612 0-.396-.228-.606-.594-.606zm2.768 0v2.79h.462c.768 0 1.23-.348 1.23-1.392s-.462-1.398-1.23-1.398h-.462zm-.348-.624h.81c1.194 0 1.95.54 1.95 2.022 0 1.482-.756 2.016-1.95 2.016h-.81a.348.348 0 0 1-.348-.348V18.31c0-.192.156-.348.348-.348zm4.214 2.346V21.7a.348.348 0 0 1-.696 0v-3.39c0-.192.156-.348.348-.348h1.872a.31.31 0 0 1 .312.312.31.31 0 0 1-.312.312h-1.524v1.11h1.134c.168 0 .306.138.306.306a.307.307 0 0 1-.306.306h-1.134z" fill="#CF563F"/></g></svg>