<svg width="21" height="26" xmlns="http://www.w3.org/2000/svg"><g fill-rule="nonzero" fill="none"><path d="M-4.05-2h29.91v30H-4.05z"/><path d="M2.343 7.296l.585-1.416v.83l-.585.586zm.585-.586L7.636 2h7.257v9.926h1.994V1.845A1.842 1.842 0 0 0 15.047 0H6.811L.934 5.88V19c0 1.105.893 2 1.994 2H9.75v-2H2.928V6.71zM8.22 1.416L6.81 2h.825l.584-.584zM15.047 2a.155.155 0 0 1-.154-.155V2h.154zm-.154-.155c0 .086.069.155.154.155h-.154v-.155zm0 10.081h1.994V1.845A1.842 1.842 0 0 0 15.047 0H6.811L.934 5.88V19c0 1.105.893 2 1.994 2H9.75v-2H2.928V6.71L7.636 2h7.257v9.926zM8.22 1.416L6.81 2h.825l.584-.584zM2.928 5.88l-.585 1.416.585-.586v-.83zm14.54 14.928h-1.642c.048.208.08.432.08.656 0 .72-.431 1.456-1.021 1.92.335-.16.686-.256 1.084-.256.878 0 1.42.496 2.17.496.446 0 .83-.144 1.037-.592a.831.831 0 0 1 .781-.48.86.86 0 0 1 .862.864.92.92 0 0 1-.096.4c-.51 1.072-1.388 1.424-2.504 1.424-.942 0-1.787-.704-2.776-.704-.542 0-.814.128-1.244.432a.86.86 0 0 1-.543.192.852.852 0 0 1-.845-.848c0-.224.064-.448.303-.656.478-.432 1.1-1.136 1.1-2.064 0-.272-.047-.528-.127-.784h-.957a.791.791 0 0 1-.798-.8c0-.448.351-.8.798-.8h.24c-.288-.592-.543-1.232-.543-1.984 0-1.792 1.435-3.216 3.589-3.216 1.803 0 3.11.816 3.669 2.128a.95.95 0 0 1 .064.336.852.852 0 0 1-.846.848c-.478 0-.67-.32-.781-.528-.383-.704-1.005-1.184-2.106-1.184-1.117 0-1.835.688-1.835 1.616 0 .736.288 1.36.607 1.984h2.28c.447 0 .798.352.798.8 0 .448-.35.8-.797.8zM6.917 6V2c0-.552.447-1 .997-1 .551 0 .997.448.997 1v5c0 .552-.446 1-.997 1H2.928a.999.999 0 0 1-.997-1c0-.552.447-1 .997-1h3.988z" fill="#4A4A4A"/></g></svg>