<svg xmlns="http://www.w3.org/2000/svg" viewBox="0 0 407 374">
  <g fill="none" fill-rule="evenodd">
    <path fill="#EDF1FE" fill-rule="nonzero" d="M177.29 86.72h50v271h-50zm-85.64 40h74.96v231H91.65zm146.76 58.27h50v186.96h-50zm103.49 46.26h50v140.48h-50z"/>
    <path fill="#FFF" fill-rule="nonzero" d="M367.74 372.41l-.2-109.15 7.63.47-7.57-42.67h-71.75v-17.29h-13.03v17.29h-16.37l-2.55 13.54h-15.55l-2.54-9.36H238l-1.7 9.36h-58.7v-75.96h5.8v-7.44H37.65v7.44h5.58v117.74h-5.58v7.44h5.58v88.13z"/>
    <g fill="#E1E8FF" fill-rule="nonzero">
      <path d="M266.19 264.93h102v5h-102zM44.42 159.44h132v6h-132zm0 130.55H73v82.76h5v-1.46h1.74v-25.71H78v-55.59h82.77v82.76h5v-1.46h1.73v-25.71h-1.73v-55.59h11.57v-6H44.42zm244.63-85.87h5.87v16.58h-5.87zm-43.46 20.7h-3.45v10.59h6.44zm30.36 79.97h20.26v4.79h-20.26zm30.44 0h20.26v4.79h-20.26zM55.56 228.12h28.26v4.79H55.56zm39.46 0h28.26v4.79H95.02zm41.53 0h28.26v4.79h-28.26zm201.07 76.67h20.26v4.79h-20.26zM276 360.21h20.26V365H276zm61.68 0h20.26V365h-20.26zm-159.28-87.4v.57h-.79v6h.79v91.91h5v-86.55h5.13v-6.36h77.01v-5h-84.61z"/>
      <path d="M116.29 310.49l2.77 1.65 2.77-6.61-3.91-1.59s-1.46 5.84-1.63 6.55z"/>
    </g>
    <g fill-rule="nonzero" transform="translate(0 150)">
      <path fill="#333" d="M367.75 223.39a1 1 0 0 1-1-1V114.25a1 1 0 1 1 2 0v108.14a1 1 0 0 1-1 1zm-102.11 0a1 1 0 0 1-1-1V114.25a1 1 0 1 1 2 0v108.14a1 1 0 0 1-1 1zm63.57-39.58a1 1 0 0 1-1-1c-.184-6.266-5.317-11.25-11.585-11.25-6.268 0-11.4 4.984-11.585 11.25a1 1 0 1 1-2 0c.2-7.36 6.223-13.221 13.585-13.221 7.362 0 13.385 5.862 13.585 13.221a1 1 0 0 1-1 1z"/>
      <path fill="#333" d="M329.1 222.84a1 1 0 0 1-1-1v-38.17h-23v38.17a1 1 0 1 1-2 0v-39.17a1 1 0 0 1 1-1h25a1 1 0 0 1 1 1v39.17a1 1 0 0 1-1 1z"/>
      <path fill="#333" d="M324.51 203.3h-15.76a.5.5 0 0 1-.5-.5v-12.87a.5.5 0 0 1 1 0v12.37H324v-14.76h-15.25a.5.5 0 0 1 0-1h15.76a.51.51 0 0 1 .5.5v15.76a.5.5 0 0 1-.5.5zm43.22-88.96h-96.08a.5.5 0 0 1 0-1h96.08a.5.5 0 0 1 0 1zm-91.53 49.18h-10.46a.5.5 0 0 1 0-1h10.46a.5.5 0 0 1 0 1zm79-12.03a.5.5 0 0 1-.5-.5v-23.46h-13.78V151a.5.5 0 0 1-1 0v-24a.5.5 0 0 1 .5-.5h14.78a.5.5 0 0 1 .5.5v24a.5.5 0 0 1-.5.49z"/>
      <path fill="#333" d="M357.38 155.76h-19.26a.5.5 0 0 1-.5-.5v-4a.5.5 0 0 1 .5-.5h19.26a.51.51 0 0 1 .5.5v4a.5.5 0 0 1-.5.5zm-18.76-1h18.26v-3h-18.26v3zm-14.77-3.27a.5.5 0 0 1-.5-.5v-4.45a.5.5 0 0 1 1 0V151a.5.5 0 0 1-.5.49zm0-7.33a.5.5 0 0 1-.5-.5v-2.54a.5.5 0 0 1 .5-.5.51.51 0 0 1 .5.5v2.54a.5.5 0 0 1-.5.5zm-14.66 7.33a.5.5 0 0 1-.5-.5V127a.5.5 0 0 1 .5-.5h14.66a.5.5 0 0 1 .5.5v11.51a.51.51 0 0 1-.5.5.5.5 0 0 1-.5-.5v-11h-13.66V151a.5.5 0 0 1-.5.49z"/>
      <path fill="#333" d="M326.15 155.76h-19.26a.5.5 0 0 1-.5-.5v-4a.5.5 0 0 1 .5-.5h19.26a.51.51 0 0 1 .5.5v4a.5.5 0 0 1-.5.5zm-18.76-1h18.26v-3h-18.26v3zm-98.51 9.07h-14.66a.5.5 0 0 1-.5-.5v-24a.5.5 0 0 1 .5-.5h14.66a.5.5 0 0 1 .5.5v4.28a.5.5 0 0 1-1 0v-3.78h-13.66v23h13.66v-8a.5.5 0 0 1 1 0v8.53a.5.5 0 0 1-.5.47z"/>
      <path fill="#333" d="M208.88 152.54a.51.51 0 0 1-.5-.5v-5.24a.51.51 0 0 1 .5-.5.5.5 0 0 1 .5.5v5.2a.5.5 0 0 1-.5.54zm39.34 11.29h-14.67a.5.5 0 0 1-.5-.5v-24a.5.5 0 0 1 .5-.5h14.67a.5.5 0 0 1 .5.5v13.07a.51.51 0 0 1-.5.5.5.5 0 0 1-.5-.5v-12.53h-13.67v23h13.67v-6.4a.5.5 0 0 1 1 0v6.9a.5.5 0 0 1-.5.46zm47.48-8.07h-19.26a.5.5 0 0 1-.5-.5v-4a.5.5 0 0 1 .5-.5h19.26a.51.51 0 0 1 .5.5v4a.5.5 0 0 1-.5.5zm-18.76-1h18.26v-3h-18.26v3z"/>
      <path fill="#333" d="M278.74 151.49a.5.5 0 0 1-.5-.5V127a.5.5 0 0 1 .5-.5h14.66a.5.5 0 0 1 .5.5v4.49a.5.5 0 0 1-1 0v-4h-13.66V151a.5.5 0 0 1-.5.49zm14.66 0a.5.5 0 0 1-.5-.5v-14.66a.5.5 0 0 1 1 0V151a.5.5 0 0 1-.5.49zm1.89-79.43h-12.47a1 1 0 0 1-1-1V53.77a1 1 0 0 1 1-1h12.47a1 1 0 0 1 1 1v17.29a1 1 0 0 1-1 1zm-11.47-2h10.47V54.77h-10.47v15.29zm66.03 2h-8.68a1 1 0 1 1 0-2h8.68a1 1 0 1 1 0 2z"/>
      <path fill="#333" d="M375.17 114.73H258.41a1 1 0 0 1-.76-.36 1 1 0 0 1-.22-.83l8-42.67a1 1 0 0 1 1-.81h66.76a1 1 0 1 1 0 2h-65.91l-7.66 40.67H374l-7.21-40.67H355.2a1 1 0 1 1 0-2h12.4a1 1 0 0 1 1 .82l7.56 42.68a1 1 0 0 1-1 1.17h.01z"/>
      <path fill="#333" d="M299.46 81.68h-14.12a.5.5 0 0 1 0-1h14.12a.5.5 0 0 1 .5.5.51.51 0 0 1-.5.5zm64.23-.06h-51a.5.5 0 0 1 0-1h51a.51.51 0 0 1 .5.5.5.5 0 0 1-.5.5zM249.75 96.34h-15.22a.5.5 0 0 1 0-1h15.22a.51.51 0 0 1 .5.5.5.5 0 0 1-.5.5zm-10.82 4.44H231a.5.5 0 0 1 0-1h7.92a.5.5 0 0 1 .01 1zm-26.61 13.09H193a.5.5 0 0 1 0-1h19.33a.5.5 0 1 1-.01 1zm122.43-7.13h-25.62a.5.5 0 0 1 0-1h25.62a.51.51 0 0 1 .5.5.5.5 0 0 1-.5.5zM265.54 223a1 1 0 0 1-1-1v-98.19h-86V222a1 1 0 1 1-2 0v-99.19a1 1 0 0 1 1-1h88a1 1 0 0 1 1 1V222a1 1 0 0 1-1 1z"/>
      <path fill="#333" d="M177.6 223a1 1 0 0 1-1-1V9.64H44.23V222a1 1 0 1 1-2 0V8.64a1 1 0 0 1 1-1H177.6a1 1 0 0 1 1 1V222a1 1 0 0 1-1 1z"/>
      <path fill="#333" d="M129.19 221.79a.5.5 0 0 1-.5-.5v-42.5c0-10.09-8.18-18.27-18.27-18.27s-18.27 8.18-18.27 18.27v42.5a.5.5 0 0 1-1 0v-42.5c0-10.643 8.627-19.27 19.27-19.27 10.643 0 19.27 8.627 19.27 19.27v42.5a.5.5 0 0 1-.5.5z"/>
      <path fill="#333" d="M135.76 222.73a1 1 0 0 1-1-1v-43.6c0-13.443-10.897-24.34-24.34-24.34s-24.34 10.897-24.34 24.34v43.6a1 1 0 1 1-2 0v-43.6c0-14.547 11.793-26.34 26.34-26.34s26.34 11.793 26.34 26.34v43.6a1 1 0 0 1-1 1zM183.4 9.64H37.65a1 1 0 0 1-1-1V1.2a1 1 0 0 1 1-1h38.63a1 1 0 0 1 0 2H38.65v5.44H182.4V2.2h-89a1 1 0 0 1 0-2h90a1 1 0 0 1 1 1v7.44a1 1 0 0 1-1 1z"/>
      <path fill="#FFF" d="M57.78 201.49v-5.91h17.08v5.91"/>
      <path fill="#333" d="M74.85 202.49a1 1 0 0 1-1-1v-4.91H58.79v4.91a1 1 0 1 1-2 0v-5.91a1 1 0 0 1 1-1h17.06a1 1 0 0 1 1 1v5.91a1 1 0 0 1-1 1z"/>
      <path fill="#FFF" d="M59.97 139.95v55.63h12.7v-55.63"/>
      <path fill="#333" d="M72.67 196.58H60a1 1 0 0 1-1-1V140a1 1 0 1 1 2 0v54.63h10.7V140a1 1 0 1 1 2 0v55.63a1 1 0 0 1-1.03.95z"/>
      <path fill="#FFF" d="M146.2 201.49v-5.91h17.07v5.91"/>
      <path fill="#333" d="M163.27 202.49a1 1 0 0 1-1-1v-4.91H147.2v4.91a1 1 0 1 1-2 0v-5.91a1 1 0 0 1 1-1h17.07a1 1 0 0 1 1 1v5.91a1 1 0 0 1-1 1z"/>
      <path fill="#FFF" d="M148.39 139.95v55.63h12.69v-55.63"/>
      <path fill="#333" d="M161.08 196.58h-12.69a1 1 0 0 1-1-1V140a1 1 0 1 1 2 0v54.63h10.69V140a1 1 0 1 1 2 0v55.63a1 1 0 0 1-1 .95z"/>
      <path fill="#FFF" d="M115.07 162H106a1.07 1.07 0 0 1-1-.81l-2.15-8.61a1.08 1.08 0 0 1 1-1.34h13.39a1.08 1.08 0 0 1 1 1.34l-2.15 8.61a1.07 1.07 0 0 1-1.02.81z"/>
      <path fill="#333" d="M115.07 162.5H106a1.57 1.57 0 0 1-1.53-1.19l-2.15-8.61a1.57 1.57 0 0 1 1.52-2h13.39a1.58 1.58 0 0 1 1.53 2l-2.15 8.61a1.58 1.58 0 0 1-1.54 1.19zm-11.24-10.76a.58.58 0 0 0-.56.72l2.16 8.61a.57.57 0 0 0 .56.43h9.08a.59.59 0 0 0 .56-.43l2.15-8.61a.6.6 0 0 0-.11-.5.56.56 0 0 0-.45-.22h-13.39zM129 183.93h-27.4a.5.5 0 0 1 0-1H129a.51.51 0 0 1 .5.5.5.5 0 0 1-.5.5z"/>
      <path fill="#333" d="M110.42 221.79a.5.5 0 0 1-.5-.5v-37.86a.5.5 0 0 1 .5-.5.51.51 0 0 1 .5.5v37.86a.5.5 0 0 1-.5.5zM82.18 72.72a.5.5 0 0 1-.5-.5V52.86c0-6.627-5.373-12-12-12a.5.5 0 0 1-.5-.5.51.51 0 0 1 .5-.5c7.18 0 13 5.82 13 13v19.36a.5.5 0 0 1-.5.5zm-24.95 0a.5.5 0 0 1-.5-.5V52.86a13 13 0 0 1 5.72-10.76.49.49 0 0 1 .69.13.5.5 0 0 1-.13.7 12 12 0 0 0-5.28 9.93v19.36a.5.5 0 0 1-.5.5z"/>
      <path fill="#333" d="M83.38 79.18H56a.5.5 0 0 1-.5-.5v-6.35a.5.5 0 0 1 .5-.5h27.38a.5.5 0 0 1 .5.5v6.35a.5.5 0 0 1-.5.5zm-26.85-1h26.35v-5.35H56.53v5.35zm65.04-5.46a.5.5 0 0 1-.5-.5v-7.31a.5.5 0 0 1 1 0v7.31a.5.5 0 0 1-.5.5zm-24.95 0a.5.5 0 0 1-.5-.5V52.86a13 13 0 1 1 25.95 0v7.22a.5.5 0 0 1-1 0v-7.22a12 12 0 1 0-23.95 0v19.36a.5.5 0 0 1-.5.5z"/>
      <path fill="#333" d="M122.77 79.18H95.42a.5.5 0 0 1-.5-.5v-6.35a.5.5 0 0 1 .5-.5h27.35a.5.5 0 0 1 .5.5v6.35a.5.5 0 0 1-.5.5zm-26.85-1h26.35v-5.35H95.92v5.35zm67.23-5.46a.5.5 0 0 1-.5-.5V52.86c0-6.627-5.373-12-12-12s-12 5.373-12 12v19.36a.5.5 0 0 1-1 0V52.86c0-7.18 5.82-13 13-13s13 5.82 13 13v19.36a.5.5 0 0 1-.5.5z"/>
      <path fill="#333" d="M164.35 79.18H137a.5.5 0 0 1-.5-.5v-6.35a.5.5 0 0 1 .5-.5h27.35a.5.5 0 0 1 .5.5v6.35a.5.5 0 0 1-.5.5zm-26.85-1h26.35v-5.35H137.5v5.35zm125.96 8.32h-86a1 1 0 1 1 0-2h86a1 1 0 1 1 0 2z"/>
      <path fill="#FFF" d="M177.61 126.73l-67.05-28.51-67.36 28.33"/>
      <path fill="#333" d="M177.61 127.73a.91.91 0 0 1-.39-.08l-66.66-28.34-67 28.17a1.004 1.004 0 0 1-.78-1.85l67.36-28.33c.25-.1.53-.1.78 0L178 125.81a1 1 0 0 1-.39 1.92z"/>
      <path fill="#FFF" d="M143.34 119.44l-32.85-13.97-33 13.88"/>
      <path fill="#333" d="M143.34 119.94a.43.43 0 0 1-.19 0L110.49 106l-32.81 13.8a.5.5 0 1 1-.38-.92l33-13.88a.53.53 0 0 1 .39 0l32.85 14a.5.5 0 0 1 .26.65.48.48 0 0 1-.46.29zm104.33-33.4h-11.54a1 1 0 0 1-1-1.18l1.86-10.3a1 1 0 0 1 1-.82h7.81a1 1 0 0 1 1 .82l1.87 10.3a1 1 0 0 1-.22.82 1 1 0 0 1-.78.36zm-10.34-2h9.15l-1.5-8.3h-6.15l-1.5 8.3zM233.69 223a1 1 0 0 1-1-1v-39.23a1 1 0 1 1 2 0V222a1 1 0 0 1-1 1zm-24.94 0a1 1 0 0 1-1-1v-39.23a1 1 0 1 1 2 0V222a1 1 0 0 1-1 1z"/>
      <path fill="#333" d="M235.88 183.77h-29.32a1 1 0 0 1-1-1v-5.47a1 1 0 0 1 1-1h29.32a1 1 0 0 1 1 1v5.47a1 1 0 0 1-1 1zm-28.32-2h27.32v-3.47h-27.32v3.47z"/>
      <path fill="#FFF" d="M227.78 194.05a6.58 6.58 0 0 0-6.56-6.57 6.59 6.59 0 0 0-6.57 6.57v9.41a.21.21 0 0 0 .22.21h12.7a.21.21 0 0 0 .21-.21"/>
      <path fill="#333" d="M227.57 204.17h-12.7a.72.72 0 0 1-.72-.71v-9.41a7.07 7.07 0 1 1 14.13 0 .5.5 0 0 1-.5.5.51.51 0 0 1-.5-.5 6.07 6.07 0 1 0-12.13 0v9.12h12.22a.5.5 0 0 1 .91.29.71.71 0 0 1-.71.71z"/>
      <circle cx="109.14" cy="115.93" r="4.66" fill="#FFF"/>
      <path fill="#333" d="M109.14 121.09a5.22 5.22 0 1 1 .4 0h-.4zm0-9.32h-.32a4.16 4.16 0 0 0-3.83 4.46 4.14 4.14 0 0 0 4.46 3.83 4.16 4.16 0 0 0-.31-8.3v.01zm186.56 99.3h-19.26a.5.5 0 0 1-.5-.5v-4.05a.5.5 0 0 1 .5-.5h19.26a.5.5 0 0 1 .5.5v4.05a.51.51 0 0 1-.5.5zm-18.76-1h18.26V207h-18.26v3.07z"/>
      <path fill="#333" d="M293.4 206.8a.5.5 0 0 1-.5-.5v-23.46h-13.66v23.46a.5.5 0 0 1-1 0v-24a.5.5 0 0 1 .5-.5h14.66a.5.5 0 0 1 .5.5v24a.5.5 0 0 1-.5.5zm63.98 4.27h-19.26a.5.5 0 0 1-.5-.5v-4.05a.5.5 0 0 1 .5-.5h19.26a.5.5 0 0 1 .5.5v4.05a.51.51 0 0 1-.5.5zm-18.76-1h18.26V207h-18.26v3.07z"/>
      <path fill="#333" d="M355.08 206.8a.5.5 0 0 1-.5-.5v-23.46h-13.66v23.46a.5.5 0 0 1-1 0v-24a.5.5 0 0 1 .5-.5h14.66a.5.5 0 0 1 .5.5v24a.5.5 0 0 1-.5.5z"/>
      <path fill="#FFF" d="M57.78 134.04h17.07v5.91H57.78z"/>
      <path fill="#333" d="M74.85 141H57.79a1 1 0 0 1-1-1v-6a1 1 0 0 1 1-1h17.06a1 1 0 0 1 1 1v6a1 1 0 0 1-1 1zm-16.06-2h15.06v-4H58.79v4z"/>
      <path fill="#FFF" d="M37.65 126.38H183.4v7.44H37.65z"/>
      <path fill="#333" d="M183.4 134.82H37.65a1 1 0 0 1-1-1v-7.44a1 1 0 0 1 1-1H183.4a1 1 0 0 1 1 1v7.44a1 1 0 0 1-1 1zm-144.75-2H182.4v-5.44H38.65v5.44z"/>
      <path fill="#FFF" d="M146.2 134.04h17.07v5.91H146.2z"/>
      <path fill="#333" d="M163.27 141H146.2a1 1 0 0 1-1-1v-6a1 1 0 0 1 1-1h17.07a1 1 0 0 1 1 1v6a1 1 0 0 1-1 1zm-16.07-2h15.07v-4H147.2v4z"/>
      <path fill="#FFF" d="M56.14 221.95v-20.14h20.14v20.14"/>
      <path fill="#333" d="M76.28 223a1 1 0 0 1-1-1v-19.19H57.14V222a1 1 0 1 1-2 0v-20.19a1 1 0 0 1 1-1h20.14a1 1 0 0 1 1 1V222a1 1 0 0 1-1 1z"/>
      <path fill="#FFF" d="M144.56 221.95v-20.14h20.13v20.14"/>
      <path fill="#333" d="M164.69 223a1 1 0 0 1-1-1v-19.19h-18.13V222a1 1 0 1 1-2 0v-20.19a1 1 0 0 1 1-1h20.13a1 1 0 0 1 1 1V222a1 1 0 0 1-1 1z"/>
      <path fill="#333" d="M455.7 223.41H1.7a1 1 0 1 1 0-2h454a1 1 0 1 1 0 2z"/>
    </g>
    <path fill="#4A4A4A" fill-rule="nonzero" d="M112 64a1 1 0 0 1 0 2H87a1 1 0 0 1-.953-1.304c1.163-3.646 4.61-6.17 8.551-6.17.87 0 1.725.123 2.545.362a5.706 5.706 0 0 1 4.855-1.773 16.042 16.042 0 0 1 2.686-6.686 1 1 0 1 1 1.642 1.142 14.029 14.029 0 0 0-2.47 6.842 1 1 0 0 1-1.32.863 3.744 3.744 0 0 0-1.209-.2c-1.226 0-2.347.59-3.03 1.556a1 1 0 0 1-1.172.358 7.078 7.078 0 0 0-2.527-.465c-2.57 0-4.864 1.374-6.07 3.475H112zm26.72-5.56c-1.04 0-2.054.206-3.007.604a1 1 0 0 1-1.378-.802C133.411 50.688 127.428 45 120.343 45c-3.623 0-7.033 1.482-9.632 4.108a1 1 0 0 1-1.422-1.407c2.968-2.998 6.886-4.701 11.054-4.701 7.739 0 14.279 5.866 15.788 13.788a9.76 9.76 0 0 1 2.59-.348c5.165 0 9.504 4.043 10.269 9.42A1 1 0 0 1 148 67h-28.009a1 1 0 1 1 0-2h26.787c-1.023-3.831-4.284-6.56-8.057-6.56zM78.27 70a.5.5 0 1 1 0-1h26.191a.5.5 0 1 1 0 1H78.27z"/>
    <path fill="#EDF1FE" d="M218.51 7.889C222.518 3.056 228.425 0 235.01 0c11.094 0 20.258 8.668 21.668 19.897 1.522-.619 3.175-.96 4.906-.96 6.792 0 12.419 5.232 13.416 12.063H158c1.42-4.753 5.65-8.202 10.65-8.202 1.427 0 2.788.283 4.041.793 1.184-1.79 3.157-2.965 5.393-2.965a6.28 6.28 0 0 1 2.146.379C181.157 9.243 190.554 0 202.01 0c6.587 0 12.494 3.056 16.5 7.889z"/>
  </g>
</svg>