<svg width="451" height="343"  viewBox="0 0 451 343" xmlns="http://www.w3.org/2000/svg">
  <g fill="none" fill-rule="evenodd">
    <path fill="#E4E9FF" d="M328.063 46h45V0h-45zM378.063 46h45V0h-45zM328.063 76.83L338.259 98h34.804V52h-45zM378.063 98h45V52h-45z"/>
    <path d="M353.104 336.066v-98.802h-5.965v98.585c-9.527-.32-20.756-.573-33.139-.74v-97.845h-5.965v97.772c-9.197-.101-18.946-.155-29.047-.155-32.82 0-61.963.572-80.311 1.456V191.514h-5.965V336.66c-9.048.548-14.254 1.19-14.254 1.876 0 2.018 45.009 3.654 100.53 3.654 55.522 0 100.53-1.636 100.53-3.654 0-.952-10.012-1.819-26.414-2.469" fill="#C9D3FF"/>
    <path d="M326.619 131.762a.297.297 0 0 1-.215-.092c-4.093-4.3-5.018-10.038-5.055-10.28a.297.297 0 0 1 .587-.09c.009.057.937 5.8 4.898 9.96a.297.297 0 0 1-.215.502" fill="#4A4A4A"/>
    <path d="M287.136 213.873l-12.413-5.71 4.415-.569s9.853-8.947 1.825-7.501c-8.656 1.56-11.292 5.747-11.292 5.747l-49.144 71.86.224-.177-3.33 4.881a1.326 1.326 0 0 0 .886 2.014c2.182.393 5.863.356 8.5-3.32 3.976-5.548 3.166-4.307 6.256-7.954 3.347-3.95 7.885-5.506 4.627-8.68l.36-.659 1.942-1.54s18.943-15.32 25.284-20.885c7.054-6.193 5.329-20.409 5.329-20.409l16.531-7.098z" fill="#353535"/>
    <path d="M309.57 132.33c-5.155 0-10.459-6.666-12.775-13.752-2.404-7.353-2.506-16.623 2.95-19.6a.297.297 0 1 1 .284.523c-3.616 1.972-5.993 8.725-2.67 18.892 3.213 9.828 9.7 14.44 13.866 13.077.035-.01 1.61-.445 3.49-3.254a.297.297 0 0 1 .494.33c-2.028 3.03-3.75 3.477-3.822 3.495-.6.196-1.207.289-1.816.289" fill="#4A4A4A"/>
    <path d="M257.63 181.8l-42.158-4.044-13.55-41.923c-.207-.858-1.056-1.341-1.916-1.135-.861.206-1.346 1.053-1.14 1.911l12.52 46.469c.129.388.45.682.884.734.122.05.256.081.4.087l46.597-.044c.17-1.004-.557-2.092-1.637-2.055" fill="#6480FF"/>
    <path d="M106.883 319.48h80.336M203.702 319.48h98.156" fill="#FFF"/>
    <path d="M290.052 191.811H182.17a.297.297 0 0 1 0-.594h107.882a.297.297 0 1 1 0 .594M302.733 191.96a.446.446 0 0 1-.446-.446c0-3.776-3.07-6.848-6.845-6.848H192.565a.445.445 0 1 1 0-.891h102.877c4.266 0 7.736 3.472 7.736 7.739 0 .246-.2.446-.445.446M341.975 89.36c1.456-2.72.744-6.302-1.578-9.275-1.755-2.246-4.035-3.641-6.324-3.85.387-.923.462-1.912-.175-2.611-1.007-1.105-3.45-1.124-4.828-.414-1.61-2.882-4.676-5.252-7.927-5.365-2.417-.085-4.476 1.095-5.948 2.847-3.225-3.008-7.65-2.323-9.433 1.45-.111.236-.222.48-.331.73-1.344-.273-2.997.03-3.78.745-.74.673-1.005 1.683-.803 2.655-.88.175-1.759.772-2.618 1.555-1.736 1.583-1.739 4.408-.006 6.311.128.14.264.27.403.392-.253.21-.504.428-.755.657-3.257 2.97-3.262 8.27-.011 11.839a9.504 9.504 0 0 0 1.996 1.666c-3.797 3.245-3.832 6.059-3.832 6.059s11.392.786 17.731 7.364a1.22 1.22 0 0 0 1.763.013c.72-.727 1.883-1.42 3.342-.614.747.414 1.296 1.103 1.65 1.881.563 1.245 1.147 4.512.796 7.582-.06.523.54.862.953.536 1.445-1.139 3.696-3.762 3.436-8.943 3.262 2.773 7.924 2.947 10.9.233 1.384-1.261 1.843-3.312 1.667-5.527 1.405-.267 2.915-1.317 3.337-2.364.476-1.178.031-2.517-1.002-3.325a5.786 5.786 0 0 0 2.8-1.401c2.54-2.315 1.106-8.027-1.423-10.827" fill="#4A4A4A"/>
    <path d="M312.675 167.645l5.965-9.946" stroke="#4A4A4A" stroke-width="1.674" stroke-linecap="round"/>
    <path d="M362.383 193.503l-7.5.62.597-1.614s-56.155 2.404-75.755 7.916c-1.373.274-3.147.807-4.86 1.841-.32.182-.602.366-.84.553-2.73 1.962-5.094 5.36-5.094 11.238 0 15.25 27.837 59.01 27.837 59.01l1.988 3.316s2.651 5.304 2.651 9.282c0 3.978 0 11.935 6.628 11.935v-23.283c0-1.632-1.134-3.001-2.699-3.391-.406-1.3-3.397-10.836-5.082-15.728-1.33-3.86-1.702-9.134-2.474-13.143-.633-3.283-1.012-12.748-8.966-21.367h58.988s24.522-1.326 14.58-27.185" fill="#4A4A4A"/>
    <path d="M314.445 139.347c-.655.754-3.221 4.173-13.038 19.678l-5.97 9.187a1.325 1.325 0 0 1-2.092.551l-19.556-17.39c-.855-.76-2.207-.153-2.207.991v3.374c0 3.19 1.15 6.272 3.237 8.682l20.464 18.686c.522.497 1.381.896 1.956.46 3.506-2.66 5.494-5.976 15.104-17.247l-.994.743c2.011 5.605 5.208 5.613 7.327 9.26 4.246 7.31 7.917 17.844 7.917 17.844s18.558 7.294 35.905-.692c-.11.028-23.26-44.702-29.94-56.329-.993-1.729-2.651-3.315-5.302-3.978-1.526-.382-4.295.106-5.966.663-3.23 1.077-6 4.412-6.234 4.745-.393.56-.394.524-.61.772z" fill="#C9D3FF"/>
    <path d="M311.35 167.645l9.278-10.609" fill="#FFF"/>
    <path d="M311.35 167.942a.297.297 0 0 1-.224-.493l9.278-10.609a.297.297 0 0 1 .447.392l-9.278 10.609a.297.297 0 0 1-.224.1" fill="#4A4A4A"/>
    <path d="M257.31 145.634c-.05.053-.096.108-.15.157-.51.479-1.193.77-1.941.774l.066-1.828.066-1.829.074-2.052a2.86 2.86 0 0 1 2.08 1.15l1.249-.924a4.312 4.312 0 0 0-3.276-1.692l.06-1.696a.308.308 0 0 0-.296-.32l-12.556-.453a.308.308 0 0 0-.32.298l-.138 3.84-.094 2.594-.17 4.757-.054 1.452-.083 2.328a1.857 1.857 0 0 0 1.783 1.918l9.472.341a1.857 1.857 0 0 0 1.917-1.783l.125-3.472.042-1.163a4.292 4.292 0 0 0 1.995-.408c.05-.024.098-.055.148-.08v-1.909z" fill="#6480FF"/>
    <path d="M359.949 234.611c0 1.217-.99 2.207-2.206 2.207h-54.347a2.209 2.209 0 0 1-2.206-2.207v-1.762h45.96a.297.297 0 1 0 0-.595h-45.96v-3.61c0-4.141 3.368-7.51 7.508-7.51h43.743c4.14 0 7.508 3.369 7.508 7.51v5.967zm-7.508-14.369h-43.743c-4.631 0-8.399 3.77-8.399 8.402v5.967a3.1 3.1 0 0 0 3.097 3.098h54.347a3.101 3.101 0 0 0 3.097-3.098v-5.967c0-4.633-3.768-8.402-8.399-8.402zM268.825 157.079a.295.295 0 0 1-.168-.052c-.047-.032-4.771-3.257-8.7-5.222-3.413-1.708-3.193-4.344-2.998-6.67.046-.553.09-1.075.09-1.585 0-.99.275-1.74.818-2.226.701-.628 1.598-.58 1.74-.567.206.002 2.194.068 5.35 1.525 3.29 1.52 6.485 6.881 6.62 7.109a.298.298 0 0 1-.512.302c-.032-.054-3.236-5.43-6.357-6.872-3.134-1.447-5.098-1.47-5.117-1.47l-.033-.002c-.006 0-.754-.07-1.3.422-.408.369-.616.968-.616 1.78 0 .534-.047 1.092-.091 1.633-.196 2.346-.382 4.562 2.672 6.09 3.965 1.983 8.722 5.23 8.77 5.263a.297.297 0 0 1-.168.542" fill="#4A4A4A"/>
    <path d="M1.442 318.5h186.672M205.063 318.5h97M318.877 318.5h24.024M357.063 318.5h97" stroke="#4A4A4A" stroke-linecap="square"/>
    <path d="M262.119 67c8.322 0 15.032 6.667 14.943 14.844V97.49c0 8.178-6.71 14.844-14.943 14.844h-3.58V123l-10.737-10.667h-29.796c-8.232 0-14.943-6.666-14.943-14.844V81.844c0-8.177 6.71-14.844 14.943-14.844h44.113zm-22.702 12c-5.687 0-10.354 4.667-10.354 10.5s4.667 10.5 10.5 10.5c5.687 0 10.5-4.667 10.5-10.5-.146-5.833-4.813-10.5-10.646-10.5zm3.646 6.27c.875 0 1.604.73 1.604 1.605s-.73 1.604-1.604 1.604c-.875 0-1.604-.729-1.604-1.604 0-.875.729-1.604 1.604-1.604zm-7.292 0c.875 0 1.604.73 1.604 1.605s-.729 1.604-1.604 1.604c-.875 0-1.604-.729-1.604-1.604 0-.875.73-1.604 1.604-1.604zm9.917 7.876c-.73 1.166-1.75 2.187-2.917 2.77-1.02.584-2.187.876-3.937.876-2.188-.146-4.23-1.313-5.688-3.646-.291-.584-.146-1.167.292-1.459.583-.291 1.167-.145 1.458.438 1.167 1.896 2.917 2.77 5.104 2.48 1.75-.147 2.917-1.022 3.938-2.48.146-.292.437-.583.875-.583.437 0 .73.145 1.02.437.292.292.147.875-.145 1.167z" fill="#6ACCB6"/>
    <g fill="#E4E9FF">
      <path d="M124.824 317.44h12.387a7.345 7.345 0 0 0 7.344-7.345v-18.307c0-.767-.657-1.425-1.425-1.425h-24.116c-.768 0-1.425.658-1.425 1.425v18.307c-.11 4.056 3.179 7.344 7.235 7.344zM109.367 262.848s6.468-1.973 14.799 5.81c8.331 7.783 6.796 14.36 6.796 14.36s-6.467 1.974-14.798-5.81c-8.331-7.782-6.797-14.36-6.797-14.36zM115.944 243.446s4.495-1.316 10.305 4.055c5.81 5.372 4.713 9.976 4.713 9.976s-4.494 1.425-10.304-4.056c-5.81-5.371-4.714-9.975-4.714-9.975zM122.412 229.085s2.63-.767 5.92 2.302c3.288 3.07 2.74 5.7 2.74 5.7s-2.63.768-5.92-2.301c-3.288-3.07-2.74-5.7-2.74-5.7z"/>
      <path d="M152.558 262.848s-6.468-1.973-14.8 5.81c-8.33 7.783-6.796 14.36-6.796 14.36s6.468 1.974 14.8-5.81c8.33-7.782 6.796-14.36 6.796-14.36zM145.98 243.446s-4.494-1.316-10.304 4.055c-5.81 5.372-4.714 9.976-4.714 9.976s4.495 1.315 10.305-4.056c5.7-5.371 4.713-9.975 4.713-9.975zM139.513 229.085s-2.631-.767-5.92 2.302c-3.288 3.07-2.74 5.7-2.74 5.7s2.63.768 5.92-2.301c3.288-3.07 2.74-5.7 2.74-5.7z"/>
      <path d="M131.51 293.103v-56.015h-1.205v56.015"/>
    </g>
  </g>
</svg>
