<svg width="336" height="197" xmlns="http://www.w3.org/2000/svg"><g fill="none" fill-rule="evenodd"><path d="M237.037 162.275l-.088-9.062 27.99-.28a.394.394 0 0 1-.123-.289l-.087-8.895h-2.108a.41.41 0 0 1-.403-.438l-.105-9.868a.666.666 0 0 1 .08-.245h-2.424a.385.385 0 0 1-.41-.402l-.088-9.133a.429.429 0 0 1 .393-.411l4.61-.044-.096-8.895a.438.438 0 0 1 .402-.412l47.171-.876a.35.35 0 0 1-.122.29h2.51v.245c.08.07.124.173.122.28l.097 8.93a.438.438 0 0 1-.403.412l-4.644.044.096 9.097v.087h2.624v.28a.464.464 0 0 1 .123.324l.096 9.176h2.379v.245a.464.464 0 0 1 .122.324l.097 9.378a.438.438 0 0 1-.403.446h-2.501a.42.42 0 0 1 .41.438l.088 8.493h2.38v.245a.342.342 0 0 1 .122.28l.096 9.018a.446.446 0 0 1-.402.412h-2.222v.044c.083.07.13.172.131.28l.088 8.755a.36.36 0 0 1-.359.368l-42.413.438c-.2 0-.363-.16-.367-.36l-36.51.587-.192-19.262 4.243-.044zM108.258 122.201a.377.377 0 0 0 .403.403h2.528a.438.438 0 0 0-.403.412v8.974h-4.644a.438.438 0 0 0-.411.403v9.22a.394.394 0 0 0 .41.41h2.441a.534.534 0 0 0-.079.246v9.868a.42.42 0 0 0 .403.455h2.125v8.974a.342.342 0 0 0 .123.28H82.867v9.141h-4.199v10h32.486c.07.079.173.123.28.122h4.32a.341.341 0 0 0-.245.324v8.851c0 .204.165.368.368.368h42.789a.368.368 0 0 0 .367-.368v-8.851a.368.368 0 0 0-.122-.29h2.248a.438.438 0 0 0 .402-.41v-9.124a.394.394 0 0 0-.122-.289v-.245h-2.406v-8.572a.412.412 0 0 0-.402-.446h2.528a.446.446 0 0 0 .402-.456v-9.464a.5.5 0 0 0-.122-.324v-.246h-2.406v-9.254a.464.464 0 0 0-.122-.333v-.28h-2.686v-9.263h4.645a.446.446 0 0 0 .411-.412v-9.01a.385.385 0 0 0-.122-.288v-.246h-2.528a.368.368 0 0 0 .122-.28v-9.018a.394.394 0 0 0-.122-.289v-.157h4.846a.446.446 0 0 0 .41-.412v-9.01a.307.307 0 0 0-.087-.2v-.491l-15.928-.49-.043.779h-34.034a.429.429 0 0 0-.402.403v9.018a.385.385 0 0 0 .402.411h28.978" fill="#EFF2FF"/><ellipse fill="#C8D2FF" transform="rotate(-.08 29.233 192.85)" cx="29.233" cy="192.85" rx="28.768" ry="3.59"/><ellipse fill="#C8D2FF" transform="rotate(-.08 187.232 191.588)" cx="187.232" cy="191.588" rx="113.498" ry="4.211"/><path d="M68.076 181.065h266.907" stroke="#4A4A4A" stroke-linecap="round" stroke-linejoin="round"/><path d="M58.9 25.514S34.988 58.724 19.865 71.2c-.368 4.045 7.25.736 7.25.736l1.55 1.182C47.328 62.96 59.88 28.7 59.88 28.7l-.98-3.187" fill="#64BBA4"/><path d="M24.386 68.714a14.223 14.223 0 0 0 .98-7.75l2.527-2.302 3.744.368a59.198 59.198 0 0 0 1.146 6.89" fill="#FFF"/><path d="M71.723 38.323l-.48-2.933 9.332-3.923s-2.493 3.433-3.919 5.92c-1.425 2.486-1.504 3.668-1.504 3.668" stroke="#4A4A4A" stroke-width=".74" stroke-linecap="round" stroke-linejoin="round"/><path d="M30.334 61.499s5.912 1.305 4.89-8.283c-.368-3.31-2.196-6.365-3.097-6.812l-7.697 1.139-.21 4.57.874 8.756" stroke="#4A4A4A" stroke-width=".74" fill="#FFF" stroke-linecap="round" stroke-linejoin="round"/><path d="M25.366 62.103s2.772.613 2.405-4.894c-.044-.648-.044-1.217-.044-1.751a2.107 2.107 0 1 1 3.674-1.305l.49.57.28.323.533-.692a.683.683 0 0 0 0-.875 4.587 4.587 0 0 1-.411-.534 3.75 3.75 0 0 1-.647-2.075c-.044-1.839 2.624-4.614 1.504-8.16-.612-1.874-4.81-7.005-13.689 3.835a8.908 8.908 0 0 0-1.88 3.712c-1.303 5.525 3.297 11.032 7.785 11.846z" fill="#4A4A4A"/><path d="M43.419 102.44l1.19-24.83v-3.144a1.297 1.297 0 0 0 0-.368 2.487 2.487 0 0 1 1.215-2.162c5.467-3.424 21.316-16.4 28.61-28.894a2.787 2.787 0 0 0-2.405-4.202 1.557 1.557 0 0 0-1.347.814c-1.67 3.178-15.814 18.562-43.847 27.492-6.114 2.023-7.706 3.774-8.52 5.525a8.192 8.192 0 0 0-.49 1.392 8.843 8.843 0 0 0 .123 4.93 74.958 74.958 0 0 1 2.808 29.909" fill="#6ACBB5"/><path d="M110.419 7.565L140 .675a.726.726 0 0 1 .875.525l3.709 16.03a.727.727 0 0 1-.525.876L51.343 39.69a.743.743 0 0 1-.874-.534l-3.709-16.05a.744.744 0 0 1 .534-.875L101.12 9.71" stroke="#4A4A4A" fill="#FFF" stroke-linecap="round" stroke-linejoin="round"/><path fill="#C8D2FF" opacity=".5" d="M112.94 7.468l27.673-6.436 3.94 16.971-27.673 6.436z"/><path d="M83.033 28.368l-2.45-10.445M77.531 29.673l-2.449-10.48M72.03 30.942l-2.45-10.445M66.528 32.203l-2.45-10.445M61.026 33.508l-2.45-10.48M55.524 34.777l-2.449-10.445M99.538 24.533l-2.45-10.445M94.036 25.838l-2.449-10.48M88.534 27.107l-2.449-10.445M83.033 28.368l-2.45-10.445M116.043 20.698l-2.45-10.436M110.541 21.968l-2.449-10.446M105.04 23.272l-2.45-10.445M138.05 15.602L135.6 5.113" stroke="#4A4A4A" stroke-width=".5" stroke-linecap="round" stroke-linejoin="round"/><path d="M25.366 60.965s.41 2.241-.525 6.567" stroke="#4A4A4A" stroke-width=".74" stroke-linecap="round" stroke-linejoin="round"/><path d="M32.783 65.29l5.825-2.408" stroke="#4A4A4A" stroke-width=".55" stroke-linecap="round" stroke-linejoin="round"/><path d="M40.445 62.068s7.54-3.633 10.96-5.796" stroke="#4A4A4A" stroke-width=".55" fill="#FFF" stroke-linecap="round" stroke-linejoin="round"/><path d="M37.427 189.181l-.166.98a1.076 1.076 0 0 0 1.023 1.104l12.185.245c.98.158 1.836-.875 1.137-1.392-2.16-1.628-6.683-2.81-9.246-2.775M7.47 189.181l-.158.98a1.068 1.068 0 0 0 1.015 1.104l12.184.245c.98.158 1.837-.875 1.146-1.392-2.16-1.628-6.683-2.81-9.254-2.775" fill="#4A4A4A"/><path d="M152.718 30.128h38.346a.69.69 0 0 1 .7.692v16.46a.7.7 0 0 1-.7.7h-95.2a.69.69 0 0 1-.69-.7V30.855a.692.692 0 0 1 .69-.692h50.093" stroke="#4A4A4A" fill="#FFF" stroke-linecap="round" stroke-linejoin="round"/><path fill="#C8D2FF" opacity=".5" d="M157.572 30.128h34.191v17.87h-34.191z"/><path d="M129.33 44.198V33.472M123.661 44.198V33.472M118.037 44.198V33.472M112.37 44.198V33.472M106.71 44.198V33.472M101.086 44.198V33.472M146.237 44.198V33.472M140.613 44.198V33.472M134.953 44.198V33.472M129.33 44.198V33.472M157.572 44.198V33.472M151.905 44.198V33.472M185.807 44.198V33.472" stroke="#4A4A4A" stroke-width=".5" stroke-linecap="round" stroke-linejoin="round"/><path d="M153.164 30.128h37.9a.69.69 0 0 1 .7.692v16.46a.7.7 0 0 1-.7.7h-95.2a.69.69 0 0 1-.69-.7V30.855a.692.692 0 0 1 .69-.692h33.833" stroke="#4A4A4A" stroke-linecap="round" stroke-linejoin="round"/><path d="M187.722 65.903H92.523a.691.691 0 0 1-.691-.692V48.768a.684.684 0 0 1 .691-.691h95.2a.69.69 0 0 1 .7.691v16.443a.726.726 0 0 1-.7.692z" stroke="#4A4A4A" fill="#FFF" stroke-linecap="round" stroke-linejoin="round"/><path fill="#C8D2FF" opacity=".5" d="M154.214 48.007h34.191v17.87h-34.191z"/><path d="M125.988 62.068V51.334M120.32 62.068V51.334M114.696 62.068V51.334M109.028 62.068V51.334M103.369 62.068V51.334M97.745 62.068V51.334M142.895 62.068V51.334M137.271 62.068V51.334M131.612 62.068V51.334M125.988 62.068V51.334M154.222 62.068V51.334M148.563 62.068V51.334M182.43 62.068V51.334" stroke="#4A4A4A" stroke-width=".5" stroke-linecap="round" stroke-linejoin="round"/><path d="M187.722 65.903H92.523a.691.691 0 0 1-.691-.692V48.768a.684.684 0 0 1 .691-.691h95.2a.69.69 0 0 1 .7.691v16.443a.726.726 0 0 1-.7.692z" stroke="#4A4A4A" stroke-linecap="round" stroke-linejoin="round"/><path d="M199.426 83.773H104.26a.69.69 0 0 1-.691-.7V66.639a.692.692 0 0 1 .691-.7h95.165a.69.69 0 0 1 .69.7v16.434a.726.726 0 0 1-.69.7z" stroke="#4A4A4A" fill="#FFF" stroke-linecap="round" stroke-linejoin="round"/><path fill="#C8D2FF" opacity=".5" d="M177.253 66.026h22.908v17.783h-22.908z"/><path d="M137.717 79.973V69.248M132.058 79.973V69.248M126.39 79.973V69.248M120.766 79.973V69.248M115.107 79.973V69.248M109.483 79.973V69.248M154.634 79.973V69.248M149.01 79.973V69.248M143.342 79.973V69.248M137.717 79.973V69.248M177.253 79.973V69.248M171.585 79.973V69.248M165.926 79.973V69.248M160.301 79.973V69.248" stroke="#4A4A4A" stroke-width=".5" stroke-linecap="round" stroke-linejoin="round"/><path d="M199.426 83.773H104.26a.69.69 0 0 1-.691-.7V66.639a.692.692 0 0 1 .691-.7h95.165a.69.69 0 0 1 .69.7v16.434a.726.726 0 0 1-.69.7z" stroke="#4A4A4A" stroke-linecap="round" stroke-linejoin="round"/><path d="M191.475 101.678h-95.2a.682.682 0 0 1-.69-.691V84.544a.684.684 0 0 1 .69-.692h95.2a.682.682 0 0 1 .69.692v16.443a.709.709 0 0 1-.69.691z" stroke="#4A4A4A" fill="#FFF" stroke-linecap="round" stroke-linejoin="round"/><path fill="#C8D2FF" opacity=".5" d="M169.267 83.773h22.908v17.87h-22.908z"/><path d="M129.732 97.843V87.118M124.072 97.843V87.118M118.448 97.843V87.118M112.78 97.843V87.118M107.156 97.843V87.118M101.488 97.843V87.118M146.692 97.843V87.118M141.024 97.843V87.118M135.356 97.843V87.118M129.732 97.843V87.118M152.307 97.843V87.118" stroke="#4A4A4A" stroke-width=".5" stroke-linecap="round" stroke-linejoin="round"/><path d="M191.475 101.678h-95.2a.682.682 0 0 1-.69-.691V84.544a.684.684 0 0 1 .69-.692h95.2a.682.682 0 0 1 .69.692v16.443a.709.709 0 0 1-.69.691z" stroke="#4A4A4A" stroke-linecap="round" stroke-linejoin="round"/><path d="M206.31 119.548h-95.226a.682.682 0 0 1-.691-.691V102.44a.684.684 0 0 1 .69-.692h95.226a.682.682 0 0 1 .691.692v16.443a.718.718 0 0 1-.69.665z" stroke="#4A4A4A" fill="#FFF" stroke-linecap="round" stroke-linejoin="round"/><path fill="#C8D2FF" opacity=".5" d="M161.517 101.678h45.229v17.87h-45.229z"/><path d="M144.566 115.748v-10.725M138.907 115.748v-10.725M133.283 115.748v-10.725M127.615 115.748v-10.725M121.99 115.748v-10.725M116.323 115.748v-10.725M161.517 115.748v-10.725M155.858 115.748v-10.725M150.19 115.748v-10.725M144.566 115.748v-10.725" stroke="#4A4A4A" stroke-width=".5" stroke-linecap="round" stroke-linejoin="round"/><path d="M206.31 119.548h-95.226a.682.682 0 0 1-.691-.691V102.44a.684.684 0 0 1 .69-.692h95.226a.682.682 0 0 1 .691.692v16.443a.718.718 0 0 1-.69.665z" stroke="#4A4A4A" stroke-linecap="round" stroke-linejoin="round"/><path d="M194.571 137.173h-95.2a.69.69 0 0 1-.69-.7v-16.434a.692.692 0 0 1 .69-.7h95.2a.69.69 0 0 1 .691.7v16.434a.692.692 0 0 1-.69.7z" stroke="#4A4A4A" fill="#FFF" stroke-linecap="round" stroke-linejoin="round"/><path fill="#C8D2FF" opacity=".5" d="M149.779 119.294h20.257v17.87h-20.257z"/><path d="M132.828 133.338v-10.734M127.204 133.338v-10.734M121.545 133.338v-10.734M115.877 133.338v-10.734M110.253 133.338v-10.734M104.585 133.338v-10.734M149.788 133.338v-10.734M144.12 133.338v-10.734M138.496 133.338v-10.734M132.828 133.338v-10.734M172.363 133.338v-10.734M166.739 133.338v-10.734M161.071 133.338v-10.734M155.412 133.338v-10.734M189.314 133.338v-10.734M183.646 133.338v-10.734M178.031 133.338v-10.734" stroke="#4A4A4A" stroke-width=".5" stroke-linecap="round" stroke-linejoin="round"/><path d="M194.571 137.173h-95.2a.69.69 0 0 1-.69-.7v-16.434a.692.692 0 0 1 .69-.7h95.2a.69.69 0 0 1 .691.7v16.434a.692.692 0 0 1-.69.7z" stroke="#4A4A4A" stroke-linecap="round" stroke-linejoin="round"/><path d="M199.705 172.826h-95.199a.691.691 0 0 1-.691-.692v-16.443a.684.684 0 0 1 .691-.691h95.2a.682.682 0 0 1 .69.691v16.443c0 .382-.309.692-.69.692z" stroke="#4A4A4A" fill="#FFF" stroke-linecap="round" stroke-linejoin="round"/><path fill="#C8D2FF" opacity=".5" d="M154.87 154.982h32.275v17.87H154.87z"/><path d="M137.962 169.026V158.3M132.303 169.026V158.3M126.679 169.026V158.3M121.011 169.026V158.3M115.387 169.026V158.3M109.728 169.026V158.3M149.254 169.026V158.3M143.586 169.026V158.3M137.962 169.026V158.3" stroke="#4A4A4A" stroke-width=".5" stroke-linecap="round" stroke-linejoin="round"/><path d="M199.705 172.826h-95.199a.691.691 0 0 1-.691-.692v-16.443a.684.684 0 0 1 .691-.691h95.2a.682.682 0 0 1 .69.691v16.443c0 .382-.309.692-.69.692z" stroke="#4A4A4A" stroke-linecap="round" stroke-linejoin="round"/><path d="M192.778 190.731H97.622a.682.682 0 0 1-.69-.692v-16.443c0-.382.309-.691.69-.691h95.2c.381 0 .69.31.69.691v16.443a.718.718 0 0 1-.734.692z" stroke="#4A4A4A" fill="#FFF" stroke-linecap="round" stroke-linejoin="round"/><path fill="#C8D2FF" opacity=".5" d="M159.033 172.878H192.9v17.87h-33.867z"/><path d="M131.035 186.896v-10.725M125.41 186.896v-10.725M119.752 186.896v-10.725M114.127 186.896v-10.725M108.46 186.896v-10.725M102.835 186.896v-10.725M131.035 186.896v-10.725M159.278 186.896v-10.725M147.995 186.896v-10.725M142.37 186.896v-10.725M136.703 186.896v-10.725M153.654 186.896v-10.725" stroke="#4A4A4A" stroke-width=".5" stroke-linecap="round" stroke-linejoin="round"/><path d="M192.778 190.731H97.622a.682.682 0 0 1-.69-.692v-16.443c0-.382.309-.691.69-.691h95.2c.381 0 .69.31.69.691v16.443a.718.718 0 0 1-.734.692z" stroke="#4A4A4A" stroke-linecap="round" stroke-linejoin="round"/><path d="M188.825 154.973H93.59a.691.691 0 0 1-.691-.691v-16.46a.684.684 0 0 1 .691-.693h95.235a.682.682 0 0 1 .69.692v16.443c0 .385-.306.7-.69.71z" stroke="#4A4A4A" fill="#FFF" stroke-linecap="round" stroke-linejoin="round"/><path fill="#C8D2FF" opacity=".5" d="M143.998 137.077h120.95v17.87h-120.95z"/><path d="M127.081 151.165V140.43M121.422 151.165V140.43M115.798 151.165V140.43M110.13 151.165V140.43M104.506 151.165V140.43M98.847 151.165V140.43M144.041 151.165V140.43M138.373 151.165V140.43M132.705 151.165V140.43M127.081 151.165V140.43M160.949 151.165V140.43M155.325 151.165V140.43M149.665 151.165V140.43" stroke="#4A4A4A" stroke-width=".5" stroke-linecap="round" stroke-linejoin="round"/><path d="M188.825 154.973H93.59a.691.691 0 0 1-.691-.691v-16.46a.684.684 0 0 1 .691-.693h95.235a.682.682 0 0 1 .69.692v16.443c0 .385-.306.7-.69.71z" stroke="#4A4A4A" stroke-linecap="round" stroke-linejoin="round"/><path d="M181.451 172.826h95.2a.682.682 0 0 0 .69-.692v-16.443a.684.684 0 0 0-.69-.691h-95.2a.682.682 0 0 0-.69.691v16.443a.64.64 0 0 0 .69.692z" stroke="#4A4A4A" fill="#FFF" stroke-linecap="round" stroke-linejoin="round"/><path fill="#C8D2FF" opacity=".5" d="M217.654 154.956h59.137v17.87h-59.137z"/><path d="M181.451 172.826h95.2a.682.682 0 0 0 .69-.692v-16.443a.684.684 0 0 0-.69-.691h-95.2a.682.682 0 0 0-.69.691v16.443a.64.64 0 0 0 .69.692z" stroke="#4A4A4A" stroke-linecap="round" stroke-linejoin="round"/><path fill="#C8D2FF" opacity=".5" d="M193.74 172.826h77.522v17.87H193.74z"/><path d="M193.557 190.731h77.39a.638.638 0 0 0 .648-.648v-16.635a.64.64 0 0 0-.647-.648h-77.391a.638.638 0 0 0-.657.648v16.635a.64.64 0 0 0 .657.648z" stroke="#4A4A4A" fill="#FFF" stroke-linecap="round" stroke-linejoin="round"/><path d="M193.557 190.731h77.39a.638.638 0 0 0 .648-.648v-16.635a.64.64 0 0 0-.647-.648h-77.391a.638.638 0 0 0-.657.648v16.635a.64.64 0 0 0 .657.648z" fill="#C8D2FF" opacity=".5"/><path d="M266.014 186.896v-10.725M260.39 186.896v-10.725M249.3 186.896v-10.725M243.675 186.896v-10.725M238.016 186.896v-10.725M254.967 186.896v-10.725M266.014 169.438v-10.726M260.39 169.438v-10.726M249.3 169.438v-10.726M243.675 169.438v-10.726M238.016 169.438v-10.726M254.967 169.438v-10.726" stroke="#4A4A4A" stroke-width=".5" stroke-linecap="round" stroke-linejoin="round"/><path d="M193.557 190.731h77.39a.638.638 0 0 0 .648-.648v-16.635a.64.64 0 0 0-.647-.648h-77.391a.638.638 0 0 0-.657.648v16.635a.64.64 0 0 0 .657.648zM250.244 137.086h-80.942a.691.691 0 0 0-.691.691v16.443a.684.684 0 0 0 .69.692h95.2a.69.69 0 0 0 .7-.692v-16.443a.692.692 0 0 0-.7-.691h-6.595" stroke="#4A4A4A" stroke-linecap="round" stroke-linejoin="round"/><path d="M250.402 137.086h-81.1a.691.691 0 0 0-.691.691v16.443a.684.684 0 0 0 .69.692h95.2a.69.69 0 0 0 .7-.692v-16.443a.692.692 0 0 0-.7-.691h-4.373M110.419 7.565L140 .675a.726.726 0 0 1 .875.525l3.709 16.03a.727.727 0 0 1-.525.876L51.343 39.69a.743.743 0 0 1-.874-.534l-3.709-16.05a.744.744 0 0 1 .534-.875L101.12 9.71" stroke="#4A4A4A" stroke-linecap="round" stroke-linejoin="round"/><path d="M8.66 180.04s1.46-13.623 2.273-17.66c.814-4.036 3.5-12.257 3.63-13.378a238.545 238.545 0 0 0 3.14-24.034c.936-13.09 3.29-17.782 3.29-17.782l15.525-2.364-2.624 14.192s-17.319 53.69-21.867 70.29H7.513l1.146-9.264z" fill="#4A4A4A"/><path d="M31.488 121.422l3.14 29.252c.936 8.283.936 9.5.936 9.5.403 2.452-1.635 6.532 0 15.506.28 1.629.691 4.325.936 5.14.32 1.285.536 2.594.647 3.913l.333 4.982h4.845l1.146-42.902s1.137-25.496 0-44.382l-22.479 4.71 10.496 14.281z" fill="#4A4A4A"/><path d="M43.419 102.44s-10.837 3.546-16.619 4.816c-5.178 1.094-6.849 2.241-6.123-.578 1.024-3.993.201-13.782.201-13.782l16.26 7.259 6.28 2.285z" fill="#6ACBB5"/><path d="M43.174 146.63s3.831-24.184.122-43.971a17.74 17.74 0 0 0-8.746 13.09l8.624 30.88z" fill="#4A4A4A"/><path d="M55.848 38.323L12.123 189.26"/><path d="M158.062 97.843V87.118M169.346 97.843V87.118M163.686 97.843V87.118" stroke="#4A4A4A" stroke-width=".5" stroke-linecap="round" stroke-linejoin="round"/><ellipse stroke="#4A4A4A" stroke-width=".96" fill="#FFF" stroke-linecap="round" stroke-linejoin="round" cx="205.776" cy="148.162" rx="46.349" ry="46.396"/><path d="M245.259 148.162a37.383 37.383 0 0 1-.377 5.367c-2.907 20.912-21.724 35.842-42.727 33.9-21.003-1.942-36.77-20.069-35.802-41.16.968-21.092 18.33-37.695 39.423-37.7a38.677 38.677 0 0 1 14.825 2.89M240.903 130.099a40.73 40.73 0 0 1 3.227 8.589" stroke="#4A4A4A" stroke-width=".53" stroke-linecap="round" stroke-linejoin="round"/><path d="M198.997 162.73a3.443 3.443 0 0 1-1.75.395 2.622 2.622 0 0 1-1.749-.596c-.434-.417-.67-1-.647-1.602a1.752 1.752 0 0 1 .604-1.366 1.33 1.33 0 0 1 .446-.324c.338-.179.72-.264 1.102-.245a5.657 5.657 0 0 1 3.83 1.751 4.682 4.682 0 0 1-1.862 2.023m3.192-34.06c-.852.471-1.65 1.035-2.379 1.682a9.549 9.549 0 0 0-2.991 7.45c.019.989.196 1.967.525 2.899a22.296 22.296 0 0 0 2.274 3.773c.287.438.603.856.944 1.252l-6.245-.07c-.07 0-.183 0-.253.044-.263.132-.35.508-.377 1.182.044.876.254 1.296.665 1.261l7.505-.21c.69 1.485 1.057 3.1 1.076 4.737a15.95 15.95 0 0 1-.875 5.174 13.267 13.267 0 0 0-4.933-1.278 5.786 5.786 0 0 0-2.44.569 4.374 4.374 0 0 0-.875.657 3.635 3.635 0 0 0-1.382 2.766 4.135 4.135 0 0 0 1.32 3.047 5.35 5.35 0 0 0 3.692 1.086 6.328 6.328 0 0 0 2.668-.692 8.985 8.985 0 0 0 2.519-2.136 10.927 10.927 0 0 0 7.32 2.705 7.91 7.91 0 0 0 3.5-.823l.41-.218a9.873 9.873 0 0 0 3.088-3.573 10.038 10.038 0 0 0 1.426-2.872c0-.192-.07-.306-.333-.446a1.11 1.11 0 0 0-.62-.193.297.297 0 0 0-.263.044l-.149.079a7.813 7.813 0 0 1-2.851 2.495 8.618 8.618 0 0 1-3.945 1.042 18.58 18.58 0 0 1-5.79-1.12 19.041 19.041 0 0 0 2.003-7.968 16.573 16.573 0 0 0-.324-2.96l7.496.123c.083.04.18.04.262 0 .254-.131.412-.552.385-1.243-.026-.692-.218-1.217-.594-1.296l-8.117.201a38.754 38.754 0 0 0-1.636-3.633c-1.198-2.627-1.854-4.518-1.88-5.735a7.737 7.737 0 0 1 1.574-5.253 5.765 5.765 0 0 1 1.68-1.401 5.882 5.882 0 0 1 2.702-.622 4.108 4.108 0 0 1 2.729.98 3.074 3.074 0 0 1 1.146 2.522 3.33 3.33 0 0 1-.796 2.172 2.9 2.9 0 0 0-.647 1.663c.012.759.327 1.48.874 2.005.57.553 1.34.85 2.134.823.441.02.878-.096 1.251-.333a3.307 3.307 0 0 0 1.05-.875c.648-.814.96-1.844.874-2.88a6.878 6.878 0 0 0-1.268-3.59 8.899 8.899 0 0 0-3.306-3.047 9.203 9.203 0 0 0-4.269-1.016 10.68 10.68 0 0 0-5.632 1.164" fill="#5F4DD4" fill-rule="nonzero"/></g></svg>