<svg width="109" height="34" viewBox="0 0 109 34" xmlns="http://www.w3.org/2000/svg" xmlns:xlink="http://www.w3.org/1999/xlink"><defs><linearGradient x1="8.556%" y1="17.637%" x2="91.186%" y2="82.208%" id="a"><stop stop-color="#29A1E0" offset="0%"/><stop stop-color="#4862DC" offset="100%"/></linearGradient><path d="M30.034 8.549L19.123.795a3.013 3.013 0 0 0-3.28-.522L3.173 5.82A3.104 3.104 0 0 0 1.32 8.352L.363 18.3v.012l-.12 1.248.003.003-.243 2.585s-.11 1.799 1.243 2.764l11.19 7.991a3.005 3.005 0 0 0 2.302.51 2.97 2.97 0 0 0 .84-.243l12.476-5.637c1.511-.682 1.81-1.65 2.041-4.045l1.149-11.936a2.994 2.994 0 0 0-1.21-3.003z" id="b"/><linearGradient x1="37.291%" y1="20.75%" x2="75.567%" y2="88.678%" id="c"><stop stop-color="#328EDD" stop-opacity="0" offset="0%"/><stop stop-color="#E004FD" stop-opacity=".3" offset="100%"/></linearGradient><path d="M30.034 8.574L19.14.83c-.865-.81-2.16-1.077-3.298-.56L3.173 5.846A3.104 3.104 0 0 0 1.32 8.378l-.957 9.947v.013l-.12 1.248.003.002-.243 2.586s-.11 1.798 1.243 2.764l11.19 7.99a3.005 3.005 0 0 0 2.302.51 2.97 2.97 0 0 0 .84-.242l12.476-5.637c1.511-.683 1.81-1.65 2.041-4.045l1.149-11.937a2.994 2.994 0 0 0-1.21-3.003z" id="e"/><linearGradient x1="62.766%" y1="67.892%" x2="13.271%" y2="21.317%" id="f"><stop stop-color="#29A1E0" stop-opacity="0" offset="20.25%"/><stop stop-color="#35B1E8" offset="100%"/></linearGradient></defs><g fill="none" fill-rule="evenodd"><path d="M4.907 19.506c-1.31 0-2.23-1.069-2.23-2.438v-.025c0-1.329.923-2.412 2.23-2.412.895 0 1.51.417 2.045 1.068l1.95-1.473c-.828-1.12-2.057-1.903-3.966-1.903-2.833 0-4.928 2.087-4.928 4.745v.025c0 2.726 2.151 4.72 4.823 4.72 2.07 0 3.26-.874 4.14-2.059l-1.95-1.357c-.564.664-1.137 1.109-2.114 1.109zm8.07-5.034c-1.242 0-2.112.22-2.925.546l.52 1.747c.643-.248 1.229-.39 1.991-.39.974 0 1.443.417 1.443 1.148v.117a5.638 5.638 0 0 0-1.736-.274c-1.695 0-2.832.756-2.832 2.217v.025c0 1.408 1.055 2.176 2.432 2.176.948 0 1.629-.353 2.123-.887v.73h2.511v-4.052c0-.991-.226-1.722-.775-2.244-.576-.559-1.458-.86-2.753-.86zm1.055 4.604c0 .703-.52 1.16-1.257 1.16-.52 0-.895-.286-.895-.77v-.025c0-.522.428-.875 1.162-.875.375 0 .735.077.99.182v.328zm6.169-3.079v-1.42h-2.54v7.053h2.54v-2.191c0-1.63.747-2.373 2.07-2.373h.214v-2.61c-1.2-.049-1.868.577-2.284 1.541zm4.222 5.633h2.592v-3.26h4.421v-2.1h-4.42v-1.552h4.889V12.5h-7.482v9.129zm8.428 0h2.539v-6.01h-2.54v6.01zm8.52-7.21c-1.028 0-1.696.561-2.165 1.147v-.99h-2.539v7.053h2.54v-3.821c0-.77.453-1.188 1.068-1.188.601 0 1.014.417 1.014 1.188v3.821h2.54v-4.616c.002-1.603-.921-2.594-2.458-2.594zm6.812.052c-1.242 0-2.111.22-2.924.546l.52 1.747c.642-.248 1.228-.39 1.99-.39.977 0 1.444.417 1.444 1.148v.117a5.638 5.638 0 0 0-1.737-.274c-1.695 0-2.832.756-2.832 2.217v.025c0 1.408 1.056 2.176 2.432 2.176.949 0 1.63-.353 2.124-.887v.73h2.51v-4.052c0-.991-.226-1.722-.774-2.244-.576-.559-1.456-.86-2.753-.86zm1.055 4.604c0 .703-.52 1.16-1.257 1.16-.52 0-.895-.286-.895-.77v-.025c0-.522.429-.875 1.163-.875.375 0 .734.077.989.182v.328zm8.336-4.656c-1.027 0-1.695.561-2.164 1.147v-.99h-2.54v7.053h2.54v-3.821c0-.77.454-1.188 1.068-1.188.602 0 1.015.417 1.015 1.188v3.821h2.539v-4.616c0-1.603-.923-2.594-2.458-2.594zm7.25 5.294c-.853 0-1.442-.69-1.442-1.602v-.025c0-.86.601-1.565 1.415-1.565.614 0 1.002.273 1.348.742l1.724-1.252c-.615-.951-1.604-1.578-3.085-1.578-2.284 0-3.875 1.683-3.875 3.678v.025c0 1.995 1.603 3.664 3.78 3.664 1.591 0 2.553-.65 3.22-1.617l-1.695-1.2c-.4.455-.788.73-1.39.73zm10.647-1.436c0-2.072-1.15-3.858-3.646-3.858-2.136 0-3.645 1.63-3.645 3.69v.024c0 2.192 1.603 3.665 3.875 3.665 1.443 0 2.444-.574 3.138-1.434L73.79 19.23c-.52.494-1.002.718-1.604.718-.788 0-1.361-.39-1.563-1.16h4.837c.01-.17.01-.353.01-.51zm-4.89-.755c.133-.77.589-1.277 1.257-1.277.693 0 1.162.494 1.257 1.277H70.58zM34.21 11.467c.762 0 1.38.626 1.38 1.397 0 .773-.618 1.396-1.38 1.396-.762 0-1.38-.626-1.38-1.396 0-.77.618-1.397 1.38-1.397z" fill="#4A4A4A" fill-rule="nonzero"/><path d="M30.034 8.549L19.123.795a3.013 3.013 0 0 0-3.28-.522L3.173 5.82A3.104 3.104 0 0 0 1.32 8.352L.363 18.3v.012l-.12 1.248.003.003-.243 2.585s-.11 1.799 1.243 2.764l11.19 7.991a3.005 3.005 0 0 0 2.302.51 2.97 2.97 0 0 0 .84-.243l12.476-5.637c1.511-.682 1.81-1.65 2.041-4.045l1.149-11.936a2.994 2.994 0 0 0-1.21-3.003z" transform="translate(77.723 .025)" fill="url(#a)" fill-rule="nonzero"/><g transform="translate(77.723 .025)"><mask id="d" fill="#fff"><use xlink:href="#b"/></mask><path d="M-.31 20.888c.205-.459 4.19-4.417 4.828-4.723C5.15 15.859 22.97 2.522 22.97 2.522l9.02 6.944-1.76 17.594-16.804 7.162S1.527 26.318-.136 23.855c-.972-1.431-.22-2.866-.174-2.967z" fill="url(#c)" fill-rule="nonzero" mask="url(#d)"/></g><g transform="translate(77.723)"><mask id="g" fill="#fff"><use xlink:href="#e"/></mask><path d="M3.032 26.436c4.768-1.64 9.908-4.817 15.858-12.569 2.63-3.428 4.633-6.485 6.073-9.231-6.493-4.957-5.275-5.731-9.12-4.34C12.133 1.637 3.252 5.06 3.252 5.06L1.358 7.028c-.005-.003-5.106 21.74 1.674 19.408z" fill="url(#f)" fill-rule="nonzero" mask="url(#g)"/></g><path d="M86.182 18.597c1.372-1 2.139-1.773 2.139-3.267v-.025c0-1.761-1.385-2.975-3.406-2.975-1.796 0-2.773.708-3.762 2l1.729 1.453c.726-.84 1.213-1.2 1.834-1.2.62 0 1.03.358 1.03.946 0 .56-.331 1-1.19 1.679l-3.458 2.667v1.946h7.314V19.72h-3.815l1.585-1.122zm10.069-6.173h-2.589l-4.791 5.761.421 1.827h4.476v1.814h2.483v-1.814h1.175v-1.934h-1.175v-5.654zm-2.483 5.667h-2.205l2.205-2.68v2.68zm4.236-5.6v2.173h4.277l-4.067 7.16h2.825l4.082-7.387v-1.946h-7.117z" fill="#FFF" fill-rule="nonzero"/></g></svg>