
<svg width="566" height="372" xmlns="http://www.w3.org/2000/svg"><g transform="translate(1)" fill="none" fill-rule="evenodd"><g transform="translate(0 51.085)"><path d="M275.189 99.21c.11-3.074-2.25-5.658-5.272-5.772l.08-2.188a.387.387 0 0 0-.101-.288.374.374 0 0 0-.276-.122l-15.921-.586a.373.373 0 0 0-.284.102.386.386 0 0 0-.12.281l-.176 4.953-.12 3.345-.215 6.129-.068 1.87-.106 3.003c-.042 1.316.967 2.42 2.26 2.474l12.012.44c1.293.044 2.378-.983 2.429-2.298l.158-4.474.053-1.502c3.021.11 5.558-2.292 5.667-5.366zm-5.607 3.479l.083-2.356.086-2.36.09-2.647c1.958.128 3.46 1.816 3.389 3.81-.07 1.994-1.687 3.568-3.648 3.553z" fill="#6480FF" fill-rule="nonzero"/><path d="M289.505 104.885c-2.95-4.338-5.433-7.124-7.45-8.358-2.16-1.32-4.597-2.164-7.31-2.532-4.74 0-2.577 11.555 1.33 13.869 3.105 1.363 5.958 2.904 8.559 4.622" stroke="#4A4A4A" stroke-width=".5" fill="#FFF" fill-rule="nonzero" stroke-linecap="round"/><path d="M289.823 104.668a.385.385 0 0 1-.636.434c-2.922-4.297-5.375-7.048-7.334-8.246-2.113-1.292-4.499-2.119-7.108-2.475-1.849 0-2.66 2.254-2.196 5.629.452 3.293 1.996 6.5 3.68 7.5 3.125 1.373 5.997 2.924 8.617 4.655a.385.385 0 0 1-.424.643c-2.583-1.707-5.416-3.237-8.544-4.613-1.969-1.166-3.61-4.577-4.092-8.08-.518-3.776.464-6.505 3.01-6.501 2.765.374 5.252 1.235 7.459 2.585 2.076 1.269 4.59 4.09 7.568 8.47z" fill="#4A4A4A" fill-rule="nonzero"/><ellipse fill="#C9D3FF" cx="290.944" cy="313.327" rx="125.222" ry="7.42"/><path d="M307.674 184.904l-22.834-8.947-58.734 91.549.278-.232-3.981 6.216a1.59 1.59 0 0 0-.046 1.54c.251.49.738.825 1.298.897 2.816.367 7.528.114 10.687-4.58 4.772-7.08 3.805-5.514 7.55-10.178 4.053-5.073 9.773-7.249 5.42-10.99l.422-.832 2.394-2.014s23.363-19.996 31.157-27.23c8.67-8.046 5.637-25.52 5.637-25.52l20.752-9.68z" fill="#353535"/><path d="M349.23 66.26a.385.385 0 1 1 .77 0c0 .182.017.535.07 1.035.088.839.246 1.776.494 2.785a23.82 23.82 0 0 0 4.196 8.787.385.385 0 0 1-.612.466 24.585 24.585 0 0 1-4.332-9.07 21.743 21.743 0 0 1-.512-2.888 11.651 11.651 0 0 1-.074-1.116z" fill="#4A4A4A" fill-rule="nonzero"/><path fill="#C9D3FF" d="M330.258 213.086h8.065v104.121h-8.065z"/><path d="M200.11 300.323h123.07M344.849 300.323h30.684M397.201 300.323h167.26" stroke="#4A4A4A" stroke-linecap="round"/><path fill="#C9D3FF" d="M185.079 158.127h8.065V310.75h-8.065zM381.877 213.086h8.065v104.121h-8.065z"/><path d="M321 41.632a.385.385 0 1 1 .366.679c-5.638 3.041-6.733 12.837-3.312 23.227 3.42 10.388 11.122 18.06 17.26 16.073.21-.051.63-.238 1.207-.644.992-.698 2.04-1.784 3.097-3.344a.385.385 0 1 1 .637.432c-1.107 1.636-2.221 2.79-3.29 3.542-.66.463-1.168.69-1.443.755-6.645 2.152-14.664-5.835-18.2-16.573-3.523-10.702-2.386-20.875 3.678-24.147z" fill="#4A4A4A" fill-rule="nonzero"/><path d="M314.12 165.253c30.621-4.878 79.048-7.053 79.048-7.053l-.199.566 6.882-.566c12.555 32.483-18.408 34.148-18.408 34.148H306.97c10.042 10.826 10.522 22.735 11.321 26.84.975 5.034 1.444 11.655 3.124 16.506 2.126 6.147 5.902 18.123 6.416 19.757a4.412 4.412 0 0 1 3.408 4.259v29.247c-8.37 0-8.37-9.994-8.37-14.991s-3.344-11.663-3.344-11.663l-2.513-4.16c0-.004-35.147-54.969-35.147-74.125 0-17.488 16.74-17.488 16.74-17.488l15.516-1.277z" fill="#4A4A4A"/><path d="M333.15 190.302h54.197c5.442 0 9.854 4.802 9.854 10.725v8.042c0 1.975-1.471 3.576-3.286 3.576h-67.337c-1.815 0-3.286-1.6-3.286-3.576v-8.042c0-2.845 1.039-5.573 2.888-7.585 1.848-2.011 4.356-3.14 6.97-3.14z" stroke="#4A4A4A" fill="#FFF"/><path d="M197.972 146.9h-.048a1.318 1.318 0 0 1-.942-.38c-.08-.08-.149-.169-.203-.265a1.348 1.348 0 0 1-.146-.315L180.29 86.406c-.244-1.067.422-2.132 1.503-2.4 1.08-.27 2.182.354 2.486 1.407l17.765 53.94 53.496 4.95c1.382-.043 2.314 1.3 2.097 2.542l-59.665.055z" fill="#6480FF"/><path d="M327.031 156.66c0-2.57-.98-5.033-2.724-6.85-1.744-1.816-4.11-2.837-6.576-2.837H186.692" stroke="#4A4A4A" fill="#FFF" opacity=".9" stroke-linecap="round"/><path d="M374.332 43.236c1.005 1.016 1.385 2.473.85 3.773-.744 1.81-4.156 3.64-6.182 2.84a2.36 2.36 0 0 1-.11-.046c.295 2.981-.184 5.78-1.813 7.467-3.64 3.755-9.51 3.139-13.133-1.37-.347-.432-.66-.883-.94-1.35l-.363-.05c1.463 11.73-5.572 14.914-5.572 14.914.898-4.515.063-9.91-.742-11.805a5.193 5.193 0 0 0-2.06-2.51c-1.822-1.078-3.273-.154-4.175.817-.3.313-.705.484-1.124.474-.418-.01-.816-.199-1.103-.525-7.927-8.745-22.125-9.792-22.125-9.792s.043-3.822 4.921-8.202a11.655 11.655 0 0 1-.262-.292c-4.062-4.595-4.062-11.42 0-15.246.31-.29.624-.574.938-.845a6.33 6.33 0 0 1-.502-.505c-2.16-2.449-2.156-6.087 0-8.126 1.07-1.007 2.15-1.776 3.257-2.001a3.668 3.668 0 0 1 .997-3.42c.975-.919 3.028-1.309 4.7-.96.137-.322.274-.636.414-.938 2.216-4.859 7.718-5.743 11.728-1.867 1.817-2.257 4.38-3.776 7.385-3.665 4.04.126 7.855 3.179 9.852 6.886 1.717-.914 4.753-.887 6.005.536.794.899.701 2.173.217 3.359 2.848.287 5.683 2.081 7.862 4.973 2.888 3.83 3.774 8.444 1.965 11.944 3.142 3.604 4.926 10.961 1.802 13.945a7.512 7.512 0 0 1-2.687 1.587zM338.634 125.914a.306.306 0 0 1-.16-.044.308.308 0 0 1-.107-.423l7.458-12.32a.314.314 0 0 1 .414-.082c.138.083.19.258.117.402l-7.454 12.327a.32.32 0 0 1-.268.14z" fill="#4A4A4A"/><path d="M472.87 269.414c-.575-2.166-1.362-4.43-2.22-6.608-4.137-1.45-12.672-12.974-27.868-16.701-3.172-.775-7.613-1.453-8.425-4.141-.75-2.493 1.945-5.645 4.215-7.251 5.932-4.216 15.197-2.33 21.063 1.035 9.576 5.487 11.653 15.816 12.64 20.719.674 3.347 1.085 5.394 0 6.216a1.34 1.34 0 0 1-.752.272c.823 2.13 1.573 4.338 2.121 6.46h23.496l-4.15 30.67h-20.74l-4.146-30.67h4.767zm15.658-5.02c-.764 1.711-1.415 3.319-1.919 4.777a.396.396 0 0 1-.373.238.408.408 0 0 1-.125 0 .383.383 0 0 1-.243-.485c.525-1.517 1.206-3.193 2.007-4.978-4.668-4.33-1.556-28.907 12.29-44.95 2.288-2.651 11.205-12.983 17.925-10.56 5.094 1.832 6.262 10.024 6.328 10.56 1.365 10.454-7.065 19.38-20.037 32.74-8.913 9.186-13.37 13.777-15.817 12.674a2.293 2.293 0 0 1-.036-.016zm-7.748-1.612c.149 2.098.229 4.191.229 6.27a.392.392 0 0 1-.397.362.396.396 0 0 1-.4-.38c0-2.02-.077-4.053-.218-6.09-1.365-.22-2.511-3.034-3.982-7.038-3.696-10.029-4.792-14.845-6.272-19.138-4.215-12.232-6.272-12.087-10.454-22.162-.946-2.284-3.134-11.081 2.089-14.1 3.648-2.113 10.35 2.883 13.583 6.043 6.126 6.017 8.36 13.094 9.405 23.169.716 6.892 2.01 15.04.01 24.175-.464 2.106-1.722 7.814-3.593 8.889zM62.617 290.087H75.04c1.098 0 2.087 1.02 2.087 2.422.11 1.274-.879 2.421-1.977 2.421h3.071c1.127 0 2.14 1.02 2.14 2.421 0 1.275-.9 2.422-2.027 2.422h-41c-1.125 0-2.14-1.02-2.14-2.422 0-1.274.902-2.421 2.14-2.421h6.4c-1.098 0-2.087-1.02-2.087-2.421 0-1.275.879-2.422 2.087-2.422h12.431V104.444h6.452v185.643zM30.972 28.25h26.474c.222 0 .332-.323.332-.484 0-.162-.11-.485-.332-.485H31.132l.293-1.776c.224-.998 1.12-1.775 2.13-1.775h49.99c1.122 0 2.018.777 2.13 1.775l12.33 74.773c.448 1.443-.672 2.552-2.017 2.552H21.225c-1.345 0-2.354-1.22-2.13-2.552L30.972 28.25z" fill="#EFF2FF"/><path d="M141.312 54.886c-.115 0-.115 0-.23-.11l-9.162-9.162c-.115-.11-.115-.22 0-.331.114-.11.229-.11.343 0l9.164 9.161c.114.11.114.221 0 .331 0 .11 0 .11-.115.11z" fill="#FFF"/><path d="M343.85 89.303c-.231.345-.493.67-.781.971-.835.945-4.117 5.231-16.656 24.747l-7.626 11.553a1.687 1.687 0 0 1-1.156 1.026 1.716 1.716 0 0 1-1.519-.335l-24.976-21.87c-.5-.434-1.21-.54-1.818-.271a1.67 1.67 0 0 0-1 1.52v4.24c0 4.012 1.468 7.89 4.135 10.922l26.14 23.499c.668.624 1.765 1.12 2.5.58 4.267-3.206 6.777-7.13 17.626-19.758 4.35 7.145 7.051 6.07 9.76 10.644 5.422 9.195 10.111 22.441 10.111 22.441s23.71 9.173 45.87-.87c-.14.037-29.715-56.216-38.248-70.84a10.529 10.529 0 0 0-6.783-5.004c-1.95-.478-5.49.135-7.622.837-4.12 1.353-7.657 5.549-7.957 5.968z" fill="#6883FE"/><path d="M0 300.323h175" stroke="#4A4A4A" stroke-linecap="round"/></g><path fill="#4A4A4A" fill-rule="nonzero" d="M171.24 209.49v-.847h144.738v.847zM323.292 258.8c-.213 0-.385-.19-.385-.424 0-.234.172-.424.385-.424h14.393c.213 0 .385.19.385.424 0 .234-.172.424-.385.424h-14.393zM343.31 258.8c-.214 0-.386-.19-.386-.424 0-.234.172-.424.385-.424h34.333c.212 0 .385.19.385.424 0 .234-.173.424-.385.424h-34.333zM338.212 178.46a.385.385 0 1 1-.584-.5l9.238-10.787a.385.385 0 1 1 .585.501l-9.239 10.787z"/><g><path d="M488.695 38h-60.248C417.185 38 408 47.185 408 58.447V73.88c0 11.262 9.185 20.447 20.447 20.447h2.296v13.121l13.122-13.121h44.94c11.262 0 20.447-9.185 20.447-20.447V58.447C509.033 47.185 499.958 38 488.695 38z" fill="#6ACCB6"/><g fill-rule="nonzero"><path d="M444 50h30v30h-30z"/><path d="M450.412 59.296L451 57.88v.83l-.588.586zm.588-.586l4.722-4.71H463v9.926h2V53.845A1.845 1.845 0 0 0 463.155 52h-8.26L449 57.88V71a2 2 0 0 0 2 2h6.843v-2H451V58.71zm5.307-5.294l-1.412.584h.827l.585-.584zm6.848.584a.155.155 0 0 1-.155-.155V54h.155zm-.155-.155c0 .086.07.155.155.155H463v-.155zm0 10.081h2V53.845A1.845 1.845 0 0 0 463.155 52h-8.26L449 57.88V71a2 2 0 0 0 2 2h6.843v-2H451V58.71l4.722-4.71H463v9.926zm-6.693-10.51l-1.412.584h.827l.585-.584zM451 57.88l-.588 1.416.588-.586v-.83zm14.584 14.928h-1.648c.048.208.08.432.08.656 0 .72-.432 1.456-1.024 1.92.336-.16.688-.256 1.088-.256.88 0 1.424.496 2.176.496.448 0 .832-.144 1.04-.592a.834.834 0 0 1 .784-.48.86.86 0 0 1 .864.864.917.917 0 0 1-.096.4c-.512 1.072-1.392 1.424-2.512 1.424-.944 0-1.792-.704-2.784-.704-.544 0-.816.128-1.248.432a.865.865 0 0 1-.544.192.854.854 0 0 1-.848-.848c0-.224.064-.448.304-.656.48-.432 1.104-1.136 1.104-2.064 0-.272-.048-.528-.128-.784h-.96a.792.792 0 0 1-.8-.8c0-.448.352-.8.8-.8h.24c-.288-.592-.544-1.232-.544-1.984 0-1.792 1.44-3.216 3.6-3.216 1.808 0 3.12.816 3.68 2.128a.854.854 0 0 1-.784 1.184c-.48 0-.672-.32-.784-.528-.384-.704-1.008-1.184-2.112-1.184-1.12 0-1.84.688-1.84 1.616 0 .736.288 1.36.608 1.984h2.288c.448 0 .8.352.8.8 0 .448-.352.8-.8.8zM455 58v-4a1 1 0 0 1 2 0v5a1 1 0 0 1-1 1h-5a1 1 0 1 1 0-2h4z" fill="#FFF"/></g></g><rect fill="#96DBCB" fill-rule="nonzero" x="459" width="55" height="33" rx="14"/><path d="M486.552 20a2.792 2.792 0 0 1-.888-2.04c0-3.024 4.656-3.216 4.656-5.76 0-1.176-.888-1.848-2.424-1.848-1.344 0-2.256.672-2.256 2.016 0 .72-.6 1.32-1.32 1.32-.72 0-1.32-.6-1.32-1.32C483 9.632 484.824 8 487.896 8c3.168 0 5.016 1.512 5.016 4.2 0 3.864-4.584 4.152-4.584 5.592 0 .192.072.336.24.576.144.216.216.456.216.72 0 .816-.696 1.296-1.296 1.296-.384 0-.696-.144-.936-.384zm.864 4.68c-1.008 0-1.584-.504-1.584-1.56 0-1.08.576-1.608 1.584-1.608s1.56.528 1.56 1.608c0 1.056-.552 1.56-1.56 1.56z" fill="#FFF"/></g></svg>