<svg width="384" height="225" xmlns="http://www.w3.org/2000/svg"><g fill="none" fill-rule="evenodd"><path d="M271 185.34l-.1-10.35 32-.32a.45.45 0 0 1-.14-.33l-.1-10.16h-2.41a.47.47 0 0 1-.46-.5l-.12-11.27a.76.76 0 0 1 .09-.28h-2.77a.44.44 0 0 1-.47-.46l-.1-10.43a.49.49 0 0 1 .45-.47l5.27-.05-.11-10.16a.5.5 0 0 1 .46-.47l53.93-1a.4.4 0 0 1-.14.33h2.87v.28a.42.42 0 0 1 .14.32l.11 10.2a.5.5 0 0 1-.46.47l-5.31.05.11 10.39v.1h3v.32a.53.53 0 0 1 .14.37l.11 10.48h2.72v.28a.53.53 0 0 1 .14.37l.11 10.71a.5.5 0 0 1-.46.51h-2.86a.48.48 0 0 1 .47.5l.1 9.7h2.72v.28a.39.39 0 0 1 .14.32l.11 10.3a.51.51 0 0 1-.46.47h-2.54v.05a.42.42 0 0 1 .15.32l.1 10a.41.41 0 0 1-.41.42l-48.49.5a.42.42 0 0 1-.42-.41l-41.74.67-.22-22 4.85-.05zM123.77 139.57a.43.43 0 0 0 .46.46h2.89a.5.5 0 0 0-.46.47v10.25h-5.31a.5.5 0 0 0-.47.46v10.53a.45.45 0 0 0 .47.47h2.79a.61.61 0 0 0-.09.28v11.27a.48.48 0 0 0 .46.52h2.43v10.25a.39.39 0 0 0 .14.32H94.74v10.44h-4.8v11.42h37.14a.42.42 0 0 0 .32.14h4.94a.39.39 0 0 0-.28.37v10.11c0 .232.188.42.42.42h48.92a.42.42 0 0 0 .42-.42v-10.11a.42.42 0 0 0-.14-.33h2.57a.5.5 0 0 0 .46-.47V196a.45.45 0 0 0-.14-.33v-.28h-2.75v-9.79a.47.47 0 0 0-.46-.51h2.89a.51.51 0 0 0 .46-.52v-10.81a.57.57 0 0 0-.14-.37v-.28h-2.75v-10.57a.53.53 0 0 0-.14-.38v-.32h-3.07v-10.58h5.31a.51.51 0 0 0 .47-.47V140.5a.44.44 0 0 0-.14-.33v-.28h-2.89a.42.42 0 0 0 .14-.32v-10.3a.45.45 0 0 0-.14-.33v-.18h5.54a.51.51 0 0 0 .47-.47V118a.35.35 0 0 0-.1-.23v-.56l-18.21-.56-.05.89H130.1a.49.49 0 0 0-.46.46v10.3a.44.44 0 0 0 .46.47h33.13" fill="#EFF2FF"/><ellipse fill="#C8D2FF" transform="rotate(-.08 33.421 220.26)" cx="33.421" cy="220.261" rx="32.89" ry="4.1"/><ellipse fill="#C8D2FF" transform="rotate(-.08 209.56 219.325)" cx="209.56" cy="219.325" rx="107.26" ry="5.31"/><path d="M77.83 206.8h305.15" stroke="#4A4A4A" stroke-linecap="round" stroke-linejoin="round"/><path d="M67.34 29.14S40 67.07 22.71 81.32c-.42 4.62 8.29.84 8.29.84l1.77 1.35c21.34-11.6 35.69-50.73 35.69-50.73l-1.12-3.64" fill="#64BBA4"/><path d="M27.88 78.48A16.23 16.23 0 0 0 29 69.63L31.89 67l4.28.42a67.55 67.55 0 0 0 1.31 7.87" fill="#FFF"/><path d="M82 43.77l-.55-3.35 10.67-4.48s-2.85 3.92-4.48 6.76c-1.63 2.84-1.72 4.19-1.72 4.19" stroke="#4A4A4A" stroke-width=".74" stroke-linecap="round" stroke-linejoin="round"/><path d="M34.68 70.24s6.76 1.49 5.59-9.46c-.42-3.78-2.51-7.27-3.54-7.78l-8.8 1.3-.24 5.22 1 10" stroke="#4A4A4A" stroke-width=".74" fill="#FFF" stroke-linecap="round" stroke-linejoin="round"/><path d="M29 70.93s3.17.7 2.75-5.59c-.05-.74-.05-1.39-.05-2a2.41 2.41 0 0 1 4.2-1.49l.56.65.32.37.61-.79a.78.78 0 0 0 0-1 5.24 5.24 0 0 1-.47-.61 4.28 4.28 0 0 1-.74-2.37c-.05-2.1 3-5.27 1.72-9.32-.7-2.14-5.5-8-15.65 4.38a10.17 10.17 0 0 0-2.15 4.24C18.61 63.71 23.87 70 29 70.93z" fill="#4A4A4A"/><path d="M49.64 117L51 88.64v-3.59c.02-.14.02-.28 0-.42a2.84 2.84 0 0 1 1.39-2.47c6.25-3.91 24.37-18.73 32.71-33a3.18 3.18 0 0 0-2.75-4.8 1.78 1.78 0 0 0-1.54.93c-1.91 3.63-18.08 21.2-50.13 31.4C23.69 79 21.87 81 20.94 83a9.35 9.35 0 0 0-.56 1.59 10.09 10.09 0 0 0 .14 5.63 85.53 85.53 0 0 1 3.21 34.16" fill="#6ACBB5"/><path d="M126.24 8.64L160.06.77a.83.83 0 0 1 1 .6l4.24 18.31a.83.83 0 0 1-.6 1l-106 24.65a.85.85 0 0 1-1-.61l-4.24-18.33a.85.85 0 0 1 .61-1l61.54-14.3" stroke="#4A4A4A" fill="#FFF" stroke-linecap="round" stroke-linejoin="round"/><path fill="#C8D2FF" opacity=".5" d="M129.123 8.528l31.638-7.35 4.503 19.383-31.637 7.351z"/><path d="M94.93 32.4l-2.8-11.93M88.64 33.89l-2.8-11.97M82.35 35.34l-2.8-11.93M76.06 36.78l-2.8-11.93M69.77 38.27l-2.8-11.97M63.48 39.72l-2.8-11.93M113.8 28.02L111 16.09M107.51 29.51l-2.8-11.97M101.22 30.96l-2.8-11.93M94.93 32.4l-2.8-11.93M132.67 23.64l-2.8-11.92M126.38 25.09l-2.8-11.93M120.09 26.58l-2.8-11.93M157.83 17.82l-2.8-11.98" stroke="#4A4A4A" stroke-width=".5" stroke-linecap="round" stroke-linejoin="round"/><path d="M29 69.63s.47 2.56-.6 7.5" stroke="#4A4A4A" stroke-width=".74" stroke-linecap="round" stroke-linejoin="round"/><path d="M37.48 74.57l6.66-2.75" stroke="#4A4A4A" stroke-width=".55" stroke-linecap="round" stroke-linejoin="round"/><path d="M46.24 70.89s8.62-4.15 12.53-6.62" stroke="#4A4A4A" stroke-width=".55" fill="#FFF" stroke-linecap="round" stroke-linejoin="round"/><path d="M42.79 216.07l-.19 1.12a1.23 1.23 0 0 0 1.17 1.26l13.93.28c1.12.18 2.1-1 1.3-1.59-2.47-1.86-7.64-3.21-10.57-3.17M8.54 216.07l-.18 1.12a1.22 1.22 0 0 0 1.16 1.26l13.93.28c1.12.18 2.1-1 1.31-1.59-2.47-1.86-7.64-3.21-10.58-3.17" fill="#4A4A4A"/><path d="M174.6 34.41h43.84a.79.79 0 0 1 .8.79V54a.8.8 0 0 1-.8.8H109.6a.79.79 0 0 1-.79-.8V35.24a.79.79 0 0 1 .79-.79h57.27" stroke="#4A4A4A" fill="#FFF" stroke-linecap="round" stroke-linejoin="round"/><path fill="#C8D2FF" opacity=".5" d="M180.15 34.41h39.09v20.41h-39.09z"/><path d="M147.86 50.48V38.23M141.38 50.48V38.23M134.95 50.48V38.23M128.47 50.48V38.23M122 50.48V38.23M115.57 50.48V38.23M167.19 50.48V38.23M160.76 50.48V38.23M154.29 50.48V38.23M147.86 50.48V38.23M180.15 50.48V38.23M173.67 50.48V38.23M212.43 50.48V38.23" stroke="#4A4A4A" stroke-width=".5" stroke-linecap="round" stroke-linejoin="round"/><path d="M175.11 34.41h43.33a.79.79 0 0 1 .8.79V54a.8.8 0 0 1-.8.8H109.6a.79.79 0 0 1-.79-.8V35.24a.79.79 0 0 1 .79-.79h38.68" stroke="#4A4A4A" stroke-linecap="round" stroke-linejoin="round"/><path d="M214.62 75.27H105.78a.79.79 0 0 1-.79-.79V55.7a.78.78 0 0 1 .79-.79h108.84a.79.79 0 0 1 .8.79v18.78a.83.83 0 0 1-.8.79z" stroke="#4A4A4A" fill="#FFF" stroke-linecap="round" stroke-linejoin="round"/><path fill="#C8D2FF" opacity=".5" d="M176.31 54.83h39.09v20.41h-39.09z"/><path d="M144.04 70.89V58.63M137.56 70.89V58.63M131.13 70.89V58.63M124.65 70.89V58.63M118.18 70.89V58.63M111.75 70.89V58.63M163.37 70.89V58.63M156.94 70.89V58.63M150.47 70.89V58.63M144.04 70.89V58.63M176.32 70.89V58.63M169.85 70.89V58.63M208.57 70.89V58.63" stroke="#4A4A4A" stroke-width=".5" stroke-linecap="round" stroke-linejoin="round"/><path d="M214.62 75.27H105.78a.79.79 0 0 1-.79-.79V55.7a.78.78 0 0 1 .79-.79h108.84a.79.79 0 0 1 .8.79v18.78a.83.83 0 0 1-.8.79z" stroke="#4A4A4A" stroke-linecap="round" stroke-linejoin="round"/><path d="M228 95.68H119.2a.79.79 0 0 1-.79-.8V76.11a.79.79 0 0 1 .79-.8H228a.79.79 0 0 1 .79.8v18.77a.83.83 0 0 1-.79.8z" stroke="#4A4A4A" fill="#FFF" stroke-linecap="round" stroke-linejoin="round"/><path fill="#C8D2FF" opacity=".5" d="M202.65 75.41h26.19v20.31h-26.19z"/><path d="M157.45 91.34V79.09M150.98 91.34V79.09M144.5 91.34V79.09M138.07 91.34V79.09M131.6 91.34V79.09M125.17 91.34V79.09M176.79 91.34V79.09M170.36 91.34V79.09M163.88 91.34V79.09M157.45 91.34V79.09M202.65 91.34V79.09M196.17 91.34V79.09M189.7 91.34V79.09M183.27 91.34V79.09" stroke="#4A4A4A" stroke-width=".5" stroke-linecap="round" stroke-linejoin="round"/><path d="M228 95.68H119.2a.79.79 0 0 1-.79-.8V76.11a.79.79 0 0 1 .79-.8H228a.79.79 0 0 1 .79.8v18.77a.83.83 0 0 1-.79.8z" stroke="#4A4A4A" stroke-linecap="round" stroke-linejoin="round"/><path d="M218.91 116.13H110.07a.78.78 0 0 1-.79-.79V96.56a.78.78 0 0 1 .79-.79h108.84a.78.78 0 0 1 .79.79v18.78a.81.81 0 0 1-.79.79z" stroke="#4A4A4A" fill="#FFF" stroke-linecap="round" stroke-linejoin="round"/><path fill="#C8D2FF" opacity=".5" d="M193.52 95.68h26.19v20.41h-26.19z"/><path d="M148.32 111.75V99.5M141.85 111.75V99.5M135.42 111.75V99.5M128.94 111.75V99.5M122.51 111.75V99.5M116.03 111.75V99.5M167.71 111.75V99.5M161.23 111.75V99.5M154.75 111.75V99.5M148.32 111.75V99.5M174.13 111.75V99.5" stroke="#4A4A4A" stroke-width=".5" stroke-linecap="round" stroke-linejoin="round"/><path d="M218.91 116.13H110.07a.78.78 0 0 1-.79-.79V96.56a.78.78 0 0 1 .79-.79h108.84a.78.78 0 0 1 .79.79v18.78a.81.81 0 0 1-.79.79z" stroke="#4A4A4A" stroke-linecap="round" stroke-linejoin="round"/><path d="M235.87 136.54H127a.78.78 0 0 1-.79-.79V117a.78.78 0 0 1 .79-.79h108.87a.78.78 0 0 1 .79.79v18.78a.82.82 0 0 1-.79.76z" stroke="#4A4A4A" fill="#FFF" stroke-linecap="round" stroke-linejoin="round"/><path fill="#C8D2FF" opacity=".5" d="M184.66 116.13h51.71v20.41h-51.71z"/><path d="M165.28 132.2v-12.25M158.81 132.2v-12.25M152.38 132.2v-12.25M145.9 132.2v-12.25M139.47 132.2v-12.25M132.99 132.2v-12.25M184.66 132.2v-12.25M178.19 132.2v-12.25M171.71 132.2v-12.25M165.28 132.2v-12.25" stroke="#4A4A4A" stroke-width=".5" stroke-linecap="round" stroke-linejoin="round"/><path d="M235.87 136.54H127a.78.78 0 0 1-.79-.79V117a.78.78 0 0 1 .79-.79h108.87a.78.78 0 0 1 .79.79v18.78a.82.82 0 0 1-.79.76z" stroke="#4A4A4A" stroke-linecap="round" stroke-linejoin="round"/><path d="M222.45 156.67H113.61a.79.79 0 0 1-.79-.8V137.1a.79.79 0 0 1 .79-.8h108.84a.79.79 0 0 1 .79.8v18.77a.79.79 0 0 1-.79.8z" stroke="#4A4A4A" fill="#FFF" stroke-linecap="round" stroke-linejoin="round"/><path fill="#C8D2FF" opacity=".5" d="M171.24 136.25h23.16v20.41h-23.16z"/><path d="M151.86 152.29v-12.26M145.43 152.29v-12.26M138.96 152.29v-12.26M132.48 152.29v-12.26M126.05 152.29v-12.26M119.57 152.29v-12.26M171.25 152.29v-12.26M164.77 152.29v-12.26M158.34 152.29v-12.26M151.86 152.29v-12.26M197.06 152.29v-12.26M190.63 152.29v-12.26M184.15 152.29v-12.26M177.68 152.29v-12.26M216.44 152.29v-12.26M209.96 152.29v-12.26M203.54 152.29v-12.26" stroke="#4A4A4A" stroke-width=".5" stroke-linecap="round" stroke-linejoin="round"/><path d="M222.45 156.67H113.61a.79.79 0 0 1-.79-.8V137.1a.79.79 0 0 1 .79-.8h108.84a.79.79 0 0 1 .79.8v18.77a.79.79 0 0 1-.79.8z" stroke="#4A4A4A" stroke-linecap="round" stroke-linejoin="round"/><path d="M228.32 197.39H119.48a.79.79 0 0 1-.79-.79v-18.78a.78.78 0 0 1 .79-.79h108.84a.78.78 0 0 1 .79.79v18.78a.79.79 0 0 1-.79.79z" stroke="#4A4A4A" fill="#FFF" stroke-linecap="round" stroke-linejoin="round"/><path fill="#C8D2FF" opacity=".5" d="M177.06 177.01h36.9v20.41h-36.9z"/><path d="M157.73 193.05V180.8M151.26 193.05V180.8M144.83 193.05V180.8M138.35 193.05V180.8M131.92 193.05V180.8M125.45 193.05V180.8M170.64 193.05V180.8M164.16 193.05V180.8M157.73 193.05V180.8" stroke="#4A4A4A" stroke-width=".5" stroke-linecap="round" stroke-linejoin="round"/><path d="M228.32 197.39H119.48a.79.79 0 0 1-.79-.79v-18.78a.78.78 0 0 1 .79-.79h108.84a.78.78 0 0 1 .79.79v18.78a.79.79 0 0 1-.79.79z" stroke="#4A4A4A" stroke-linecap="round" stroke-linejoin="round"/><path d="M220.4 217.84H111.61a.78.78 0 0 1-.79-.79v-18.78a.79.79 0 0 1 .79-.79h108.84a.79.79 0 0 1 .79.79v18.78a.82.82 0 0 1-.84.79z" stroke="#4A4A4A" fill="#FFF" stroke-linecap="round" stroke-linejoin="round"/><path fill="#C8D2FF" opacity=".5" d="M181.82 197.45h38.72v20.41h-38.72z"/><path d="M149.81 213.46v-12.25M143.38 213.46v-12.25M136.91 213.46v-12.25M130.48 213.46v-12.25M124 213.46v-12.25M117.57 213.46v-12.25M149.81 213.46v-12.25M182.1 213.46v-12.25M169.2 213.46v-12.25M162.77 213.46v-12.25M156.29 213.46v-12.25M175.67 213.46v-12.25" stroke="#4A4A4A" stroke-width=".5" stroke-linecap="round" stroke-linejoin="round"/><path d="M220.4 217.84H111.61a.78.78 0 0 1-.79-.79v-18.78a.79.79 0 0 1 .79-.79h108.84a.79.79 0 0 1 .79.79v18.78a.82.82 0 0 1-.84.79z" stroke="#4A4A4A" stroke-linecap="round" stroke-linejoin="round"/><path d="M215.88 177H107a.79.79 0 0 1-.79-.79v-18.8a.78.78 0 0 1 .79-.79h108.88a.78.78 0 0 1 .79.79v18.78c0 .44-.35.8-.79.81z" stroke="#4A4A4A" fill="#FFF" stroke-linecap="round" stroke-linejoin="round"/><path fill="#C8D2FF" opacity=".5" d="M164.63 156.56h138.28v20.41H164.63z"/><path d="M145.29 172.65v-12.26M138.82 172.65v-12.26M132.39 172.65v-12.26M125.91 172.65v-12.26M119.48 172.65v-12.26M113.01 172.65v-12.26M164.68 172.65v-12.26M158.2 172.65v-12.26M151.72 172.65v-12.26M145.29 172.65v-12.26M184.01 172.65v-12.26M177.58 172.65v-12.26M171.11 172.65v-12.26" stroke="#4A4A4A" stroke-width=".5" stroke-linecap="round" stroke-linejoin="round"/><path d="M215.88 177H107a.79.79 0 0 1-.79-.79v-18.8a.78.78 0 0 1 .79-.79h108.88a.78.78 0 0 1 .79.79v18.78c0 .44-.35.8-.79.81z" stroke="#4A4A4A" stroke-linecap="round" stroke-linejoin="round"/><path d="M207.45 197.39h108.84a.78.78 0 0 0 .79-.79v-18.78a.78.78 0 0 0-.79-.79H207.45a.78.78 0 0 0-.79.79v18.78a.73.73 0 0 0 .79.79z" stroke="#4A4A4A" fill="#FFF" stroke-linecap="round" stroke-linejoin="round"/><path fill="#C8D2FF" opacity=".5" d="M248.84 176.98h67.61v20.41h-67.61z"/><path d="M310.64 193.52v-12.25M304.21 193.52v-12.25M291.53 193.52v-12.25M285.1 193.52v-12.25M278.63 193.52v-12.25M298.01 193.52v-12.25" stroke="#4A4A4A" stroke-width=".5" stroke-linecap="round" stroke-linejoin="round"/><path d="M207.45 197.39h108.84a.78.78 0 0 0 .79-.79v-18.78a.78.78 0 0 0-.79-.79H207.45a.78.78 0 0 0-.79.79v18.78a.73.73 0 0 0 .79.79z" stroke="#4A4A4A" stroke-linecap="round" stroke-linejoin="round"/><path fill="#C8D2FF" opacity=".5" d="M221.5 197.39h88.63v20.41H221.5z"/><path d="M221.29 217.84h88.48a.73.73 0 0 0 .74-.74v-19a.73.73 0 0 0-.74-.74h-88.48a.73.73 0 0 0-.75.74v19a.73.73 0 0 0 .75.74z" stroke="#4A4A4A" fill="#FFF" stroke-linecap="round" stroke-linejoin="round"/><path d="M221.29 217.84h88.48a.73.73 0 0 0 .74-.74v-19a.73.73 0 0 0-.74-.74h-88.48a.73.73 0 0 0-.75.74v19a.73.73 0 0 0 .75.74z" fill="#C8D2FF" opacity=".5"/><path d="M304.13 213.46v-12.25M297.7 213.46v-12.25M285.02 213.46v-12.25M278.59 213.46v-12.25M272.12 213.46v-12.25M291.5 213.46v-12.25" stroke="#4A4A4A" stroke-width=".5" stroke-linecap="round" stroke-linejoin="round"/><path d="M221.29 217.84h88.48a.73.73 0 0 0 .74-.74v-19a.73.73 0 0 0-.74-.74h-88.48a.73.73 0 0 0-.75.74v19a.73.73 0 0 0 .75.74zM286.1 156.57h-92.54a.79.79 0 0 0-.79.79v18.78a.78.78 0 0 0 .79.79H302.4a.79.79 0 0 0 .8-.79v-18.78a.79.79 0 0 0-.8-.79h-7.54" stroke="#4A4A4A" stroke-linecap="round" stroke-linejoin="round"/><path d="M286.28 156.57h-92.72a.79.79 0 0 0-.79.79v18.78a.78.78 0 0 0 .79.79H302.4a.79.79 0 0 0 .8-.79v-18.78a.79.79 0 0 0-.8-.79h-5M126.24 8.64L160.06.77a.83.83 0 0 1 1 .6l4.24 18.31a.83.83 0 0 1-.6 1l-106 24.65a.85.85 0 0 1-1-.61l-4.24-18.33a.85.85 0 0 1 .61-1l61.54-14.3" stroke="#4A4A4A" stroke-linecap="round" stroke-linejoin="round"/><path d="M9.9 205.63s1.67-15.56 2.6-20.17c.93-4.61 4-14 4.15-15.28a272.19 272.19 0 0 0 3.59-27.45c1.07-14.95 3.76-20.31 3.76-20.31l17.75-2.7-3 16.21s-19.8 61.32-25 80.28H8.59l1.31-10.58z" fill="#4A4A4A"/><path d="M36 138.68l3.59 33.41c1.07 9.46 1.07 10.85 1.07 10.85.46 2.8-1.87 7.46 0 17.71.32 1.86.79 4.94 1.07 5.87a28.36 28.36 0 0 1 .74 4.47l.38 5.69h5.54l1.31-49s1.3-29.12 0-50.69L24 122.37l12 16.31z" fill="#4A4A4A"/><path d="M49.64 117s-12.39 4.05-19 5.5c-5.92 1.25-7.83 2.56-7-.66 1.17-4.56.23-15.74.23-15.74l18.59 8.29 7.18 2.61z" fill="#6ACBB5"/><path d="M49.36 167.47s4.38-27.62.14-50.22a20.26 20.26 0 0 0-10 14.95l9.86 35.27z" fill="#4A4A4A"/><path d="M63.85 43.77L13.86 216.16"/><path d="M180.71 111.75V99.5M193.61 111.75V99.5M187.14 111.75V99.5" stroke="#4A4A4A" stroke-width=".5" stroke-linecap="round" stroke-linejoin="round"/><circle stroke="#4A4A4A" stroke-width=".96" fill="#FFF" stroke-linecap="round" stroke-linejoin="round" cx="235.26" cy="169.22" r="52.99"/><path d="M280.4 169.22c.004 2.051-.14 4.1-.43 6.13-3.324 23.885-24.837 40.937-48.85 38.719-24.012-2.218-42.039-22.922-40.932-47.011 1.107-24.09 20.957-43.052 45.072-43.058a44.257 44.257 0 0 1 16.95 3.3M275.42 148.59a46.49 46.49 0 0 1 3.69 9.81" stroke="#4A4A4A" stroke-width=".53" stroke-linecap="round" stroke-linejoin="round"/><path d="M227.51 185.86a3.94 3.94 0 0 1-2 .45 3 3 0 0 1-2-.68 2.41 2.41 0 0 1-.74-1.83 2 2 0 0 1 .69-1.56 1.52 1.52 0 0 1 .51-.37 2.44 2.44 0 0 1 1.26-.28 6.47 6.47 0 0 1 4.38 2 5.35 5.35 0 0 1-2.13 2.31m3.65-38.9a15.06 15.06 0 0 0-2.72 1.92 10.9 10.9 0 0 0-3.42 8.51 10.56 10.56 0 0 0 .6 3.31 25.46 25.46 0 0 0 2.6 4.31c.329.5.69.977 1.08 1.43l-7.14-.08c-.08 0-.21 0-.29.05-.3.15-.4.58-.43 1.35.05 1 .29 1.48.76 1.44l8.58-.24a13.19 13.19 0 0 1 1.23 5.41 18.2 18.2 0 0 1-1 5.91 15.18 15.18 0 0 0-5.64-1.46 6.62 6.62 0 0 0-2.79.65 5 5 0 0 0-1 .75 4.15 4.15 0 0 0-1.58 3.16 4.72 4.72 0 0 0 1.51 3.48 6.12 6.12 0 0 0 4.22 1.24 7.24 7.24 0 0 0 3.05-.79 10.27 10.27 0 0 0 2.88-2.44A12.5 12.5 0 0 0 240 188a9.05 9.05 0 0 0 4-.94l.47-.25a11.28 11.28 0 0 0 3.53-4.08 11.46 11.46 0 0 0 1.63-3.28c0-.22-.08-.35-.38-.51a1.27 1.27 0 0 0-.71-.22.34.34 0 0 0-.3.05l-.17.09a8.93 8.93 0 0 1-3.26 2.85 9.86 9.86 0 0 1-4.51 1.19 21.26 21.26 0 0 1-6.62-1.28 21.73 21.73 0 0 0 2.29-9.1 18.91 18.91 0 0 0-.37-3.38l8.57.14a.34.34 0 0 0 .3 0c.29-.15.47-.63.44-1.42-.03-.79-.25-1.39-.68-1.48l-9.28.23a44.24 44.24 0 0 0-1.87-4.15c-1.37-3-2.12-5.16-2.15-6.55a8.83 8.83 0 0 1 1.8-6 6.59 6.59 0 0 1 1.92-1.6 6.73 6.73 0 0 1 3.09-.71 4.7 4.7 0 0 1 3.12 1.12 3.51 3.51 0 0 1 1.31 2.88 3.8 3.8 0 0 1-.91 2.48 3.31 3.31 0 0 0-.74 1.9 3.24 3.24 0 0 0 1 2.29 3.34 3.34 0 0 0 2.44.94 2.47 2.47 0 0 0 1.43-.38 3.78 3.78 0 0 0 1.2-1 4.66 4.66 0 0 0 1-3.29 7.85 7.85 0 0 0-1.45-4.1 10.17 10.17 0 0 0-3.78-3.48 10.53 10.53 0 0 0-4.88-1.16 12.22 12.22 0 0 0-6.44 1.33" fill="#5F4DD4" fill-rule="nonzero"/></g></svg>