<svg width="451" height="343" viewBox="0 0 451 343" xmlns="http://www.w3.org/2000/svg">
  <g fill="none" fill-rule="evenodd">
    <path d="M373.84 265.84c-.044-.335-.771-5.454-3.944-6.6-4.188-1.513-9.745 4.942-11.172 6.6-8.56 9.943-10.533 25.137-7.724 28.017a41.917 41.917 0 0 0-1.43 3.577.245.245 0 0 0-.01.08h-3.805a60.72 60.72 0 0 0-.134-3.964c1.358-.116 2.27-4.43 2.589-5.935 1.264-5.984.45-11.322 0-15.837-.657-6.599-2.056-11.248-5.915-15.177-2.03-2.069-6.245-5.344-8.543-3.96-3.285 1.98-1.91 7.741-1.314 9.239 2.629 6.599 3.92 6.504 6.572 14.517.93 2.814 1.62 5.967 3.943 12.538.801 2.268 1.448 3.95 2.163 4.458a60.69 60.69 0 0 1 .146 4.12h-4.066c-.295-1.378-.748-2.84-1.272-4.278.33-.652.095-1.854-.257-3.64-.615-3.12-1.912-9.7-7.886-13.198-3.66-2.142-9.44-3.343-13.144-.66-1.414 1.025-3.097 3.031-2.628 4.62.506 1.712 3.278 2.144 5.257 2.64 10.731 2.685 16.135 11.732 18.267 10.635.471 1.311.88 2.634 1.155 3.882h-2.336l2.629 19.796h13.143l2.629-19.796h-6.688a41.509 41.509 0 0 1 1.336-3.35c.032.017.063.036.095.05 1.525.688 4.302-2.18 9.857-7.918 8.084-8.35 13.335-13.925 12.486-20.457" fill="#E4E9FF"/>
    <path d="M308.821 297.7h-29.81M261.319 297.7H148.278" fill="#FFF"/>
    <g transform="matrix(-1 0 0 1 310 89)">
      <ellipse cx="42.535" cy="5.172" rx="42.257" ry="4.988" transform="translate(161.245 243.836)" opacity=".6" fill="#C9D3FF"/>
      <path d="M80.623 63.822s4.448 11.268-.834 22.998c-.278.555.092 1.201.648 1.294 1.02.277 2.78.646 4.912.83l1.482-5.91.278 6.003c3.615.093 11.677-2.955 16.032-5.357L88.5 56.987l-7.877 6.835z" fill="#4A4A4A"/>
      <path d="M69.595 144.454s25.762-11.268 33.917-37.499c3.8 5.82.927 21.89.927 21.89s-16.217 16.071-30.025 20.782c-13.715 4.71-4.82-5.173-4.82-5.173z" fill="#5DAF9A"/>
      <path d="M114.354 63.453c2.224 11.36-1.297 15.24-11.12 20.227-11.306 5.727-25.855-26.6-19.553-26.415 11.583.369.834-9.237 10.008-11.084 9.174-1.755 18.441 6.004 20.665 17.272z" fill="#FFF"/>
      <path d="M100.454 84.789c-2.317 0-4.819-1.201-7.414-3.603-6.95-6.373-12.603-19.488-11.027-23.183.278-.738.834-1.108 1.668-1.108 2.41.092 3.985-.277 4.726-1.108.834-.831.834-2.217.741-3.695-.092-2.401-.185-5.45 4.448-6.28 9.36-1.848 18.905 6.003 21.13 17.548 2.316 11.73-1.484 15.702-11.4 20.69a6.035 6.035 0 0 1-2.872.739zM83.588 57.726c-.463 0-.649.185-.834.647-1.297 3.14 3.8 15.794 10.842 22.352 2.41 2.216 6.024 4.525 9.453 2.77 11.583-5.91 12.788-10.621 10.935-19.765-2.224-11.084-11.213-18.657-20.202-16.902-3.985.739-3.892 3.048-3.8 5.541.093 1.57.093 3.14-.926 4.249-1.02.739-2.78 1.108-5.468 1.108z" fill="#4A4A4A" fill-rule="nonzero"/>
      <path d="M115.281 162.742l-.834-.092c3.985-33.343-2.41-76.107-2.41-76.476l.742-.092c.093.369 6.487 43.133 2.502 76.66z" fill="#2B2B2B"/>
      <ellipse fill="#6ACCB6" cx="121.768" cy="92.916" rx="7.692" ry="7.666"/>
      <ellipse fill="#4A4A4A" cx="45.501" cy="150.735" rx="6.302" ry="6.281"/>
      <path d="M40.497 178.074a6.633 6.633 0 0 1-6.673-6.65 6.633 6.633 0 0 1 6.673-6.65 6.633 6.633 0 0 1 6.672 6.65 6.633 6.633 0 0 1-6.672 6.65zm0-12.56c-3.244 0-5.931 2.678-5.931 5.91 0 3.233 2.687 5.911 5.93 5.911 3.244 0 5.932-2.678 5.932-5.91 0-3.233-2.688-5.912-5.931-5.912zM117.783 179.922c-6.58 0-11.862-5.357-11.862-11.823 0-6.465 5.375-11.822 11.862-11.822s11.862 5.357 11.862 11.822c0 6.466-5.282 11.823-11.862 11.823zm0-22.26c-5.745 0-10.472 4.71-10.472 10.437 0 5.727 4.727 10.437 10.472 10.437 5.746 0 10.472-4.71 10.472-10.437 0-5.726-4.726-10.437-10.472-10.437z" fill="#2B2B2B" fill-rule="nonzero"/>
      <path d="M116.115 170.593c-.37 0-41.145-3.602-69.502-19.58l.37-.647c28.172 15.886 68.761 19.396 69.225 19.488l-.093.739zM30.396 184.078l-.742-.277c.093-.277 11.77-27.062 13.53-33.158l.741.184c-1.76 6.189-13.344 32.974-13.53 33.25zM45.871 226.75l-.834-.093c1.02-13.3-1.853-43.687-1.853-43.965l.834-.092c.093.277 2.966 30.757 1.853 44.15z" fill="#2B2B2B"/>
      <path d="M159.114 47.012c-1.946 0-4.17-.739-6.58-2.124-8.062-4.895-16.31-16.625-15.568-20.597.185-.831.648-1.293 1.482-1.478 2.317-.369 3.8-1.016 4.356-1.94.649-1.015.278-2.308 0-3.694-.556-2.401-1.297-5.264 3.15-7.204 8.897-3.694 19.832 2.124 24.373 13.023.093.277 0 .462-.278.647-.278.092-.464 0-.649-.277-4.263-10.437-14.642-16.071-22.982-12.562-3.707 1.57-3.243 3.695-2.595 6.096.371 1.478.742 3.048-.092 4.434-.742 1.2-2.317 1.94-5.005 2.401-.37.092-.648.277-.74.739-.65 3.325 7.135 14.87 15.104 19.58 2.78 1.663 6.765 3.141 9.73.74 1.947-1.57 3.43-2.864 4.541-4.064a.449.449 0 0 1 .65 0 .445.445 0 0 1 0 .646c-1.206 1.201-2.688 2.494-4.634 4.064-1.205 1.109-2.595 1.57-4.263 1.57z" fill="#4A4A4A"/>
      <ellipse fill="#C9D3FF" cx="176.999" cy="86.82" rx="8.433" ry="8.405"/>
      <ellipse cx="81.086" cy="5.172" rx="80.437" ry="4.988" transform="translate(0 243.836)" fill="#C9D3FF"/>
      <path fill="#2B2B2B" d="M182.273 78.326l10.22-26.066h.002l-10.22 26.065zM154.127 77.27l.383-.712 14.357 6.861-.384.712z"/>
      <path d="M206.005 231.183s4.911-23.83 2.872-45.904c-1.019-10.9 2.132-18.75 5.56-24.846 3.337-5.819 27.616-40.916 27.616-40.916L215.55 93.378s-9.36 27.709-22.797 63.453a29.977 29.977 0 0 0-1.853 11.083c.74 22.63 4.54 67.887 4.54 67.887h10.657v-4.618h-.092z" fill="#3D3D3D"/>
      <path d="M106.2 80.355s2.594 7.02 1.39 14.87c0 0 3.892-7.02 14.085-11.637l-7.877-12.284-7.599 9.051z" fill="#FFF"/>
      <path d="M200.352 249.655h33.824c1.483 0 2.873-1.2 2.873-2.678 0-3.418-.649-9.79.556-17.642 1.668-10.437-11.954 7.944-11.954 7.944l-21.592 5.449s-4.17 1.293-5.097 5.265c-.093.923.556 1.662 1.39 1.662z" fill="#4A4A4A"/>
      <path d="M17.515 249.655h29.84c1.482 0 2.872-1.2 2.872-2.678 0-3.418-1.02-9.883.556-17.642 2.41-11.822-11.954 7.944-11.954 7.944l-17.608 5.449s-4.17 1.293-5.096 5.265c-.093.923.556 1.662 1.39 1.662zM172.55 245.683l31.509-1.662c1.39-.092 2.687-1.293 2.594-2.586-.185-3.14.371-24.846 1.112-32.327 1.02-9.883-12.14 23.83-12.14 23.83l-19.923 6.188s-3.8 1.385-4.448 5.172c-.093.739.556 1.385 1.297 1.385z" fill="#3D3D3D"/>
      <path fill="#4A4A4A" d="M39.663 148.334L22.519 190.08l9.73 3.695 17.978-28.632 4.819-8.128z"/>
      <path d="M120.749 85.343c-6.673.923-18.164 7.02-22.52 19.119-4.447 12.191 2.318 23.275 2.318 23.275v32.234l30.951-5.08.556-38.422" fill="#6ACCB6"/>
      <path d="M131.59 141.868s1.206-38.884.094-45.811c-1.02-6.927-4.634-9.883-4.634-9.883" fill="#6ACCB6"/>
      <path d="M118.246 81.556c.557-1.016 1.947-1.386 2.873-.647 2.41 1.755 5.838 3.787 8.526 8.96 1.76 3.324-21.87 2.77-21.87 2.77s8.062-6.557 10.471-11.083z" fill="#6ACCB6"/>
      <path d="M40.775 237.37l-3.614-66.777s1.297-8.22 15.197-8.59c13.9-.37 32.898-2.863 32.898-2.863l13.16 12.377-44.668 11.453s-3.428 46.365-3.428 64.007l-9.545-9.606z" fill="#3D3D3D"/>
      <path d="M125.382 86.174l-8.526 6.373 1.39 16.995s10.843 4.802 11.214 3.602c.37-1.201.092-9.421.092-9.421l-4.17-17.55z" fill="#6ACCB6"/>
      <path d="M45.5 144.454s43.278 5.542 78.4 10.253c5.096 1.016 7.598.184 7.598.184s8.526 23.183-13.715 24.476c-35.214 1.94-70.985-17.364-70.985-17.364l-1.297-17.549z" fill="#4A4A4A"/>
      <path d="M89.89 249.563c-1.112-.093-1.854-1.016-1.854-2.125l-.092-57.541c.092-1.109 5.374-1.848 6.486-1.755 1.112.092 5.283 1.2 5.19 2.309l-7.692 57.357c0 1.016-.926 1.755-2.038 1.755zM144.657 249.563c1.112-.093 1.854-1.016 1.854-2.125l-1.854-63.637c-.092-1.109-3.428 4.248-4.54 4.34-1.112.093-7.043 1.202-6.95 2.31l9.452 57.357c0 1.016 1.019 1.755 2.038 1.755z" fill="#C9D3FF"/>
      <path d="M71.912 177.797a5.908 5.908 0 0 1 3.243-1.293c8.618-.37 57.919-9.883 68.02-38.238 13.715-38.515 8.247-59.112 8.247-59.112s0-4.433 4.263-4.433 4.819 4.71 4.819 4.71 21.777 85.713-18.627 109.08c-5.838 3.418-11.49 5.634-16.866 6.927a63.8 63.8 0 0 1-5.467 1.109c-1.76.277-3.614.462-5.282.554-21.963 1.2-37.902-10.899-41.794-13.208-1.02-.646-1.761-1.662-1.946-2.863 0-1.016.185-2.217 1.39-3.233z" fill="#FFF"/>
      <path d="M111.389 197.932c-18.441 0-32.25-8.959-37.624-12.469-.649-.37-1.112-.739-1.575-1.016a4.667 4.667 0 0 1-2.317-3.417c-.185-1.478.37-2.77 1.575-3.88a6.598 6.598 0 0 1 3.707-1.477c6.858-.277 57.27-9.329 67.371-37.776 13.53-37.869 8.248-58.558 8.248-58.743v-.184c0-1.755 1.019-5.173 5.004-5.173 3.892 0 5.375 3.51 5.56 5.357 0 .093 5.467 21.706 5.838 45.812.556 32.142-8.062 54.217-24.835 63.915-5.56 3.232-11.306 5.634-17.052 7.02a63.8 63.8 0 0 1-5.467 1.108c-1.76.277-3.614.461-5.375.554-1.02.277-2.039.37-3.058.37zm40.775-118.87c.463 1.755 5.004 22.167-8.248 59.481-5.468 15.332-22.055 24.753-35.03 30.018-14.826 6.004-29.375 8.497-33.638 8.682-1.02 0-2.039.462-2.78 1.108-.834.74-1.205 1.57-1.112 2.587.092.923.741 1.847 1.575 2.401.37.277.927.554 1.575 1.016 5.56 3.602 20.388 13.208 39.848 12.1a46.948 46.948 0 0 0 5.19-.555 55.522 55.522 0 0 0 5.375-1.108c5.653-1.386 11.213-3.695 16.68-6.927 39.385-22.814 18.442-107.418 18.256-108.249 0-.277-.556-4.156-4.17-4.156-3.243-.092-3.521 3.048-3.521 3.602z" fill="#4A4A4A" fill-rule="nonzero"/>
      <path d="M206.468 38.238c0-6.188-6.302-11.176-12.51-11.176-5.097 0-8.063 3.418-9.453 8.036h.834l-17.7 51.722 16.866 3.972 18.998-47.751h-2.04c.65-1.478 5.005-3.048 5.005-4.803z" fill="#C9D3FF"/>
      <path d="M155.129 73.15s19.553 5.266 26.226 10.807c6.58 5.542-10.287 8.96-10.287 8.96s-13.622-10.253-18.441-10.807c-4.819-.554-1.205-7.02-1.205-7.02 1.02-1.293 1.761-2.031 3.151-2.031l.556.092z" fill="#C9D3FF"/>
      <path d="M168.473 40.085s2.873.185 6.117 1.755c.741.37 1.575.831 2.41 1.386 0 0 2.594-2.587 5.837-14.04l-14.364-3.14v14.04z" fill="#FFF"/>
      <path d="M129.274 21.336c0-.093 1.668-1.109 1.76-1.201 2.41-2.124 1.391-3.695 2.874-4.988 1.39-1.293 5.653-2.863 6.394-4.71.463-1.2-.741-2.217.834-4.064 2.502-2.863 3.892-3.602 6.023-4.71 6.858-3.51 18.071 2.77 24.558 19.026 6.487 16.256-8.711 8.313-8.711 8.313l-5.746-4.803c-1.112-.924-2.78-1.108-4.077-.277-1.205.739-2.039 2.309-.463 5.357l2.224 3.51c.278.461.185 1.016-.186 1.293l-1.112 1.016c-.463.37-1.112.37-1.482 0l-4.356-4.341-2.78-.462c-.927-.185-1.668-.74-2.039-1.663-.463-1.2-1.946-1.57-2.965-.739l-.556.462c-3.058 2.494-7.692 1.293-9.916-1.2-1.112-1.755-1.575-3.787-.278-5.82z" fill="#4A4A4A"/>
      <path d="M172.458 29.186c-.185 0-.37-.184-.463-.369 0-.277.093-.462.37-.554l10.194-1.847c.278-.093.464.092.556.369 0 .277-.092.462-.37.554l-10.287 1.847z" fill="#4A4A4A"/>
      <path d="M179.223 28.448s-6.116 13.946.741 21.15c14.642-4.618 13.252-15.516 13.252-15.516V30.11l-13.993-1.662z" fill="#C9D3FF"/>
      <path d="M214.345 85.527s11.213 47.475 11.213 153.322l11.12-2.864s3.058-17.087 5.283-43.687c2.872-34.359 8.247-73.428 8.247-73.428s9.174-19.488-1.853-36.668c-12.047-18.75-34.01 3.325-34.01 3.325z" fill="#4A4A4A"/>
      <path d="M179.223 28.448s3.15-4.988 18.812-2.31c0 0 26.874 5.358 53.378 57.542.278.647-.278 1.386-1.02 1.57-4.448 1.016-22.055 1.663-32.341 8.313-1.483 1.016-3.522.185-3.985-1.57-.185-.832.463-1.57.278-2.679-1.946-14.224-17.515-30.11-19.739-33.527" fill="#C9D3FF"/>
      <path d="M172.458 73.613h-.185c-.278-.093-.37-.37-.278-.554l10.379-28.91c.093-.277.37-.37.556-.277.278.092.37.37.278.554l-10.38 28.91c-.092.184-.184.277-.37.277zM169.956 81.002h-.185c-.278-.093-.37-.37-.278-.555l1.853-5.172c.093-.277.37-.37.556-.277.278.092.37.37.278.554l-1.853 5.173c0 .184-.185.277-.37.277zM131.035 16.256c-3.429 2.401-4.263 7.204-1.575 10.437.463.554.926.923 1.482 1.293 3.892 2.401 9.916-8.775 9.916-8.775l2.78-9.882-2.502-2.956c-.093 0-4.912 6.28-10.101 9.883zM22.519 190.081s-18.07 2.494-19.924 7.666c-1.854 5.173 7.228 5.82 11.769 5.45 4.54-.37 15.661-4.249 15.661-4.249s1.853-.739 2.78-1.847c.927-1.108 1.39-4.526-.649-6.373-1.853-1.755-9.637-.647-9.637-.647z" fill="#4A4A4A"/>
      <path d="M78.862 148.888l-43.833-5.45c-.556-.092-.927-.554-.834-1.108l.463-5.172 42.907 9.606c1.019.092 1.575 1.2 1.297 2.124z" fill="#6480FF"/>
      <path d="M33.917 142.515L27.616 97.35c-.093-.831.463-1.57 1.297-1.663.834-.092 1.575.462 1.668 1.293l8.896 46.736-4.54-.37c-.557 0-.927-.37-1.02-.831z" fill="#6480FF"/>
      <path d="M85.627 47.382c8.155-5.357 18.07-6.466 26.874 3.787 7.877 9.236 12.974 19.765 12.788 20.135-4.077 9.698-21.406 17.271-21.406 16.163.278-11.176-6.95-20.504-9.638-23.645-.556-.646-1.483-.831-2.317-.462l-9.637 4.526c-1.112.554-2.502-.092-2.78-1.293-1.02-4.433-2.04-13.854 6.116-19.211z" fill="#4A4A4A"/>
      <path d="M55.138 128.938l14.272-2.864c14.363-3.971 27.522-8.959 38.365-19.303l15.754-15.148 1.575 20.69-11.398 7.85c-12.14 8.405-26.226 11.176-40.868 12.93L58.66 134.48l-3.522-5.541z" fill="#6ACCB6"/>
      <path d="M109.35 123.488c-.185 0-.278-.092-.37-.184-.186-.185-.093-.462.092-.647.093-.092 7.136-4.803 11.399-7.758.185-.185.463-.093.648.092.186.185.093.462-.092.646-4.263 2.956-11.399 7.667-11.399 7.759-.185.092-.185.092-.278.092zM102.678 127.367c-.185 0-.278-.092-.37-.277a.486.486 0 0 1 .185-.646l3.243-1.847a.49.49 0 0 1 .649.184.486.486 0 0 1-.186.647l-3.243 1.847c-.093 0-.185.092-.278.092zM109.165 90.607s-.093 0 0 0c-.278 0-.463-.277-.463-.461.092-1.848-.65-4.896-2.225-9.237-.185-.462-.278-.831.093-1.016.093-.092.463-.092.649.277v.185c0 .092 0 .092.092.185.65 1.662 2.503 6.65 2.317 9.606-.092.277-.278.461-.463.461zM45.037 137.897c-.185 0-.37 0-.556-.093a1.015 1.015 0 0 1-.556-.923v-.185c.65-5.265 9.267-7.204 9.638-7.297.278-.092.463.093.556.37.093.277-.093.462-.37.554-.093 0-8.34 1.847-8.897 6.558 0 .092 0 .185.093.185h.185l2.132-1.478c.37-.277 1.204-.74 1.668-.462.926.462 1.76.831 1.853.924.834.184 2.687-.37 5.56-1.386.278-.092.464 0 .556.277.093.277 0 .462-.278.554-3.614 1.293-5.097 1.663-6.116 1.478-.093 0-.185 0-2.039-1.016 0 0-.463.185-.741.37l-2.132 1.477c-.092 0-.278.093-.556.093zM147.715 84.789h-.185c-1.668-.185-4.54-.74-5.282-2.956-.37-2.586.185-4.618 1.575-6.188 2.78-3.14 7.877-3.048 8.063-3.048.278 0 .463.184.463.462 0 .277-.185.461-.463.461s-4.912 0-7.414 2.771c-1.205 1.386-1.668 3.14-1.39 5.357.556 1.663 3.336 2.125 4.448 2.217.278 0 .556-.185.556-.462l.185-1.755c0-.277.278-.462.556-.37.278 0 .464.278.371.555l-.185 1.755c0 .646-.556 1.2-1.298 1.2z" fill="#4A4A4A"/>
    </g>
    <path d="M44 118h50V91H44v27zm49.49-.506H44.425V91.506H93.49v25.988z" fill="#FFF" fill-rule="nonzero"/>
    <path d="M275.621 318.4H450" stroke="#4A4A4A" stroke-linecap="square"/>
    <g fill="#E4E9FF">
      <path d="M213 57h21v21h-21V57zm3.5 4h8a.5.5 0 1 0 0-1h-8a.5.5 0 1 0 0 1zM157 25h21v21h-21V25zm3.5 5h12.504a.5.5 0 1 0 0-1H160.5a.5.5 0 0 0 0 1zm0 3h9.357a.5.5 0 1 0 0-1H160.5a.5.5 0 0 0 0 1zM185 25h21v21h-21V25zm3.5 5h12.504a.5.5 0 1 0 0-1H188.5a.5.5 0 1 0 0 1zm0 3h9.357a.5.5 0 1 0 0-1H188.5a.5.5 0 1 0 0 1zM185 57h21v21h-21V57zm3.5 5h12.504a.5.5 0 1 0 0-1H188.5a.5.5 0 1 0 0 1zm0 3h9.357a.5.5 0 1 0 0-1H188.5a.5.5 0 1 0 0 1z"/>
    </g>
    <g fill="#E4E9FF">
      <path d="M35.389 6.14L55.47 0l6.14 20.082-20.082 6.14zM95 3h21v21H95V3zm3.5 5h12.504a.5.5 0 1 0 0-1H98.5a.5.5 0 1 0 0 1zm0 3h9.357a.5.5 0 1 0 0-1H98.5a.5.5 0 1 0 0 1zM87 18.197v-.375h-4.708v5.79h.25H66v-21h21v15.585zm-.208.625l-3.5 4.19v-4.19h3.5zM87 44.197v-.375h-4.708v5.79h.25H66v-21h21v15.585zm-.208.625l-3.5 4.19v-4.19h3.5z"/>
    </g>
    <path d="M226.253 318.4h25.19M177.253 318.4h25.19M123.307 318.4h34.136M.307 318.4h70.359" stroke="#4A4A4A" stroke-linecap="square"/>
  </g>
</svg>