<svg width="335" height="221" xmlns="http://www.w3.org/2000/svg">
  <g fill="none" fill-rule="evenodd">
    <path d="M274.818 159.577c-.034-.262-.604-4.272-3.09-5.17-3.281-1.185-7.635 3.872-8.753 5.17-6.707 7.791-8.252 19.696-6.052 21.952a32.842 32.842 0 0 0-1.12 2.803.192.192 0 0 0-.007.062h-2.982c0-1.03-.037-2.067-.105-3.106 1.064-.09 1.78-3.47 2.029-4.65.99-4.688.352-8.87 0-12.408-.515-5.17-1.611-8.812-4.634-11.891-1.592-1.62-4.893-4.187-6.694-3.102-2.574 1.55-1.497 6.065-1.03 7.238 2.06 5.17 3.072 5.096 5.15 11.374.728 2.205 1.268 4.675 3.088 9.824.628 1.776 1.135 3.095 1.696 3.493a47.55 47.55 0 0 1 .114 3.228h-3.186c-.231-1.08-.586-2.226-.996-3.353.258-.51.074-1.452-.202-2.851-.482-2.445-1.498-7.6-6.179-10.34-2.867-1.68-7.396-2.62-10.297-.517-1.108.802-2.427 2.374-2.06 3.619.396 1.341 2.569 1.68 4.12 2.068 8.407 2.104 12.64 9.192 14.31 8.333.37 1.027.69 2.064.906 3.041h-1.83l2.06 15.51h10.297l2.06-15.51h-5.24c.273-.798.629-1.682 1.047-2.624.025.013.049.028.074.039 1.195.539 3.37-1.709 7.723-6.204 6.333-6.542 10.448-10.91 9.783-16.028" fill="#E4E9FF"/>
    <path d="M223.877 184.54H200.52M186.659 184.54H98.092" fill="#FFF"/>
    <g transform="matrix(-1 0 0 1 224.8 21.025)">
      <ellipse cx="33.326" cy="4.052" rx="33.108" ry="3.908" transform="translate(126.334 191.044)" opacity=".6" fill="#C9D3FF"/>
      <path d="M63.167 50.004s3.485 8.829-.653 18.02a.714.714 0 0 0 .508 1.012c.799.217 2.178.507 3.848.652l1.162-4.632.218 4.704c2.831.072 9.148-2.316 12.56-4.197L69.34 44.649l-6.172 5.355z" fill="#4A4A4A"/>
      <path d="M54.527 113.179s20.185-8.829 26.574-29.38c2.977 4.559.726 17.15.726 17.15s-12.706 12.592-23.524 16.282c-10.746 3.691-3.776-4.052-3.776-4.052z" fill="#5DAF9A"/>
      <path d="M89.596 49.715c1.742 8.9-1.017 11.94-8.713 15.848-8.858 4.486-20.257-20.841-15.32-20.697 9.076.29.654-7.236 7.842-8.683 7.188-1.375 14.448 4.703 16.19 13.532z" fill="#FFF"/>
      <path d="M78.705 66.431c-1.815 0-3.776-.94-5.809-2.822-5.445-4.993-9.874-15.27-8.64-18.164.218-.579.654-.868 1.307-.868 1.888.072 3.122-.217 3.703-.868.654-.652.654-1.737.58-2.895-.072-1.882-.144-4.27 3.486-4.92 7.333-1.448 14.812 4.703 16.554 13.748 1.815 9.19-1.162 12.302-8.93 16.21a4.728 4.728 0 0 1-2.251.58zM65.49 45.228c-.363 0-.509.145-.654.507-1.016 2.46 2.977 12.374 8.495 17.512 1.888 1.737 4.72 3.546 7.406 2.171 9.076-4.631 10.02-8.322 8.567-15.486-1.742-8.684-8.785-14.618-15.828-13.243-3.122.579-3.05 2.388-2.977 4.342.073 1.23.073 2.46-.726 3.329-.798.579-2.178.868-4.283.868z" fill="#4A4A4A" fill-rule="nonzero"/>
      <path d="M90.322 127.507l-.654-.072c3.122-26.124-1.887-59.629-1.887-59.918l.58-.073c.073.29 5.083 33.795 1.96 60.063z" fill="#2B2B2B"/>
      <ellipse fill="#6ACCB6" cx="95.404" cy="72.799" rx="6.026" ry="6.006"/>
      <ellipse fill="#4A4A4A" cx="35.65" cy="118.1" rx="4.937" ry="4.921"/>
      <path d="M31.729 139.52a5.197 5.197 0 0 1-5.228-5.21 5.197 5.197 0 0 1 5.228-5.21 5.197 5.197 0 0 1 5.227 5.21 5.197 5.197 0 0 1-5.227 5.21zm0-9.842c-2.541 0-4.647 2.099-4.647 4.632 0 2.532 2.106 4.63 4.647 4.63 2.541 0 4.647-2.098 4.647-4.63 0-2.533-2.106-4.632-4.647-4.632zM92.282 140.967c-5.155 0-9.293-4.197-9.293-9.263 0-5.065 4.21-9.262 9.293-9.262 5.083 0 9.294 4.197 9.294 9.262 0 5.066-4.139 9.263-9.294 9.263zm0-17.44c-4.501 0-8.204 3.69-8.204 8.177s3.703 8.178 8.204 8.178c4.502 0 8.205-3.69 8.205-8.178 0-4.486-3.703-8.177-8.205-8.177z" fill="#2B2B2B" fill-rule="nonzero"/>
      <path d="M90.975 133.658c-.29 0-32.237-2.822-54.454-15.341l.29-.507c22.072 12.447 53.874 15.197 54.237 15.27l-.073.578zM23.815 144.224l-.581-.218c.073-.217 9.22-21.202 10.6-25.979l.581.145c-1.38 4.849-10.455 25.834-10.6 26.052zM35.94 177.656l-.654-.072c.8-10.42-1.452-34.229-1.452-34.446l.654-.072c.072.217 2.323 24.097 1.452 34.59z" fill="#2B2B2B"/>
      <path d="M124.664 36.834c-1.524 0-3.267-.58-5.155-1.665-6.316-3.835-12.778-13.025-12.197-16.137.145-.651.508-1.013 1.161-1.158 1.815-.29 2.977-.796 3.413-1.52.508-.796.218-1.809 0-2.894-.436-1.882-1.017-4.125 2.468-5.645 6.97-2.894 15.538 1.665 19.096 10.204.072.217 0 .362-.218.506-.218.073-.363 0-.508-.217-3.34-8.177-11.472-12.591-18.007-9.841-2.904 1.23-2.54 2.894-2.033 4.776.29 1.158.581 2.388-.072 3.473-.581.941-1.815 1.52-3.92 1.882-.291.072-.51.217-.582.579-.508 2.605 5.59 11.65 11.835 15.341 2.178 1.303 5.3 2.46 7.624.58 1.524-1.231 2.686-2.244 3.557-3.185a.352.352 0 0 1 .509 0 .349.349 0 0 1 0 .507c-.944.94-2.106 1.953-3.63 3.184-.945.868-2.034 1.23-3.34 1.23z" fill="#4A4A4A"/>
      <ellipse fill="#C9D3FF" cx="138.677" cy="68.023" rx="6.607" ry="6.585"/>
      <ellipse cx="63.53" cy="4.052" rx="63.022" ry="3.908" transform="translate(0 191.044)" fill="#C9D3FF"/>
      <path fill="#2B2B2B" d="M142.81 61.368l8.006-20.423h.002l-8.006 20.422zM120.757 60.54l.3-.557 11.249 5.375-.3.558z"/>
      <path d="M161.403 181.13s3.848-18.67 2.25-35.966c-.798-8.539 1.67-14.69 4.357-19.466 2.614-4.559 21.637-32.058 21.637-32.058L168.88 73.161s-7.333 21.71-17.86 49.715a23.487 23.487 0 0 0-1.453 8.684c.581 17.73 3.558 53.188 3.558 53.188h8.35v-3.618h-.073z" fill="#3D3D3D"/>
      <path d="M83.206 62.958s2.033 5.5 1.09 11.65c0 0 3.049-5.5 11.036-9.118l-6.172-9.624-5.954 7.092z" fill="#FFF"/>
      <path d="M156.974 195.603h26.501c1.162 0 2.251-.941 2.251-2.099 0-2.677-.508-7.67.436-13.822 1.307-8.177-9.366 6.224-9.366 6.224l-16.918 4.27s-3.267 1.013-3.993 4.124c-.073.724.436 1.303 1.09 1.303z" fill="#4A4A4A"/>
      <path d="M13.723 195.603h23.379c1.161 0 2.25-.941 2.25-2.099 0-2.677-.798-7.743.436-13.822 1.888-9.262-9.366 6.224-9.366 6.224l-13.795 4.27s-3.268 1.013-3.994 4.124c-.072.724.436 1.303 1.09 1.303zM135.192 192.491l24.686-1.302c1.09-.073 2.106-1.014 2.033-2.027-.145-2.46.29-19.466.872-25.327.798-7.744-9.512 18.67-9.512 18.67l-15.61 4.848s-2.977 1.086-3.485 4.053c-.073.579.435 1.085 1.016 1.085z" fill="#3D3D3D"/>
      <path fill="#4A4A4A" d="M31.075 116.218l-13.432 32.71 7.624 2.894 14.085-22.433 3.776-6.368z"/>
      <path d="M94.606 66.865c-5.228.724-14.231 5.5-17.644 14.98-3.485 9.552 1.815 18.236 1.815 18.236v25.255l24.25-3.98.436-30.104" fill="#6ACCB6"/>
      <path d="M103.1 111.153s.944-30.466.073-35.893c-.799-5.428-3.63-7.743-3.63-7.743" fill="#6ACCB6"/>
      <path d="M92.645 63.898c.436-.796 1.525-1.085 2.251-.506 1.888 1.375 4.574 2.967 6.68 7.02 1.38 2.604-17.135 2.17-17.135 2.17s6.316-5.138 8.204-8.684z" fill="#6ACCB6"/>
      <path d="M31.947 185.978l-2.832-52.32s1.016-6.44 11.907-6.73c10.891-.29 25.775-2.243 25.775-2.243l10.31 9.697-34.996 8.973s-2.686 36.327-2.686 50.15l-7.478-7.527z" fill="#3D3D3D"/>
      <path d="M98.236 67.517l-6.68 4.993 1.09 13.315s8.494 3.763 8.785 2.822c.29-.94.072-7.381.072-7.381l-3.267-13.75z" fill="#6ACCB6"/>
      <path d="M35.65 113.179s33.907 4.342 61.424 8.032c3.993.797 5.954.145 5.954.145s6.68 18.164-10.746 19.177c-27.59 1.52-55.616-13.605-55.616-13.605L35.65 113.18z" fill="#4A4A4A"/>
      <path d="M70.428 195.53c-.871-.072-1.452-.796-1.452-1.664l-.073-45.083c.073-.869 4.211-1.448 5.082-1.375.872.072 4.139.94 4.066 1.809l-6.026 44.938c0 .796-.726 1.375-1.597 1.375zM113.338 195.53c.871-.072 1.452-.796 1.452-1.664l-1.452-49.86c-.073-.868-2.687 3.33-3.558 3.402-.871.072-5.518.94-5.445 1.809l7.406 44.938c0 .796.798 1.375 1.597 1.375z" fill="#C9D3FF"/>
      <path d="M56.342 139.303a4.63 4.63 0 0 1 2.541-1.013c6.753-.29 45.38-7.743 53.293-29.96 10.746-30.176 6.462-46.313 6.462-46.313s0-3.474 3.34-3.474 3.776 3.691 3.776 3.691 17.062 67.155-14.594 85.463c-4.574 2.678-9.003 4.414-13.215 5.427a49.987 49.987 0 0 1-4.283.869c-1.38.217-2.832.362-4.139.434-17.207.94-29.696-8.539-32.745-10.348-.799-.507-1.38-1.303-1.525-2.243 0-.796.145-1.737 1.09-2.533z" fill="#FFF"/>
      <path d="M87.272 155.078c-14.448 0-25.267-7.02-29.478-9.769-.508-.29-.87-.579-1.234-.796a3.657 3.657 0 0 1-1.815-2.677c-.145-1.158.29-2.171 1.234-3.04a5.17 5.17 0 0 1 2.904-1.158c5.373-.217 44.87-7.309 52.785-29.597 10.6-29.67 6.462-45.88 6.462-46.024v-.145c0-1.375.799-4.052 3.92-4.052 3.05 0 4.212 2.75 4.357 4.197 0 .072 4.284 17.006 4.574 35.893.436 25.183-6.317 42.478-19.458 50.077-4.357 2.532-8.858 4.414-13.36 5.5a49.987 49.987 0 0 1-4.283.868c-1.38.217-2.832.362-4.212.434-.798.217-1.597.29-2.396.29zm31.947-93.134c.363 1.375 3.92 17.368-6.462 46.604-4.284 12.012-17.28 19.393-27.445 23.518-11.617 4.704-23.016 6.658-26.356 6.803-.799 0-1.597.361-2.178.868-.654.579-.944 1.23-.871 2.026.072.724.58 1.447 1.234 1.882.29.217.726.434 1.234.796 4.357 2.822 15.974 10.348 31.22 9.48a36.783 36.783 0 0 0 4.067-.435 43.501 43.501 0 0 0 4.21-.868c4.43-1.086 8.786-2.895 13.07-5.427 30.857-17.875 14.448-84.161 14.303-84.812 0-.217-.435-3.257-3.267-3.257-2.541-.072-2.759 2.388-2.759 2.822z" fill="#4A4A4A" fill-rule="nonzero"/>
      <path d="M161.766 29.96c0-4.85-4.937-8.757-9.802-8.757-3.993 0-6.316 2.677-7.406 6.296h.654l-13.868 40.524 13.214 3.112 14.885-37.413h-1.598c.509-1.158 3.921-2.388 3.921-3.763z" fill="#C9D3FF"/>
      <path d="M121.542 57.313s15.32 4.125 20.548 8.467c5.155 4.342-8.06 7.02-8.06 7.02s-10.672-8.033-14.448-8.467c-3.775-.435-.944-5.5-.944-5.5.799-1.013 1.38-1.592 2.469-1.592l.435.072z" fill="#C9D3FF"/>
      <path d="M131.998 31.406s2.25.145 4.792 1.375c.58.29 1.234.652 1.887 1.086 0 0 2.033-2.026 4.575-11l-11.254-2.46v11z" fill="#FFF"/>
      <path d="M101.285 16.716c0-.072 1.307-.868 1.38-.94 1.888-1.665 1.089-2.895 2.25-3.908 1.09-1.013 4.43-2.243 5.01-3.69.363-.941-.58-1.738.654-3.185 1.96-2.243 3.05-2.822 4.72-3.69 5.372-2.75 14.157 2.17 19.24 14.907 5.082 12.736-6.825 6.513-6.825 6.513l-4.502-3.763c-.871-.724-2.178-.869-3.194-.217-.944.578-1.598 1.809-.363 4.197l1.742 2.75c.218.361.145.796-.145 1.013l-.871.796c-.363.29-.872.29-1.162 0l-3.412-3.401-2.179-.362c-.726-.145-1.307-.58-1.597-1.303-.363-.94-1.525-1.23-2.323-.579l-.436.362c-2.396 1.954-6.026 1.013-7.769-.94-.871-1.376-1.234-2.968-.218-4.56z" fill="#4A4A4A"/>
      <path d="M135.12 22.867c-.146 0-.29-.144-.363-.29 0-.216.072-.36.29-.433l7.987-1.448c.218-.072.363.073.435.29 0 .217-.072.362-.29.434l-8.06 1.447z" fill="#4A4A4A"/>
      <path d="M140.42 22.288s-4.792 10.928.58 16.572c11.473-3.618 10.383-12.157 10.383-12.157V23.59l-10.963-1.303z" fill="#C9D3FF"/>
      <path d="M167.938 67.01s8.785 37.196 8.785 120.126l8.713-2.243s2.396-13.388 4.138-34.229c2.251-26.92 6.462-57.53 6.462-57.53s7.188-15.27-1.452-28.73c-9.439-14.69-26.646 2.606-26.646 2.606z" fill="#4A4A4A"/>
      <path d="M140.42 22.288s2.469-3.907 14.739-1.809c0 0 21.056 4.197 41.821 45.084.218.506-.218 1.085-.799 1.23-3.485.796-17.28 1.303-25.34 6.513-1.16.796-2.758.145-3.121-1.23-.145-.652.363-1.23.218-2.099-1.525-11.144-13.723-23.591-15.465-26.268" fill="#C9D3FF"/>
      <path d="M135.12 57.675h-.146c-.217-.072-.29-.29-.217-.434l8.132-22.65c.072-.218.29-.29.435-.218.218.073.29.29.218.435l-8.132 22.65c-.072.145-.145.217-.29.217zM133.16 63.464h-.146c-.218-.072-.29-.29-.218-.434l1.452-4.052c.073-.218.29-.29.436-.218.218.073.29.29.218.435l-1.452 4.052c0 .145-.145.217-.29.217zM102.665 12.736c-2.687 1.882-3.34 5.645-1.234 8.178.363.434.726.723 1.161 1.013 3.05 1.881 7.77-6.875 7.77-6.875l2.177-7.743-1.96-2.316c-.073 0-3.848 4.921-7.914 7.743zM17.643 148.927s-14.158 1.954-15.61 6.007c-1.452 4.052 5.663 4.559 9.22 4.27 3.559-.29 12.271-3.33 12.271-3.33s1.452-.579 2.179-1.447c.726-.868 1.089-3.546-.509-4.993-1.452-1.375-7.55-.507-7.55-.507z" fill="#4A4A4A"/>
      <path d="M61.788 116.652l-34.343-4.27c-.436-.071-.726-.433-.653-.867l.363-4.053 33.616 7.526c.799.072 1.234.94 1.017 1.664z" fill="#6480FF"/>
      <path d="M26.574 111.66l-4.937-35.387c-.073-.652.363-1.23 1.016-1.303.654-.072 1.234.362 1.307 1.013l6.97 36.617-3.558-.29a.79.79 0 0 1-.798-.65z" fill="#6480FF"/>
      <path d="M67.088 37.123c6.39-4.197 14.158-5.065 21.056 2.967 6.171 7.237 10.164 15.486 10.02 15.776C94.968 63.464 81.39 69.398 81.39 68.53c.218-8.756-5.445-16.065-7.55-18.526-.436-.506-1.162-.651-1.816-.362l-7.55 3.546c-.872.435-1.961-.072-2.18-1.013-.798-3.473-1.596-10.855 4.793-15.052z" fill="#4A4A4A"/>
      <path d="M43.2 101.022l11.182-2.244c11.254-3.111 21.564-7.02 30.059-15.124l12.343-11.868 1.234 16.21-8.93 6.151c-9.512 6.585-20.548 8.756-32.02 10.131l-11.108 1.086-2.76-4.342z" fill="#6ACCB6"/>
      <path d="M85.675 96.752c-.145 0-.218-.072-.29-.145-.146-.144-.073-.361.072-.506.073-.073 5.59-3.763 8.93-6.079.146-.145.364-.072.509.073.145.144.073.361-.073.506-3.34 2.316-8.93 6.006-8.93 6.079-.145.072-.145.072-.218.072zM80.447 99.791c-.145 0-.217-.072-.29-.217a.38.38 0 0 1 .145-.506l2.541-1.448a.383.383 0 0 1 .509.145.38.38 0 0 1-.146.507l-2.54 1.447c-.073 0-.146.072-.219.072zM85.53 70.99s-.073 0 0 0c-.218 0-.363-.217-.363-.362.072-1.447-.508-3.835-1.743-7.236-.145-.362-.218-.651.073-.796.072-.073.363-.073.508.217v.145c0 .072 0 .072.073.144.508 1.303 1.96 5.21 1.815 7.526-.073.217-.218.362-.363.362zM35.286 108.041c-.145 0-.29 0-.435-.072a.796.796 0 0 1-.436-.724v-.145c.508-4.125 7.26-5.644 7.551-5.717.218-.072.363.073.436.29.072.217-.073.362-.29.434-.073 0-6.535 1.447-6.97 5.138 0 .072 0 .145.072.145h.145l1.67-1.158c.29-.217.944-.579 1.307-.362.726.362 1.38.651 1.452.724.654.144 2.106-.29 4.356-1.086.218-.072.363 0 .436.217.073.217 0 .362-.218.435-2.831 1.013-3.993 1.302-4.792 1.157-.072 0-.145 0-1.597-.796 0 0-.363.145-.58.29l-1.67 1.158c-.073 0-.219.072-.437.072zM115.734 66.431h-.145c-1.307-.145-3.558-.579-4.139-2.316-.29-2.026.145-3.618 1.234-4.848 2.179-2.46 6.172-2.388 6.317-2.388.218 0 .363.145.363.362s-.145.362-.363.362-3.848 0-5.808 2.17c-.944 1.086-1.307 2.461-1.09 4.198.436 1.302 2.614 1.664 3.486 1.736.218 0 .435-.144.435-.361l.146-1.375c0-.217.217-.362.435-.29.218 0 .363.217.29.434l-.145 1.375c0 .507-.435.941-1.016.941z" fill="#4A4A4A"/>
    </g>
    <path d="M16.391 43.746h39.175V22.592H16.391v21.154zm38.775-.396H16.724V22.989h38.442v20.36z" fill="#FFF" fill-rule="nonzero"/>
    <path d="M197.865 200.758h136.624" stroke="#4A4A4A" stroke-linecap="square"/>
    <g fill="#E4E9FF">
      <path d="M305.537 44.66h16.453v16.452h-16.453V44.66zm2.742 3.41h6.268c.216 0 .392-.238.392-.53 0-.293-.176-.53-.392-.53h-6.268c-.216 0-.392.237-.392.53 0 .292.176.53.392.53zM261.661 19.587h16.453v16.454h-16.453V19.587zm2.742 4.194h9.797c.216 0 .392-.237.392-.53 0-.292-.176-.53-.392-.53h-9.797c-.216 0-.391.238-.391.53 0 .293.175.53.391.53zm0 2.35h7.331c.217 0 .392-.236.392-.53 0-.292-.175-.53-.392-.53h-7.33c-.217 0-.392.238-.392.53 0 .294.175.53.391.53zM283.599 19.587h16.453v16.454H283.6V19.587zm2.742 4.194h9.797c.216 0 .391-.237.391-.53 0-.292-.175-.53-.391-.53h-9.797c-.216 0-.392.238-.392.53 0 .293.176.53.392.53zm0 2.35h7.331c.217 0 .392-.236.392-.53 0-.292-.175-.53-.392-.53h-7.33c-.217 0-.393.238-.393.53 0 .294.176.53.392.53zM283.599 44.66h16.453v16.452H283.6V44.66zm2.742 4.193h9.797c.216 0 .391-.237.391-.53 0-.293-.175-.53-.391-.53h-9.797c-.216 0-.392.237-.392.53 0 .293.176.53.392.53zm0 2.35h7.331c.217 0 .392-.237.392-.53 0-.292-.175-.53-.392-.53h-7.33c-.217 0-.393.238-.393.53 0 .293.176.53.392.53z"/>
    </g>
    <g fill="#E4E9FF">
      <path d="M166.38 4.81L182.114 0l4.81 15.734-15.734 4.81zM213.085 2.35h16.453v16.454h-16.453V2.35zm2.742 4.195h9.796c.217 0 .392-.238.392-.53 0-.293-.175-.53-.392-.53h-9.796c-.217 0-.392.237-.392.53 0 .292.175.53.392.53zm0 2.35h7.33c.217 0 .393-.237.393-.53 0-.293-.176-.53-.392-.53h-7.331c-.217 0-.392.237-.392.53 0 .293.175.53.392.53zM206.817 14.257v-.294h-3.689v4.536h.196-12.96V2.046h16.453v12.211zm-.163.49l-2.742 3.283v-3.283h2.742zM206.817 34.628v-.294h-3.689v4.536h.196-12.96V22.417h16.453v12.211zm-.163.49l-2.742 3.283v-3.284h2.742z"/>
    </g>
    <path d="M159.185 200.758h19.736M120.794 200.758h19.736M78.528 200.758h26.745M1 200.758h36.284" stroke="#4A4A4A" stroke-linecap="square"/>
  </g>
</svg>
