<svg width="353" height="326" xmlns="http://www.w3.org/2000/svg"><g fill="none" fill-rule="evenodd"><path d="M325.4 150.7V89h-31.8v81.5c0 .4-.3.7-.6.7-.4 0-.7-.3-.7-.7v-61.1l-14-24.6-14 24.7h-.6V68.3h-51V141.7c0 .4-.3.7-.7.7-.4 0-.6-.3-.6-.7v-39.6l-25.2 13.2v55.1c0 .4-.3.7-.6.7-.4 0-.7-.3-.7-.7V77.3h-38.5v53.5c0 .4-.3.7-.7.7-.4 0-.6-.3-.6-.7v-12.4H114V88.6h-2.8c-.2-4.5-4.5-8.1-9.8-8.1-5 0-9.1 3.2-9.7 7.4h6.5c.4 0 .6.3.6.7 0 .4-.3.7-.6.7h-9.4v29.2h-6.3v53l6.3.5v40.8h91.5v.5h145.2l-.1-62.6zm-210.2 21.7c0 .4-.3.7-.6.7-.4 0-.7-.3-.7-.7v-41.6c0-.4.3-.7.7-.7.4 0 .6.3.6.7v41.6z" fill="#EEF2FF" fill-rule="nonzero"/><path fill="#FFF" d="M304.4 213.2v-55.5h35.2v55.5"/><path d="M304.7 213.2V158h34.6v55.2c0 .2.1.3.3.3.2 0 .3-.1.3-.3v-55.5l-.1-.2-.2-.1h-35.2l-.2.1-.1.2v55.5c0 .2.1.3.3.3.2 0 .3-.2.3-.3z" fill="#4A4A4A"/><path fill="#FFF" d="M313.1 158.2h27.7V155h-37.4v3.2h6.4"/><path d="M313.1 158.5h27.6l.2-.1.1-.2V155l-.1-.2-.2-.1h-37.3l-.2.1-.1.2v3.2l.1.2.2.1h6.3c.2 0 .3-.1.3-.3 0-.2-.1-.3-.3-.3h-6v-2.6h36.7v2.6h-27.3c-.2 0-.3.1-.3.3 0 .2.2.3.3.3z" fill="#4A4A4A"/><path fill="#EEF2FF" d="M310.1 162.5h10v9.2h-10zM324.1 162.5h10v9.2h-10zM310.1 174.5h10v9.2h-10zM324.1 174.5h10v9.2h-10zM310.1 186.7h10v9.2h-10zM324.1 186.7h10v9.2h-10zM318.9 204.1h6.3v9.2h-6.3z"/><path fill="#FFF" d="M219.7 213.6h-68.9v-62.9h34.4l.2 3.9h34.3zM185.2 196.6v16.6"/><path d="M184.9 196.6v16.6c0 .2.1.3.3.3.2 0 .3-.1.3-.3v-16.6c0-.2-.1-.3-.3-.3-.2 0-.3.1-.3.3" fill="#4A4A4A"/><path fill="#FFF" d="M157.5 150.4h27.7v4.1"/><path d="M157.5 150.7h27.4v3.7c0 .2.1.3.3.3.2 0 .3-.1.3-.3v-4l-.1-.2-.2-.1h-27.7c-.2 0-.3.1-.3.3 0 .2.1.3.3.3z" fill="#4A4A4A"/><path fill="#FFF" d="M185.1 154.8v58.8h-65.9v-59.4M220 179.2h50.9v34.1H220zM305.3 174.5v38.6h-34.4v-38.6"/><path fill="#FFF" d="M270.9 202.1v-30h33.7v5.6"/><path d="M271.2 202.1v-29.7h33.1v5.3c0 .2.1.3.3.3.2 0 .3-.1.3-.3v-5.6l-.1-.2-.2-.1h-33.7l-.2.1-.1.2v30c0 .2.1.3.3.3.2 0 .3-.2.3-.3z" fill="#4A4A4A"/><path fill="#EEF2FF" d="M276.1 179.2h10.2v9.2h-10.2zM290.9 179.2h10.2v9.2h-10.2z"/><path d="M308.9 200.3c0 4.7-2.5 6.1-5.5 6.1s-5.5-1.4-5.5-6.1c0-4.7 2.5-14.4 5.5-14.4s5.5 9.7 5.5 14.4z" fill="#FFF"/><path d="M308.9 200.3h-.3c0 2.3-.6 3.7-1.5 4.6-.9.9-2.2 1.2-3.7 1.2s-2.8-.3-3.7-1.2c-.9-.9-1.5-2.3-1.5-4.6s.6-5.9 1.6-8.9c.5-1.5 1.1-2.8 1.7-3.8.3-.5.6-.8 1-1.1.3-.2.6-.4.9-.4.3 0 .6.1.9.4 1.1.9 2.3 3.3 3 6 .8 2.7 1.2 5.7 1.2 7.7h.7c0-2.4-.6-6-1.6-9.1-.5-1.5-1.1-2.9-1.8-3.9-.3-.5-.7-.9-1.1-1.2-.4-.3-.8-.5-1.3-.5s-.9.2-1.3.5c-1.4 1.1-2.4 3.6-3.3 6.3-.8 2.8-1.3 5.8-1.3 7.9 0 2.4.6 4 1.7 5s2.5 1.4 4.1 1.4c1.6 0 3-.4 4.1-1.4 1.1-1 1.7-2.6 1.7-5h-.2v.1z" fill="#4A4A4A"/><path fill="#FFF" d="M244.3 187.2h28.6V177.3h-55.3v9.9h16"/><path d="M244.3 187.5h28.6l.2-.1.1-.2V177.3l-.1-.2-.2-.1h-55.3l-.2.1-.1.2v9.9l.1.2.2.1h16c.2 0 .3-.1.3-.3 0-.2-.1-.3-.3-.3h-15.7v-9.3h54.7v9.3h-28.3c-.2 0-.3.1-.3.3 0 .2.2.3.3.3z" fill="#4A4A4A"/><path fill="#FFF" d="M184.8 154.4h35.1v58.8"/><path d="M184.8 154.7h34.8v58.4c0 .2.1.3.3.3.2 0 .3-.1.3-.3v-58.7l-.1-.2-.2-.1h-35c-.2 0-.3.1-.3.3-.1.2.1.3.2.3z" fill="#4A4A4A"/><path fill="#EEF2FF" d="M228.5 199.5h17.1v13.8h-17.1zM195.4 199.5h14.5V213h-14.5zM285.1 204.1h6.7v9.3h-6.7zM190.4 177.3h10v9.2h-10zM205 177.3h10v9.2h-10z"/><path d="M265.4 203.3c0 3.7-2 4.8-4.4 4.8-2.4 0-4.4-1.1-4.4-4.8 0-3.7 2-11.4 4.4-11.4 2.4 0 4.4 7.7 4.4 11.4z" fill="#FFF"/><path d="M265.4 203.3h-.3c0 1.8-.5 2.9-1.2 3.6-.7.7-1.7.9-2.9.9s-2.2-.3-2.9-.9c-.7-.7-1.2-1.8-1.2-3.6s.5-4.6 1.3-7c.4-1.2.9-2.2 1.3-3 .2-.4.5-.7.8-.8.2-.2.5-.3.7-.3.2 0 .4.1.7.3.9.7 1.8 2.6 2.4 4.7.6 2.1 1 4.5 1 6.1h.6c0-1.9-.5-4.8-1.3-7.2-.4-1.2-.9-2.3-1.4-3.1-.3-.4-.6-.7-.9-1-.3-.2-.7-.4-1.1-.4-.4 0-.7.2-1.1.4-1.1.9-2 2.8-2.6 5-.6 2.2-1 4.6-1 6.3 0 1.9.5 3.2 1.4 4 .9.8 2 1.1 3.3 1.1 1.2 0 2.4-.3 3.3-1.1.9-.8 1.4-2.1 1.4-4h-.3z" fill="#4A4A4A"/><path fill="#FFF" d="M64.2 179.9v33.2h-29"/><path d="M64 179.9v33H35.2c-.1 0-.2.1-.2.2s.1.2.2.2h28.9l.1-.1.1-.1v-33.2c0-.1-.1-.2-.2-.2s-.1.1-.1.2z" fill="#4A4A4A"/><path fill="#FFF" d="M110 187.3h3.7v4.9H110zM84.5 163h3.7v5.2h-3.7z"/><path fill="#FFF" d="M94 213H64v-45h29.7l2.2 11.9H94z"/><path fill="#FFF" d="M118.7 213.3H94v-25l24.7 4.3z"/><path d="M93.8 180.2h2.1c.1 0 .2 0 .2-.1l.1-.3L94 168c0-.1-.2-.2-.3-.2h-5.1v-4.7c0-.2-.1-.3-.3-.3-.2 0-.3.1-.3.3v5l.1.2.2.1h5.2l2.1 11.3h-1.7c-.2 0-.3.1-.3.3-.1.1.1.2.2.2zM64.5 179.6h-1.7l2.1-11.3h5.2c.2 0 .3-.1.3-.3 0-.2-.1-.3-.3-.3h-5.4c-.1 0-.3.1-.3.2l-2.2 11.9.1.3c.1.1.1.1.2.1h2.1c.2 0 .3-.1.3-.3-.1-.2-.2-.3-.4-.3zM118.4 180.7v11.6l-4.4-.7v-4.2c0-.2-.1-.3-.3-.3h-3.6l-.2.1-.1.2v3.5l-15.6-2.7c-.2 0-.3.1-.4.3 0 .2.1.3.3.4l16 2.7.2-.1.1-.2v-3.5h3v4.1c0 .1.1.3.3.3l5.1.8.2-.1.1-.2v-11.9c0-.2-.1-.3-.3-.3-.3-.1-.4 0-.4.2zM151.3 213.2h.1l.2-.1.1-.2v-20.6c0-.2-.1-.3-.3-.3-.2 0-.3.1-.3.3v20.6h.3v-.3h-.1c-.2 0-.3.1-.3.3 0 .2.1.3.3.3z" fill="#4A4A4A"/><path d="M63.8 179.9v33.3c0 .2.1.3.3.3.2 0 .3-.1.3-.3v-33.3c0-.2-.1-.3-.3-.3-.2 0-.3.1-.3.3M88.3 162.7h-3.7l-.2.1-.1.2v4.7H65.5c-.2 0-.3.1-.3.3 0 .2.1.3.3.3h19.1l.2-.1.1-.2v-4.7h3.4c.2 0 .3-.1.3-.3 0-.2-.1-.3-.3-.3z" fill="#4A4A4A"/><path d="M64.2 213.1v-33" fill="#FFF"/><path d="M64.5 213.1v-33c0-.2-.1-.3-.3-.3-.2 0-.3.1-.3.3v33c0 .2.1.3.3.3.2 0 .3-.1.3-.3" fill="#4A4A4A"/><path d="M94 180.1v33" fill="#FFF"/><path d="M93.6 180.1v33c0 .2.1.3.3.3.2 0 .3-.1.3-.3v-33c0-.2-.1-.3-.3-.3-.1 0-.3.2-.3.3" fill="#4A4A4A"/><path fill="#EEF2FF" d="M77.2 192v-7.4h-7v7.4M82.5 213.1v-11h-6.9v11M87.9 192v-7.4H81v7.4"/><path d="M85.7 196.6H94" fill="#FFF"/><path fill="#4A4A4A" d="M85.7 196.8H94l.1-.2-.1-.1h-8.3l-.2.1.2.2"/><path d="M64.2 196.6h17.5" fill="#FFF"/><path fill="#4A4A4A" d="M64.2 196.8h17.5l.2-.2-.2-.1H64.2l-.2.1.2.2"/><path fill="#FFF" d="M151.4 159.6v-11.8h-32.7v65.1"/><path d="M151.7 159.6v-11.8l-.1-.2-.2-.1h-32.8l-.2.1-.1.2v65.1c0 .2.1.3.3.3.2 0 .3-.1.3-.3v-64.8h32.2v11.5c0 .2.1.3.3.3.2 0 .3-.2.3-.3z" fill="#4A4A4A"/><path fill="#EEF2FF" d="M126.7 212.9v-10.8h16.6v10.8M126.7 192v-10.8h16.6V192M97.9 213.3v-11.2h16.6v11.2"/><path fill="#FFF" d="M118.7 149.1v-5.4h6.2v4.5"/><path d="M119 149.1V144h5.6v4.2c0 .2.1.3.3.3.2 0 .3-.1.3-.3v-4.5l-.1-.2-.2-.1h-6.3l-.2.1-.1.2v5.4c0 .2.1.3.3.3.3 0 .4-.1.4-.3z" fill="#4A4A4A"/><path fill="#FFF" d="M145.2 148.4v-4.7h6.2v5.4"/><path d="M145.5 148.4V144h5.6v5.1c0 .2.1.3.3.3.2 0 .3-.1.3-.3v-5.4l-.1-.2-.2-.1h-6.2l-.2.1-.1.2v4.7c0 .2.1.3.3.3.2 0 .3-.2.3-.3z" fill="#4A4A4A"/><path d="M133.7 171.3v-11.5c0-2-1.6-3.6-3.6-3.6s-3.6 1.6-3.6 3.6v11.5M144.5 171.3v-11.5c0-2-1.6-3.6-3.6-3.6s-3.6 1.6-3.6 3.6v11.5" fill="#EEF2FF"/><path d="M68.6 168h1.8" fill="#FFF"/><path d="M68.6 168.3h1.8c.2 0 .3-.1.3-.3 0-.2-.1-.3-.3-.3h-1.8c-.2 0-.3.1-.3.3 0 .2.2.3.3.3M72.7 180.2h22.2c.2 0 .3-.1.3-.3 0-.2-.1-.3-.3-.3H72.7c-.2 0-.3.1-.3.3 0 .2.1.3.3.3M63.9 180.2H68c.2 0 .3-.1.3-.3 0-.2-.1-.3-.3-.3h-4.1c-.2 0-.3.1-.3.3 0 .2.1.3.3.3" fill="#4A4A4A"/><path d="M64.2 196.6h4.4" fill="#FFF"/><path fill="#4A4A4A" d="M64.2 196.7h4.4l.2-.1-.2-.1h-4.4l-.2.1.2.1"/><path fill="#EEF2FF" d="M190.4 161.7h10v9.2h-10zM205 161.7h10v9.2h-10z"/><path d="M352 213.3H.3" fill="#FFF"/><path d="M352 213H.3c-.2 0-.3.1-.3.3 0 .2.1.3.3.3H352c.2 0 .3-.1.3-.3 0-.2-.1-.3-.3-.3" fill="#4A4A4A"/><path d="M261.1 208.1v5" fill="#FFF"/><path d="M260.8 208.1v5c0 .2.1.3.3.3.2 0 .3-.1.3-.3v-5c0-.2-.1-.3-.3-.3-.2 0-.3.1-.3.3" fill="#4A4A4A"/><path d="M303.4 206.4v6.8" fill="#FFF"/><path d="M303.1 206.4v6.7c0 .2.1.3.3.3.2 0 .3-.1.3-.3v-6.7c0-.2-.1-.3-.3-.3-.1 0-.3.1-.3.3" fill="#4A4A4A"/><path d="M207.2 210.5l2.3 5.3c.6 1.7.6 3.5-.7 4.6-2.2 1.9-4.3-.8-4.5-2.8 0 0-2.3.6-2.4-1.2-.1-1.8.4-5.4.4-5.4" fill="#FFF"/><path d="M206.8 210.7l2.3 5.3.4-.2-.5.2c.2.7.4 1.3.4 1.9 0 .9-.3 1.6-1 2.2-.5.4-.9.5-1.3.5-.6 0-1.2-.4-1.7-1s-.8-1.4-.9-2c0-.1-.1-.2-.2-.3-.1-.1-.2-.1-.4-.1-.1 0-.4.1-.7.1-.3 0-.6-.1-.8-.2-.2-.1-.3-.3-.3-.7v-.4c0-.9.1-2.1.2-3.1s.2-1.8.2-1.8c0-.2-.1-.5-.4-.5-.2 0-.5.1-.5.4 0 0-.4 3.1-.4 5v.4c0 .7.3 1.2.8 1.4.4.3.9.3 1.3.3.5 0 .9-.1.9-.1l-.1-.4h-.4c.1.8.5 1.7 1.1 2.5.6.7 1.4 1.3 2.4 1.3.6 0 1.2-.2 1.8-.7.9-.8 1.3-1.8 1.3-2.9 0-.7-.2-1.5-.4-2.2l-2.3-5.3c-.1-.2-.3-.3-.6-.2-.2.1-.3.4-.2.6zM159.7 125.2s-.9 8.2-9.2 11.8c-.4.2-.5.6-.3 1 .4.7 1.1 1.7 2.1 2.9l3.6-2.3-2.8 3.3c1.8 1.8 5 4 8.4 4.9l5.5-21.1-7.3-.5z" fill="#4A4A4A"/><path d="M176.8 141.5c-4.3 7-8 7.3-15.4 5.1-8.4-2.6-.2-26.5 2.9-23.4 5.6 5.9 4.9-4.4 10.4-.8 5.6 3.6 6.5 12.1 2.1 19.1z" fill="#FFF"/><path d="M159.5 145.8c-1.2-1.1-1.9-3-2-5.5-.4-6.7 3.1-16.3 5.6-17.5.5-.2 1-.2 1.4.2 1.2 1.2 2.1 1.8 2.9 1.8.8 0 1.5-.8 2.1-1.5 1.1-1.3 2.5-2.9 5.3-1.1 5.6 3.6 6.6 12.4 2.2 19.5-4.5 7.2-8.3 7.4-15.7 5.2-.6-.2-1.2-.6-1.8-1.1zm4.6-22.4c-.2-.2-.4-.2-.7-.1-2.2 1-5.7 10.1-5.3 16.9.1 2.3.9 5.3 3.4 6.1 8.7 2.6 11.6.7 15.1-5 4.3-6.8 3.4-15.3-2-18.7-2.4-1.6-3.5-.3-4.6 1-.7.8-1.5 1.7-2.5 1.7-1 .1-2-.5-3.4-1.9z" fill="#4A4A4A" fill-rule="nonzero"/><path d="M170.1 119c6.7 1.2 12.2 5.5 11.7 15.1-.5 8.7-3 16.7-3.3 16.8-6.7 3-19.1-1.5-18.6-2.1 5.5-5.7 6.4-14.1 6.6-17.1 0-.6-.4-1.2-.9-1.4l-7-2.4c-.8-.3-1.2-1.3-.7-2 1.5-2.6 5.5-8.1 12.2-6.9z" fill="#4A4A4A"/><path d="M164.1 158c-.2-.1-.2-.3-.1-.5.6-1.1 1-3.4 1.3-6.7 0-.4 0-.6.4-.6.1 0 .3 0 .3.4v.2c-.1 1.3-.4 5.1-1.3 6.9-.3.3-.5.3-.6.3zM175.8 157.7c.2-.1.2-.3.1-.5-.6-1.1-1-3.4-1.3-6.7 0-.4 0-.6-.4-.6-.1 0-.3 0-.3.4v.2c.1 1.3.4 5.1 1.3 6.9.3.3.4.4.6.3z" fill="#4A4A4A"/><path d="M120.3 205.1c38.5-21 43.1-34.8 43.1-34.8l-5.6-9c-5.4 15.9-38.6 38.2-38.6 38.2" fill="#5DAF9A"/><path d="M229.1 321.9c0 1.8-29.5 3.2-66 3.2-36.4 0-66-1.4-66-3.2 0-1.8 29.5-3.2 66-3.2 36.4 0 66 1.5 66 3.2z" fill="#C9D3FF"/><path d="M181.9 212.2c-3.3-15.5-27.4-7.3-27.4-7.3s-.6 36.9-29.7 106.4l-12.4-1.4s-2.9-.3-4.6 2c-.3.5-.2 1.1.4 1.4l18.6 8.4c.9.4 2.1.1 2.5-.9.9-2.1 3.5-7.7 7.1-13.3 3.7-5.3 8.6-13.4 11.2-21.8 9.6-30.7 20.7-48.8 20.7-48.8 2.8-1 17.8-4.9 13.6-24.7z" fill="#3D3D3D"/><path d="M217.4 309.6c-.2-1.4-.6-2.8-1.3-3.6-.7-.7-1.7-1.8-2.5-2.8 0 0-3.6-13.6-8.8-21.8-15-24.1-19.2-52.1-19.2-52.1s1.9-24.3-14.2-25.5c-18.5-1.3-18.1 9-18.1 9s13.5 30.7 53.6 95.4c.2 2-.3 4-1.6 5.6l-1.2 1.2c-1.2 1.2-2.8 2-4.5 2.1h-.8s-3.8-.7-3.8 4.7h12.8l4.8-4.8 3.1-2.9c1.3-1.1 1.9-2.8 1.7-4.5z" fill="#4A4A4A"/><path d="M180.8 157.3c-5.1-2.9-11.1-3.9-16.8-2.6-3.8.8-8.8 2.8-11 8.2-2.6 6.4 1 14.4 1 14.4s1.7 14.8-1 34.3c-.4 3.2 5 3 11 1.8l17.9-3.2c.2-2.4-1.1-3.4-2-4.9-.5-.7-1-2.8-1.4-4.9-.6-8.2-.7-20 3.1-25.8 5.3-8.1 20.4 35.5 20.4 35.5l4.9-1.2c-4-33.1-16.8-46.3-26.1-51.6z" fill="#6ACCB6"/><path d="M117.9 200.7l-5.6 2.2c-1.2.5-2.2 1.3-2.9 2.4-.7 1.1-1.1 2.5 0 3.6 2.1 2.2 8.5-1.9 8.5-1.9" fill="#FFF"/><path d="M117.8 200.3l-5.6 2.2c-1.3.5-2.4 1.4-3.1 2.6-.4.6-.7 1.4-.7 2.2 0 .6.2 1.3.8 1.8.5.6 1.3.8 2.1.8 1.5 0 3.2-.7 4.5-1.3 1.4-.6 2.4-1.3 2.4-1.3.2-.1.2-.3.1-.5s-.3-.2-.5-.1c0 0-.1 0-.2.1-.4.2-1.4.8-2.6 1.4-1.2.5-2.6 1-3.7 1-.7 0-1.2-.2-1.6-.6-.4-.4-.6-.9-.6-1.3 0-.6.3-1.2.6-1.8.6-1.1 1.6-1.8 2.8-2.3l5.6-2.2c.2-.1.3-.3.2-.4-.2-.2-.3-.3-.5-.3z" fill="#4A4A4A"/><path d="M68.4 321.8c0 1.8-14.2 3.2-31.8 3.2s-31.8-1.4-31.8-3.2c0-1.8 14.2-3.2 31.8-3.2s31.8 1.5 31.8 3.2z" fill="#C9D3FF"/><path d="M58.1 301.3s6.4-2.7 5.2-13.4c-.2-1.2-1-1.2-1-1.2s-.9 0-.7 1.4c.2 1.4-.6 8.6-6.3 9.2" fill="#4A4A4A"/><path d="M57.2 308.1c1.8 5.6 2.2 5.8 2.6 7 .5 1.2.5 3.9-3.1 4.4" fill="#FFF"/><path d="M56.8 308.2c.9 2.8 1.4 4.3 1.8 5.2.4.9.6 1.2.8 1.8.1.3.2.7.2 1.1 0 .6-.2 1.2-.6 1.7-.4.5-1.2 1-2.4 1.2-.2 0-.3.2-.3.4s.2.3.4.3c1.4-.2 2.3-.7 2.9-1.4.6-.7.8-1.5.8-2.2 0-.5-.1-1-.2-1.3-.2-.7-.5-1-.8-1.9-.4-.9-.9-2.3-1.8-5.1-.1-.2-.2-.3-.4-.2-.3 0-.4.2-.4.4z" fill="#4A4A4A"/><path d="M23 298.1s-5.1 9.4-4.9 13c.2 3.6 3.6 5.5 3.6 5.5" fill="#FFF"/><path d="M22.7 297.9s-1.2 2.3-2.5 5c-.6 1.4-1.2 2.9-1.7 4.2-.5 1.4-.8 2.7-.8 3.7v.3c.1 1.9 1.1 3.3 2 4.3.9 1 1.8 1.5 1.8 1.5.2.1.4 0 .5-.1.1-.2 0-.4-.1-.5-.2-.1-1-.6-1.8-1.5s-1.5-2.1-1.6-3.7v-.2c0-.9.3-2.1.7-3.5.7-2 1.7-4.3 2.6-6.1.4-.9.8-1.6 1.1-2.2.3-.5.4-.9.4-.9.1-.2 0-.4-.1-.5-.2 0-.4.1-.5.2z" fill="#4A4A4A"/><path d="M38.1 258.5c.1-.9-.6-1.7-1.5-1.7-2 .1-4 2.3-6.2 8.5l-20.9-4.6c-1.9-.4-3.6 1.1-3.6 3.1.1 5.3 2.3 14.4 15.2 17.7" fill="#FFF"/><path d="M38.5 258.6v-.2c0-1-.8-1.8-1.8-1.8h-.1c-1.1.1-2.2.7-3.2 2.1-1.1 1.4-2.1 3.5-3.2 6.6l.3.1.1-.3-20.9-4.6c-.2-.1-.5-.1-.7-.1-1.8 0-3.3 1.5-3.3 3.4v.1c.1 2.7.7 6.3 2.9 9.8 2.2 3.4 6.1 6.6 12.6 8.3.2 0 .4-.1.4-.2 0-.2-.1-.4-.2-.4-6.4-1.6-10.1-4.7-12.2-8-2.1-3.3-2.7-6.8-2.8-9.4v-.1c0-.8.3-1.4.8-1.9s1.1-.8 1.8-.8c.2 0 .4 0 .6.1l20.9 4.6c.2 0 .3-.1.4-.2 1.1-3.1 2.1-5.2 3.1-6.4 1-1.3 1.9-1.8 2.7-1.8h.1c.6 0 1.1.5 1.1 1.1v.1c0 .2.1.4.3.4.1-.2.2-.3.3-.5z" fill="#4A4A4A"/><path d="M22.1 281.9s-.7 10.9.9 16.2c1.6 5.2-1.6 19.8-1.6 19.8-1.6.4-1.3 2.9.4 2.9h6.6l2.7-11.4s7 2.6 15.4 1.2l.1 1.2c.2 1.9.9 3.8 2 5.4-2.2.3-2 3.6.2 3.6h6c1.6 0 2.7-1.6 2.1-3.1-.5-1.4-.9-3.2-.6-5 .6-3.2 1.6-7 2-8.6.2-.7.2-1.5.1-2.3-.4-1.7-1.6-4.5-5.7-6.7-6.1-3.2-16.5-8.2-16.5-8.2v-4.1l-.1-13.9" fill="#FFF"/><path d="M21.7 281.9s-.2 2.5-.2 5.7c0 3.5.2 7.8 1.1 10.6.3 1 .5 2.4.5 4.1 0 3.2-.5 7.1-1 10.2-.3 1.5-.5 2.9-.7 3.9l-.3 1.5.3.1-.1-.3c-.9.2-1.4 1-1.3 1.8 0 .5.2.9.5 1.3s.8.6 1.3.6h6.6c.2 0 .3-.1.3-.3l2.7-11.4-.3-.1-.1.3s4.5 1.7 10.5 1.7c1.6 0 3.3-.1 5.1-.4l-.1-.3h-.3l.1 1.2c.2 2 .9 3.9 2 5.5l.3-.2v-.3c-.6.1-1.1.4-1.4.7-.3.4-.5.9-.5 1.4 0 .5.2 1.1.5 1.5.4.4.9.7 1.6.7h6c1.5 0 2.6-1.2 2.6-2.6 0-.3-.1-.6-.2-.9-.4-1-.7-2.3-.7-3.5 0-.4 0-.9.1-1.3.6-3.2 1.6-7 2-8.6.1-.4.2-.9.2-1.3s0-.7-.1-1.1c-.4-1.8-1.7-4.7-5.9-6.9-6.2-3.2-16.5-8.2-16.5-8.2l-.1.3h.3v-4.1l-.1-13.9c0-.2-.2-.3-.3-.3-.2 0-.3.2-.3.3l.1 13.9v4.1c0 .1.1.3.2.3 0 0 .6.3 1.7.8 3.2 1.5 10.1 4.9 14.7 7.3 4 2.1 5.1 4.8 5.5 6.4.1.3.1.6.1.9 0 .4-.1.8-.2 1.2-.4 1.6-1.5 5.5-2 8.7-.1.5-.1 1-.1 1.4 0 1.4.3 2.7.7 3.8.1.2.1.5.1.7 0 .5-.2 1-.6 1.4-.3.4-.8.6-1.4.6h-6c-.5 0-.8-.2-1-.4-.2-.3-.4-.6-.4-1 0-.3.1-.7.3-.9.2-.3.5-.4.9-.5.1 0 .2-.1.3-.2.1-.1 0-.2 0-.3-1.1-1.6-1.7-3.4-1.9-5.2l-.1-1.2c0-.1-.1-.2-.1-.2-.1-.1-.2-.1-.3-.1-1.7.3-3.4.4-5 .4-3 0-5.5-.4-7.4-.8-.9-.2-1.6-.4-2.1-.6-.2-.1-.4-.1-.6-.2-.1 0-.2-.1-.2-.1h-.3c-.1 0-.1.1-.2.2l-2.6 11.1h-6.3c-.4 0-.6-.1-.8-.4-.2-.2-.3-.5-.3-.8 0-.5.3-.9.8-1.1l-.1-.3.1.3c.1 0 .2-.1.3-.3 0 0 2.1-9.2 2.1-15.7 0-1.7-.1-3.1-.5-4.3-.8-2.7-1.1-7-1.1-10.4 0-1.6 0-3 .1-4 0-1 .1-1.6.1-1.6 0-.2-.1-.4-.3-.4-.1-.2-.3-.1-.3.1z" fill="#4A4A4A"/><path fill="#6ACCB6" d="M22 284.1h14.2v2.8H22z"/><path d="M37 266.3l1.5-7.7v-.2c0-1-.8-1.8-1.8-1.8h-.1c-1.1.1-2.2.7-3.2 2.1-1.1 1.4-2.1 3.5-3.2 6.6l.3.1.1-.3-20.9-4.6c-.2-.1-.5-.1-.7-.1-1.8 0-3.3 1.5-3.3 3.4v.1c.1 2.7.7 6.3 2.9 9.8 2.2 3.4 6.1 6.6 12.6 8.3.2 0 .4-.1.4-.2 0-.2-.1-.4-.2-.4-6.4-1.6-10.1-4.7-12.2-8-2.1-3.3-2.7-6.8-2.8-9.4v-.1c0-.8.3-1.4.8-1.9s1.1-.8 1.8-.8c.2 0 .4 0 .6.1l20.9 4.6c.2 0 .3-.1.4-.2 1.1-3.1 2.1-5.2 3.1-6.4 1-1.3 1.9-1.8 2.7-1.8h.1c.6 0 1.1.5 1.1 1.1v.1h.3l-.3-.1-1.5 7.7c0 .2.1.4.3.4.1-.1.2-.2.3-.4zM21.7 281.9s-.2 2.5-.2 5.7c0 3.5.2 7.8 1.1 10.6.3 1 .5 2.4.5 4.1 0 3.2-.5 7.1-1 10.2-.3 1.5-.5 2.9-.7 3.9l-.3 1.5.3.1-.1-.3c-.9.2-1.4 1-1.3 1.8 0 .5.2.9.5 1.3s.8.6 1.3.6h6.6c.2 0 .3-.1.3-.3l2.7-11.4-.3-.1-.1.3s4.5 1.7 10.5 1.7c1.6 0 3.3-.1 5.1-.4l-.1-.3h-.3l.1 1.3c.2 2 .9 3.8 2 5.5l.3-.2v-.3c-.6.1-1.1.4-1.4.7-.3.4-.5.9-.5 1.4 0 .5.2 1.1.5 1.5.4.4.9.7 1.6.7h6c1.5 0 2.6-1.2 2.6-2.6 0-.3-.1-.6-.2-.9-.4-1-.7-2.3-.7-3.5 0-.4 0-.9.1-1.3.6-3.2 1.6-7 2-8.6.1-.4.2-.9.2-1.3s0-.7-.1-1.1c-.4-1.8-1.7-4.7-5.9-6.9-6.2-3.2-16.5-8.2-16.5-8.2l-.1.3h.3v-4.1l-.1-9.9c0-.2-.2-.3-.3-.3-.2 0-.3.2-.3.3l.1 9.9v4.1c0 .1.1.3.2.3 0 0 .6.3 1.7.8 3.2 1.5 10.1 4.9 14.7 7.3 4 2.1 5.1 4.8 5.5 6.4.1.3.1.6.1.9 0 .4-.1.8-.2 1.2-.4 1.6-1.5 5.5-2 8.7-.1.5-.1 1-.1 1.4 0 1.4.3 2.7.7 3.8.1.2.1.5.1.7 0 .5-.2 1-.6 1.4-.3.4-.8.6-1.4.6h-6c-.5 0-.8-.2-1-.4-.2-.3-.4-.6-.4-1 0-.3.1-.7.3-.9.2-.3.5-.4.9-.5.1 0 .2-.1.3-.2v-.3c-1-1.5-1.7-3.3-1.9-5.2l-.1-1.3c0-.1-.1-.2-.1-.2-.1-.1-.2-.1-.3-.1-1.7.3-3.4.4-5 .4-3 0-5.5-.4-7.4-.8-.9-.2-1.6-.4-2.1-.6-.2-.1-.4-.1-.6-.2-.1 0-.2-.1-.2-.1h-.3c-.1 0-.1.1-.2.2l-2.6 11.1h-6.3c-.4 0-.6-.1-.8-.4-.2-.2-.3-.5-.3-.8 0-.5.3-.9.8-1.1l-.1-.3.1.3c.1 0 .2-.1.3-.3 0 0 2.1-9.2 2.1-15.7 0-1.7-.1-3.1-.5-4.3-.8-2.7-1.1-7-1.1-10.4 0-1.6 0-3 .1-4 0-1 .1-1.6.1-1.6 0-.2-.1-.4-.3-.4-.1-.2-.3-.1-.3.1z" fill="#4A4A4A"/><path d="M9.3 260.9s0 2.9-3.4 2c.1-.3.6-1.6 1.9-1.9 1.2-.3 1.5-.1 1.5-.1z" fill="#4A4A4A"/><path d="M37.9 285.9s39.2-40.5 71.7-76.9c.1-.1.1-.4 0-.5-.1-.1-.4-.1-.5 0-16.2 18.2-34.2 37.4-48 52-6.9 7.3-12.8 13.5-17 17.9-2.1 2.2-3.7 3.9-4.9 5.1-1.1 1.2-1.7 1.8-1.7 1.8-.1.1-.1.4 0 .5.1.3.3.3.4.1z" fill="#C9D3FF"/><path d="M193 0c-7.4 0-13.6 5-15.3 11.9-.8-.3-1.6-.4-2.5-.4-4 0-7.3 3.3-7.3 7.3 0 .5 0 1 .1 1.4h54.8c0-3.2-2.6-5.9-5.9-5.9-.9 0-1.8.2-2.6.6-1.3-2-3.6-3.4-6.1-3.4h-.1C206.3 4.8 200.2 0 193 0" fill="#EFF2FF"/></g></svg>