<svg width="363" height="319" xmlns="http://www.w3.org/2000/svg"><g fill="none" fill-rule="evenodd"><path fill="#FFF" d="M291.7 142.8V163h1.3v-20.2"/><path d="M292.3 170.2v-67.7l-43.7-14.6v36.2h-25.3V87.9l-20-13.5-19 12.9h21.9c.4 0 .7.3.7.7 0 .4-.3.7-.7.7h-22.8V111h-30.2V66.7h-7.3v-6.2h-36.6V66h22.2v1.3H102v31.8H75.9V87.9H34v91.2" fill="#EEF2FF"/><path fill="#FFF" d="M136.8 146.1h36.6v60.5h-36.6zM102 165.2h34.7v41.4H102z"/><path fill="#4A4A4A" d="M136.7 206.6v-.3h-34.4v-40.8h34v41.1h.4v-.3.3h.3v-41.4l-.1-.2-.2-.1H102l-.2.1-.1.2v41.4l.1.2.2.1h34.7l.2-.1.1-.2z"/><path d="M116.3 185.8h8.4" fill="#FFF"/><path fill="#4A4A4A" d="M116.3 186h8.4l.1-.2-.1-.1h-8.4l-.2.1.2.2"/><path d="M102 185.8h5.5" fill="#FFF"/><path fill="#4A4A4A" d="M102 186h5.5l.1-.2-.1-.1H102l-.1.1.1.2"/><path fill="#EEF2FF" d="M106.9 171.4h10v9.2h-10zM121.5 171.4h10v9.2h-10zM115.4 197.1h6.3v9.5h-6.3z"/><path d="M117.3 193.3c0 4.7-2.5 6.1-5.5 6.1s-5.5-1.4-5.5-6.1c0-2 .4-4.9 1.2-7.5 1-3.6 2.6-6.9 4.3-6.9 3.1 0 5.5 9.7 5.5 14.4z" fill="#FFF"/><path d="M117.3 193.3h-.3c0 2.3-.6 3.7-1.5 4.6-.9.9-2.2 1.2-3.7 1.2s-2.8-.3-3.7-1.2c-.9-.9-1.5-2.3-1.5-4.6 0-1.9.4-4.8 1.2-7.4.5-1.8 1.1-3.5 1.9-4.7.4-.6.7-1.1 1.1-1.4.4-.3.7-.5 1.1-.5.3 0 .6.1.9.4 1.1.9 2.3 3.3 3 6 .8 2.7 1.2 5.7 1.2 7.7h.6c0-2.4-.6-6-1.6-9.1-.5-1.5-1.1-2.9-1.8-3.9-.3-.5-.7-.9-1.1-1.2-.4-.3-.8-.5-1.3-.5s-1 .2-1.5.6c-1.3 1.2-2.4 3.7-3.1 6.5-.7 2.7-1.2 5.6-1.2 7.6 0 2.4.6 4 1.7 5s2.5 1.4 4.1 1.4c1.6 0 3-.4 4.1-1.4 1.1-1 1.7-2.6 1.7-5h-.3v-.1z" fill="#4A4A4A"/><path d="M111.8 199.4v7.1" fill="#FFF"/><path d="M111.6 199.4v7.1c0 .1.1.2.2.2s.2-.1.2-.2v-7.1c0-.1-.1-.2-.2-.2s-.2.1-.2.2" fill="#4A4A4A"/><path fill="#FFF" d="M158.5 146.1h-21.7v13.7"/><path d="M158.5 145.8h-21.7l-.2.1-.1.2v13.7c0 .2.1.3.3.3.2 0 .3-.1.3-.3v-13.4h21.4c.2 0 .3-.1.3-.3 0-.2-.2-.3-.3-.3z" fill="#4A4A4A"/><path d="M162.9 206.3V194c0-3.9-3.2-7.2-7.2-7.2s-7.2 3.2-7.2 7.2v12.3" fill="#EEF2FF"/><path fill="#FFF" d="M66.9 166.6v-23H102V206.6H66.9"/><path d="M67.2 166.6v-22.7h34.4V206.7h.3v-.3h-35c-.2 0-.3.1-.3.3 0 .2.1.3.3.3h35l.2-.1.1-.2V143.6l-.1-.2-.2-.1h-35l-.2.1-.1.2v23c0 .2.1.3.3.3.2 0 .3-.1.3-.3z" fill="#4A4A4A"/><path fill="#EEF2FF" d="M80 195.1h8.9v11.5H80zM187.3 195.1h8.9v11.5h-8.9z"/><path fill="#FFF" d="M127.6 165.9H138v-3.2h-37.3v3.2h1.3"/><path d="M127.6 166.2H138l.2-.1.1-.2v-3.2l-.1-.2-.2-.1h-37.3l-.2.1-.1.2v3.2l.1.2.2.1h1.3c.2 0 .3-.1.3-.3 0-.2-.1-.3-.3-.3h-1V163h36.7v2.6h-10.1c-.2 0-.3.1-.3.3 0 .2.1.3.3.3z" fill="#4A4A4A"/><path fill="#FFF" d="M65.8 140.3h37.3v3.2H65.8z"/><path fill="#4A4A4A" d="M103.1 140.3v-.3H65.8l-.2.1-.1.2v3.3l.1.2.2.1h37.3l.2-.1.1-.2v-3.3l-.1-.2-.2-.1v.3h-.3v3H66.1v-2.7h37v-.3h-.3z"/><path fill="#EEF2FF" d="M72.1 149.4h10v9.2h-10zM86.8 149.4h10v9.2h-10zM72.1 162.4h10v9.2h-10zM86.8 162.4h10v9.2h-10zM143.1 154h9.8v9.2h-9.8zM157.4 154h9.8v9.2h-9.8z"/><path fill="#FFF" d="M18.3 206.5v-27.1h48.6v27.1"/><path d="M18.6 206.5v-26.8h48.1v26.8c0 .2.1.3.3.3.2 0 .3-.1.3-.3v-27.1l-.1-.2-.2-.1H18.3l-.2.1-.1.2v27.1c0 .2.1.3.3.3.2 0 .3-.2.3-.3z" fill="#4A4A4A"/><path fill="#FFF" d="M27.3 182.2h40.8v7.7h-51v-7.7h4.1"/><path d="M27.3 182.5h40.5v7.1H17.4v-7.1h3.7c.2 0 .3-.1.3-.3 0-.2-.1-.3-.3-.3H17l-.2.1-.1.2v7.7l.1.2.2.1h50.9l.2-.1.1-.2v-7.7l-.1-.2-.2-.1H27.3c-.2 0-.3.1-.3.3 0 .2.1.3.3.3z" fill="#4A4A4A"/><path fill="#EEF2FF" d="M24.1 195.1h18.5v11.5H24.1z"/><path fill="#FFF" d="M218.6 206.4h-33.4l-.1-49.9h33.5z"/><path fill="#FFF" d="M220.2 166.1v-15.4h-35.1v5.8"/><path d="M220.5 166.1v-15.3l-.1-.2-.2-.1h-35l-.2.1-.1.2v5.7c0 .2.1.3.3.3.2 0 .3-.1.3-.3v-5.4h34.4v15c0 .2.1.3.3.3.1 0 .3-.2.3-.3z" fill="#4A4A4A"/><path fill="#FFF" d="M184.2 148h37v3.2h-37z"/><path fill="#FFF" d="M184.8 148h36.5v3.3"/><path d="M184.8 148.3H221v2.9c0 .2.1.3.3.3.2 0 .3-.1.3-.3V148l-.1-.2-.2-.1h-36.6c-.2 0-.3.1-.3.3 0 .2.2.3.4.3z" fill="#4A4A4A"/><path d="M197.3 206.3h12.1v-13.4c0-3.3-2.7-6.1-6.1-6.1-3.3 0-6.1 2.7-6.1 6.1v13.4h.1z" fill="#EEF2FF"/><path d="M221.3 151.3h-35.1" fill="#FFF"/><path d="M221.3 151h-35.1c-.2 0-.3.1-.3.3 0 .2.1.3.3.3h35.1c.2 0 .3-.1.3-.3 0-.2-.1-.3-.3-.3" fill="#4A4A4A"/><path fill="#EEF2FF" d="M190.8 155.7h9.3v10.7h-9.3zM204.9 155.7H215v10.7h-10.1z"/><path fill="#FFF" d="M218.5 167.5h35.4v39.1h-35.4z"/><path fill="#FFF" d="M253.8 206.2v-41.1h-22.7"/><path d="M254.1 206.2v-41.1l-.1-.2-.2-.1H231c-.2 0-.3.1-.3.3 0 .2.1.3.3.3h22.5v40.8c0 .2.1.3.3.3.2 0 .3-.1.3-.3z" fill="#4A4A4A"/><path fill="#EEF2FF" d="M238.5 172.2h10.2v9.2h-10.2zM223.6 172.2h10.2v9.2h-10.2z"/><path fill="#FFF" d="M263 180.3h-9.2v-10h53.3v10h-35.7"/><path d="M263 180h-8.8v-9.3h52.7v9.3h-35.4c-.2 0-.3.1-.3.3 0 .2.1.3.3.3h35.7l.2-.1.1-.2v-9.9l-.1-.2-.2-.1h-53.3l-.2.1-.1.2v9.9l.1.2.2.1h9.1c.2 0 .3-.1.3-.3 0-.2-.2-.3-.3-.3z" fill="#4A4A4A"/><path fill="#EEF2FF" d="M271.1 192.6h17.1v13.8h-17.1zM232.9 197.1h6.7v9.3h-6.7z"/><path d="M259.3 196.3c0 3.7 2 4.8 4.4 4.8 2.4 0 4.4-1.1 4.4-4.8 0-3.7-2-11.4-4.4-11.4-2.4 0-4.4 7.7-4.4 11.4z" fill="#FFF"/><path d="M259.3 196.3h-.3c0 1.9.5 3.2 1.4 4 .9.8 2 1.1 3.3 1.1 1.2 0 2.4-.3 3.3-1.1.9-.8 1.4-2.1 1.4-4s-.5-4.8-1.3-7.2c-.4-1.2-.9-2.3-1.4-3.1-.3-.4-.6-.7-.9-1-.3-.2-.7-.4-1.1-.4-.4 0-.7.2-1.1.4-1.1.9-2 2.8-2.6 5-.6 2.2-1 4.6-1 6.3h.6c0-1.8.5-4.6 1.3-7 .4-1.2.9-2.2 1.3-3 .2-.4.5-.7.8-.8.2-.2.5-.3.7-.3.2 0 .4.1.7.3.9.7 1.8 2.6 2.4 4.7.6 2.1 1 4.5 1 6.1 0 1.8-.5 2.9-1.2 3.6-.7.7-1.7.9-2.9.9s-2.2-.3-2.9-.9c-.7-.7-1.2-1.8-1.2-3.6h-.3z" fill="#4A4A4A"/><path d="M253.7 187.3H239" fill="#FFF"/><path fill="#4A4A4A" d="M253.7 187.2H239l-.2.1.2.2h14.7l.2-.2-.2-.1"/><path d="M253.9 167.5h-22.4" fill="#FFF"/><path fill="#4A4A4A" d="M253.9 167.3h-22.4l-.2.2.2.2h22.4l.1-.2-.1-.2"/><path d="M263.7 201.2v5" fill="#FFF"/><path d="M263.4 201.2v5c0 .2.1.3.3.3.2 0 .3-.1.3-.3v-5c0-.2-.1-.3-.3-.3-.2 0-.3.1-.3.3" fill="#4A4A4A"/><path d="M218.8 181.7v24.5" fill="#FFF"/><path d="M218.5 181.7v24.5c0 .2.1.3.3.3.2 0 .3-.1.3-.3v-24.5c0-.2-.1-.3-.3-.3-.2 0-.3.2-.3.3" fill="#4A4A4A"/><path d="M.3 206.6h362.3" fill="#FFF"/><path d="M.3 206.9h362.3c.2 0 .3-.1.3-.3 0-.2-.1-.3-.3-.3H.3c-.2 0-.3.1-.3.3 0 .2.1.3.3.3" fill="#4A4A4A"/><path d="M305.5 180.4v26.1" fill="#FFF"/><path d="M305.1 180.4v26.1c0 .2.1.3.3.3.2 0 .3-.1.3-.3v-26.1c0-.2-.1-.3-.3-.3-.1 0-.3.1-.3.3" fill="#4A4A4A"/><path fill="#FFF" d="M168.2 140.4l10.2-1.6-2.5-12.2-9.2 2z"/><path d="M251.6 314.9c0 1.8-27.4 3.3-61.2 3.3-33.8 0-61.2-1.5-61.2-3.3 0-1.8 27.4-3.3 61.2-3.3 33.8 0 61.2 1.5 61.2 3.3z" fill="#C9D3FF"/><path d="M167.7 129.1c4.7 4.2 9.6 6.7 16.1 2.5 7.9-5.2-5.3-29.8-7.7-25.6-4.3 7.8-6.8-2.7-11.6 2.7s-3.4 14.5 3.2 20.4z" fill="#FFF"/><path d="M177.7 133.8c-.1 0-.3-.1-.3-.2 0-.2.1-.3.2-.3l.3-.1c1.5-.3 4.3-.9 5.6-1.8.6-.4 1.2-.9 1.5-1.6.9-1.5.8-3.5.6-6-.2-3.9-1.5-8.3-3.6-12.1-1.8-3.3-3.9-5.6-5.4-5.8-.5-.1-.9.1-1.1.5-.9 1.7-1.8 2.6-2.8 2.9-1 .3-2-.4-2.9-1-1.5-1-3.3-2.1-5.5.4-.1.1-.3.1-.4 0-.1-.1-.1-.3 0-.4 2.6-2.9 4.7-1.5 6.3-.5.9.6 1.7 1.1 2.5.9.7-.2 1.6-1.1 2.4-2.6.4-.6.9-.9 1.7-.8 1.6.2 3.8 2.6 5.8 6.1 2.1 3.8 3.4 8.3 3.7 12.3.1 2.6.3 4.7-.7 6.4-.4.7-1 1.3-1.7 1.8-1.4.9-4.3 1.5-5.8 1.9h-.4z" fill="#4A4A4A"/><path d="M183.7 111c-1.4 1.2-1.2 1.5-4.6 2.1 0 0-4.2.3-4.1 4.2 0 3.4.3 5.4.3 5.8l-.1.1-.7.2c-1.3.3-2.6-.8-2.4-2.2l.1-.7c.1-.5-.2-1.1-.7-1.3l-.3-.1c-1.7-.7-3.6.7-3.4 2.5l1.1 4.8c.2 2.2-2.3 3.5-4 2.2-1.9-1.5-4.7-5.1-5.6-7.7-2.2-5.9-.4-13.3 5.2-16 5.9-2.8 9.9-3.4 12.3-3.9 0 0 .8-.4 3 0 4.3.9 7.2 7.1 3.9 10z" fill="#4A4A4A"/><path d="M167.7 137.5l-1-9.3" fill="#FFF"/><path d="M167.7 137.8c-.1 0-.3-.1-.3-.3l-1-9.3c0-.2.1-.3.3-.3.2 0 .3.1.3.3l1 9.3c0 .1-.1.3-.3.3z" fill="#4A4A4A"/><path d="M228.6 165.2s-3.7 0-5.1-.4c-1.4-.4-2.8 0-2.8 0l-3.3 2v5.3h4.8s3.8-1.7 4-1.9c.2-.4 2.4-5 2.4-5z" fill="#FFF"/><path d="M218.2 166.9c.5-.5 1.7-2.8 4.1-2.3 2.4.5 2.8.2 2.8.2" fill="#FFF"/><path d="M218.2 167.2l-.2-.1c-.1-.1-.1-.3 0-.4.1-.1.2-.2.3-.4.6-.8 1.9-2.5 4.1-2.1 2.1.4 2.6.2 2.6.2l.3.5c-.1.1-.7.3-3-.2-1.8-.4-2.8 1-3.5 1.8-.1.2-.2.3-.3.4l-.3.3z" fill="#4A4A4A"/><path d="M217.4 175.1s7 1.2 9.7-1c2.7-2.2 2.5-7.4 2.5-7.4" fill="#FFF"/><path d="M221.5 175.7h-.2c-2.1 0-3.8-.3-3.9-.3-.2 0-.3-.2-.2-.3 0-.2.2-.3.3-.2.1 0 6.9 1.1 9.5-1 2.6-2.1 2.4-7.1 2.4-7.2 0-.2.1-.3.3-.3.2 0 .3.1.3.3 0 .1.1 1.4-.2 3-.4 2.2-1.2 3.8-2.4 4.7-1.3.8-3.2 1.3-5.9 1.3z" fill="#4A4A4A"/><path d="M159.2 308.9l-13.3-3.4c-.5-.1-1-.3-1.5-.6L177 232l-13.5-23s-6.6 30.6-10.6 46.5c-3.2 7.1-7.2 8.7-10.4 22.8-1.6 7.1-3.1 15.3-4.3 21.5-.2.4-.3 1.1-.5 1.9-1.1 6.1-1.4 7.9-1.5 9.8 0 .9.8 1.6 1.7 1.6l23.3-.2c.5 0 .9-.4.8-.9-.4-2.2-2.8-3.1-2.8-3.1z" fill="#3D3D3D"/><path d="M224.9 168.5l-.7-.5c-.2-.2-.3-.5-.1-.7l9.2-13.4c.2-.2.5-.3.7-.1l.7.5c.2.2.3.5.1.7l-9.2 13.4c-.1.2-.5.2-.7.1z" fill="#5F4DD5"/><path d="M240.4 307.9c-1.1-2.1-3.7-2.2-3.7-2.2l-13.7.8c-1.1.1-2.1-.1-3.1-.6l-29.6-108.4h-25.1s-6.4 10.1-1.7 20.2c4.7 10 27 37.9 29.8 42.8 2.8 5 4.7 22.8 10.8 32.6 5.7 9.3 10.9 19.6 10.9 19.6l.1-.1c.3 1.1.5 1.9.7 2.5.2.8 1.2 1.3 2.1 1L240 309c.4-.2.6-.7.4-1.1z" fill="#4A4A4A"/><path d="M217.4 173.6v-6.7l-29.5 8.7c-.2-2.7-.3-5.2-.3-7.1 0-6.8 0-16.1-5.4-26.4-5.4-10.5-11.6-7.6-11.6-7.6s-10.6 2.6-12.4 24.9c-1.4 18.4 4.5 33 6.3 36.9l.6 1.1s18.2 1.6 22.6 3.8c2.9 1.5 3.6.3 3.8-.6.1-.5 0-.9-.1-1.4 0 0-.8-1.6-1.3-3.3-.3-2.1-.7-6.1-1.2-10.6l28.5-11.7z" fill="#C9D3FF"/><path d="M179.2 189c-1.4 0-2.8-.4-4-1.1-1.2-.7-2.1-1.7-2.7-3l-10.1-23c-.1-.1 0-.3.2-.4.1-.1.3 0 .4.2l10.1 23c.6 1.1 1.4 2.1 2.5 2.7 1.9 1.2 4.2 1.4 6.3.5l3.1-1.3c.1-.1.3 0 .4.2.1.1 0 .3-.2.4l-3.1 1.3c-1 .3-2 .5-2.9.5zM181.5 177.7c-.3 0-.5-.1-.7-.2-.4-.3-.7-.8-.8-1.5l-2.6-18.8c0-.2.1-.3.2-.3.2 0 .3.1.3.2l2.6 18.8c.1.5.3.9.5 1.1.2.1.5.2.8.1.2 0 .3 0 .4.2 0 .2 0 .3-.2.4h-.5z" fill="#4A4A4A"/><path d="M77.6.2c-4.7 0-8.7 3.2-9.9 7.6-.5-.2-1-.3-1.6-.3-2.6 0-4.7 2.1-4.7 4.7 0 .3 0 .6.1.9h35.3c0-2.1-1.7-3.8-3.8-3.8-.6 0-1.2.1-1.6.4-.8-1.3-2.3-2.2-4-2.2h-.1C86.1 3.3 82.2.2 77.6.2M226.6 5.8c-6.1 0-11.3 4.1-12.9 9.7h-.1c-2.2 0-4.1 1.1-5.2 2.9-.7-.3-1.4-.5-2.2-.5-2.7 0-5 2.2-5 5h46.5c.1-.4.1-.8.1-1.2 0-3.4-2.8-6.2-6.2-6.2-.7 0-1.4.1-2.1.4-1.4-5.8-6.6-10.1-12.9-10.1" fill="#EFF2FF"/></g></svg>