<svg width="366" height="191" xmlns="http://www.w3.org/2000/svg"><g fill="none" fill-rule="evenodd"><path d="M271.68 99.07h33.13a.45.45 0 0 0 .47-.47V88.3a.5.5 0 0 0-.47-.46h-38.9l-.05-.89-18.22.56V88a.34.34 0 0 0-.09.23v10.3a.5.5 0 0 0 .46.47h5.55v.18a.42.42 0 0 0-.14.33v10.3a.39.39 0 0 0 .14.32h-2.89v.28a.45.45 0 0 0-.14.33v10.3a.5.5 0 0 0 .47.46h5.31v10.58h-3.08v.32a.57.57 0 0 0-.14.38v10.57h-2.75v.28a.57.57 0 0 0-.14.38v10.81c0 .267.204.49.47.51h2.89a.48.48 0 0 0-.47.51v9.79h-2.75v.28a.42.42 0 0 0-.14.32v10.39a.51.51 0 0 0 .47.47h2.56a.45.45 0 0 0-.14.33v10.18c0 .232.188.42.42.42h48.92a.42.42 0 0 0 .42-.42v-10.11a.39.39 0 0 0-.28-.37h4.94a.44.44 0 0 0 .33-.14H345v-11.42h-4.8v-10.43h-32.36a.45.45 0 0 0 .14-.33v-10.25h2.42a.48.48 0 0 0 .47-.51v-11.28a.63.63 0 0 0-.1-.28h2.8a.44.44 0 0 0 .43-.48v-10.51a.51.51 0 0 0-.47-.47h-5.31v-10.25a.51.51 0 0 0-.47-.47h2.89a.44.44 0 0 0 .47-.46M207.85 140.47V128.8a.541.541 0 0 0-.16-.4v-.3h-3v-11.42a.59.59 0 0 0-.15-.41v-.35h-3.33V104.5H207a.54.54 0 0 0 .5-.5V92.88a.45.45 0 0 0-.15-.35v-.31h-3.12a.45.45 0 0 0 .15-.35V80.75a.45.45 0 0 0-.15-.35v-.2h-61.69a.54.54 0 0 0-.5.5v11.12a.48.48 0 0 0 .5.51h3.12a.54.54 0 0 0-.5.5V104h-5.74a.54.54 0 0 0-.5.5v11.37a.47.47 0 0 0 .5.5h3a.75.75 0 0 0-.1.31v6.23a.52.52 0 0 0 .5.56h2.62v22.14c0 .15 0-.26.15-.16l-34.92-.5v7.25h-5.18v24.64l98.76-.49a.46.46 0 0 0 .46-.46v-10.96a.46.46 0 0 0-.15-.36h2.76a.55.55 0 0 0 .51-.5V152.8a.43.43 0 0 0-.16-.35v-.3h-3v-10.57a.52.52 0 0 0-.51-.55h3.12a.56.56 0 0 0 .57-.56z" fill="#EFF2FF"/><ellipse fill="#C8D2FF" transform="rotate(-.08 261.195 185.599)" cx="261.195" cy="185.599" rx="95.68" ry="4.74"/><path d="M.87 177.07h216.94" stroke="#4A4A4A" stroke-linecap="round" stroke-linejoin="round"/><path d="M315.88 177.07h49.71" stroke="#4A4A4A" stroke-width=".67" stroke-linecap="round" stroke-linejoin="round"/><path d="M340.3 62.91c-.65 1.31-8.56 12-13.69 37.85L304.3 96c0-.09 1.07-26.41 6.45-42.13 0 0 14.94-7.57 29.81 6.42 1.3 1.23.56 2.27-.14 2.33-.04.11-.07.2-.12.29z" fill="#6883FE"/><path d="M301 120l6.56 19.33 1.83 37.51 5.14-.3 3.3-17.93a86.09 86.09 0 0 0 1-15l8.29-45-29.38-2.7L301 120zM321.93 29.9a25.07 25.07 0 0 1-9.7 10.1.58.58 0 0 0-.17.87 17.29 17.29 0 0 0 2.08 2.18l2.86-2.33-2 3a15 15 0 0 0 7.09 3.07l6.06-17.41-6.22.52z" fill="#4A4A4A"/><path d="M330.51 56.07s-2 2.65-4.64 2.22c-2.64-.43-3.4-3.56-3.4-3.56l2.23-5.1.3-1.23" fill="#FCFCFC"/><path d="M330.51 56.07a15.94 15.94 0 0 1-.61-7.26 14.43 14.43 0 0 0 6.38-7.41c2.52-6.08 1.17-12.41-3-14.14-4.17-1.73-8.43 2-10.95 8.08-2.52 6.08-2.34 12.22 1.84 14 .273.11.554.2.84.27" fill="#FCFCFC"/><path d="M330.51 56.41a.33.33 0 0 1-.32-.22 16.06 16.06 0 0 1-.63-7.43.36.36 0 0 1 .18-.25 14.11 14.11 0 0 0 6.26-7.24 14.61 14.61 0 0 0 1-8.5 6.79 6.79 0 0 0-3.8-5.19 5.58 5.58 0 0 0-5.76 1.06 16.84 16.84 0 0 0-4.74 6.83c-2.18 5.27-2.6 11.74 1.65 13.5.256.106.52.19.79.25a.344.344 0 1 1-.16.67 5.8 5.8 0 0 1-.89-.29c-3.39-1.4-5.33-6.39-2-14.39a17.34 17.34 0 0 1 5-7.11 6.25 6.25 0 0 1 6.44-1.16 7.47 7.47 0 0 1 4.21 5.69c.558 3 .21 6.099-1 8.9a14.9 14.9 0 0 1-6.53 7.47 15.54 15.54 0 0 0 .62 6.91.36.36 0 0 1-.2.44l-.12.06z" fill="#4A4A4A"/><path d="M343.07 38.17c-.59-8.13-3.94-11.25-7.52-12.5-3.11-1.09-9.06-3.45-13.62 4.23l.79 2.35s4.37-.92 9.48 3.52c0 0-.4 9-5.48 15.55-.28.37 3.4 1.5 7.71 1.57l1.57-4.26-.9 5.29a19.81 19.81 0 0 0 5-1.71 27.17 27.17 0 0 0 2.97-14.04z" fill="#4A4A4A"/><circle fill="#4A4A4A" cx="336.79" cy="41.07" r="2.61"/><path d="M313.75 174.51s3.43 5.53 3.17 7.79c-.18 1.51-1.72 3.31-4.46 3.29-2.58 0-3.72.38-4.66-4.4-1-5.26 0-7.2 0-7.2l5.95.52z" fill="#4A4A4A"/><ellipse fill="#C8D2FF" transform="rotate(-.08 99.454 185.184)" cx="99.454" cy="185.184" rx="71.62" ry="3.55"/><path d="M295.15 41.54H186.31a.79.79 0 0 1-.8-.79V22a.79.79 0 0 1 .8-.79h108.84a.79.79 0 0 1 .79.79v18.75a.81.81 0 0 1-.79.79z" stroke="#4A4A4A" fill="#FFF" stroke-linecap="round" stroke-linejoin="round"/><path fill="#C8D2FF" opacity=".5" d="M256.83 21.1h39.09v20.41h-39.09z"/><path d="M224.56 37.16V24.91M218.08 37.16V24.91M211.65 37.16V24.91M205.18 37.16V24.91M198.7 37.16V24.91M192.27 41.16V28.91M243.9 37.16V24.91M237.47 37.16V24.91M230.99 37.16V24.91M224.56 37.16V24.91M256.85 37.16V24.91M250.37 37.16V24.91M289.3 37.16V24.91" stroke="#4A4A4A" stroke-width=".5" stroke-linecap="round" stroke-linejoin="round"/><path d="M295.15 41.54H186.31a.79.79 0 0 1-.8-.79V22a.79.79 0 0 1 .8-.79h108.84a.79.79 0 0 1 .79.79v18.75a.81.81 0 0 1-.79.79z" stroke="#4A4A4A" stroke-linecap="round" stroke-linejoin="round"/><path d="M317.84 62H209a.79.79 0 0 1-.79-.79V42.38a.78.78 0 0 1 .79-.79h108.88a.79.79 0 0 1 .8.79v18.78a.84.84 0 0 1-.84.84z" stroke="#4A4A4A" fill="#FFF" stroke-linecap="round" stroke-linejoin="round"/><path fill="#C8D2FF" opacity=".5" d="M292.49 41.68h26.19v20.31h-26.19z"/><path d="M247.3 57.61V45.36M240.82 57.61V45.36M234.34 57.61V45.36M227.91 57.61V45.36M221.44 57.61V45.36M215.01 57.61V45.36M266.63 57.61V45.36M260.2 57.61V45.36M253.73 57.61V45.36M247.3 57.61V45.36M292.49 57.61V45.36M286.01 57.61V45.36M279.54 57.61V45.36M273.11 57.61V45.36" stroke="#4A4A4A" stroke-width=".5" stroke-linecap="round" stroke-linejoin="round"/><path d="M317.84 62H209a.79.79 0 0 1-.79-.79V42.38a.78.78 0 0 1 .79-.79h108.88a.79.79 0 0 1 .8.79v18.78a.84.84 0 0 1-.84.84z" stroke="#4A4A4A" stroke-linecap="round" stroke-linejoin="round"/><path d="M309.68 82.4H200.84a.79.79 0 0 1-.79-.79V62.83a.79.79 0 0 1 .79-.79h108.84a.79.79 0 0 1 .8.79v18.78a.82.82 0 0 1-.8.79z" stroke="#4A4A4A" fill="#FFF" stroke-linecap="round" stroke-linejoin="round"/><path fill="#C8D2FF" opacity=".5" d="M278.43 61.95h32.05v20.41h-32.05z"/><path d="M239.1 78.02V65.77M232.62 78.02V65.77M226.19 78.02V65.77M219.71 78.02V65.77M213.28 78.02V65.77M206.81 78.02V65.77M258.48 78.02V65.77M252 78.02V65.77M245.53 78.02V65.77M239.1 78.02V65.77M271.38 78.02V65.77M264.91 78.02V65.77M278.15 78.02V65.77M303.62 78.02V65.77" stroke="#4A4A4A" stroke-width=".5" stroke-linecap="round" stroke-linejoin="round"/><path d="M309.68 82.4H200.84a.79.79 0 0 1-.79-.79V62.83a.79.79 0 0 1 .79-.79h108.84a.79.79 0 0 1 .8.79v18.78a.82.82 0 0 1-.8.79z" stroke="#4A4A4A" stroke-linecap="round" stroke-linejoin="round"/><path d="M312.67 102.81H203.83a.79.79 0 0 1-.8-.79V83.24a.79.79 0 0 1 .8-.79h108.84a.79.79 0 0 1 .79.79V102c0 .44-.35.8-.79.81z" stroke="#4A4A4A" fill="#FFF" stroke-linecap="round" stroke-linejoin="round"/><path fill="#C8D2FF" opacity=".5" d="M261.46 82.4h51.58v20.41h-51.58z"/><path d="M242.08 98.48V86.22M235.6 98.48V86.22M229.17 98.48V86.22M222.7 98.48V86.22M216.27 98.48V86.22M209.79 98.48V86.22M261.46 98.48V86.22M254.98 98.48V86.22M248.51 98.48V86.22M242.08 98.48V86.22" stroke="#4A4A4A" stroke-width=".5" stroke-linecap="round" stroke-linejoin="round"/><path d="M312.67 102.6H203.83a.79.79 0 0 1-.8-.79V83a.79.79 0 0 1 .8-.79h108.84a.79.79 0 0 1 .79.79v18.78a.81.81 0 0 1-.79.82z" stroke="#4A4A4A" stroke-linecap="round" stroke-linejoin="round"/><path d="M305.34 122.94H196.5a.79.79 0 0 1-.79-.8v-18.77a.78.78 0 0 1 .79-.79h108.84a.78.78 0 0 1 .79.79v18.77a.79.79 0 0 1-.79.8z" stroke="#4A4A4A" fill="#FFF" stroke-linecap="round" stroke-linejoin="round"/><path fill="#C8D2FF" opacity=".5" d="M254.13 102.52h51.38v20.41h-51.38z"/><path d="M234.75 118.56V106.3M228.32 118.56V106.3M221.85 118.56V106.3M215.37 118.56V106.3M208.94 118.56V106.3M202.47 118.56V106.3M254.14 118.56V106.3M247.66 118.56V106.3M299.71 118.56V106.3M241.23 118.56V106.3M234.75 118.56V106.3" stroke="#4A4A4A" stroke-width=".5" stroke-linecap="round" stroke-linejoin="round"/><path d="M305.34 122.94H196.5a.79.79 0 0 1-.79-.8v-18.77a.78.78 0 0 1 .79-.79h108.84a.78.78 0 0 1 .79.79v18.77a.79.79 0 0 1-.79.8z" stroke="#4A4A4A" stroke-linecap="round" stroke-linejoin="round"/><path d="M308.46 163.66H199.61a.79.79 0 0 1-.79-.79v-18.78a.78.78 0 0 1 .79-.79h108.85a.79.79 0 0 1 .79.79v18.78a.79.79 0 0 1-.79.79z" stroke="#4A4A4A" fill="#FFF" stroke-linecap="round" stroke-linejoin="round"/><path fill="#C8D2FF" opacity=".5" d="M269.92 143.28h38.8v20.41h-38.8z"/><path d="M237.87 159.33v-12.26M231.39 159.33v-12.26M224.96 159.33v-12.26M218.48 159.33v-12.26M212.05 159.33v-12.26M205.58 159.33v-12.26M250.77 159.33v-12.26M244.3 159.33v-12.26M237.87 159.33v-12.26" stroke="#4A4A4A" stroke-width=".5" stroke-linecap="round" stroke-linejoin="round"/><path d="M308.46 163.66H199.61a.79.79 0 0 1-.79-.79v-18.78a.78.78 0 0 1 .79-.79h108.85a.79.79 0 0 1 .79.79v18.78a.79.79 0 0 1-.79.79z" stroke="#4A4A4A" stroke-linecap="round" stroke-linejoin="round"/><path d="M308.37 184.11h-108.8a.79.79 0 0 1-.79-.79v-18.78a.79.79 0 0 1 .79-.79h108.85a.79.79 0 0 1 .79.79v18.78a.83.83 0 0 1-.84.79z" stroke="#4A4A4A" fill="#FFF" stroke-linecap="round" stroke-linejoin="round"/><path fill="#C8D2FF" opacity=".5" d="M263.79 163.72h44.72v20.41h-44.72z"/><path d="M237.78 179.73v-12.25M231.35 179.73v-12.25M224.87 179.73v-12.25M218.44 179.73v-12.25M211.97 179.73v-12.25M205.54 179.73v-12.25M257.16 179.73v-12.25M250.73 179.73v-12.25M244.26 179.73v-12.25M237.78 179.73v-12.25" stroke="#4A4A4A" stroke-width=".5" stroke-linecap="round" stroke-linejoin="round"/><path d="M308.37 184.11h-108.8a.79.79 0 0 1-.79-.79v-18.78a.79.79 0 0 1 .79-.79h108.85a.79.79 0 0 1 .79.79v18.78a.83.83 0 0 1-.84.79z" stroke="#4A4A4A" stroke-linecap="round" stroke-linejoin="round"/><path d="M316.44 143.25H207.6a.78.78 0 0 1-.79-.79v-18.78a.79.79 0 0 1 .79-.79h108.84a.78.78 0 0 1 .79.79v18.78a.81.81 0 0 1-.79.79z" stroke="#4A4A4A" fill="#FFF" stroke-linecap="round" stroke-linejoin="round"/><path fill="#C8D2FF" opacity=".5" d="M265.18 122.84h51.56v20.41h-51.56z"/><path d="M245.85 138.92v-12.26M239.38 138.92v-12.26M232.95 138.92v-12.26M226.47 138.92v-12.26M220.04 138.92v-12.26M213.56 138.92v-12.26M265.23 138.92v-12.26M258.76 138.92v-12.26M271.52 138.92v-12.26M310.85 138.92v-12.26M252.28 138.92v-12.26M245.85 138.92v-12.26" stroke="#4A4A4A" stroke-width=".5" stroke-linecap="round" stroke-linejoin="round"/><path d="M316.44 143.25H207.6a.78.78 0 0 1-.79-.79v-18.78a.79.79 0 0 1 .79-.79h108.84a.78.78 0 0 1 .79.79v18.78a.81.81 0 0 1-.79.79z" stroke="#4A4A4A" stroke-linecap="round" stroke-linejoin="round"/><path d="M295.88 91.7c-2.23 0-5.57 1.52-5.53 2.7.16 1.45 2.88 1.6 3.1 1.6 8.5-.05 8.94-2.16 8.94-2.16a3.09 3.09 0 0 0-1.76-3.26s-3-.77-4.38.14a1.44 1.44 0 0 0-.62.85" fill="#FCFCFC"/><path d="M293.45 95.87s-3.24-.06-3.44-1.9a1.45 1.45 0 0 1 .48-1.05 8.93 8.93 0 0 1 4.84-2 1.85 1.85 0 0 1 .73-.94c1.45-1 4.52-.22 4.65-.19a3.4 3.4 0 0 1 2 3.65c-.06.26-.75 2.39-9.28 2.44l.02-.01zm2.61-4.93a.34.34 0 0 1-.18.63 8.37 8.37 0 0 0-4.9 1.82.88.88 0 0 0-.29.53c.12 1 2.34 1.26 2.76 1.27 7.91-.05 8.6-1.88 8.61-1.9a2.74 2.74 0 0 0-1.56-2.86c-.76-.19-3.07-.57-4.06.11a1.2 1.2 0 0 0-.38.4z" fill="#4A4A4A" fill-rule="nonzero"/><path d="M330.69 74.86h-.13a.35.35 0 0 1-.18-.45l1.1-2.6a.343.343 0 1 1 .63.27l-1.1 2.6a.35.35 0 0 1-.32.18zM310.65 88.38a.33.33 0 0 1-.33-.28.34.34 0 0 1 .27-.4l15.27-3.11 3.81-8.65a.35.35 0 0 1 .45-.17.34.34 0 0 1 .17.45L326.42 85a.36.36 0 0 1-.25.2l-15.45 3.14-.07.04z" fill="#4A4A4A"/><path d="M340.58 60.34s3.53 3.54 1.35 10.11a207 207 0 0 1-9.68 21.65c-.59 1.05-.9 1.9-2.1 2l-28.79 2.18a1.071 1.071 0 0 1-1.09-1.06v-4a1.07 1.07 0 0 1 .8-1l25.38-4.81" fill="#6883FE"/><path d="M308.44 95.74a.34.34 0 0 1-.34-.32.35.35 0 0 1 .32-.37l14.5-1a.36.36 0 0 1 .37.32.34.34 0 0 1-.32.36" fill="#4A4A4A"/><path d="M41.52 184.88h108.84a.79.79 0 0 0 .79-.79v-18.78a.79.79 0 0 0-.79-.79H41.52a.79.79 0 0 0-.8.79v18.78a.74.74 0 0 0 .8.79z" stroke="#4A4A4A" fill="#FFF" stroke-linecap="round" stroke-linejoin="round"/><path fill="#C8D2FF" opacity=".5" d="M99.46 164.47h51.21v20.41H99.46z"/><path d="M92.72 180.55v-12.26M99.2 180.55v-12.26M105.73 180.55v-12.26M146.73 180.55v-12.26M66.91 180.55v-12.26M73.34 180.55v-12.26M79.82 180.55v-12.26M86.25 180.55v-12.26M46.92 180.55v-12.26M54 180.55v-12.26M60.43 180.55v-12.26" stroke="#4A4A4A" stroke-width=".5" stroke-linecap="round" stroke-linejoin="round"/><path d="M41.52 184.88h108.84a.79.79 0 0 0 .79-.79v-18.78a.79.79 0 0 0-.79-.79H41.52a.79.79 0 0 0-.8.79v18.78a.74.74 0 0 0 .8.79z" stroke="#4A4A4A" stroke-linecap="round" stroke-linejoin="round"/><path d="M146.82 144.07H54.28a.79.79 0 0 0-.79.79v18.77a.79.79 0 0 0 .79.8h108.84a.8.8 0 0 0 .8-.8v-18.77a.79.79 0 0 0-.8-.79h-7.54" stroke="#4A4A4A" fill="#FFF" stroke-linecap="round" stroke-linejoin="round"/><path fill="#C8D2FF" opacity=".5" d="M105.21 144.07h59.23v20.41h-59.23z"/><path d="M157.16 160.14v-12.25M105.49 160.14v-12.25M79.68 160.14v-12.25M86.11 160.14v-12.25M92.58 160.14v-12.25M99.06 160.14v-12.25M111.74 160.14v-12.25M60.29 160.14v-12.25M66.77 160.14v-12.25M73.2 160.14v-12.25" stroke="#4A4A4A" stroke-width=".5" stroke-linecap="round" stroke-linejoin="round"/><path d="M147 144.07H54.28a.79.79 0 0 0-.79.79v18.77a.79.79 0 0 0 .79.8h108.84a.8.8 0 0 0 .8-.8v-18.77a.79.79 0 0 0-.8-.79h-5" stroke="#4A4A4A" stroke-linecap="round" stroke-linejoin="round"/><path d="M292 .69h-92.58a.79.79 0 0 0-.8.79v18.78a.79.79 0 0 0 .8.79h108.84a.79.79 0 0 0 .79-.79V1.48a.79.79 0 0 0-.79-.79h-7.55" stroke="#4A4A4A" fill="#FFF" stroke-linecap="round" stroke-linejoin="round"/><path fill="#C8D2FF" opacity=".5" d="M250.88.69h58.69V21.1h-58.69z"/><path d="M250.62 16.77V4.51M257.1 16.77V4.51M302.87 16.77V4.51M224.81 16.77V4.51M231.24 16.77V4.51M237.71 16.77V4.51M244.19 16.77V4.51M205.43 16.77V4.51M211.9 16.77V4.51M218.33 16.77V4.51" stroke="#4A4A4A" stroke-width=".5" stroke-linecap="round" stroke-linejoin="round"/><path d="M292.13.69h-92.71a.79.79 0 0 0-.8.79v18.78a.79.79 0 0 0 .8.79h108.84a.79.79 0 0 0 .79-.79V1.48a.79.79 0 0 0-.79-.79h-5" stroke="#4A4A4A" stroke-linecap="round" stroke-linejoin="round"/><path d="M111 125.41s6-2.49 4.89-12.6c-.16-1.14-1-1.1-1-1.1s-.88 0-.7 1.34c.18 1.34-.52 8.07-5.91 8.64" fill="#4A4A4A"/><path d="M110.12 131.83a40.87 40.87 0 0 0 2.47 6.55c.42 1.15.44 3.63-2.92 4.17M78.06 122.42s-4.78 8.84-4.57 12.18c.21 3.34 3.36 5.17 3.36 5.17M92.26 85.34a1.38 1.38 0 0 0-1.42-1.56c-1.84.12-3.73 2.14-5.79 8l-19.6-4.35a2.81 2.81 0 0 0-3.37 2.88c.14 4.92 2.19 13.54 14.3 16.61" stroke="#4A4A4A" fill="#FFF" stroke-linecap="round" stroke-linejoin="round"/><path d="M77.21 107.25s-.7 10.26.85 15.17c1.55 4.91-1.48 18.58-1.48 18.58a1.4 1.4 0 0 0 .33 2.74h6.16L85.58 133a31.24 31.24 0 0 0 14.49 1.16l.12 1.13a11.24 11.24 0 0 0 1.85 5.06 1.68 1.68 0 0 0 .19 3.34h5.61a2.16 2.16 0 0 0 2-2.92 9 9 0 0 1-.57-4.73c.54-3 1.49-6.57 1.9-8.1a4.43 4.43 0 0 0 .06-2.11c-.37-1.6-1.54-4.26-5.33-6.25-5.77-3-15.44-7.65-15.44-7.65v-3.82l-.07-13.08" stroke="#4A4A4A" fill="#FFF" stroke-linecap="round" stroke-linejoin="round"/><path fill="#6ACCB6" d="M77.11 109.32H90.4v2.63H77.11z"/><path d="M90.88 92.53l1.38-7.19a1.38 1.38 0 0 0-1.42-1.56c-1.84.12-3.73 2.14-5.79 8l-19.6-4.35a2.81 2.81 0 0 0-3.37 2.88c.14 4.92 2.19 13.54 14.3 16.61M77.21 107.25s-.7 10.26.85 15.17c1.55 4.91-1.48 18.58-1.48 18.58a1.4 1.4 0 0 0 .33 2.74h6.16L85.58 133a31.24 31.24 0 0 0 14.49 1.16l.13 1.17a11 11 0 0 0 1.81 5 1.68 1.68 0 0 0 .19 3.34h5.61a2.16 2.16 0 0 0 2-2.92 9 9 0 0 1-.57-4.73c.54-3 1.49-6.57 1.9-8.1a4.43 4.43 0 0 0 .06-2.11c-.37-1.6-1.54-4.26-5.33-6.25-5.77-3-15.44-7.65-15.44-7.65v-3.82l-.07-9.25" stroke="#4A4A4A" stroke-linecap="round" stroke-linejoin="round"/><path d="M65.26 87.55s0 2.73-3.22 1.86a2.86 2.86 0 0 1 1.78-1.81c1.18-.27 1.44-.05 1.44-.05z" fill="#4A4A4A"/><path d="M289.41 179.73v-12.25M282.93 179.73v-12.25M276.5 179.73v-12.25M270.02 179.73v-12.25M263.59 179.73v-12.25M295.84 179.73v-12.25M282.88 159.23v-12.25M276.41 159.23v-12.25M269.98 159.23v-12.25M263.5 159.23v-12.25M257.07 159.23v-12.25M295.79 159.23v-12.25M289.31 159.23v-12.25M302.11 159.23v-12.25M302.11 179.6v-12.25" stroke="#4A4A4A" stroke-width=".5" stroke-linecap="round" stroke-linejoin="round"/></g></svg>