<svg width="38" height="36" xmlns="http://www.w3.org/2000/svg"><path d="M8.28 35.68c-5.04 0-7.8-2.64-7.8-8.04C.48 15.4 7.2 5.44 13.08 1 13.56.64 14.16.28 15 .28c1.44 0 2.64 1.2 2.64 2.64 0 .72-.24 1.2-.72 1.8-2.76 3.48-5.04 6.24-5.04 11.16 0 4.68 4.32 7.08 4.32 11.76 0 5.4-2.88 8.04-7.92 8.04zm19.56 0c-5.04 0-7.8-2.64-7.8-8.04 0-12.24 6.72-22.2 12.6-26.64.48-.36 1.08-.72 1.92-.72 1.44 0 2.64 1.2 2.64 2.64 0 .72-.24 1.2-.72 1.8-2.76 3.48-5.04 6.24-5.04 11.16 0 4.68 4.32 7.08 4.32 11.76 0 5.4-2.88 8.04-7.92 8.04z" fill="#e9e9e9" fill-rule="evenodd"/></svg>