<svg width="20" height="20" xmlns="http://www.w3.org/2000/svg"><path d="M8.58578644 10L.72146464 2.13567821c-.39052428-.39052429-.39052428-1.02368927 0-1.41421356.3905243-.3905243 1.02368928-.3905243 1.41421357 0L10 8.58578644l7.8643218-7.8643218c.3905243-.39052428 1.0236893-.39052428 1.4142136 0 .3905242.3905243.3905242 1.02368928 0 1.41421357L11.4142136 10l7.8643218 7.8643218c.3905242.3905243.3905242 1.0236893 0 1.4142136-.3905243.3905242-1.0236893.3905242-1.4142136 0L10 11.4142136l-7.86432179 7.8643218c-.39052429.3905242-1.02368927.3905242-1.41421356 0-.3905243-.3905243-.3905243-1.0236893 0-1.4142136L8.58578644 10z" fill-rule="nonzero"/></svg>