<svg id="Layer_1" xmlns="http://www.w3.org/2000/svg" xmlns:xlink="http://www.w3.org/1999/xlink" viewBox="0 0 600 600"><style>.st0{fill:#c7d4e1}.st1{fill:#432d61}.st2{fill:#fff}.st3{fill:#5eb4e7}.st4{clip-path:url(#SVGID_2_)}.st5{fill:#432d61;stroke:#432d61;stroke-width:6;stroke-miterlimit:10}</style><path class="st0" d="M296 547c-65.8 0-127.7-25.6-174.3-72.2S49.5 366.3 49.5 300.5s25.6-127.7 72.2-174.3S230.2 54 296 54s127.7 25.6 174.3 72.2 72.2 108.5 72.2 174.3-25.6 127.7-72.2 174.3S361.8 547 296 547z"/><path class="st1" d="M296 60.5c132.5 0 240 107.5 240 240s-107.5 240-240 240S56 433 56 300.5s107.5-240 240-240m0-13c-34.1 0-67.3 6.7-98.5 19.9-30.1 12.7-57.2 31-80.4 54.2-23.2 23.2-41.5 50.3-54.2 80.4C49.7 233.2 43 266.4 43 300.5s6.7 67.3 19.9 98.5c12.7 30.1 31 57.2 54.2 80.4 23.2 23.2 50.3 41.5 80.4 54.2 31.2 13.2 64.3 19.9 98.5 19.9s67.3-6.7 98.5-19.9c30.1-12.7 57.2-31 80.4-54.2 23.2-23.2 41.5-50.3 54.2-80.4 13.2-31.2 19.9-64.3 19.9-98.5s-6.7-67.3-19.9-98.5c-12.7-30.1-31-57.2-54.2-80.4-23.2-23.2-50.3-41.5-80.4-54.2-31.2-13.2-64.4-19.9-98.5-19.9z"/><path class="st2" d="M289.6 270.6c0 9.9-8.1 18-18 18h-1.5c-9.9 0-18-8.1-18-18v-33c0-9.9 8.1-18 18-18h1.5c9.9 0 18 8.1 18 18v33z"/><path class="st1" d="M271.6 296.2h-1.5c-14.2 0-25.7-11.5-25.7-25.7v-33c0-14.2 11.5-25.7 25.7-25.7h1.5c14.2 0 25.7 11.5 25.7 25.7v33c0 14.2-11.5 25.7-25.7 25.7zm-1.5-69c-5.7 0-10.3 4.6-10.3 10.3v33c0 5.7 4.6 10.3 10.3 10.3h1.5c5.7 0 10.3-4.6 10.3-10.3v-33c0-5.7-4.6-10.3-10.3-10.3h-1.5z"/><path class="st2" d="M268.5 288.9c0 50.4-40.8 91.2-91.2 91.2-50.4 0-91.2-40.8-91.2-91.2v-73c0-50.4 40.8-91.2 91.2-91.2 50.4 0 91.2 40.8 91.2 91.2v73z"/><path class="st1" d="M177.3 387.8c-54.5 0-98.9-44.4-98.9-98.9v-73c0-54.5 44.4-98.9 98.9-98.9 54.5 0 98.9 44.4 98.9 98.9v73c0 54.6-44.4 98.9-98.9 98.9zm0-255.3c-46.1 0-83.5 37.5-83.5 83.5v73c0 46.1 37.5 83.5 83.5 83.5 46.1 0 83.5-37.5 83.5-83.5v-73c0-46.1-37.4-83.5-83.5-83.5z"/><path class="st3" d="M144.7 119.8c-14.8 0-27.7 7.6-35.3 19.1H95c-18.1 0-32.7 14.6-32.7 32.7v118.9h23v-70.9c0-12.7 10.3-23 23-23H256c23.3 0 42.2-18.9 42.2-42.2v-34.5H144.7z"/><path class="st1" d="M93 298.2H54.6V171.6c0-22.3 18.1-40.4 40.4-40.4h10.6c9.4-12 23.8-19.1 39.2-19.1h161.1v42.2c0 27.5-22.4 49.9-49.9 49.9H108.3c-8.5 0-15.3 6.9-15.3 15.3v78.7zm-23-15.4h7.7v-63.3c0-16.9 13.8-30.7 30.7-30.7H256c19 0 34.5-15.5 34.5-34.5v-26.8H144.7c-11.6 0-22.4 5.8-28.9 15.6l-2.3 3.5H95c-13.8 0-25 11.2-25 25v111.2z"/><path class="st2" d="M86.1 219.7c-9.1.9-23.8 8.5-23.8 17.8v33c0 9.3 14.8 16.9 23.8 17.8v-68.6z"/><path class="st1" d="M93.8 296.9l-8.5-.9c-12.5-1.3-30.7-11.1-30.7-25.4v-33c0-14.3 18.2-24.1 30.7-25.4l8.5-.9v85.6zM78.4 230c-4.7 2.3-8.5 5.5-8.5 7.6v33c0 2 3.8 5.3 8.5 7.6V230z"/><defs><circle id="SVGID_1_" cx="296" cy="300.5" r="240"/></defs><clipPath id="SVGID_2_"><use xlink:href="#SVGID_1_" overflow="visible"/></clipPath><g class="st4"><path class="st2" d="M48.9 556.1V441c0-20 18.3-36.1 40.8-36.1h179.1c22.5 0 40.8 16.2 40.8 36.1v115.2"/><path class="st1" d="M317.4 556.1H302V441c0-15.7-14.9-28.5-33.1-28.5H89.7c-18.3 0-33.2 12.8-33.2 28.5v115.2H41.2V441c0-24.1 21.8-43.8 48.5-43.8h179.1c26.7 0 48.5 19.6 48.5 43.8v115.1z"/><path class="st2" d="M275.4 221.8h245.4v329.3H275.4z"/><path class="st5" d="M525 217.6v337.8H271.1V217.6H525zm-8.6 329.2V226.1H279.6v320.7h236.8z"/><path class="st3" d="M307 255.3h184v6.3H307zm0 19.1h184v6.3H307zm0 19h159.6v6.3H307zm0 112.9h184v6.3H307zm0 19.1h184v6.3H307zm0 19h159.6v6.3H307zm0 30.9h39v6.3h-39zm0 38.1h159.6v6.3H307zm0-181.9h175.4v6.3H307zm0 19h184v6.3H307zm0 19h123.6v6.3H307z"/></g><path class="st1" d="M195.8 409.8h15.3V452h-15.3zm-30.7 0h15.3V452h-15.3z"/></svg>