<svg xmlns="http://www.w3.org/2000/svg" viewBox="0 0 36 44"><defs><style>.cls-1,.cls-2{fill:#6f6f6f}.cls-1{stroke:#706f6f;stroke-miterlimit:10}</style></defs><title>AddressGREY</title><g id="Layer_2" data-name="Layer 2"><g id="Stock"><path class="cls-1" d="M23.76 21.71a3.62 3.62 0 1 0 3.62 3.62 3.62 3.62 0 0 0-3.62-3.62zm0 6.34a2.72 2.72 0 1 1 2.72-2.72A2.72 2.72 0 0 1 23.76 28z"/><path class="cls-1" d="M23.76 18.09a7.24 7.24 0 0 0-7.24 7.24c0 5.88 7.24 12.67 7.24 12.67S31 31.21 31 25.33a7.24 7.24 0 0 0-7.24-7.24zm0 18.56s-6.34-5.88-6.34-11.32a6.34 6.34 0 0 1 12.67 0c0 5.43-6.33 11.31-6.33 11.31z"/><path class="cls-2" d="M26 0H4a4 4 0 0 0-4 4v36a4 4 0 0 0 4 4h28a4 4 0 0 0 4-4V11zm8 40a2 2 0 0 1-2 2H4a2 2 0 0 1-2-2V4a2 2 0 0 1 2-2h18v10a2 2 0 0 0 2 2h10zM24 12V2h1l9 10z" id="Page_2_2x.png" data-name="Page 2@2x.png"/></g></g></svg>