<svg xmlns="http://www.w3.org/2000/svg" viewBox="0 0 36 44"><defs><style>.cls-1{fill:#706f6f}</style></defs><title>Application</title><g id="Layer_2" data-name="Layer 2"><g id="Stock"><path class="cls-1" d="M6 18h12a1 1 0 0 0 0-2H6a1 1 0 0 0 0 2zm18 10H6a1 1 0 0 0 0 2h18a1 1 0 0 0 0-2zM34 4h-5V1a1 1 0 0 0-2 0v3h-2V1a1 1 0 0 0-2 0v3h-2V1a1 1 0 0 0-2 0v3h-2V1a1 1 0 0 0-2 0v3h-2V1a1 1 0 0 0-2 0v3H9V1a1 1 0 0 0-2 0v3H2a2 2 0 0 0-2 2v36a2 2 0 0 0 2 2h32a2 2 0 0 0 2-2V6a2 2 0 0 0-2-2zM2 42v-6l6 6zm32 0H11l-9-9V6h5v3a1 1 0 0 0 2 0V6h2v3a1 1 0 0 0 2 0V6h2v3a1 1 0 0 0 2 0V6h2v3a1 1 0 0 0 2 0V6h2v3a1 1 0 0 0 2 0V6h2v3a1 1 0 0 0 2 0V6h5zM5 23a1 1 0 0 0 1 1h24a1 1 0 0 0 0-2H6a1 1 0 0 0-1 1z" id="Notepad_2x.png" data-name="Notepad@2x.png"/></g></g></svg>