<svg xmlns="http://www.w3.org/2000/svg" viewBox="0 0 535 750"><path d="M48.5 283.1c0-10.3-.5-20.6.2-30.9.5-8.2 4.5-15.5 10.7-20.8 4.2-3.6 5-7.7 5.2-12.7.9-24.4 4.9-48.3 13.1-71.4 20.8-58.5 62-94.9 121.5-111 37-10 74.6-11.2 112.5-6.3 32.5 4.2 63 13.8 90.2 32.4 37 25.3 58.5 61.1 69.3 104 4.5 17.8 7 35.9 7.3 54.3.1 4 1.2 7.1 4.3 10 8.4 7.7 12.3 17.6 12.4 29 .1 15.5.1 31 0 46.5-.1 23.3-17.5 40.6-40.9 40.7-7 0-14 .5-21-.1-6.1-.5-8.9 1.5-11.3 7.2-15.6 36.2-38.9 66.6-70.5 90.4-17.9 13.5-37.5 23.5-59.5 28.3-23.9 5.2-46.7 1-68.5-9.1-38-17.6-66.1-46-88-81.1-2-3.2-4.3-6.4-5.7-10-3.8-9.8-10.8-17-18.5-23.7-1.3-1.1-3.5-1.7-5.3-1.8-8.5-.4-17.1.2-25.4-1-19.1-2.9-32.6-19-32.9-38.3-.2-8.2 0-16.3 0-24.5.3-.1.5-.1.8-.1zm124.2 102.4c15.2 17.8 31.5 31.7 50.2 42.9 31.1 18.7 62.7 20.7 94 1.6 65.5-40 100.6-97.6 98.6-175.7 0-1.6-1.1-3.5-2.2-4.6-17.3-15.1-36.8-26.9-59.6-30.8-20.9-3.6-42.2-5.4-63.4-7-31.2-2.4-56.7-14.5-75-40.5-2.3-3.3-4.7-6.6-7.4-10.4-1.2 8.8-1.9 16.9-3.4 24.8-7 37.1-30 67.4-74.1 71.1-2.7.2-3.1 1.6-3.2 4-.8 23.8 3.3 46.7 11.9 68.9 1.8 4.6 4.4 7.9 8.5 10.6 23.8 15.9 50.6 22.4 78.7 24.4 1.4.1 3.3-.8 4.2-1.8 17.7-19.4 56.9-20.7 77.8-4.1 14.3 11.4 14.5 28.5.4 40-20.2 16.6-56.5 15.7-76.1-1.6-1.6-1.4-4-2.2-6.1-2.5-10-1.4-20.2-2.3-30.2-3.9-7.4-1.3-14.8-3.4-23.6-5.4zM93.3 219.2c6.4 0 11-.1 15.6 0 3 .1 3.4-1.4 3.7-3.9 1.5-11.4 2.5-22.9 5.1-34 11.8-51.2 42.5-85 93.7-98.6 39.3-10.5 79.1-10.4 118.6-.4 41.7 10.6 71.8 35.3 88 75.7 7.2 18.1 10.8 37 12.3 56.3.1 1.6 1.4 4.5 2.3 4.5 5.2.4 10.5.2 17 .2-2.1-13.8-3.3-26.9-6.2-39.7-13.5-60.5-49.6-100.1-110-116-36.3-9.6-73.1-9.9-109.9-3.2-27.4 4.9-52.7 15.2-74.4 33.2-27.1 22.6-42.3 52.2-49.7 86.1-2.6 12.9-4 26-6.1 39.8z" fill="#696969"/><path d="M401.3 458.9c-8-5.8-20.5-5.2-27.8 1.5 0 0-8.5 7.8-21.6 17.6-17.9 13.5-37.6 20.7-59.6 25.5-23.9 5.2-46.7 1-68.5-9.1-26.9-12.5-53.4-34.7-53.4-34.7-7.6-6.4-20.3-6.8-28.3-1 0 0-93.4 68.2-93.4 111.2 0 62.4 88.8 88.1 223 88.1s223-25.6 223-88.1c-.2-43-93.4-111-93.4-111z" fill="#696969"/></svg>