<svg width="34" height="28" viewBox="0 0 34 28" xmlns="http://www.w3.org/2000/svg"><title>Combined Shape</title><path d="M32.333 23.333v-8.666c0-.917-.245-2.08-.655-3.334a2.002 2.002 0 0 0 1.989-2c0-1.112-.896-2-2-2h-1.69c-1.551-2.996-3.55-5.643-4.977-6-2.667-.666-6.667-.666-8-.666V4h6.667L27 10H17v13.332l-8.667.001v.657A3.34 3.34 0 0 1 5 27.333a3.34 3.34 0 0 1-3.333-3.343v-9.323c0-.917.245-2.08.655-3.334a1.995 1.995 0 0 1-1.989-2c0-1.104.9-2 2-2h1.69c1.551-2.996 3.55-5.643 4.977-6 2.667-.666 6.667-.666 8-.666V4h-6.667L7 10h10v13.332l8.667.001v.657A3.34 3.34 0 0 0 29 27.333a3.34 3.34 0 0 0 3.333-3.343v-.657zM7.667 18a2 2 0 1 0 0-4 2 2 0 0 0 0 4zm18.666 0a2 2 0 1 0 0-4 2 2 0 0 0 0 4z" fill="#06AEFF" fill-rule="evenodd"/></svg>