<svg xmlns="http://www.w3.org/2000/svg" viewBox="0 0 51.85 32.82"><defs><style>.cls-1{opacity:.5}.cls-2{fill:#343535}</style></defs><title>Deal</title><g id="Layer_2" data-name="Layer 2"><g class="cls-1" id="Top"><path class="cls-2" d="M40.37 19.31c-.7-.55-1.59-1.24-2.44-1.89-1.16-.86-2.76-2-4.86-3.44l-.8-.53-.44-.28C29.21 11.55 26 9.9 25.19 9.48l-1.94.62c-.51.78-2.72 3.81-6 4.07h-.53a1.83 1.83 0 0 1-1.58-.62 2.57 2.57 0 0 1-.14-2.28v-.09a38.71 38.71 0 0 1 3-4.53l-.66-.1a11.69 11.69 0 0 1-3.4-.8c-.31-.18-.8-.48-1.34-.81L6 16.74l.56.62 1.59 2a2.37 2.37 0 0 1 1.93-1 2.93 2.93 0 0 1 1.85.69 3.15 3.15 0 0 1 1 1.56l.63-.85a2.37 2.37 0 0 1 1.93-1 2.93 2.93 0 0 1 1.85.69 3 3 0 0 1 1.08 3h.12a2.94 2.94 0 0 1 1.85.69 3 3 0 0 1 1.09 2.94h.22a2.94 2.94 0 0 1 1.85.69 2.89 2.89 0 0 1 .67 3.86l-.43.58a22.13 22.13 0 0 0 3.08.86 5.25 5.25 0 0 0 3.2-.07 4.63 4.63 0 0 0 1.5-1.42l-5.05-2.44a.53.53 0 0 1 .47-1l5.36 2.59h.12a3.44 3.44 0 0 0 2-.21 2.54 2.54 0 0 0 .82-1.93l-6.51-3.77a.53.53 0 0 1 .54-.92L36 26.76a3.54 3.54 0 0 0 2-.37 2.29 2.29 0 0 0 .69-2.17L31 19.58a.53.53 0 1 1 .55-.91l8.12 4.88a2.08 2.08 0 0 0 2.47-.81 1.82 1.82 0 0 0-.51-2.4l-1.25-1z"/><path class="cls-2" d="M17.18 22.72a1.82 1.82 0 0 0-.49-2.4 1.86 1.86 0 0 0-1.17-.45 1.3 1.3 0 0 0-1.07.52L11 25.06a1.82 1.82 0 0 0 .49 2.4 1.87 1.87 0 0 0 1.17.45 1.3 1.3 0 0 0 1.08-.52l3.42-4.66zM19.74 24a1.87 1.87 0 0 0-1.17-.45 1.32 1.32 0 0 0-.89.33c-.07.06-2.83 3.83-2.83 3.83l-.05.09a1.42 1.42 0 0 0-.12.24 1.91 1.91 0 0 0 .66 2.07 1.87 1.87 0 0 0 1.18.45 1.29 1.29 0 0 0 1.07-.56l2.64-3.64a1.82 1.82 0 0 0-.49-2.36zm3.16 3.59a1.87 1.87 0 0 0-1.17-.45 1.29 1.29 0 0 0-1.07.52s-1.83 2.5-1.87 2.59a1.9 1.9 0 0 0 .65 2.13 1.87 1.87 0 0 0 1.18.45 1.29 1.29 0 0 0 1.07-.52l1.7-2.31a1.82 1.82 0 0 0-.49-2.4zM11.78 22.2a2 2 0 0 0-1.71-2.77 1.3 1.3 0 0 0-1.07.52l-1.09 1.48a1.82 1.82 0 0 0 .49 2.4 1.87 1.87 0 0 0 1.17.45 1.32 1.32 0 0 0 .87-.31c.07-.06 1.32-1.74 1.34-1.76zM36.52 5.28a18.23 18.23 0 0 1-2.46-.47A22.89 22.89 0 0 0 28.81 4h-.13c-4.35 0-7.9.61-8.43 1.36l-.42.64-.36.49-.3.42a42.58 42.58 0 0 0-3.17 4.7c-.25.89-.15 1.21-.07 1.33s.46.19.72.19h.43c3.18-.25 5.3-3.7 5.32-3.73a.54.54 0 0 1 .3-.23l1.06-.34 1.28-.41h.16a.53.53 0 0 1 .24.06s3.81 1.91 6.85 3.8l.64.4.71.47c2 1.4 3.62 2.52 4.78 3.38 1.71 1.26 2.51 1.94 2.57 2l1.1.9A6.83 6.83 0 0 0 44 18.15c.33-.3.57-.55.79-.78a10 10 0 0 1 .93-.89L39.16 4.82a6.76 6.76 0 0 1-2.65.46zM12.59 2.82a.38.38 0 0 0-.12-.51L8.76 0a.29.29 0 0 0-.16 0 .32.32 0 0 0-.28.17L0 14.87a.39.39 0 0 0 .12.51l3.71 2.26a.32.32 0 0 0 .44-.13l8.32-14.69zm39.22 12.05L43.53.17a.32.32 0 0 0-.28-.17.3.3 0 0 0-.15 0l-3.72 2.31a.38.38 0 0 0-.12.51l8.27 14.69a.32.32 0 0 0 .44.13l3.71-2.26a.39.39 0 0 0 .12-.51z"/></g></g></svg>