<svg xmlns="http://www.w3.org/2000/svg" viewBox="0 0 34.12 53.49"><defs><style>.cls-1{fill:#706f6f}</style></defs><title>doc Upload</title><g id="Layer_2" data-name="Layer 2"><g id="Top"><path class="cls-1" d="M14.37 6.31a.78.78 0 0 0 .56-.23l3.39-3.39v15.45a.79.79 0 1 0 1.58 0V2.69l3.39 3.39A.79.79 0 1 0 24.39 5L19.66.23a.79.79 0 0 0-1.11 0L13.81 5a.79.79 0 0 0 .56 1.35z" id="Inbox_Upload" data-name="Inbox Upload"/><g id="Pages_1_2x.png" data-name="Pages 1@2x.png"><path class="cls-1" d="M14.22 45.91H6.63a.95.95 0 0 0 0 1.9h7.58a.95.95 0 1 0 0-1.9zm-3.79-26.54a1 1 0 0 0 .95-.95v-2.84a1.9 1.9 0 0 1 1.9-1.9h2.91v-1.9h-2.92a3.79 3.79 0 0 0-3.79 3.79v2.84a1 1 0 0 0 .95.96zm-3.8 11.38h3.79a.95.95 0 1 0 0-1.9H6.63a.95.95 0 0 0 0 1.9zM18 40.23H6.63a.95.95 0 0 0 0 1.9H18a.95.95 0 0 0 0-1.9zm9.49-28.44H22.3v1.9h2.34v5.69a1.9 1.9 0 0 0 1.9 1.9h5.69v19a1.9 1.9 0 0 1-1.9 1.9h-2.84a.95.95 0 1 0 0 1.9h2.84a3.79 3.79 0 0 0 3.79-3.79V19.37zm-.95 7.58v-5.54l4.94 5.54z"/><path class="cls-1" d="M3.79 21.27A3.79 3.79 0 0 0 0 25.06V49.7a3.79 3.79 0 0 0 3.79 3.79h17.06a3.79 3.79 0 0 0 3.79-3.79V28.85L18 21.27zm19 28.43a1.9 1.9 0 0 1-1.9 1.9H3.79a1.9 1.9 0 0 1-1.9-1.9V25.06a1.9 1.9 0 0 1 1.9-1.9h11.37v5.69a1.9 1.9 0 0 0 1.9 1.9h5.69zm-5.73-20.85v-5.54L22 28.85z"/><path class="cls-1" d="M5.69 35.49a1 1 0 0 0 .95.95H18a.95.95 0 1 0 0-1.9H6.63a1 1 0 0 0-.94.95z"/></g></g></g></svg>