<?xml version="1.0" encoding="utf-8"?>
<!-- Generator: Adobe Illustrator 16.0.0, SVG Export Plug-In . SVG Version: 6.00 Build 0)  -->
<!DOCTYPE svg PUBLIC "-//W3C//DTD SVG 1.1//EN" "http://www.w3.org/Graphics/SVG/1.1/DTD/svg11.dtd">
<svg version="1.1" id="Layer_1" xmlns="http://www.w3.org/2000/svg" xmlns:xlink="http://www.w3.org/1999/xlink" x="0px" y="0px"
	 width="288px" height="288px" viewBox="0 0 288 288" enable-background="new 0 0 288 288" xml:space="preserve">
<path fill="#FFFFFF" d="M144,265.228c-4.1,0-8.053-1.485-11.133-4.184c-11.634-10.173-22.852-19.733-32.748-28.167l-0.05-0.044
	c-29.015-24.726-54.07-46.079-71.503-67.113C9.077,142.205,0,119.909,0,95.553c0-23.665,8.114-45.497,22.847-61.478
	C37.755,17.906,58.212,9,80.455,9c16.625,0,31.849,5.256,45.25,15.621c6.763,5.231,12.893,11.634,18.294,19.103
	c5.403-7.469,11.532-13.872,18.297-19.103C175.697,14.256,190.922,9,207.547,9c22.24,0,42.699,8.906,57.607,25.075
	C279.887,50.056,288,71.888,288,95.553c0,24.356-9.075,46.652-28.563,70.165c-17.434,21.036-42.486,42.388-71.497,67.11
	c-9.914,8.447-21.148,18.022-32.81,28.22C152.053,263.742,148.098,265.228,144,265.228z M80.455,25.871
	c-17.475,0-33.528,6.974-45.207,19.639c-11.852,12.856-18.38,30.628-18.38,50.043c0,20.485,7.614,38.806,24.684,59.402
	c16.5,19.91,41.041,40.823,69.456,65.039l0.053,0.045c9.934,8.465,21.195,18.063,32.915,28.311
	c11.79-10.268,23.069-19.881,33.022-28.359c28.413-24.217,52.952-45.125,69.451-65.035c17.068-20.597,24.682-38.917,24.682-59.402
	c0-19.415-6.527-37.187-18.38-50.043c-11.677-12.665-27.731-19.639-45.204-19.639c-12.801,0-24.555,4.069-34.932,12.094
	c-9.249,7.154-15.691,16.198-19.469,22.526c-1.941,3.254-5.361,5.197-9.147,5.197s-7.205-1.942-9.147-5.197
	c-3.775-6.328-10.217-15.372-19.468-22.526C105.007,29.94,93.254,25.871,80.455,25.871z"/>
</svg>
