<svg id="Layer_1" data-name="Layer 1" xmlns="http://www.w3.org/2000/svg" viewBox="0 0 22 25"><defs><style>.cls-1{fill:#fff}.cls-2{fill:#06aeff}.cls-3{mask:url(#mask)}.cls-4{isolation:isolate}</style><mask id="mask" x="-1.46" y="9.17" width="16.92" height="13.33" maskUnits="userSpaceOnUse"><g transform="translate(0 -1)"><g id="mask-2"><rect id="path-1" class="cls-1" x="-1.46" y="10.17" width="16.92" height="13.33" rx="1.67" ry="1.67"/></g></g></mask></defs><title>icon_calendar</title><path class="cls-2" d="M19.5 4.33h-3.42V6a.85.85 0 1 1-1.69 0V4.33H11V6a.85.85 0 1 1-1.69 0V4.33H5.92V6a.85.85 0 1 1-1.69 0V4.33H2.5A2.51 2.51 0 0 0 0 6.84v16.65A2.5 2.5 0 0 0 2.5 26h17a2.51 2.51 0 0 0 2.5-2.51V6.84a2.5 2.5 0 0 0-2.5-2.51zm1 18.32a1.67 1.67 0 0 1-1.67 1.67H3.17a1.67 1.67 0 0 1-1.67-1.67V11a1.67 1.67 0 0 1 1.67-1.65h15.66A1.67 1.67 0 0 1 20.5 11z" transform="translate(0 -1)"/><g class="cls-3"><g id="Calendar"><g id="_1" data-name="1" class="cls-4"><g class="cls-4"><path class="cls-2" d="M10.2 19.83v-5H9v-1.31h2.76v6.31z" transform="translate(0 -1)"/></g></g></g></g><rect id="Rectangle-2" class="cls-2" x="5.92" width="1.69" height="5.83" rx=".85" ry=".85"/><path id="Rectangle-2-2" data-name="Rectangle-2" class="cls-2" d="M11.85 1a.85.85 0 0 1 .85.85V6a.85.85 0 0 1-.85.85A.85.85 0 0 1 11 6V1.85a.85.85 0 0 1 .85-.85z" transform="translate(0 -1)"/><rect id="Rectangle-2-3" data-name="Rectangle-2" class="cls-2" x="16.08" width="1.69" height="5.83" rx=".85" ry=".85"/></svg>