<svg xmlns="http://www.w3.org/2000/svg" viewBox="0 0 500 430.3"><title>Asset 1</title><g data-name="Layer 2"><path d="M431 243.9h54.5a14.5 14.5 0 0 1 14.4 12.9q.1-3.4.1-6.8a249 249 0 0 0-58.7-160.9 14.5 14.5 0 0 1-1.5 18.7l-38.5 38.5a14.5 14.5 0 0 1-20.5 0 14.5 14.5 0 0 1 0-20.5l38.5-38.5a14.5 14.5 0 0 1 20.4-.1A249.4 249.4 0 0 0 250 0a14.5 14.5 0 0 1 14.5 14.5V69a14.5 14.5 0 1 1-29 0V14.5A14.5 14.5 0 0 1 250 0 249.4 249.4 0 0 0 59 88.7l.9-.9a14.5 14.5 0 0 1 20.5 0l38.5 38.5a14.5 14.5 0 0 1 0 20.5 14.5 14.5 0 0 1-20.5 0l-38.5-38.6a14.5 14.5 0 0 1-1-19.3A249 249 0 0 0 0 250q0 3.4.1 6.8a14.5 14.5 0 0 1 14.4-12.9H69a14.5 14.5 0 0 1 0 29H14.5A14.5 14.5 0 0 1 .3 261a249.2 249.2 0 0 0 76.5 169.3c34.6-40.7 99.2-68.1 173.2-68.1s138.5 27.4 173.2 68.1A249.2 249.2 0 0 0 499.7 261a14.5 14.5 0 0 1-14.2 11.8H431a14.5 14.5 0 0 1-14.5-14.5 14.5 14.5 0 0 1 14.5-14.4zm-181 43.7a29.3 29.3 0 0 1-15.2-54.3v-62.5a14.5 14.5 0 0 1 14.5-14.5 14.5 14.5 0 0 1 14.5 14.5v61.7a29.3 29.3 0 0 1-13.8 55.1z" fill="#06aeff" data-name="Layer 1"/></g></svg>