<svg id="Layer_1" data-name="Layer 1" xmlns="http://www.w3.org/2000/svg" viewBox="0 0 25 25"><defs><style>.cls-1{fill:#06aeff}</style></defs><title>icon_fuel</title><path class="cls-1" d="M25 9.81a3.11 3.11 0 0 0-.61-1.88C22.64 6 20.84 4.15 19 2.33a1.13 1.13 0 0 0-1.27-.15c-.35.31-.23 1.06 0 1.38a9.91 9.91 0 0 0 1.75 1.83 2.19 2.19 0 0 1 .87 2.11 4.76 4.76 0 0 0 2 4.72 2.11 2.11 0 0 1 .78 1.38 49 49 0 0 1-.13 5.54c-.08.84-.09 2.1-1.37 2.06s-1.14-1.23-1.26-2c-.18-1.23-.16-2.49-.26-3.73a2.68 2.68 0 0 0-2.6-2.8c-.35-.05-.71-.08-1.23-.14V3.17c0-2.12-1.11-3.19-3.22-3.2H5.55C2.78 0 1.82.95 1.82 3.68v19.39c-1.93.31-2 .34-1.71 1.94h18c.18-1.56.12-1.63-1.76-1.94v-8.5c1.54-.19 1.8 0 1.95 1.39a48 48 0 0 0 .7 5.11 2.65 2.65 0 0 0 2.67 2.05 2.76 2.76 0 0 0 2.77-1.94 9 9 0 0 0 .53-2.69c.03-2.88.03-5.78.03-8.68zm-12-.13H5.12c-1 0-1.44-.39-1.44-1.35V3.26c0-.93.41-1.4 1.4-1.39h8c.9 0 1.36.37 1.36 1.28v5.19c.03.99-.44 1.36-1.44 1.34z"/></svg>