<svg id="Layer_1" data-name="Layer 1" xmlns="http://www.w3.org/2000/svg" viewBox="0 0 36.97 25"><defs><style>.cls-1{fill:#06aeff}</style></defs><title>icon_engine</title><path class="cls-1" d="M36.57 13.49l-1-2a1.58 1.58 0 0 0-1.29-.79h-2.74a.9.9 0 0 0-.89.9v1.78h-1.8V9.82a.89.89 0 0 0-.85-.89h-1a2 2 0 0 1-1.42-.71L24 6.06a2 2 0 0 0-1.43-.71h-3.65V3.57h4.52a.89.89 0 0 0 .89-.89V.89a.89.89 0 0 0-.89-.89H10.79a.89.89 0 0 0-.89.89v1.79a.89.89 0 0 0 .89.89h4.52v1.79h-4.58a.89.89 0 0 0-.89.89v.89a.89.89 0 0 1-.9.89H6.28a.9.9 0 0 0-.9.9v2.65H3.57V7.07a.89.89 0 0 0-.89-.89H.89a.89.89 0 0 0-.89.89v12.65a.89.89 0 0 0 .89.89h1.79a.89.89 0 0 0 .89-.89V15.2h1.81v5.33a.9.9 0 0 0 .89.9H9.9a2 2 0 0 1 1.43.71L13 24.29a2 2 0 0 0 1.43.71H28a.89.89 0 0 0 .89-.89v-3.57h1.8v1.78a.89.89 0 0 0 .89.9h2.73a1.56 1.56 0 0 0 1.28-.8l1-2.07a4.58 4.58 0 0 0 .41-1.69v-3.48a4.41 4.41 0 0 0-.43-1.69z"/></svg>