<svg width="30" height="25" viewBox="11 0 30 25" xmlns="http://www.w3.org/2000/svg"><path d="M41 3.41C41 1.525 39.45 0 37.538 0c-1.911 0-3.461 1.526-3.461 3.41 0 1.481.966 2.73 2.307 3.2v2.48c0 1.255-1.033 2.273-2.307 2.273h-6.923V6.61c1.341-.47 2.308-1.719 2.308-3.2C29.462 1.525 27.912 0 26 0c-1.912 0-3.462 1.526-3.462 3.41 0 1.481.967 2.73 2.308 3.2v4.754h-9.23V6.61c1.34-.47 2.307-1.719 2.307-3.2 0-1.884-1.55-3.41-3.462-3.41C12.55 0 11 1.526 11 3.41c0 1.481.966 2.73 2.308 3.2v11.78c-1.342.47-2.308 1.718-2.308 3.2 0 1.883 1.55 3.41 3.462 3.41 1.912 0 3.461-1.526 3.461-3.41 0-1.482-.966-2.73-2.307-3.2v-4.754h9.23v4.754c-1.341.47-2.307 1.719-2.307 3.2 0 1.884 1.55 3.41 3.461 3.41 1.912 0 3.462-1.526 3.462-3.41 0-1.481-.966-2.73-2.308-3.2v-4.754h6.923c2.545 0 4.616-2.039 4.616-4.545V6.61C40.033 6.14 41 4.89 41 3.41z" fill="#06AEFF" fill-rule="evenodd"/></svg>