<svg viewBox="0 0 412 413" xmlns="http://www.w3.org/2000/svg" xmlns:xlink="http://www.w3.org/1999/xlink"><defs><path id="a" d="M0 412.162h411.795V.404H0z"/></defs><g fill="none" fill-rule="evenodd"><path d="M292 381h119-119z" fill="#FFF"/><path d="M411.182 381.493H292.729a.614.614 0 0 1 0-1.228h118.453a.614.614 0 0 1 0 1.228" fill="#4A4A4A"/><path d="M340.421 403.728v-136.11h-8.217v135.81c-13.125-.44-28.593-.789-45.652-1.02v-134.79h-8.217v134.69c-12.67-.139-26.101-.213-40.015-.213-45.213 0-85.36.787-110.637 2.005V204.593h-8.217v199.95c-12.465.756-19.637 1.64-19.637 2.586 0 2.78 62.004 5.033 138.49 5.033 76.487 0 138.491-2.253 138.491-5.033 0-1.312-13.793-2.506-36.389-3.401" fill="#C9D3FF"/><mask id="b" fill="#fff"><use xlink:href="#a"/></mask><path fill="#EFF2FF" mask="url(#b)" d="M290.896 47.212h44.787V1.255h-44.787zm50.541 0h44.787V1.255h-44.787zm-50.541 30.563l10.148 21.15h34.639V52.967h-44.787zm50.541 21.149h44.787V52.968h-44.787z"/><path d="M303.936 122.279a.409.409 0 0 1-.297-.127c-5.638-5.923-6.912-13.828-6.963-14.162a.41.41 0 0 1 .808-.125c.013.08 1.292 7.99 6.748 13.723a.409.409 0 0 1-.296.691" fill="#4A4A4A" mask="url(#b)"/><path d="M249.545 235.394l-17.1-7.865 6.081-.784s13.573-12.326 2.514-10.334c-11.924 2.148-15.555 7.917-15.555 7.917l-67.701 98.996.309-.246-4.59 6.725a1.827 1.827 0 0 0 1.222 2.774c3.007.542 8.077.49 11.709-4.575 5.479-7.641 4.362-5.931 8.62-10.956 4.61-5.442 10.861-7.585 6.374-11.959l.495-.906 2.675-2.122s26.096-21.104 34.831-28.772c9.718-8.53 7.341-28.114 7.341-28.114l22.775-9.779z" fill="#353535" mask="url(#b)"/><path d="M280.45 123.06c-7.103 0-14.409-9.182-17.6-18.944-3.311-10.13-3.452-22.9 4.064-27a.41.41 0 1 1 .391.72c-4.98 2.716-8.256 12.02-3.677 26.025 4.426 13.539 13.361 19.893 19.1 18.014.05-.013 2.219-.611 4.808-4.48a.41.41 0 0 1 .68.456c-2.792 4.17-5.164 4.787-5.264 4.811a7.999 7.999 0 0 1-2.502.399" fill="#4A4A4A" mask="url(#b)"/><path d="M208.897 191.211l-58.078-5.572-18.667-57.752c-.283-1.183-1.453-1.848-2.639-1.564-1.186.284-1.854 1.45-1.57 2.633l17.247 64.015c.179.535.62.94 1.219 1.012.168.07.353.111.551.12l64.192-.062c.234-1.383-.768-2.881-2.255-2.83" fill="#6480FF" mask="url(#b)"/><path d="M1.227 380.879H111.9" fill="#FFF" mask="url(#b)"/><path d="M111.899 381.493H1.227a.614.614 0 0 1 0-1.228H111.9a.614.614 0 0 1 0 1.228" fill="#4A4A4A" mask="url(#b)"/><path d="M134.606 380.879h135.22" fill="#FFF" mask="url(#b)"/><path d="M269.825 381.493h-135.22a.614.614 0 0 1 0-1.228h135.22a.614.614 0 0 1 0 1.228M253.56 205.002H104.944a.41.41 0 0 1 0-.819h148.618a.41.41 0 1 1 0 .819m17.468.205a.614.614 0 0 1-.613-.614c0-5.202-4.23-9.434-9.43-9.434H119.263a.614.614 0 1 1 0-1.228h141.724c5.876 0 10.657 4.783 10.657 10.662a.614.614 0 0 1-.614.614m54.06-141.343c2.006-3.745 1.025-8.68-2.174-12.775-2.417-3.095-5.559-5.017-8.711-5.304.533-1.272.635-2.634-.242-3.598-1.386-1.521-4.751-1.548-6.65-.57-2.218-3.97-6.442-7.235-10.92-7.391-3.33-.116-6.167 1.509-8.194 3.923-4.443-4.144-10.54-3.201-12.995 1.997a36.9 36.9 0 0 0-.457 1.005c-1.852-.375-4.128.042-5.208 1.027-1.017.927-1.383 2.318-1.105 3.658-1.212.24-2.424 1.063-3.607 2.142-2.392 2.18-2.395 6.073-.008 8.694.176.193.363.37.554.54-.347.289-.694.59-1.04.905-4.486 4.09-4.493 11.392-.014 16.308.831.914 1.76 1.68 2.75 2.297-5.231 4.47-5.279 8.346-5.279 8.346s15.693 1.083 24.426 10.145a1.682 1.682 0 0 0 2.43.017c.991-1.001 2.592-1.956 4.602-.845 1.03.57 1.786 1.52 2.272 2.592.777 1.714 1.582 6.214 1.098 10.444-.083.72.743 1.187 1.312.738 1.99-1.568 5.093-5.183 4.734-12.32 4.494 3.82 10.916 4.06 15.017.322 1.906-1.738 2.538-4.563 2.295-7.615 1.936-.368 4.016-1.814 4.598-3.257.656-1.622.042-3.467-1.38-4.58a7.971 7.971 0 0 0 3.857-1.93c3.498-3.19 1.523-11.058-1.96-14.915" fill="#4A4A4A" mask="url(#b)"/><path d="M284.726 171.71l8.217-13.7" stroke="#4A4A4A" stroke-width="1.674" stroke-linecap="round" mask="url(#b)"/><path d="M90.249 308.72c-.06-.463-1.07-7.547-5.479-9.134-5.819-2.094-13.539 6.84-15.521 9.134-11.894 13.765-14.635 34.796-10.733 38.781-.799 1.784-1.477 3.454-1.985 4.952a.338.338 0 0 0-.014.11H51.23c0-1.818-.067-3.65-.187-5.487 1.888-.16 3.155-6.13 3.597-8.214 1.757-8.283.625-15.672 0-21.921-.913-9.134-2.856-15.57-8.217-21.009-2.822-2.862-8.677-7.396-11.87-5.48-4.565 2.74-2.655 10.715-1.826 12.788 3.652 9.134 5.448 9.003 9.13 20.094 1.294 3.896 2.251 8.26 5.479 17.355 1.113 3.139 2.012 5.468 3.006 6.17.13 1.91.203 3.814.203 5.704h-5.65c-.41-1.908-1.039-3.932-1.767-5.923.458-.902.132-2.566-.357-5.037-.855-4.32-2.657-13.427-10.957-18.269-5.084-2.965-13.115-4.627-18.26-.913-1.965 1.418-4.305 4.196-3.653 6.394.703 2.37 4.555 2.968 7.305 3.653 14.909 3.718 22.416 16.24 25.378 14.722.655 1.815 1.223 3.647 1.606 5.373h-3.246l3.652 27.402h18.261l3.653-27.402h-9.292c.484-1.41 1.114-2.97 1.857-4.636.043.024.086.05.13.07 2.119.952 5.978-3.02 13.696-10.961 11.231-11.558 18.527-19.274 17.348-28.316" fill="#E4E9FF" mask="url(#b)"/><path d="M353.204 207.333l-10.332.854.822-2.224s-77.358 3.312-104.36 10.905c-1.891.378-4.335 1.111-6.695 2.537a9.32 9.32 0 0 0-1.156.761c-3.762 2.704-7.017 7.383-7.017 15.482 0 21.008 38.347 81.293 38.347 81.293l2.74 4.567s3.651 7.307 3.651 12.787 0 16.442 9.13 16.442V318.66c0-2.247-1.562-4.133-3.717-4.671-.56-1.79-4.68-14.927-7.001-21.666-1.832-5.318-2.345-12.584-3.409-18.106-.872-4.523-1.394-17.562-12.35-29.436h81.26s33.782-1.826 20.087-37.45" fill="#4A4A4A" mask="url(#b)"/><path d="M287.165 132.728c-.902 1.038-4.437 5.748-17.96 27.108l-8.226 12.656a1.825 1.825 0 0 1-2.882.76l-26.94-23.957c-1.178-1.047-3.04-.211-3.04 1.365v4.648c0 4.393 1.583 8.64 4.459 11.96l28.19 25.742c.72.685 1.904 1.234 2.696.634 4.83-3.666 5.945-6.51 19.184-22.038 3.804 7.034 7.429 7.034 10.347 12.058 5.85 10.07 10.907 24.582 10.907 24.582s25.565 10.048 49.462-.953c-.15.038-32.043-61.581-41.245-77.599-1.368-2.382-3.652-4.567-7.304-5.48-2.102-.526-5.917.146-8.218.913-4.45 1.484-8.266 6.078-8.588 6.537-.542.77-.544.721-.842 1.064z" fill="#6ACCB6" mask="url(#b)"/><path d="M282.9 171.71l12.782-14.614" fill="#FFF" mask="url(#b)"/><path d="M282.9 172.12a.41.41 0 0 1-.308-.679l12.782-14.615a.41.41 0 0 1 .616.54l-12.782 14.614a.41.41 0 0 1-.308.14" fill="#4A4A4A" mask="url(#b)"/><path d="M208.455 141.389c-.067.073-.132.148-.205.216a3.929 3.929 0 0 1-2.675 1.066l.091-2.518.091-2.52.102-2.827a3.939 3.939 0 0 1 2.865 1.586l1.72-1.274a5.94 5.94 0 0 0-4.512-2.332l.084-2.336a.425.425 0 0 0-.41-.44l-17.296-.624a.424.424 0 0 0-.44.41l-.191 5.29-.13 3.573-.235 6.554-.072 2-.116 3.207a2.558 2.558 0 0 0 2.457 2.642l13.049.47a2.558 2.558 0 0 0 2.64-2.457l.173-4.783.057-1.601a5.913 5.913 0 0 0 2.748-.563c.07-.033.136-.075.205-.11v-2.63z" fill="#6480FF" mask="url(#b)"/><path d="M349.85 263.964a3.043 3.043 0 0 1-3.038 3.04h-74.869a3.042 3.042 0 0 1-3.038-3.04v-2.429h63.313a.409.409 0 1 0 0-.818h-63.313v-4.974c0-5.705 4.64-10.347 10.343-10.347h60.26c5.703 0 10.343 4.642 10.343 10.347v8.22zm-10.342-19.796h-60.26c-6.38 0-11.57 5.193-11.57 11.575v8.22a4.272 4.272 0 0 0 4.265 4.268h74.87a4.272 4.272 0 0 0 4.265-4.267v-8.221c0-6.382-5.19-11.575-11.57-11.575zm-115.19-87.013a.407.407 0 0 1-.23-.072c-.065-.044-6.573-4.487-11.985-7.193-4.702-2.353-4.399-5.985-4.131-9.19.063-.761.123-1.48.123-2.182 0-1.365.38-2.397 1.128-3.067.966-.865 2.201-.798 2.396-.782.285.004 3.023.094 7.37 2.102 4.534 2.092 8.935 9.48 9.12 9.793a.41.41 0 0 1-.705.416c-.044-.075-4.457-7.48-8.757-9.466-4.318-1.994-7.022-2.026-7.05-2.026l-.044-.003c-.008 0-1.039-.097-1.79.582-.564.508-.85 1.333-.85 2.45 0 .737-.064 1.507-.126 2.25-.27 3.233-.525 6.286 3.682 8.39 5.462 2.732 12.015 7.206 12.08 7.251a.409.409 0 0 1-.23.747" fill="#4A4A4A" mask="url(#b)"/><path d="M68.735 5.315H61.55a6.066 6.066 0 0 0-3.044 5.26v8.656h24.958v-8.657a6.075 6.075 0 0 0-3.897-5.668h1.851a.819.819 0 0 0 .818-.819V1.222a.819.819 0 0 0-.818-.818H60.552a.819.819 0 0 0-.818.818v2.865c0 .15.043.289.113.41h8.888a.41.41 0 1 1 0 .818m31.095 0h-7.595a6.066 6.066 0 0 0-3.043 5.26v2.517h24.957v-2.518a6.075 6.075 0 0 0-3.897-5.668h1.851a.819.819 0 0 0 .819-.819V1.222a.819.819 0 0 0-.819-.818H91.237a.819.819 0 0 0-.818.818v2.865c0 .15.043.289.113.41h9.297a.41.41 0 1 1 0 .818" fill="#E4E9FF" mask="url(#b)"/><path d="M162.518 38.878a1.22 1.22 0 0 0 .318-.819V16.366c0-.678-.55-1.228-1.227-1.228h-36.823c-.677 0-1.227.55-1.227 1.228v4.093h31.913v.819h-31.913v16.781c0 .316.123.601.319.819h-13.626a6.075 6.075 0 0 0 3.897-5.669V13.911H89.192v19.298a6.074 6.074 0 0 0 3.897 5.669H79.567a6.075 6.075 0 0 0 3.897-5.669V20.05H58.506v13.16a6.074 6.074 0 0 0 3.898 5.668H33.316c6.465-.527 11.073-2.37 13.694-3.746a4.804 4.804 0 0 0 2.576-4.256v-4.88H9.819v4.88c0 1.789.991 3.425 2.575 4.256 2.622 1.375 7.23 3.22 13.694 3.746H0v9.004h175.928v-9.004h-13.41z" fill="#E4E9FF" mask="url(#b)"/></g></svg>