<svg data-name="Car FInance Wording" xmlns="http://www.w3.org/2000/svg" viewBox="0 0 4318.28 1357.08"><defs><linearGradient id="a" x1="847.55" y1="3321.15" x2="1162.41" y2="3056.95" gradientTransform="matrix(3.21 0 0 -3.21 451.43 10907.86)" gradientUnits="userSpaceOnUse"><stop offset="0" stop-color="#29a1e0"/><stop offset="1" stop-color="#4862dc"/></linearGradient><clipPath id="b"><path d="M4241.79 349.1L3815.28 44.65A117.54 117.54 0 0 0 3687 24.1L3191.82 242c-59.13 26.83-70.6 80-72.4 99.42-1.5 15.36-26.73 278.72-37.4 390.51v.5c-2.89 30-4.69 49-4.69 49l.1.1L3068 883s-4.29 70.6 48.56 108.5l437.38 313.72a128.57 128.57 0 0 0 122.86 10.57l487.74-221.28c59.13-26.83 70.8-64.82 79.78-158.76l44.87-468.59a118.22 118.22 0 0 0-47.4-118.06z" fill="none"/></clipPath><linearGradient id="c" x1="955.38" y1="3282.08" x2="1107.4" y2="3018.76" gradientTransform="matrix(3.21 0 0 -3.21 451.43 10907.86)" gradientUnits="userSpaceOnUse"><stop offset="0" stop-color="#328edd" stop-opacity="0"/><stop offset="1" stop-color="#e004fd" stop-opacity=".3"/></linearGradient><clipPath id="d"><path d="M4241.79 349.1L3816 45.14c-33.81-31.81-84.36-42.28-128.94-22L3191.82 242c-59.13 26.83-70.6 80-72.4 99.42-1.5 15.36-26.73 278.72-37.4 390.51v.5c-2.89 30-4.69 49-4.69 49l.1.1L3068 883s-4.29 70.6 48.56 108.5l437.38 313.72a128.57 128.57 0 0 0 122.86 10.57l487.74-221.28c59.13-26.83 70.8-64.82 79.78-158.76l44.87-468.59a118.22 118.22 0 0 0-47.4-118.06z" fill="none"/></clipPath><linearGradient id="e" x1="1003.5" y1="3174" x2="850.13" y2="3327.37" gradientTransform="matrix(3.21 0 0 -3.21 451.43 10907.86)" gradientUnits="userSpaceOnUse"><stop offset=".2" stop-color="#29a1e0" stop-opacity="0"/><stop offset="1" stop-color="#35b1e8"/></linearGradient></defs><title>CarFinance247_wide_V2</title><path d="M192.3 788.89c-51.35 0-87.5-43-87.5-98.14v-1c0-53.53 36.15-97.09 87.5-97.09 35.11 0 59.21 16.8 80.17 43l76.5-59.3c-32.49-45.13-80.69-76.62-155.62-76.62C82.26 499.73 0 583.7 0 690.76v1c0 109.68 84.36 190 189.16 190 81.22 0 127.85-35.16 162.43-82.92l-76.5-54.58c-22.01 26.79-44.54 44.63-82.79 44.63zm316.45-202.57c-48.73 0-82.79 8.92-114.75 22l20.43 70.32c25.15-10 48.21-15.74 78.07-15.74 38.25 0 56.59 16.79 56.59 46.18v4.72c-16.24-5.77-41.92-11-68.12-11-66.55 0-111.08 30.44-111.08 89.22v1c0 56.68 41.4 87.64 95.37 87.64 37.2 0 63.93-14.17 83.31-35.69v29.39h98.51V711.22c0-39.89-8.91-69.27-30.39-90.27-22.53-22.56-57.12-34.63-107.94-34.63zm41.4 185.25c0 28.34-20.43 46.71-49.25 46.71-20.43 0-35.11-11.55-35.11-31v-1c0-21 16.77-35.16 45.59-35.16 14.67 0 28.82 3.15 38.77 7.35v13.12zm242.04-123.85v-57.2h-99.55v283.91h99.56v-88.16c0-65.6 29.34-95.51 81.22-95.51h8.38v-105c-47.17-2.06-73.36 23.13-89.61 61.96zm165.56 226.71h101.65V743.24h173.44v-84.5H1059.4v-62.45h191.78v-89.21H957.75v367.35zm330.6 0h99.56V632.5h-99.56v241.93zm334.27-290.21c-40.35 0-66.54 22.57-84.88 46.18v-39.88h-99.56v283.91h99.56V720.67c0-31 17.81-47.76 41.92-47.76 23.58 0 39.82 16.79 39.82 47.76v153.76H1719V688.66c0-64.55-36.12-104.44-96.38-104.44zm267.19 2.1c-48.73 0-82.79 8.92-114.75 22l20.43 70.32c25.15-10 48.21-15.74 78.07-15.74 38.25 0 56.59 16.79 56.59 46.18v4.72c-16.24-5.77-41.92-11-68.12-11-66.53.03-111.03 30.46-111.03 89.2v1c0 56.68 41.39 87.64 95.36 87.64 37.2 0 63.93-14.17 83.31-35.69v29.39h98.51V711.22c0-39.89-8.91-69.27-30.39-90.27-22.57-22.56-57.15-34.63-107.97-34.63zm41.39 185.25c0 28.34-20.43 46.71-49.25 46.71-20.44 0-35.11-11.55-35.11-31v-1c0-21 16.77-35.16 45.59-35.16 14.67 0 28.82 3.15 38.77 7.35v13.12zm326.93-187.35c-40.35 0-66.54 22.57-84.88 46.18v-39.88h-99.55v283.91h99.56V720.67c0-31 17.81-47.76 41.92-47.76 23.58 0 39.82 16.79 39.82 47.76v153.76h99.55V688.66c.01-64.55-36.15-104.44-96.41-104.44zm284.48 213.07c-33.53 0-56.59-27.82-56.59-64.55v-1c0-34.64 23.58-63 55.54-63 24.1 0 39.3 11 52.92 29.92l67.59-50.38c-24.1-38.31-62.88-63.5-121-63.5-89.6 0-152 67.7-152 148v1c0 80.29 62.88 147.46 148.29 147.46 62.35 0 100.08-26.24 126.28-65.07l-66.55-48.28c-15.69 18.38-30.88 29.4-54.46 29.4zm417.51-57.73c0-83.44-45.06-155.34-143-155.34-83.84 0-143 65.6-143 148.52v1c0 88.16 62.88 147.46 152 147.46 56.59 0 95.89-23.09 123.13-57.73l-55-45.66c-20.43 19.94-39.3 28.86-62.88 28.86-30.91 0-53.44-15.74-61.31-46.7h189.68c.39-6.76.39-14.11.39-20.41zm-191.78-30.44c5.24-31 23.05-51.43 49.25-51.43 27.25 0 45.59 19.94 49.26 51.43h-98.51z" fill="#fff"/><path d="M1342.69 499.77a52.44 52.44 0 1 1-52.29 52.44 52.36 52.36 0 0 1 52.29-52.44z" fill="#fff" fill-rule="evenodd"/><path d="M4241.79 349.1L3815.28 44.65A117.54 117.54 0 0 0 3687 24.1L3191.82 242c-59.13 26.83-70.6 80-72.4 99.42-1.5 15.36-26.73 278.72-37.4 390.51v.5c-2.89 30-4.69 49-4.69 49l.1.1L3068 883s-4.29 70.6 48.56 108.5l437.38 313.72a128.57 128.57 0 0 0 122.86 10.57l487.74-221.28c59.13-26.83 70.8-64.82 79.78-158.76l44.87-468.59a118.22 118.22 0 0 0-47.4-118.06z" fill="url(#a)"/><g clip-path="url(#b)" data-name="Pink Botton"><path d="M3055.7 833.54c8-18 163.84-173.42 188.67-185.38s721.29-535.6 721.29-535.6l352.62 272.64-68.81 690.67-656.87 281.21s-465.1-310.33-530.12-407c-37.99-56.31-8.57-112.55-6.78-116.54z" fill="url(#c)"/></g><g clip-path="url(#d)" data-name="Top Left Fade"><path d="M3186.24 1050.34c186.38-64.42 387.32-189.07 619.87-493.42 102.81-134.62 181.09-254.59 237.44-362.39C3789.75 0 3837.32-30.44 3687 24.1c-145 52.65-492.23 187.08-492.23 187.08l-74 77.18c-.05 0-199.49 853.52 65.47 761.98z" fill="url(#e)"/></g><path d="M3404.06 750.46c54.42-39.3 84.76-69.7 84.76-128.39v-1c0-69.17-54.94-116.86-135-116.86-71.16 0-109.88 27.77-149.12 78.61l68.54 57.12c28.78-33 48.14-47.16 72.73-47.16s40.81 14.15 40.81 37.21c0 22-13.08 39.3-47.09 66l-137.07 104.78v76.51h289.87v-82.8h-151.21zm399.12-242.63h-102.55L3510.7 734.22l16.74 71.78h177.37v71.27h98.37V806h46.57v-76h-46.57V507.83zm-98.37 222.72h-87.38l87.38-105.33v105.33zm167.91-220.1v85.42h169.52L3881.1 877.28h112L4154.75 587v-76.55h-282z" fill="#fff"/></svg>