<?xml version="1.0" encoding="utf-8"?>
<!-- Generator: Adobe Illustrator 16.0.0, SVG Export Plug-In . SVG Version: 6.00 Build 0)  -->
<!DOCTYPE svg PUBLIC "-//W3C//DTD SVG 1.1//EN" "http://www.w3.org/Graphics/SVG/1.1/DTD/svg11.dtd">
<svg version="1.1" id="Capa_1" xmlns="http://www.w3.org/2000/svg" xmlns:xlink="http://www.w3.org/1999/xlink" x="0px" y="0px"
	 width="512px" height="512px" viewBox="0 0 512 512" enable-background="new 0 0 512 512" xml:space="preserve">
<path fill="#1399D5" d="M0,489.375l164.881-173.523c-26.928-33.465-43.256-76.664-43.256-123.852c0-105.875,81.836-192,182.438-192
	C404.663,0,486.5,86.125,486.5,192s-81.836,192-182.438,192c-44.838,0-85.885-17.184-117.684-45.523L21.498,512L0,489.375z
	 M304.063,352c83.825,0,152.031-71.781,152.031-160S387.888,32,304.063,32s-152.031,71.781-152.031,160S220.237,352,304.063,352z"/>
</svg>
