<svg xmlns="http://www.w3.org/2000/svg" viewBox="0 0 36 44"><defs><style>.cls-1{fill:#706f6f}</style></defs><title>PhotoIDGREY</title><g id="Layer_2" data-name="Layer 2"><g id="Stock"><path class="cls-1" d="M4.4 10.09h6a1 1 0 1 0 0-2h-6a1 1 0 1 0 0 2zm0 3.59h10a1 1 0 0 0 0-2h-10a1 1 0 1 0 0 2zm0 3.41h4a1 1 0 0 0 0-2h-4a1 1 0 1 0 0 2zm0 3.16h10a1 1 0 0 0 0-2h-10a1 1 0 1 0 0 2z"/><path class="cls-1" d="M26 0H4a4 4 0 0 0-4 4v36a4 4 0 0 0 4 4h28a4 4 0 0 0 4-4V11zm8 40a2 2 0 0 1-2 2H4a2 2 0 0 1-2-2V4a2 2 0 0 1 2-2h18v10a2 2 0 0 0 2 2h10zM24 12V2h1l9 10z" id="Page_2_2x.png" data-name="Page 2@2x.png"/><path class="cls-1" d="M30.45 37.13a5.26 5.26 0 0 0-5.25-5.25h-4.5a5.26 5.26 0 0 0-5.25 5.25v1.5h15zm-13.5 0a3.75 3.75 0 0 1 3.75-3.75h4.5a3.75 3.75 0 0 1 3.75 3.75zm9.75-9.75a3.75 3.75 0 1 0-3.75 3.75 3.75 3.75 0 0 0 3.75-3.75zm-6 0a2.25 2.25 0 1 1 2.25 2.25 2.25 2.25 0 0 1-2.25-2.25z"/></g></g></svg>