<svg xmlns="http://www.w3.org/2000/svg" viewBox="0 0 37.33 44"><defs><style>.cls-1{fill:#706f6f}.cls-2{fill:none}</style></defs><title>SignDocGREY</title><g id="Layer_2" data-name="Layer 2"><g id="Stock"><path class="cls-1" d="M26 0H4a4 4 0 0 0-4 4v36a4 4 0 0 0 4 4h28a4 4 0 0 0 4-4V11zm8 40a2 2 0 0 1-2 2H4a2 2 0 0 1-2-2V4a2 2 0 0 1 2-2h18v10a2 2 0 0 0 2 2h10zM24 12V2h1l9 10z" id="Page_2_2x.png" data-name="Page 2@2x.png"/><path id="_Slice_" data-name="&lt;Slice&gt;" class="cls-2" d="M34.33 20.67h2v2h-2z"/><path id="_Slice_2" data-name="&lt;Slice&gt;" class="cls-2" d="M34.33 21.67h2v5h-2z"/><path id="_Slice_3" data-name="&lt;Slice&gt;" class="cls-2" d="M33.33 25.67h4v2h-4z"/><path class="cls-1" d="M32.15 21.22a3.06 3.06 0 0 0-4-1.7 3.15 3.15 0 0 0-1.74 1.61l-6.14 13.21.73 5.61 4.87-3.21 6.17-13.22a3 3 0 0 0 .11-2.3zm-9.43 16.64l-.33-.86-.88.34-.35-2.68L24 33.58l1 2.73zm2.87-2.28l-1-2.63a.38.38 0 0 0-.5-.21l-2.71 1L26.3 23.2l4.21 1.8zm5.77-12.36l-.52 1.12-4.22-1.8.52-1.12a2.44 2.44 0 0 1 1.3-1.21 2.29 2.29 0 0 1 3 1.27 2.21 2.21 0 0 1-.08 1.75z" id="Pencil_2x.png" data-name="Pencil@2x.png"/></g></g></svg>