<svg xmlns="http://www.w3.org/2000/svg" viewBox="0 0 34.12 53.49"><defs><style>.cls-1{fill:#706f6f}</style></defs><title>SignAgreementGREY</title><g id="Layer_2" data-name="Layer 2"><g id="Stock"><g id="Pages_1_2x.png" data-name="Pages 1@2x.png"><path class="cls-1" d="M13.22 34.12H6.63a.95.95 0 1 0 0 1.9h6.58a.95.95 0 1 0 0-1.9zM10.43 7.58a1 1 0 0 0 .95-.95V3.79a1.9 1.9 0 0 1 1.9-1.9h9V0h-9a3.79 3.79 0 0 0-3.8 3.79v2.84a1 1 0 0 0 .95.95zM6.63 19h3.79a.95.95 0 0 0 0-1.9H6.63a.95.95 0 0 0 0 1.9zM13 28.43H6.63a.95.95 0 1 0 0 1.9H13a.95.95 0 1 0 0-1.9zM27.49 0H22.3v1.9h2.34v5.68a1.9 1.9 0 0 0 1.9 1.9h5.69v19a1.9 1.9 0 0 1-1.9 1.9h-2.84a.95.95 0 0 0 0 1.9h2.84a3.79 3.79 0 0 0 3.79-3.79V7.58zm-.95 7.58V2l4.94 5.54z"/><path class="cls-1" d="M18 9.48H3.79A3.79 3.79 0 0 0 0 13.27v24.64a3.79 3.79 0 0 0 3.79 3.79h10.55v-1.9H3.79a1.89 1.89 0 0 1-1.9-1.9V13.27a1.9 1.9 0 0 1 1.9-1.9h11.37v5.69a1.9 1.9 0 0 0 1.9 1.9h5.69v19a1.9 1.9 0 0 1-1.9 1.9h-.95v1.9h.95a3.79 3.79 0 0 0 3.79-3.79V17.06zm-.95 7.58v-5.54L22 17.06z"/><path class="cls-1" d="M5.69 23.69a1 1 0 0 0 .95.95H18a.95.95 0 0 0 0-1.9H6.63a1 1 0 0 0-.94.95z"/></g><path class="cls-1" d="M21.83 47.19a.78.78 0 0 0-.56.23l-3.38 3.38V35.36a.79.79 0 1 0-1.58 0V50.8l-3.39-3.39a.79.79 0 1 0-1.12 1.11l4.73 4.73a.79.79 0 0 0 1.11 0l4.73-4.73a.79.79 0 0 0-.56-1.35z" id="Inbox_Upload" data-name="Inbox Upload"/></g></g></svg>