<svg xmlns="http://www.w3.org/2000/svg" viewBox="0 0 50 35.75"><defs><style>.cls-1{fill:#706f6f}</style></defs><title>Vehicle</title><g id="Layer_2" data-name="Layer 2"><g id="Top"><path class="cls-1" d="M13.15 17.5l-4.7-.68a1.16 1.16 0 0 0-.33 2.3l4.69.68A1.39 1.39 0 0 1 14 21.17v.09H8a1.16 1.16 0 0 0 0 2.33h8.31v-2.42a3.73 3.73 0 0 0-3.16-3.67z"/><path class="cls-1" d="M48.11 9.77h-3.47A1.53 1.53 0 0 1 43.29 9l-3.47-6.38A5 5 0 0 0 35.41 0H14.59a5 5 0 0 0-4.41 2.62L6.72 9a1.54 1.54 0 0 1-1.35.8H1.89A1.89 1.89 0 0 0 0 11.66v2.45a1.9 1.9 0 0 0 1.24 1.78l2.31.84v14.86a4.16 4.16 0 0 0 4.16 4.16h1.67a4.16 4.16 0 0 0 4.16-4.16v-2.31h22.92v2.31a4.16 4.16 0 0 0 4.16 4.16h1.67a4.16 4.16 0 0 0 4.16-4.16V16.73l2.31-.84A1.9 1.9 0 0 0 50 14.11v-2.45a1.89 1.89 0 0 0-1.89-1.89zm-.43 4l-3.55 1.3v16.52a1.83 1.83 0 0 1-1.83 1.83h-1.68a1.83 1.83 0 0 1-1.83-1.83v-2.31h2.87a1.16 1.16 0 0 0 0-2.33H8.34a1.16 1.16 0 1 0 0 2.33h2.87v2.31a1.83 1.83 0 0 1-1.83 1.83H7.71a1.83 1.83 0 0 1-1.83-1.83V15.1l-3.55-1.3v-1.71h3a3.86 3.86 0 0 0 3.39-2l3.46-6.34a2.7 2.7 0 0 1 2.37-1.41h20.86a2.7 2.7 0 0 1 2.37 1.41l3.46 6.34a3.87 3.87 0 0 0 3.4 2h3z"/><path class="cls-1" d="M42 21.26h-6v-.09a1.39 1.39 0 0 1 1.19-1.37l4.69-.68a1.16 1.16 0 1 0-.33-2.3l-4.7.68a3.73 3.73 0 0 0-3.17 3.67v2.42H42a1.16 1.16 0 1 0 0-2.33zm-23.38 1.42v.37l.06.11.05.08.08.1.06.06.1.08h.07l.12.06h11.08a1.15 1.15 0 0 0 .37-.07 1.15 1.15 0 0 0 .3-.19h.05a1.16 1.16 0 0 0 .22-.28v-.05a1.15 1.15 0 0 0 .11-.36l.71-5.35H18zm10.78-3.11l-.21 1.81h-8.38l-.21-1.81z"/></g></g></svg>