<svg width="23" height="25" xmlns="http://www.w3.org/2000/svg"><path d="M9 10A5 5 0 1 1 9 0a5 5 0 0 1 0 10zm0-1a4 4 0 1 0 0-8 4 4 0 0 0 0 8zM1.5 23.61a.5.5 0 1 1-1 0c0-6.935 2.348-10.11 8-10.11 1.927 0 3.47.374 4.673 1.143a5.849 5.849 0 0 1 1.702 1.665.5.5 0 1 1-.827.562 4.85 4.85 0 0 0-1.414-1.384c-1.027-.657-2.385-.986-4.134-.986-5.024 0-7 2.673-7 9.11zM18 20v-3.5a.5.5 0 1 1 1 0V20h3.5a.5.5 0 1 1 0 1H19v3.5a.5.5 0 1 1-1 0V21h-3.387a.5.5 0 0 1 0-1H18z" fill="#4A4A4A" fill-rule="nonzero"/></svg>