<svg width="28" height="26" xmlns="http://www.w3.org/2000/svg"><path d="M7.166 25.662c-.732.385-1.587-.238-1.447-1.055l1.382-8.084-5.856-5.725c-.591-.579-.265-1.587.553-1.706l8.093-1.18L13.51.558a.996.996 0 0 1 1.788 0l3.62 7.356 8.092 1.18c.818.118 1.144 1.126.553 1.705l-5.856 5.725 1.382 8.084c.14.817-.715 1.44-1.447 1.055l-7.238-3.817-7.238 3.817zm6.774-5.832a.994.994 0 0 1 .928 0l5.914 3.118-1.13-6.605a1.002 1.002 0 0 1 .287-.885l4.785-4.678-6.612-.964a.997.997 0 0 1-.75-.547l-2.958-6.01-2.957 6.01a.997.997 0 0 1-.75.547l-6.613.964 4.785 4.678c.235.23.342.56.286.885l-1.13 6.605 5.915-3.118z" fill="#4A4A4A" fill-rule="nonzero"/></svg>