
<svg width="29" height="17" xmlns="http://www.w3.org/2000/svg"><g fill-rule="nonzero" fill="none"><path d="M0-6h30v30H0z"/><path d="M10.153 14a3.501 3.501 0 0 1-6.842-.077 4.933 4.933 0 0 1-3.265-3.98A1 1 0 0 1 0 9.64a28.834 28.834 0 0 1 0-.378h.002C.083 3.174 2.147 0 7.646 0h7.4c.062 0 .121.005.18.016 1.482.116 2.804.854 3.986 2.1l2.663 2.32 3.885.905A4.191 4.191 0 0 1 29 9.427v2.117a2.471 2.471 0 0 1-2.469 2.474H24.19A3.501 3.501 0 0 1 17.367 14h-7.214zm-.131-2h7.476a3.501 3.501 0 0 1 6.57.018h2.463a.471.471 0 0 0 .469-.474V9.427a2.191 2.191 0 0 0-1.693-2.138l-4.37-1.019-.188-.163-2.918-2.547C16.82 2.5 15.856 2 14.812 2H7.646C3.473 2 2.051 4.188 2.001 9.352a2.932 2.932 0 0 0 1.523 2.485 3.5 3.5 0 0 1 6.498.163zM16.5 5a1 1 0 0 1 0 2H12a1 1 0 0 1 0-2h4.5zm-9.76 9.72a1.5 1.5 0 1 0 0-3 1.5 1.5 0 0 0 0 3zm14.04 0a1.5 1.5 0 1 0 0-3 1.5 1.5 0 0 0 0 3z" fill="#4A4A4A"/></g></svg>