<svg width="23" height="23" xmlns="http://www.w3.org/2000/svg"><path d="M16.393 7.61a9.001 9.001 0 1 1-3.245-2.459 4.195 4.195 0 0 1-.22-1.34c0-1.377.678-2.66 1.848-3.595l.312-.25.313.25c1.169.935 1.847 2.218 1.847 3.596 0 .808-.233 1.584-.663 2.276a4.118 4.118 0 0 1 2.282-.687c1.27 0 2.445.577 3.223 1.548a.5.5 0 0 1-.78.626A3.122 3.122 0 0 0 18.867 6.4c-.963 0-1.852.437-2.443 1.174a.506.506 0 0 1-.03.035zM15.1 6.342c.739-.713 1.148-1.6 1.148-2.53 0-.936-.414-1.827-1.16-2.542-.746.715-1.16 1.606-1.16 2.542 0 .891.376 1.742 1.057 2.44l.115.09zm-.777.662A8.002 8.002 0 0 0 3.822 19.028 8 8 0 1 0 15.029 7.611l-.253-.203a5.614 5.614 0 0 1-.453-.404zM4.697 18.153a.5.5 0 1 1 .708-.708.5.5 0 0 1-.708.708z" fill="#4A4A4A" fill-rule="nonzero"/></svg>